%TF.GenerationSoftware,KiCad,Pcbnew,9.0.7*%
%TF.CreationDate,2026-05-21T23:08:07+02:00*%
%TF.ProjectId,GalernaDsp,47616c65-726e-4614-9473-702e6b696361,rev?*%
%TF.SameCoordinates,Original*%
%TF.FileFunction,Copper,L4,Bot*%
%TF.FilePolarity,Positive*%
%FSLAX46Y46*%
G04 Gerber Fmt 4.6, Leading zero omitted, Abs format (unit mm)*
G04 Created by KiCad (PCBNEW 9.0.7) date 2026-05-21 23:08:07*
%MOMM*%
%LPD*%
G01*
G04 APERTURE LIST*
%TA.AperFunction,ComponentPad*%
%ADD10C,1.508000*%
%TD*%
%TA.AperFunction,ComponentPad*%
%ADD11C,3.216000*%
%TD*%
%TA.AperFunction,ComponentPad*%
%ADD12C,3.600000*%
%TD*%
%TA.AperFunction,ConnectorPad*%
%ADD13C,5.600000*%
%TD*%
%TA.AperFunction,ComponentPad*%
%ADD14R,2.775000X2.775000*%
%TD*%
%TA.AperFunction,ComponentPad*%
%ADD15C,2.775000*%
%TD*%
%TA.AperFunction,ComponentPad*%
%ADD16R,1.498600X1.498600*%
%TD*%
%TA.AperFunction,ComponentPad*%
%ADD17C,1.498600*%
%TD*%
%TA.AperFunction,ComponentPad*%
%ADD18O,1.700000X2.900000*%
%TD*%
%TA.AperFunction,WasherPad*%
%ADD19C,4.016000*%
%TD*%
%TA.AperFunction,ComponentPad*%
%ADD20R,1.879600X1.879600*%
%TD*%
%TA.AperFunction,ComponentPad*%
%ADD21C,1.879600*%
%TD*%
%TA.AperFunction,ComponentPad*%
%ADD22C,1.600200*%
%TD*%
%TA.AperFunction,HeatsinkPad*%
%ADD23O,2.100000X1.000000*%
%TD*%
%TA.AperFunction,HeatsinkPad*%
%ADD24O,1.800000X1.000000*%
%TD*%
%TA.AperFunction,ViaPad*%
%ADD25C,0.450000*%
%TD*%
%TA.AperFunction,Conductor*%
%ADD26C,0.300000*%
%TD*%
%TA.AperFunction,Conductor*%
%ADD27C,0.500000*%
%TD*%
G04 APERTURE END LIST*
D10*
%TO.P,POT_6,1*%
%TO.N,+3V3*%
X33350000Y-116300000D03*
%TO.P,POT_6,2*%
%TO.N,/[3] Input Control/POT_6_CTL*%
X35850000Y-116300000D03*
%TO.P,POT_6,3*%
%TO.N,GND*%
X38350000Y-116300000D03*
D11*
%TO.P,POT_6,NC1*%
%TO.N,unconnected-(POT_6-PadNC1)*%
X31450000Y-109300000D03*
%TO.P,POT_6,NC2*%
%TO.N,unconnected-(POT_6-PadNC2)*%
X40250000Y-109300000D03*
%TD*%
D10*
%TO.P,POT_8,1*%
%TO.N,+3V3*%
X73350000Y-116300000D03*
%TO.P,POT_8,2*%
%TO.N,/[3] Input Control/POT_7_CTL*%
X75850000Y-116300000D03*
%TO.P,POT_8,3*%
%TO.N,GND*%
X78350000Y-116300000D03*
D11*
%TO.P,POT_8,NC1*%
%TO.N,unconnected-(POT_8-PadNC1)*%
X71450000Y-109300000D03*
%TO.P,POT_8,NC2*%
%TO.N,unconnected-(POT_8-PadNC2)*%
X80250000Y-109300000D03*
%TD*%
D12*
%TO.P,H4,1*%
%TO.N,N/C*%
X115500000Y-115500000D03*
D13*
X115500000Y-115500000D03*
%TD*%
D14*
%TO.P,SW2,1*%
%TO.N,+3V3*%
X15875000Y-64100000D03*
D15*
%TO.P,SW2,2*%
%TO.N,SW_3*%
X15875000Y-68800000D03*
%TO.P,SW2,3*%
%TO.N,GND*%
X15875000Y-73500000D03*
%TD*%
D10*
%TO.P,POT_1,1*%
%TO.N,+3V3*%
X13350000Y-96300000D03*
%TO.P,POT_1,2*%
%TO.N,/[3] Input Control/POT_0_CTL*%
X15850000Y-96300000D03*
%TO.P,POT_1,3*%
%TO.N,GND*%
X18350000Y-96300000D03*
D11*
%TO.P,POT_1,NC1*%
%TO.N,unconnected-(POT_1-PadNC1)*%
X11450000Y-89300000D03*
%TO.P,POT_1,NC2*%
%TO.N,unconnected-(POT_1-PadNC2)*%
X20250000Y-89300000D03*
%TD*%
D10*
%TO.P,POT_2,1*%
%TO.N,+3V3*%
X33350000Y-96300000D03*
%TO.P,POT_2,2*%
%TO.N,/[3] Input Control/POT_4_CTL*%
X35850000Y-96300000D03*
%TO.P,POT_2,3*%
%TO.N,GND*%
X38350000Y-96300000D03*
D11*
%TO.P,POT_2,NC1*%
%TO.N,unconnected-(POT_2-PadNC1)*%
X31450000Y-89300000D03*
%TO.P,POT_2,NC2*%
%TO.N,unconnected-(POT_2-PadNC2)*%
X40250000Y-89300000D03*
%TD*%
D16*
%TO.P,BTN2,1*%
%TO.N,PUSH_BTN_1*%
X31502499Y-51049999D03*
D17*
%TO.P,BTN2,2*%
X38002501Y-51049999D03*
%TO.P,BTN2,3*%
%TO.N,GND*%
X31502499Y-55550000D03*
%TO.P,BTN2,4*%
X38002501Y-55550000D03*
%TD*%
D12*
%TO.P,H1,1*%
%TO.N,N/C*%
X5500000Y-5500000D03*
D13*
X5500000Y-5500000D03*
%TD*%
D12*
%TO.P,H3,1*%
%TO.N,N/C*%
X5500000Y-115500000D03*
D13*
X5500000Y-115500000D03*
%TD*%
D18*
%TO.P,SW_1,1,1*%
%TO.N,GND*%
X57800000Y-4900000D03*
%TO.P,SW_1,2,2*%
%TO.N,Net-(D1-A)*%
X62600000Y-4900000D03*
%TO.P,SW_1,3,3*%
%TO.N,+3V3*%
X67400000Y-4900000D03*
%TD*%
D19*
%TO.P,ER-OLEDM015-2W1,*%
%TO.N,*%
X12680000Y-4500000D03*
X12680000Y-37500000D03*
X50080000Y-4500000D03*
X50080000Y-37500000D03*
D20*
%TO.P,ER-OLEDM015-2W1,1,GND*%
%TO.N,GND*%
X23760000Y-4000000D03*
D21*
%TO.P,ER-OLEDM015-2W1,2,VCC*%
%TO.N,+3V3*%
X26300000Y-4000000D03*
%TO.P,ER-OLEDM015-2W1,3,SCL*%
%TO.N,/[1] MCU/OLED_SPI_SCK*%
X28840000Y-4000000D03*
%TO.P,ER-OLEDM015-2W1,4,SDA*%
%TO.N,/[1] MCU/OLED_SPI_DATA*%
X31380000Y-4000000D03*
%TO.P,ER-OLEDM015-2W1,5,RES*%
%TO.N,/[1] MCU/OLED_RST*%
X33920000Y-4000000D03*
%TO.P,ER-OLEDM015-2W1,6,DC*%
%TO.N,/[1] MCU/OLED_DC*%
X36460000Y-4000000D03*
%TO.P,ER-OLEDM015-2W1,7,CS*%
%TO.N,/[1] MCU/OLED_SPI_CS*%
X39000000Y-4000000D03*
%TD*%
D14*
%TO.P,SW1,1*%
%TO.N,+3V3*%
X35000000Y-64100000D03*
D15*
%TO.P,SW1,2*%
%TO.N,SW_2*%
X35000000Y-68800000D03*
%TO.P,SW1,3*%
%TO.N,GND*%
X35000000Y-73500000D03*
%TD*%
D22*
%TO.P,R16,1,1*%
%TO.N,GND*%
X72861601Y-96970099D03*
%TO.P,R16,2,2*%
%TO.N,/[2] Audio/AUDIO_WIPER_OUT_R*%
X75361601Y-96970099D03*
%TO.P,R16,3,3*%
%TO.N,/[2] Audio/AUDIO_R_OUT*%
X77861601Y-96970099D03*
%TO.P,R16,4,4*%
%TO.N,GND*%
X72861601Y-94470099D03*
%TO.P,R16,5,5*%
%TO.N,/[2] Audio/AUDIO_WIPER_OUT_L*%
X75361601Y-94470099D03*
%TO.P,R16,6,6*%
%TO.N,/[2] Audio/AUDIO_L_OUT*%
X77861601Y-94470099D03*
%TD*%
D10*
%TO.P,POT_4,1*%
%TO.N,+3V3*%
X91820000Y-116030000D03*
%TO.P,POT_4,2*%
%TO.N,/[3] Input Control/POT_5_CTL*%
X94320000Y-116030000D03*
%TO.P,POT_4,3*%
%TO.N,GND*%
X96820000Y-116030000D03*
D11*
%TO.P,POT_4,NC1*%
%TO.N,unconnected-(POT_4-PadNC1)*%
X89920000Y-109030000D03*
%TO.P,POT_4,NC2*%
%TO.N,unconnected-(POT_4-PadNC2)*%
X98720000Y-109030000D03*
%TD*%
D10*
%TO.P,POT_5,1*%
%TO.N,+3V3*%
X13350000Y-116300000D03*
%TO.P,POT_5,2*%
%TO.N,/[3] Input Control/POT_2_CTL*%
X15850000Y-116300000D03*
%TO.P,POT_5,3*%
%TO.N,GND*%
X18350000Y-116300000D03*
D11*
%TO.P,POT_5,NC1*%
%TO.N,unconnected-(POT_5-PadNC1)*%
X11450000Y-109300000D03*
%TO.P,POT_5,NC2*%
%TO.N,unconnected-(POT_5-PadNC2)*%
X20250000Y-109300000D03*
%TD*%
D12*
%TO.P,H2,1*%
%TO.N,N/C*%
X115500000Y-5500000D03*
D13*
X115500000Y-5500000D03*
%TD*%
D10*
%TO.P,POT_3,1*%
%TO.N,+3V3*%
X53350000Y-96300000D03*
%TO.P,POT_3,2*%
%TO.N,/[3] Input Control/POT_1_CTL*%
X55850000Y-96300000D03*
%TO.P,POT_3,3*%
%TO.N,GND*%
X58350000Y-96300000D03*
D11*
%TO.P,POT_3,NC1*%
%TO.N,unconnected-(POT_3-PadNC1)*%
X51450000Y-89300000D03*
%TO.P,POT_3,NC2*%
%TO.N,unconnected-(POT_3-PadNC2)*%
X60250000Y-89300000D03*
%TD*%
D23*
%TO.P,J5,S1,SHIELD*%
%TO.N,GND*%
X114820000Y-42250000D03*
D24*
X119000000Y-42250000D03*
D23*
X114820000Y-33610000D03*
D24*
X119000000Y-33610000D03*
%TD*%
D10*
%TO.P,POT_7,1*%
%TO.N,+3V3*%
X53350000Y-116300000D03*
%TO.P,POT_7,2*%
%TO.N,/[3] Input Control/POT_3_CTL*%
X55850000Y-116300000D03*
%TO.P,POT_7,3*%
%TO.N,GND*%
X58350000Y-116300000D03*
D11*
%TO.P,POT_7,NC1*%
%TO.N,unconnected-(POT_7-PadNC1)*%
X51450000Y-109300000D03*
%TO.P,POT_7,NC2*%
%TO.N,unconnected-(POT_7-PadNC2)*%
X60250000Y-109300000D03*
%TD*%
D16*
%TO.P,BTN1,1*%
%TO.N,PUSH_BTN_0*%
X12377499Y-51049999D03*
D17*
%TO.P,BTN1,2*%
X18877501Y-51049999D03*
%TO.P,BTN1,3*%
%TO.N,GND*%
X12377499Y-55550000D03*
%TO.P,BTN1,4*%
X18877501Y-55550000D03*
%TD*%
D25*
%TO.N,GND*%
X97500000Y-10000000D03*
X100000000Y-67500000D03*
X42500000Y-50000000D03*
X83550000Y-31490000D03*
X15000000Y-30000000D03*
X25000000Y-17500000D03*
X65000000Y-72500000D03*
X52500000Y-32500000D03*
X92500000Y-82500000D03*
X88270000Y-18440000D03*
X32200000Y-98050000D03*
X45000000Y-50000000D03*
X57500000Y-30000000D03*
X45000000Y-115000000D03*
X56710000Y-58660000D03*
X76950000Y-24580000D03*
X87500000Y-75000000D03*
X75000000Y-80000000D03*
X92500000Y-67500000D03*
X109075000Y-25201020D03*
X17500000Y-25000000D03*
X97500000Y-32500000D03*
X22500000Y-15000000D03*
X90000000Y-40000000D03*
X30000000Y-12500000D03*
X102500000Y-10000000D03*
X70000000Y-67500000D03*
X77500000Y-5000000D03*
X86600000Y-2100000D03*
X10000000Y-65000000D03*
X70000000Y-65000000D03*
X22500000Y-72500000D03*
X37500000Y-45000000D03*
X105000000Y-45000000D03*
X47500000Y-115000000D03*
X97500000Y-35000000D03*
X102500000Y-57000000D03*
X105000000Y-35000000D03*
X47500000Y-90000000D03*
X37500000Y-32500000D03*
X45000000Y-15000000D03*
X74040000Y-34710000D03*
X53540000Y-58660000D03*
X75000000Y-10000000D03*
X109975000Y-25201020D03*
X10000000Y-60000000D03*
X57445210Y-22462815D03*
X57500000Y-20000000D03*
X10000000Y-45000000D03*
X85000000Y-75000000D03*
X57160000Y-50890000D03*
X25000000Y-85000000D03*
X25000000Y-50000000D03*
X75000000Y-57500000D03*
X112500000Y-17500000D03*
X50000000Y-32500000D03*
X105000000Y-7500000D03*
X72500000Y-72500000D03*
X97500000Y-22500000D03*
X100000000Y-45000000D03*
X77500000Y-7500000D03*
X95000000Y-102500000D03*
X98510000Y-60390000D03*
X92500000Y-102500000D03*
X30000000Y-40000000D03*
X85000000Y-31400000D03*
X32500000Y-12500000D03*
X112410000Y-25160000D03*
X27500000Y-95000000D03*
X82700000Y-43500000D03*
X50000000Y-97500000D03*
X72500000Y-60000000D03*
X55305000Y-9590000D03*
X72050000Y-17400000D03*
X55000000Y-25000000D03*
X72510000Y-114600000D03*
X105875000Y-23101020D03*
X62500000Y-22500000D03*
X10000000Y-85000000D03*
X15000000Y-27500000D03*
X89800000Y-29400000D03*
X70000000Y-62500000D03*
X97500000Y-5000000D03*
X15000000Y-80000000D03*
X40000000Y-25000000D03*
X90000000Y-100000000D03*
X83700000Y-78400000D03*
X42500000Y-37500000D03*
X10000000Y-75000000D03*
X92150000Y-21350000D03*
X85000000Y-70000000D03*
X92800000Y-114150000D03*
X102500000Y-45000000D03*
X65000000Y-75000000D03*
X86030000Y-28230000D03*
X50570000Y-58630000D03*
X94280000Y-49910000D03*
X100000000Y-40000000D03*
X111220000Y-20980000D03*
X81570000Y-20950000D03*
X90000000Y-70000000D03*
X77500000Y-10000000D03*
X32500000Y-27500000D03*
X40000000Y-27500000D03*
X84200000Y-92460000D03*
X67500000Y-72500000D03*
X92500000Y-42500000D03*
X115000000Y-31750000D03*
X85680000Y-18520000D03*
X76290000Y-35880000D03*
X57725000Y-75100000D03*
X22500000Y-12500000D03*
X47500000Y-32500000D03*
X32500000Y-15000000D03*
X67600000Y-28000000D03*
X90000000Y-67500000D03*
X90000000Y-75000000D03*
X100000000Y-32500000D03*
X32500000Y-7500000D03*
X60000000Y-15000000D03*
X30000000Y-45000000D03*
X47500000Y-52500000D03*
X87425000Y-92675000D03*
X116150000Y-25700000D03*
X62790000Y-51890000D03*
X79875000Y-4750000D03*
X102500000Y-55000000D03*
X75000000Y-62500000D03*
X75000000Y-77500000D03*
X97500000Y-93875000D03*
X44450000Y-59450000D03*
X45000000Y-30000000D03*
X112750000Y-34500000D03*
X55000000Y-37500000D03*
X75210000Y-40620000D03*
X75000000Y-67500000D03*
X73200000Y-40450000D03*
X115000000Y-50000000D03*
X117550000Y-87675000D03*
X44550000Y-56600000D03*
X97850000Y-47600000D03*
X25000000Y-45000000D03*
X100000000Y-70000000D03*
X100000000Y-72500000D03*
X102500000Y-53000000D03*
X20000000Y-40000000D03*
X98900000Y-46850000D03*
X77590000Y-50400000D03*
X85000000Y-72500000D03*
X99000000Y-47800000D03*
X105000000Y-82500000D03*
X102500000Y-7500000D03*
X100000000Y-57000000D03*
X100910000Y-60840000D03*
X70000000Y-77500000D03*
X85060000Y-58880000D03*
X81800000Y-24600000D03*
X32500000Y-25000000D03*
X91550000Y-2225000D03*
X25000000Y-60000000D03*
X75000000Y-5000000D03*
X117500000Y-30000000D03*
X25000000Y-40000000D03*
X25000000Y-22500000D03*
X92500000Y-75000000D03*
X84140000Y-53000000D03*
X79660000Y-65300000D03*
X75000000Y-65000000D03*
X20000000Y-27500000D03*
X17500000Y-27500000D03*
X20000000Y-30000000D03*
X79600000Y-36075000D03*
X42500000Y-27500000D03*
X105000000Y-42500000D03*
X97500000Y-20000000D03*
X84440000Y-49920000D03*
X57500000Y-12500000D03*
X107500000Y-32500000D03*
X52500000Y-67500000D03*
X45000000Y-27500000D03*
X112500000Y-45000000D03*
X75000000Y-7500000D03*
X22500000Y-27500000D03*
X72800000Y-34300000D03*
X27500000Y-97500000D03*
X12300000Y-98500000D03*
X22500000Y-17500000D03*
X97500000Y-45000000D03*
X112500000Y-30000000D03*
X72500000Y-7500000D03*
X100000000Y-7500000D03*
X10000000Y-70000000D03*
X35000000Y-7500000D03*
X25000000Y-97500000D03*
X97500000Y-67500000D03*
X115000000Y-27500000D03*
X47500000Y-72500000D03*
X42500000Y-10000000D03*
X46650000Y-64990000D03*
X27500000Y-72500000D03*
X17500000Y-15000000D03*
X72500000Y-75000000D03*
X47500000Y-87500000D03*
X102500000Y-42500000D03*
X99410000Y-60390000D03*
X100000000Y-55000000D03*
X115000000Y-17500000D03*
X89000000Y-65600000D03*
X70000000Y-60000000D03*
X97500000Y-12500000D03*
X96150000Y-4800000D03*
X65000000Y-110000000D03*
X100000000Y-5000000D03*
X40000000Y-47500000D03*
X47500000Y-95000000D03*
X30000000Y-15000000D03*
X72500000Y-65000000D03*
X75250000Y-27960000D03*
X35000000Y-10000000D03*
X30000000Y-85000000D03*
X70000000Y-75000000D03*
X79990000Y-39940000D03*
X85880000Y-58860000D03*
X91450000Y-58280000D03*
X45000000Y-25000000D03*
X25000000Y-15000000D03*
X22100000Y-4000000D03*
X97500000Y-55000000D03*
X112050000Y-37500000D03*
X21750000Y-63200000D03*
X97500000Y-30000000D03*
X54440000Y-50930000D03*
X85880000Y-58170000D03*
X52400000Y-114600000D03*
X40000000Y-17500000D03*
X67500000Y-80000000D03*
X20000000Y-45000000D03*
X35000000Y-15000000D03*
X75000000Y-70000000D03*
X47500000Y-110000000D03*
X100000000Y-65000000D03*
X97500000Y-57000000D03*
X112500000Y-27500000D03*
X100000000Y-42500000D03*
X105000000Y-67500000D03*
X46460000Y-78390000D03*
X82350000Y-66920000D03*
X61700000Y-25300000D03*
X5000000Y-100000000D03*
X90000000Y-82500000D03*
X112500000Y-50000000D03*
X25000000Y-35000000D03*
X45000000Y-12500000D03*
X70000000Y-80000000D03*
X90000000Y-62500000D03*
X63550000Y-39575000D03*
X76000000Y-25300000D03*
X45000000Y-22500000D03*
X67500000Y-67500000D03*
X117500000Y-50000000D03*
X106460000Y-48980000D03*
X72500000Y-77500000D03*
X35000000Y-12500000D03*
X92500000Y-32500000D03*
X25000000Y-95000000D03*
X81160000Y-29450000D03*
X65000000Y-80000000D03*
X72500000Y-70000000D03*
X97500000Y-17500000D03*
X15000000Y-45000000D03*
X55000000Y-65000000D03*
X102500000Y-82500000D03*
X112500000Y-20000000D03*
X84800000Y-65800000D03*
X81990000Y-54510000D03*
X77500000Y-12500000D03*
X5000000Y-90000000D03*
X5000000Y-105000000D03*
X24450000Y-8500000D03*
X97500000Y-7500000D03*
X97500000Y-65000000D03*
X84290000Y-58910000D03*
X97500000Y-15000000D03*
X110000000Y-30000000D03*
X56450000Y-75100000D03*
X83140000Y-13670000D03*
X55000000Y-15000000D03*
X22500000Y-30000000D03*
X97500000Y-25000000D03*
X113000000Y-42000000D03*
X95000000Y-105000000D03*
X67500000Y-62500000D03*
X67500000Y-77500000D03*
X47500000Y-17500000D03*
X110000000Y-28000000D03*
X56850000Y-111150000D03*
X72500000Y-80000000D03*
X83000000Y-32200000D03*
X105000000Y-55000000D03*
X115000000Y-95000000D03*
X92740000Y-18390000D03*
X88200000Y-40800000D03*
X95000000Y-100000000D03*
X110000000Y-105000000D03*
X86950000Y-92200000D03*
X57590000Y-46480000D03*
X97800000Y-48900000D03*
X73325000Y-17400000D03*
X88275000Y-61350000D03*
X45000000Y-17500000D03*
X100000000Y-35000000D03*
X70650000Y-29350000D03*
X92500000Y-65000000D03*
X100000000Y-105000000D03*
X55250000Y-45720000D03*
X75000000Y-75000000D03*
X27500000Y-77500000D03*
X102500000Y-35000000D03*
X108750000Y-48570000D03*
X89690000Y-15540000D03*
X102500000Y-65000000D03*
X55000000Y-32500000D03*
X90900000Y-9080000D03*
X69525000Y-17425000D03*
X84270000Y-58195000D03*
X65000000Y-77500000D03*
X90000000Y-102500000D03*
X105000000Y-112500000D03*
X47500000Y-105000000D03*
X72500000Y-62500000D03*
X92500000Y-70000000D03*
X100000000Y-17500000D03*
X17500000Y-17500000D03*
X5000000Y-95000000D03*
X100000000Y-12500000D03*
X75000000Y-55000000D03*
X117500000Y-15000000D03*
X83300000Y-18500000D03*
X90350000Y-37950000D03*
X45000000Y-110000000D03*
X100000000Y-82500000D03*
X65000000Y-115000000D03*
X75000000Y-60000000D03*
X55500000Y-42900000D03*
X20000000Y-35000000D03*
X42500000Y-12500000D03*
X115000000Y-47500000D03*
X90000000Y-72500000D03*
X83800000Y-63400000D03*
X102500000Y-12500000D03*
X35000000Y-45000000D03*
X59000000Y-75100000D03*
X42500000Y-25000000D03*
X67500000Y-75000000D03*
X105000000Y-10000000D03*
X113000000Y-41250000D03*
X25000000Y-30000000D03*
X17500000Y-12500000D03*
X47500000Y-27500000D03*
X77500000Y-52500000D03*
X75000000Y-72500000D03*
X115000000Y-15000000D03*
X90000000Y-42500000D03*
X115000000Y-100000000D03*
X78510000Y-65310000D03*
X84800000Y-63400000D03*
X105000000Y-57000000D03*
X117500000Y-12500000D03*
X17500000Y-20000000D03*
X84250000Y-57480000D03*
X89000000Y-64600000D03*
X85000000Y-100000000D03*
X105000000Y-70000000D03*
X55000000Y-35000000D03*
X117500000Y-62575000D03*
X72500000Y-57500000D03*
X17500000Y-30000000D03*
X115000000Y-30000000D03*
X10000000Y-80000000D03*
X87500000Y-72500000D03*
X104475000Y-23101020D03*
X97500000Y-53000000D03*
X110000000Y-32500000D03*
X100000000Y-20000000D03*
X112500000Y-15000000D03*
X90700000Y-54000000D03*
X88680000Y-49590000D03*
X110000000Y-100000000D03*
X100910000Y-60040000D03*
X83130000Y-8880000D03*
X47500000Y-97500000D03*
X89050000Y-17000000D03*
X112500000Y-12500000D03*
X113000000Y-33750000D03*
X48200000Y-69300000D03*
X85050000Y-58180000D03*
X105000000Y-53000000D03*
X85880000Y-57480000D03*
X73290000Y-38600000D03*
X52350000Y-98300000D03*
X100000000Y-10000000D03*
X50090000Y-65240000D03*
X52290000Y-44690000D03*
X25000000Y-25000000D03*
X100000000Y-15000000D03*
X107500000Y-30000000D03*
X57500000Y-15000000D03*
X97500000Y-42500000D03*
X45000000Y-52500000D03*
X102500000Y-40000000D03*
X55420000Y-68950000D03*
X92500000Y-85000000D03*
X72600000Y-42600000D03*
X50000000Y-30000000D03*
X87200000Y-52990000D03*
X22500000Y-85000000D03*
X47500000Y-55000000D03*
X100000000Y-53000000D03*
X72500000Y-67500000D03*
X67500000Y-70000000D03*
X72500000Y-10000000D03*
X15000000Y-25000000D03*
X97500000Y-40000000D03*
X108790000Y-49260000D03*
X60000000Y-12500000D03*
X110000000Y-112500000D03*
X29400000Y-63200000D03*
X115000000Y-105000000D03*
X115000000Y-110000000D03*
X117500000Y-47500000D03*
X102175000Y-25701020D03*
X85220000Y-84740000D03*
X55000000Y-20000000D03*
X77170000Y-54690000D03*
X5000000Y-85000000D03*
X102500000Y-67500000D03*
X50000000Y-12500000D03*
X92500000Y-72500000D03*
X105000000Y-12500000D03*
X68225000Y-38925000D03*
X85550000Y-38460000D03*
X35000000Y-30000000D03*
X47500000Y-92500000D03*
X62500000Y-20000000D03*
X85740000Y-20480000D03*
X112500000Y-47500000D03*
X64000000Y-35650000D03*
X117500000Y-27500000D03*
X56760000Y-67690000D03*
X75000000Y-12500000D03*
X71960000Y-36030000D03*
X95160000Y-21400000D03*
X25000000Y-110000000D03*
X10000000Y-105000000D03*
X59900000Y-69570000D03*
X85280000Y-9080000D03*
X25000000Y-105000000D03*
X72500000Y-5000000D03*
X105000000Y-105000000D03*
X59150000Y-39900000D03*
X70000000Y-72500000D03*
X92500000Y-35000000D03*
X97660000Y-91610000D03*
X32500000Y-85000000D03*
X47500000Y-57500000D03*
X72500000Y-12500000D03*
X55000000Y-30000000D03*
X115000000Y-12500000D03*
X89220000Y-34890000D03*
X45000000Y-105000000D03*
X87500000Y-70000000D03*
X51440000Y-50900000D03*
X92500000Y-62500000D03*
X67500000Y-65000000D03*
X105000000Y-40000000D03*
X15000000Y-20000000D03*
X32450000Y-114500000D03*
X88570000Y-9040000D03*
X115250000Y-44000000D03*
X78010000Y-58060000D03*
X92500000Y-100000000D03*
X32500000Y-10000000D03*
X92500000Y-40000000D03*
X117600000Y-75325000D03*
X68100000Y-32900000D03*
X90000000Y-85000000D03*
X22500000Y-77500000D03*
X27500000Y-85000000D03*
X80720000Y-18690000D03*
X30000000Y-50000000D03*
X100675000Y-25401020D03*
X43920000Y-62340000D03*
X25000000Y-115000000D03*
X61400000Y-33050000D03*
X49900000Y-43700000D03*
X89060000Y-20670000D03*
X55000000Y-12500000D03*
X83170000Y-46980000D03*
X92500000Y-57500000D03*
X42500000Y-22500000D03*
X85070000Y-57480000D03*
X27140000Y-8800000D03*
X117500000Y-17500000D03*
X12350000Y-114500000D03*
X30000000Y-105000000D03*
X15000000Y-15000000D03*
X70000000Y-70000000D03*
X102500000Y-70000000D03*
%TO.N,PUSH_BTN_0*%
X72160000Y-39350000D03*
X44475000Y-60350000D03*
%TO.N,PUSH_BTN_1*%
X72230000Y-37340000D03*
X44200000Y-57550000D03*
%TO.N,+3V3*%
X81690000Y-31940000D03*
X107525000Y-25600000D03*
X33340000Y-98010000D03*
X94000000Y-21400000D03*
X50070000Y-66390000D03*
X87870000Y-21390000D03*
X84850000Y-21470000D03*
X87670000Y-49600000D03*
X21725000Y-64100000D03*
X91850000Y-54125000D03*
X73360000Y-114600000D03*
X91810000Y-114210000D03*
X74590000Y-17520000D03*
X13340000Y-98450000D03*
X13350000Y-114500000D03*
X82720000Y-44330000D03*
X59725000Y-54800000D03*
X40175000Y-64300000D03*
X110650000Y-22175000D03*
X90950000Y-21340000D03*
X63450000Y-31160000D03*
X29575000Y-64100000D03*
X25970000Y-9240000D03*
X53350000Y-114650000D03*
X62980000Y-41170000D03*
X53390000Y-98270000D03*
X82610000Y-21430000D03*
X33350000Y-114510000D03*
X58220000Y-38590000D03*
%TO.N,+3V3A*%
X82450000Y-65590000D03*
X96526321Y-92103197D03*
X94300000Y-50950000D03*
%TO.N,POT_MUX_ADC*%
X72050000Y-41410000D03*
X64750000Y-50800000D03*
%TO.N,/[1] MCU/SWD_CLK*%
X80200000Y-30400000D03*
X74800000Y-27000000D03*
%TO.N,/[1] MCU/SWD_IO*%
X85200000Y-29200000D03*
X75600000Y-26200000D03*
%TO.N,/[1] MCU/OLED_RST*%
X75200000Y-34700000D03*
X61600000Y-26200000D03*
%TO.N,/[1] MCU/OLED_SPI_CS*%
X65750000Y-28510000D03*
X74500000Y-41700000D03*
%TO.N,/[1] MCU/OLED_DC*%
X49200000Y-44400000D03*
X50090000Y-48510000D03*
%TO.N,/[1] MCU/SDCARD_SDIO_D1*%
X84900000Y-37900000D03*
X88600000Y-34200000D03*
%TO.N,/[1] MCU/SDCARD_SDIO_D0*%
X91600000Y-8100000D03*
X89600000Y-38400000D03*
X91600000Y-18400000D03*
X90600000Y-29600000D03*
%TO.N,Net-(J1-CLK)*%
X89400000Y-8200000D03*
X88500000Y-15500000D03*
%TO.N,/[1] MCU/SDCARD_SDIO_CMD*%
X77600000Y-25400000D03*
X81900000Y-18700000D03*
X80800000Y-24600000D03*
X81900000Y-13700000D03*
%TO.N,/[1] MCU/SDCARD_SDIO_D3*%
X86100000Y-8200000D03*
X87100000Y-18500000D03*
%TO.N,/[2] Audio/AUDIO_L_OUT*%
X83025000Y-77950000D03*
X77850000Y-92800000D03*
%TO.N,/[2] Audio/AUDIO_R_OUT*%
X83000000Y-92500000D03*
X84300000Y-83725000D03*
%TO.N,/[1] MCU/MCU_BOOT0*%
X68325000Y-27300000D03*
X70600000Y-28350000D03*
%TO.N,/[1] MCU/SDCARD_SDIO_D2*%
X84200000Y-8200000D03*
X84400000Y-18500000D03*
%TO.N,/[1] MCU/LED_0*%
X52240000Y-51570000D03*
X53120000Y-44980000D03*
%TO.N,/[1] MCU/LED_1*%
X56150000Y-45800000D03*
X55130000Y-51620000D03*
%TO.N,/[1] MCU/LED_2*%
X58660000Y-46480000D03*
X57950000Y-51630000D03*
%TO.N,SW_2*%
X78275000Y-35950000D03*
X45575000Y-64650000D03*
%TO.N,POT_MUX_SEL_0*%
X56420000Y-69590000D03*
X76050000Y-45500000D03*
%TO.N,CODEC_I2S_SDI*%
X80240000Y-41120000D03*
X81930000Y-55720000D03*
%TO.N,POT_MUX_SEL_1*%
X57730000Y-68350000D03*
X76711524Y-46051598D03*
%TO.N,CODEC_I2C_SCL*%
X90100000Y-54775000D03*
X78350000Y-49775000D03*
%TO.N,POT_MUX_SEL_2*%
X77600000Y-46250000D03*
X58990000Y-69630000D03*
%TO.N,/[3] Input Control/POT_2_CTL*%
X52660000Y-73530000D03*
X46600000Y-79800000D03*
%TO.N,/[3] Input Control/POT_3_CTL*%
X55190000Y-73540000D03*
X55850000Y-111130000D03*
%TO.N,/[3] Input Control/POT_1_CTL*%
X55850000Y-93940000D03*
X53920000Y-73550000D03*
%TO.N,CODEC_I2S_CK*%
X85560000Y-46280000D03*
X84180000Y-53980000D03*
%TO.N,CODEC_I2C_SDA*%
X78100000Y-55600000D03*
X90125000Y-58175000D03*
%TO.N,SW_3*%
X44800000Y-63325000D03*
X77325000Y-36625000D03*
%TD*%
D26*
%TO.N,PUSH_BTN_0*%
X69890000Y-43710000D02*
X69890000Y-41620000D01*
X59200000Y-60350000D02*
X61400000Y-58150000D01*
X44475000Y-60350000D02*
X59200000Y-60350000D01*
X61400000Y-52200000D02*
X69890000Y-43710000D01*
X61400000Y-52200000D02*
X61400000Y-58150000D01*
X69890000Y-41620000D02*
X72160000Y-39350000D01*
%TO.N,PUSH_BTN_1*%
X65290000Y-46860000D02*
X60700000Y-51450000D01*
X60700000Y-57750000D02*
X58700000Y-59750000D01*
X72230000Y-37340000D02*
X72230000Y-37990000D01*
X60700000Y-51450000D02*
X60700000Y-57750000D01*
X45375000Y-57550000D02*
X44200000Y-57550000D01*
X65290000Y-44930000D02*
X65290000Y-46860000D01*
X47575000Y-59750000D02*
X45375000Y-57550000D01*
X58700000Y-59750000D02*
X47575000Y-59750000D01*
X72230000Y-37990000D02*
X65290000Y-44930000D01*
D27*
%TO.N,+3V3*%
X33340000Y-98010000D02*
X33340000Y-99160000D01*
X77900000Y-16240000D02*
X79080000Y-17420000D01*
D26*
X110925000Y-22175000D02*
X110650000Y-22175000D01*
D27*
X86870000Y-44330000D02*
X82720000Y-44330000D01*
X44590000Y-99900000D02*
X52650000Y-99900000D01*
X84890000Y-22570000D02*
X82610000Y-22570000D01*
X13350000Y-111710000D02*
X13350000Y-113130000D01*
X13340000Y-98450000D02*
X14790000Y-99900000D01*
X91840000Y-54115000D02*
X91850000Y-54125000D01*
D26*
X67400000Y-16140000D02*
X67300000Y-16240000D01*
D27*
X93980000Y-22570000D02*
X90970000Y-22570000D01*
X87870000Y-21390000D02*
X87870000Y-22560000D01*
X53350000Y-114650000D02*
X53350000Y-113140000D01*
X14790000Y-99900000D02*
X14790000Y-110270000D01*
X88270000Y-27820000D02*
X85680000Y-30410000D01*
D26*
X107525000Y-25600000D02*
X108475000Y-26550000D01*
D27*
X29575000Y-64100000D02*
X21725000Y-64100000D01*
X79080000Y-21850000D02*
X79800000Y-22570000D01*
X95300000Y-43450000D02*
X91840000Y-46910000D01*
X33340000Y-99160000D02*
X34080000Y-99900000D01*
X90950000Y-22550000D02*
X90970000Y-22570000D01*
X89340000Y-46910000D02*
X87670000Y-48580000D01*
X74790000Y-16240000D02*
X77900000Y-16240000D01*
X94000000Y-22550000D02*
X93980000Y-22570000D01*
X13350000Y-111710000D02*
X14790000Y-110270000D01*
X58890000Y-18610000D02*
X32040000Y-18610000D01*
X40590000Y-64300000D02*
X40175000Y-64300000D01*
X53390000Y-99160000D02*
X53390000Y-98270000D01*
X63450000Y-31160000D02*
X61760000Y-31160000D01*
X81690000Y-31630000D02*
X81690000Y-31940000D01*
X50070000Y-66390000D02*
X46500000Y-66390000D01*
X53350000Y-113140000D02*
X53390000Y-113100000D01*
X58220000Y-38590000D02*
X58220000Y-40310000D01*
X81690000Y-31630000D02*
X82900000Y-30420000D01*
X94000000Y-21400000D02*
X94000000Y-22550000D01*
X44590000Y-68300000D02*
X40590000Y-64300000D01*
X74590000Y-16440000D02*
X74790000Y-16240000D01*
X79800000Y-22570000D02*
X82610000Y-22570000D01*
X58210000Y-38580000D02*
X58220000Y-38590000D01*
D26*
X108475000Y-26550000D02*
X110275000Y-26550000D01*
D27*
X33350000Y-113100000D02*
X33350000Y-114510000D01*
X33350000Y-113100000D02*
X13380000Y-113100000D01*
X33350000Y-113100000D02*
X53390000Y-113100000D01*
X58220000Y-40310000D02*
X59080000Y-41170000D01*
X87670000Y-49600000D02*
X87670000Y-48580000D01*
X91840000Y-46910000D02*
X91840000Y-54115000D01*
X74590000Y-17520000D02*
X74590000Y-16440000D01*
X95300000Y-28380000D02*
X95300000Y-23270000D01*
X44590000Y-68300000D02*
X44590000Y-99900000D01*
X58210000Y-34520000D02*
X58210000Y-38580000D01*
X88270000Y-27820000D02*
X95390000Y-27820000D01*
X25970000Y-12540000D02*
X32040000Y-18610000D01*
X73360000Y-113150000D02*
X73310000Y-113100000D01*
X94600000Y-22570000D02*
X95300000Y-23270000D01*
X13350000Y-113130000D02*
X13350000Y-114500000D01*
X62980000Y-41170000D02*
X62980000Y-47795000D01*
X82970000Y-30410000D02*
X82960000Y-30420000D01*
D26*
X110275000Y-26550000D02*
X111250000Y-25575000D01*
D27*
X61760000Y-31160000D02*
X61570000Y-31160000D01*
X90950000Y-21340000D02*
X90950000Y-22550000D01*
X61260000Y-16240000D02*
X67300000Y-16240000D01*
X82960000Y-30420000D02*
X82900000Y-30420000D01*
X82610000Y-21430000D02*
X82610000Y-22570000D01*
X52650000Y-99900000D02*
X53390000Y-99160000D01*
X67300000Y-16240000D02*
X74790000Y-16240000D01*
X95300000Y-27910000D02*
X95300000Y-28380000D01*
X91120000Y-113100000D02*
X91810000Y-113790000D01*
X84850000Y-21470000D02*
X84850000Y-22530000D01*
X94600000Y-22570000D02*
X93980000Y-22570000D01*
X61260000Y-16240000D02*
X58890000Y-18610000D01*
X61570000Y-31160000D02*
X58210000Y-34520000D01*
X90970000Y-22570000D02*
X87880000Y-22570000D01*
X59725000Y-51050000D02*
X59725000Y-54800000D01*
D26*
X110925000Y-22175000D02*
X111250000Y-22500000D01*
X67400000Y-4900000D02*
X67400000Y-16140000D01*
D27*
X58890000Y-28290000D02*
X58890000Y-18610000D01*
X85680000Y-30410000D02*
X82970000Y-30410000D01*
X61760000Y-31160000D02*
X58890000Y-28290000D01*
X107525000Y-25600000D02*
X105305000Y-27820000D01*
X86870000Y-44330000D02*
X89340000Y-46800000D01*
X25970000Y-12540000D02*
X25970000Y-9240000D01*
X105305000Y-27820000D02*
X95390000Y-27820000D01*
D26*
X111250000Y-25575000D02*
X111250000Y-22500000D01*
D27*
X91810000Y-113790000D02*
X91810000Y-114210000D01*
X73360000Y-114600000D02*
X73360000Y-113150000D01*
X14790000Y-99900000D02*
X34080000Y-99900000D01*
X95300000Y-28380000D02*
X95300000Y-43450000D01*
X62980000Y-47795000D02*
X59725000Y-51050000D01*
X95390000Y-27820000D02*
X95300000Y-27910000D01*
X44590000Y-68300000D02*
X46500000Y-66390000D01*
X44590000Y-99900000D02*
X34080000Y-99900000D01*
X89340000Y-46910000D02*
X89340000Y-46800000D01*
X87870000Y-22560000D02*
X87880000Y-22570000D01*
X87880000Y-22570000D02*
X84890000Y-22570000D01*
X79080000Y-17420000D02*
X79080000Y-21850000D01*
X59080000Y-41170000D02*
X62980000Y-41170000D01*
X53390000Y-113100000D02*
X73310000Y-113100000D01*
X73310000Y-113100000D02*
X91120000Y-113100000D01*
X13380000Y-113100000D02*
X13350000Y-113130000D01*
X84850000Y-22530000D02*
X84890000Y-22570000D01*
X91840000Y-46910000D02*
X89340000Y-46910000D01*
%TO.N,+3V3A*%
X82450000Y-65590000D02*
X85690000Y-68830000D01*
X85690000Y-68830000D02*
X94170000Y-68830000D01*
X94170000Y-68830000D02*
X96526321Y-71186321D01*
X94300000Y-50950000D02*
X94300000Y-68700000D01*
X96526321Y-71186321D02*
X96526321Y-92103197D01*
X94170000Y-68830000D02*
X94300000Y-68700000D01*
X94300000Y-68700000D02*
X94300000Y-68780000D01*
D26*
%TO.N,POT_MUX_ADC*%
X72050000Y-41750000D02*
X71700000Y-42100000D01*
X72050000Y-41410000D02*
X72050000Y-41750000D01*
X71700000Y-42100000D02*
X71700000Y-43850000D01*
X71700000Y-43850000D02*
X64750000Y-50800000D01*
%TO.N,/[1] MCU/SWD_CLK*%
X75069654Y-27149000D02*
X74949000Y-27149000D01*
X80149000Y-29330346D02*
X80200000Y-29279346D01*
X80200000Y-30400000D02*
X80200000Y-29920654D01*
X80200000Y-29920654D02*
X80149000Y-29869654D01*
X80200000Y-29000000D02*
X78400000Y-27200000D01*
X80149000Y-29869654D02*
X80149000Y-29330346D01*
X74949000Y-27149000D02*
X74800000Y-27000000D01*
X78400000Y-27200000D02*
X75120654Y-27200000D01*
X75120654Y-27200000D02*
X75069654Y-27149000D01*
X80200000Y-29279346D02*
X80200000Y-29000000D01*
%TO.N,/[1] MCU/SWD_IO*%
X85200000Y-29200000D02*
X82200000Y-26200000D01*
X75600000Y-26200000D02*
X82200000Y-26200000D01*
%TO.N,/[1] MCU/OLED_RST*%
X61600000Y-26200000D02*
X70900000Y-26200000D01*
X70900000Y-26200000D02*
X75200000Y-30500000D01*
X75200000Y-34700000D02*
X75200000Y-30500000D01*
%TO.N,/[1] MCU/OLED_SPI_CS*%
X65750000Y-28520000D02*
X65750000Y-28510000D01*
X74500000Y-37270000D02*
X65750000Y-28520000D01*
X74500000Y-41700000D02*
X74500000Y-37270000D01*
%TO.N,/[1] MCU/OLED_DC*%
X50090000Y-45290000D02*
X49200000Y-44400000D01*
X50090000Y-48510000D02*
X50090000Y-45290000D01*
%TO.N,/[1] MCU/SDCARD_SDIO_D1*%
X84900000Y-37900000D02*
X88600000Y-34200000D01*
%TO.N,/[1] MCU/SDCARD_SDIO_D0*%
X89600000Y-36400000D02*
X90600000Y-35400000D01*
X91600000Y-8100000D02*
X91600000Y-18400000D01*
X90600000Y-35400000D02*
X90600000Y-29600000D01*
X89600000Y-38400000D02*
X89600000Y-36400000D01*
%TO.N,Net-(J1-CLK)*%
X89400000Y-14600000D02*
X89400000Y-8200000D01*
X88500000Y-15500000D02*
X89400000Y-14600000D01*
%TO.N,/[1] MCU/SDCARD_SDIO_CMD*%
X80800000Y-25000000D02*
X80800000Y-24600000D01*
X81900000Y-13700000D02*
X81900000Y-18700000D01*
X80400000Y-25400000D02*
X80800000Y-25000000D01*
X77600000Y-25400000D02*
X80400000Y-25400000D01*
%TO.N,/[1] MCU/SDCARD_SDIO_D3*%
X86100000Y-17500000D02*
X87100000Y-18500000D01*
X86100000Y-8200000D02*
X86100000Y-17500000D01*
D27*
%TO.N,/[2] Audio/AUDIO_L_OUT*%
X77850000Y-92800000D02*
X77861601Y-92788399D01*
X77861601Y-92788399D02*
X77861601Y-83138399D01*
X83025000Y-77975000D02*
X83025000Y-77950000D01*
X77861601Y-83138399D02*
X83025000Y-77975000D01*
%TO.N,/[2] Audio/AUDIO_R_OUT*%
X83000000Y-92500000D02*
X83000000Y-85025000D01*
X83000000Y-85025000D02*
X84300000Y-83725000D01*
D26*
%TO.N,/[1] MCU/MCU_BOOT0*%
X69375000Y-28350000D02*
X68325000Y-27300000D01*
X70600000Y-28350000D02*
X69375000Y-28350000D01*
%TO.N,/[1] MCU/SDCARD_SDIO_D2*%
X84200000Y-8200000D02*
X84200000Y-18300000D01*
X84200000Y-18300000D02*
X84400000Y-18500000D01*
%TO.N,/[1] MCU/LED_0*%
X52270000Y-45830000D02*
X52270000Y-51520000D01*
X52270000Y-51540000D02*
X52240000Y-51570000D01*
X52270000Y-51520000D02*
X52270000Y-51540000D01*
X53120000Y-44980000D02*
X52270000Y-45830000D01*
%TO.N,/[1] MCU/LED_1*%
X55100000Y-46850000D02*
X55100000Y-51640000D01*
X55100000Y-51640000D02*
X55110000Y-51640000D01*
X56150000Y-45800000D02*
X55100000Y-46850000D01*
X55110000Y-51640000D02*
X55130000Y-51620000D01*
%TO.N,/[1] MCU/LED_2*%
X58660000Y-46480000D02*
X57950000Y-47190000D01*
X57950000Y-47190000D02*
X57950000Y-51630000D01*
%TO.N,SW_2*%
X78275000Y-35950000D02*
X78275000Y-42225000D01*
X63125000Y-58650000D02*
X58350000Y-63425000D01*
X58350000Y-63425000D02*
X46800000Y-63425000D01*
X46800000Y-63425000D02*
X45575000Y-64650000D01*
X63125000Y-57375000D02*
X63125000Y-58650000D01*
X78275000Y-42225000D02*
X63125000Y-57375000D01*
%TO.N,POT_MUX_SEL_0*%
X55610000Y-68219346D02*
X56420000Y-69029346D01*
X55610000Y-67350000D02*
X55610000Y-68219346D01*
X56420000Y-69029346D02*
X56420000Y-69590000D01*
X76050000Y-45500000D02*
X76050000Y-46910000D01*
X76050000Y-46910000D02*
X55610000Y-67350000D01*
%TO.N,CODEC_I2S_SDI*%
X80240000Y-41120000D02*
X80240000Y-54030000D01*
X80240000Y-54030000D02*
X81930000Y-55720000D01*
%TO.N,POT_MUX_SEL_1*%
X57730000Y-67300000D02*
X57730000Y-68350000D01*
X76711524Y-46051598D02*
X76711524Y-48318476D01*
X76711524Y-48318476D02*
X57730000Y-67300000D01*
%TO.N,CODEC_I2C_SCL*%
X81525000Y-56825000D02*
X88050000Y-56825000D01*
X78350000Y-49775000D02*
X78350000Y-53650000D01*
X88050000Y-56825000D02*
X90100000Y-54775000D01*
X78350000Y-53650000D02*
X81525000Y-56825000D01*
%TO.N,POT_MUX_SEL_2*%
X77600000Y-49390000D02*
X77600000Y-46250000D01*
X58990000Y-68000000D02*
X77600000Y-49390000D01*
X58990000Y-69630000D02*
X58990000Y-68000000D01*
%TO.N,/[3] Input Control/POT_2_CTL*%
X52660000Y-73530000D02*
X52660000Y-73740000D01*
X52660000Y-73740000D02*
X46600000Y-79800000D01*
%TO.N,/[3] Input Control/POT_3_CTL*%
X55190000Y-73540000D02*
X59330000Y-73540000D01*
X59330000Y-73540000D02*
X62480000Y-76690000D01*
X62480000Y-97030000D02*
X55850000Y-103660000D01*
X55850000Y-103660000D02*
X55850000Y-111130000D01*
X62480000Y-76690000D02*
X62480000Y-97030000D01*
%TO.N,/[3] Input Control/POT_1_CTL*%
X53920000Y-73550000D02*
X53920000Y-75780000D01*
X55850000Y-77710000D02*
X55850000Y-93940000D01*
X53920000Y-75780000D02*
X55850000Y-77710000D01*
%TO.N,CODEC_I2S_CK*%
X85560000Y-52600000D02*
X85560000Y-46280000D01*
X84180000Y-53980000D02*
X85560000Y-52600000D01*
%TO.N,CODEC_I2C_SDA*%
X88575000Y-59725000D02*
X77985000Y-59725000D01*
X77985000Y-59725000D02*
X77000000Y-58740000D01*
X90125000Y-58175000D02*
X88575000Y-59725000D01*
X77000000Y-58740000D02*
X77000000Y-56700000D01*
X77000000Y-56700000D02*
X78100000Y-55600000D01*
%TO.N,SW_3*%
X62275000Y-57350000D02*
X62275000Y-58475000D01*
X47025000Y-61100000D02*
X44800000Y-63325000D01*
X62275000Y-57350000D02*
X77325000Y-42300000D01*
X47025000Y-61100000D02*
X59650000Y-61100000D01*
X77325000Y-36625000D02*
X77325000Y-42300000D01*
X59650000Y-61100000D02*
X62275000Y-58475000D01*
%TD*%
M02*
