%TF.GenerationSoftware,KiCad,Pcbnew,9.0.7*%
%TF.CreationDate,2026-05-21T23:08:07+02:00*%
%TF.ProjectId,GalernaDsp,47616c65-726e-4614-9473-702e6b696361,rev?*%
%TF.SameCoordinates,Original*%
%TF.FileFunction,Soldermask,Bot*%
%TF.FilePolarity,Negative*%
%FSLAX46Y46*%
G04 Gerber Fmt 4.6, Leading zero omitted, Abs format (unit mm)*
G04 Created by KiCad (PCBNEW 9.0.7) date 2026-05-21 23:08:07*
%MOMM*%
%LPD*%
G01*
G04 APERTURE LIST*
G04 APERTURE END LIST*
G36*
X5985768Y-112640974D02*
G01*
X6302823Y-112713340D01*
X6609782Y-112820749D01*
X6902785Y-112961852D01*
X7178147Y-113134873D01*
X7432405Y-113337638D01*
X7662362Y-113567595D01*
X7865127Y-113821853D01*
X8038148Y-114097215D01*
X8179251Y-114390218D01*
X8286660Y-114697177D01*
X8359026Y-115014232D01*
X8395438Y-115337396D01*
X8395438Y-115662604D01*
X8359026Y-115985768D01*
X8286660Y-116302823D01*
X8179251Y-116609782D01*
X8038148Y-116902785D01*
X7865127Y-117178147D01*
X7662362Y-117432405D01*
X7432405Y-117662362D01*
X7178147Y-117865127D01*
X6902785Y-118038148D01*
X6609782Y-118179251D01*
X6302823Y-118286660D01*
X5985768Y-118359026D01*
X5662604Y-118395438D01*
X5337396Y-118395438D01*
X5014232Y-118359026D01*
X4697177Y-118286660D01*
X4390218Y-118179251D01*
X4097215Y-118038148D01*
X3821853Y-117865127D01*
X3567595Y-117662362D01*
X3337638Y-117432405D01*
X3134873Y-117178147D01*
X2961852Y-116902785D01*
X2820749Y-116609782D01*
X2713340Y-116302823D01*
X2640974Y-115985768D01*
X2604562Y-115662604D01*
X2604562Y-115337396D01*
X2640974Y-115014232D01*
X2713340Y-114697177D01*
X2820749Y-114390218D01*
X2961852Y-114097215D01*
X3134873Y-113821853D01*
X3337638Y-113567595D01*
X3567595Y-113337638D01*
X3821853Y-113134873D01*
X4097215Y-112961852D01*
X4390218Y-112820749D01*
X4697177Y-112713340D01*
X5014232Y-112640974D01*
X5337396Y-112604562D01*
X5662604Y-112604562D01*
X5985768Y-112640974D01*
G37*
G36*
X115985768Y-112640974D02*
G01*
X116302823Y-112713340D01*
X116609782Y-112820749D01*
X116902785Y-112961852D01*
X117178147Y-113134873D01*
X117432405Y-113337638D01*
X117662362Y-113567595D01*
X117865127Y-113821853D01*
X118038148Y-114097215D01*
X118179251Y-114390218D01*
X118286660Y-114697177D01*
X118359026Y-115014232D01*
X118395438Y-115337396D01*
X118395438Y-115662604D01*
X118359026Y-115985768D01*
X118286660Y-116302823D01*
X118179251Y-116609782D01*
X118038148Y-116902785D01*
X117865127Y-117178147D01*
X117662362Y-117432405D01*
X117432405Y-117662362D01*
X117178147Y-117865127D01*
X116902785Y-118038148D01*
X116609782Y-118179251D01*
X116302823Y-118286660D01*
X115985768Y-118359026D01*
X115662604Y-118395438D01*
X115337396Y-118395438D01*
X115014232Y-118359026D01*
X114697177Y-118286660D01*
X114390218Y-118179251D01*
X114097215Y-118038148D01*
X113821853Y-117865127D01*
X113567595Y-117662362D01*
X113337638Y-117432405D01*
X113134873Y-117178147D01*
X112961852Y-116902785D01*
X112820749Y-116609782D01*
X112713340Y-116302823D01*
X112640974Y-115985768D01*
X112604562Y-115662604D01*
X112604562Y-115337396D01*
X112640974Y-115014232D01*
X112713340Y-114697177D01*
X112820749Y-114390218D01*
X112961852Y-114097215D01*
X113134873Y-113821853D01*
X113337638Y-113567595D01*
X113567595Y-113337638D01*
X113821853Y-113134873D01*
X114097215Y-112961852D01*
X114390218Y-112820749D01*
X114697177Y-112713340D01*
X115014232Y-112640974D01*
X115337396Y-112604562D01*
X115662604Y-112604562D01*
X115985768Y-112640974D01*
G37*
G36*
X13598484Y-115480859D02*
G01*
X13753516Y-115545075D01*
X13893041Y-115638303D01*
X14011697Y-115756959D01*
X14104925Y-115896484D01*
X14169141Y-116051516D01*
X14201878Y-116216097D01*
X14201878Y-116383903D01*
X14169141Y-116548484D01*
X14104925Y-116703516D01*
X14011697Y-116843041D01*
X13893041Y-116961697D01*
X13753516Y-117054925D01*
X13598484Y-117119141D01*
X13433903Y-117151878D01*
X13266097Y-117151878D01*
X13101516Y-117119141D01*
X12946484Y-117054925D01*
X12806959Y-116961697D01*
X12688303Y-116843041D01*
X12595075Y-116703516D01*
X12530859Y-116548484D01*
X12498122Y-116383903D01*
X12498122Y-116216097D01*
X12530859Y-116051516D01*
X12595075Y-115896484D01*
X12688303Y-115756959D01*
X12806959Y-115638303D01*
X12946484Y-115545075D01*
X13101516Y-115480859D01*
X13266097Y-115448122D01*
X13433903Y-115448122D01*
X13598484Y-115480859D01*
G37*
G36*
X16098484Y-115480859D02*
G01*
X16253516Y-115545075D01*
X16393041Y-115638303D01*
X16511697Y-115756959D01*
X16604925Y-115896484D01*
X16669141Y-116051516D01*
X16701878Y-116216097D01*
X16701878Y-116383903D01*
X16669141Y-116548484D01*
X16604925Y-116703516D01*
X16511697Y-116843041D01*
X16393041Y-116961697D01*
X16253516Y-117054925D01*
X16098484Y-117119141D01*
X15933903Y-117151878D01*
X15766097Y-117151878D01*
X15601516Y-117119141D01*
X15446484Y-117054925D01*
X15306959Y-116961697D01*
X15188303Y-116843041D01*
X15095075Y-116703516D01*
X15030859Y-116548484D01*
X14998122Y-116383903D01*
X14998122Y-116216097D01*
X15030859Y-116051516D01*
X15095075Y-115896484D01*
X15188303Y-115756959D01*
X15306959Y-115638303D01*
X15446484Y-115545075D01*
X15601516Y-115480859D01*
X15766097Y-115448122D01*
X15933903Y-115448122D01*
X16098484Y-115480859D01*
G37*
G36*
X18598484Y-115480859D02*
G01*
X18753516Y-115545075D01*
X18893041Y-115638303D01*
X19011697Y-115756959D01*
X19104925Y-115896484D01*
X19169141Y-116051516D01*
X19201878Y-116216097D01*
X19201878Y-116383903D01*
X19169141Y-116548484D01*
X19104925Y-116703516D01*
X19011697Y-116843041D01*
X18893041Y-116961697D01*
X18753516Y-117054925D01*
X18598484Y-117119141D01*
X18433903Y-117151878D01*
X18266097Y-117151878D01*
X18101516Y-117119141D01*
X17946484Y-117054925D01*
X17806959Y-116961697D01*
X17688303Y-116843041D01*
X17595075Y-116703516D01*
X17530859Y-116548484D01*
X17498122Y-116383903D01*
X17498122Y-116216097D01*
X17530859Y-116051516D01*
X17595075Y-115896484D01*
X17688303Y-115756959D01*
X17806959Y-115638303D01*
X17946484Y-115545075D01*
X18101516Y-115480859D01*
X18266097Y-115448122D01*
X18433903Y-115448122D01*
X18598484Y-115480859D01*
G37*
G36*
X33598484Y-115480859D02*
G01*
X33753516Y-115545075D01*
X33893041Y-115638303D01*
X34011697Y-115756959D01*
X34104925Y-115896484D01*
X34169141Y-116051516D01*
X34201878Y-116216097D01*
X34201878Y-116383903D01*
X34169141Y-116548484D01*
X34104925Y-116703516D01*
X34011697Y-116843041D01*
X33893041Y-116961697D01*
X33753516Y-117054925D01*
X33598484Y-117119141D01*
X33433903Y-117151878D01*
X33266097Y-117151878D01*
X33101516Y-117119141D01*
X32946484Y-117054925D01*
X32806959Y-116961697D01*
X32688303Y-116843041D01*
X32595075Y-116703516D01*
X32530859Y-116548484D01*
X32498122Y-116383903D01*
X32498122Y-116216097D01*
X32530859Y-116051516D01*
X32595075Y-115896484D01*
X32688303Y-115756959D01*
X32806959Y-115638303D01*
X32946484Y-115545075D01*
X33101516Y-115480859D01*
X33266097Y-115448122D01*
X33433903Y-115448122D01*
X33598484Y-115480859D01*
G37*
G36*
X36098484Y-115480859D02*
G01*
X36253516Y-115545075D01*
X36393041Y-115638303D01*
X36511697Y-115756959D01*
X36604925Y-115896484D01*
X36669141Y-116051516D01*
X36701878Y-116216097D01*
X36701878Y-116383903D01*
X36669141Y-116548484D01*
X36604925Y-116703516D01*
X36511697Y-116843041D01*
X36393041Y-116961697D01*
X36253516Y-117054925D01*
X36098484Y-117119141D01*
X35933903Y-117151878D01*
X35766097Y-117151878D01*
X35601516Y-117119141D01*
X35446484Y-117054925D01*
X35306959Y-116961697D01*
X35188303Y-116843041D01*
X35095075Y-116703516D01*
X35030859Y-116548484D01*
X34998122Y-116383903D01*
X34998122Y-116216097D01*
X35030859Y-116051516D01*
X35095075Y-115896484D01*
X35188303Y-115756959D01*
X35306959Y-115638303D01*
X35446484Y-115545075D01*
X35601516Y-115480859D01*
X35766097Y-115448122D01*
X35933903Y-115448122D01*
X36098484Y-115480859D01*
G37*
G36*
X38598484Y-115480859D02*
G01*
X38753516Y-115545075D01*
X38893041Y-115638303D01*
X39011697Y-115756959D01*
X39104925Y-115896484D01*
X39169141Y-116051516D01*
X39201878Y-116216097D01*
X39201878Y-116383903D01*
X39169141Y-116548484D01*
X39104925Y-116703516D01*
X39011697Y-116843041D01*
X38893041Y-116961697D01*
X38753516Y-117054925D01*
X38598484Y-117119141D01*
X38433903Y-117151878D01*
X38266097Y-117151878D01*
X38101516Y-117119141D01*
X37946484Y-117054925D01*
X37806959Y-116961697D01*
X37688303Y-116843041D01*
X37595075Y-116703516D01*
X37530859Y-116548484D01*
X37498122Y-116383903D01*
X37498122Y-116216097D01*
X37530859Y-116051516D01*
X37595075Y-115896484D01*
X37688303Y-115756959D01*
X37806959Y-115638303D01*
X37946484Y-115545075D01*
X38101516Y-115480859D01*
X38266097Y-115448122D01*
X38433903Y-115448122D01*
X38598484Y-115480859D01*
G37*
G36*
X53598484Y-115480859D02*
G01*
X53753516Y-115545075D01*
X53893041Y-115638303D01*
X54011697Y-115756959D01*
X54104925Y-115896484D01*
X54169141Y-116051516D01*
X54201878Y-116216097D01*
X54201878Y-116383903D01*
X54169141Y-116548484D01*
X54104925Y-116703516D01*
X54011697Y-116843041D01*
X53893041Y-116961697D01*
X53753516Y-117054925D01*
X53598484Y-117119141D01*
X53433903Y-117151878D01*
X53266097Y-117151878D01*
X53101516Y-117119141D01*
X52946484Y-117054925D01*
X52806959Y-116961697D01*
X52688303Y-116843041D01*
X52595075Y-116703516D01*
X52530859Y-116548484D01*
X52498122Y-116383903D01*
X52498122Y-116216097D01*
X52530859Y-116051516D01*
X52595075Y-115896484D01*
X52688303Y-115756959D01*
X52806959Y-115638303D01*
X52946484Y-115545075D01*
X53101516Y-115480859D01*
X53266097Y-115448122D01*
X53433903Y-115448122D01*
X53598484Y-115480859D01*
G37*
G36*
X56098484Y-115480859D02*
G01*
X56253516Y-115545075D01*
X56393041Y-115638303D01*
X56511697Y-115756959D01*
X56604925Y-115896484D01*
X56669141Y-116051516D01*
X56701878Y-116216097D01*
X56701878Y-116383903D01*
X56669141Y-116548484D01*
X56604925Y-116703516D01*
X56511697Y-116843041D01*
X56393041Y-116961697D01*
X56253516Y-117054925D01*
X56098484Y-117119141D01*
X55933903Y-117151878D01*
X55766097Y-117151878D01*
X55601516Y-117119141D01*
X55446484Y-117054925D01*
X55306959Y-116961697D01*
X55188303Y-116843041D01*
X55095075Y-116703516D01*
X55030859Y-116548484D01*
X54998122Y-116383903D01*
X54998122Y-116216097D01*
X55030859Y-116051516D01*
X55095075Y-115896484D01*
X55188303Y-115756959D01*
X55306959Y-115638303D01*
X55446484Y-115545075D01*
X55601516Y-115480859D01*
X55766097Y-115448122D01*
X55933903Y-115448122D01*
X56098484Y-115480859D01*
G37*
G36*
X58598484Y-115480859D02*
G01*
X58753516Y-115545075D01*
X58893041Y-115638303D01*
X59011697Y-115756959D01*
X59104925Y-115896484D01*
X59169141Y-116051516D01*
X59201878Y-116216097D01*
X59201878Y-116383903D01*
X59169141Y-116548484D01*
X59104925Y-116703516D01*
X59011697Y-116843041D01*
X58893041Y-116961697D01*
X58753516Y-117054925D01*
X58598484Y-117119141D01*
X58433903Y-117151878D01*
X58266097Y-117151878D01*
X58101516Y-117119141D01*
X57946484Y-117054925D01*
X57806959Y-116961697D01*
X57688303Y-116843041D01*
X57595075Y-116703516D01*
X57530859Y-116548484D01*
X57498122Y-116383903D01*
X57498122Y-116216097D01*
X57530859Y-116051516D01*
X57595075Y-115896484D01*
X57688303Y-115756959D01*
X57806959Y-115638303D01*
X57946484Y-115545075D01*
X58101516Y-115480859D01*
X58266097Y-115448122D01*
X58433903Y-115448122D01*
X58598484Y-115480859D01*
G37*
G36*
X73598484Y-115480859D02*
G01*
X73753516Y-115545075D01*
X73893041Y-115638303D01*
X74011697Y-115756959D01*
X74104925Y-115896484D01*
X74169141Y-116051516D01*
X74201878Y-116216097D01*
X74201878Y-116383903D01*
X74169141Y-116548484D01*
X74104925Y-116703516D01*
X74011697Y-116843041D01*
X73893041Y-116961697D01*
X73753516Y-117054925D01*
X73598484Y-117119141D01*
X73433903Y-117151878D01*
X73266097Y-117151878D01*
X73101516Y-117119141D01*
X72946484Y-117054925D01*
X72806959Y-116961697D01*
X72688303Y-116843041D01*
X72595075Y-116703516D01*
X72530859Y-116548484D01*
X72498122Y-116383903D01*
X72498122Y-116216097D01*
X72530859Y-116051516D01*
X72595075Y-115896484D01*
X72688303Y-115756959D01*
X72806959Y-115638303D01*
X72946484Y-115545075D01*
X73101516Y-115480859D01*
X73266097Y-115448122D01*
X73433903Y-115448122D01*
X73598484Y-115480859D01*
G37*
G36*
X76098484Y-115480859D02*
G01*
X76253516Y-115545075D01*
X76393041Y-115638303D01*
X76511697Y-115756959D01*
X76604925Y-115896484D01*
X76669141Y-116051516D01*
X76701878Y-116216097D01*
X76701878Y-116383903D01*
X76669141Y-116548484D01*
X76604925Y-116703516D01*
X76511697Y-116843041D01*
X76393041Y-116961697D01*
X76253516Y-117054925D01*
X76098484Y-117119141D01*
X75933903Y-117151878D01*
X75766097Y-117151878D01*
X75601516Y-117119141D01*
X75446484Y-117054925D01*
X75306959Y-116961697D01*
X75188303Y-116843041D01*
X75095075Y-116703516D01*
X75030859Y-116548484D01*
X74998122Y-116383903D01*
X74998122Y-116216097D01*
X75030859Y-116051516D01*
X75095075Y-115896484D01*
X75188303Y-115756959D01*
X75306959Y-115638303D01*
X75446484Y-115545075D01*
X75601516Y-115480859D01*
X75766097Y-115448122D01*
X75933903Y-115448122D01*
X76098484Y-115480859D01*
G37*
G36*
X78598484Y-115480859D02*
G01*
X78753516Y-115545075D01*
X78893041Y-115638303D01*
X79011697Y-115756959D01*
X79104925Y-115896484D01*
X79169141Y-116051516D01*
X79201878Y-116216097D01*
X79201878Y-116383903D01*
X79169141Y-116548484D01*
X79104925Y-116703516D01*
X79011697Y-116843041D01*
X78893041Y-116961697D01*
X78753516Y-117054925D01*
X78598484Y-117119141D01*
X78433903Y-117151878D01*
X78266097Y-117151878D01*
X78101516Y-117119141D01*
X77946484Y-117054925D01*
X77806959Y-116961697D01*
X77688303Y-116843041D01*
X77595075Y-116703516D01*
X77530859Y-116548484D01*
X77498122Y-116383903D01*
X77498122Y-116216097D01*
X77530859Y-116051516D01*
X77595075Y-115896484D01*
X77688303Y-115756959D01*
X77806959Y-115638303D01*
X77946484Y-115545075D01*
X78101516Y-115480859D01*
X78266097Y-115448122D01*
X78433903Y-115448122D01*
X78598484Y-115480859D01*
G37*
G36*
X92068484Y-115210859D02*
G01*
X92223516Y-115275075D01*
X92363041Y-115368303D01*
X92481697Y-115486959D01*
X92574925Y-115626484D01*
X92639141Y-115781516D01*
X92671878Y-115946097D01*
X92671878Y-116113903D01*
X92639141Y-116278484D01*
X92574925Y-116433516D01*
X92481697Y-116573041D01*
X92363041Y-116691697D01*
X92223516Y-116784925D01*
X92068484Y-116849141D01*
X91903903Y-116881878D01*
X91736097Y-116881878D01*
X91571516Y-116849141D01*
X91416484Y-116784925D01*
X91276959Y-116691697D01*
X91158303Y-116573041D01*
X91065075Y-116433516D01*
X91000859Y-116278484D01*
X90968122Y-116113903D01*
X90968122Y-115946097D01*
X91000859Y-115781516D01*
X91065075Y-115626484D01*
X91158303Y-115486959D01*
X91276959Y-115368303D01*
X91416484Y-115275075D01*
X91571516Y-115210859D01*
X91736097Y-115178122D01*
X91903903Y-115178122D01*
X92068484Y-115210859D01*
G37*
G36*
X94568484Y-115210859D02*
G01*
X94723516Y-115275075D01*
X94863041Y-115368303D01*
X94981697Y-115486959D01*
X95074925Y-115626484D01*
X95139141Y-115781516D01*
X95171878Y-115946097D01*
X95171878Y-116113903D01*
X95139141Y-116278484D01*
X95074925Y-116433516D01*
X94981697Y-116573041D01*
X94863041Y-116691697D01*
X94723516Y-116784925D01*
X94568484Y-116849141D01*
X94403903Y-116881878D01*
X94236097Y-116881878D01*
X94071516Y-116849141D01*
X93916484Y-116784925D01*
X93776959Y-116691697D01*
X93658303Y-116573041D01*
X93565075Y-116433516D01*
X93500859Y-116278484D01*
X93468122Y-116113903D01*
X93468122Y-115946097D01*
X93500859Y-115781516D01*
X93565075Y-115626484D01*
X93658303Y-115486959D01*
X93776959Y-115368303D01*
X93916484Y-115275075D01*
X94071516Y-115210859D01*
X94236097Y-115178122D01*
X94403903Y-115178122D01*
X94568484Y-115210859D01*
G37*
G36*
X97068484Y-115210859D02*
G01*
X97223516Y-115275075D01*
X97363041Y-115368303D01*
X97481697Y-115486959D01*
X97574925Y-115626484D01*
X97639141Y-115781516D01*
X97671878Y-115946097D01*
X97671878Y-116113903D01*
X97639141Y-116278484D01*
X97574925Y-116433516D01*
X97481697Y-116573041D01*
X97363041Y-116691697D01*
X97223516Y-116784925D01*
X97068484Y-116849141D01*
X96903903Y-116881878D01*
X96736097Y-116881878D01*
X96571516Y-116849141D01*
X96416484Y-116784925D01*
X96276959Y-116691697D01*
X96158303Y-116573041D01*
X96065075Y-116433516D01*
X96000859Y-116278484D01*
X95968122Y-116113903D01*
X95968122Y-115946097D01*
X96000859Y-115781516D01*
X96065075Y-115626484D01*
X96158303Y-115486959D01*
X96276959Y-115368303D01*
X96416484Y-115275075D01*
X96571516Y-115210859D01*
X96736097Y-115178122D01*
X96903903Y-115178122D01*
X97068484Y-115210859D01*
G37*
G36*
X11783604Y-107622857D02*
G01*
X11999661Y-107680749D01*
X12206314Y-107766348D01*
X12400025Y-107878187D01*
X12577481Y-108014354D01*
X12735646Y-108172519D01*
X12871813Y-108349975D01*
X12983652Y-108543686D01*
X13069251Y-108750339D01*
X13127143Y-108966396D01*
X13156339Y-109188161D01*
X13156339Y-109411839D01*
X13127143Y-109633604D01*
X13069251Y-109849661D01*
X12983652Y-110056314D01*
X12871813Y-110250025D01*
X12735646Y-110427481D01*
X12577481Y-110585646D01*
X12400025Y-110721813D01*
X12206314Y-110833652D01*
X11999661Y-110919251D01*
X11783604Y-110977143D01*
X11561839Y-111006339D01*
X11338161Y-111006339D01*
X11116396Y-110977143D01*
X10900339Y-110919251D01*
X10693686Y-110833652D01*
X10499975Y-110721813D01*
X10322519Y-110585646D01*
X10164354Y-110427481D01*
X10028187Y-110250025D01*
X9916348Y-110056314D01*
X9830749Y-109849661D01*
X9772857Y-109633604D01*
X9743661Y-109411839D01*
X9743661Y-109188161D01*
X9772857Y-108966396D01*
X9830749Y-108750339D01*
X9916348Y-108543686D01*
X10028187Y-108349975D01*
X10164354Y-108172519D01*
X10322519Y-108014354D01*
X10499975Y-107878187D01*
X10693686Y-107766348D01*
X10900339Y-107680749D01*
X11116396Y-107622857D01*
X11338161Y-107593661D01*
X11561839Y-107593661D01*
X11783604Y-107622857D01*
G37*
G36*
X20583604Y-107622857D02*
G01*
X20799661Y-107680749D01*
X21006314Y-107766348D01*
X21200025Y-107878187D01*
X21377481Y-108014354D01*
X21535646Y-108172519D01*
X21671813Y-108349975D01*
X21783652Y-108543686D01*
X21869251Y-108750339D01*
X21927143Y-108966396D01*
X21956339Y-109188161D01*
X21956339Y-109411839D01*
X21927143Y-109633604D01*
X21869251Y-109849661D01*
X21783652Y-110056314D01*
X21671813Y-110250025D01*
X21535646Y-110427481D01*
X21377481Y-110585646D01*
X21200025Y-110721813D01*
X21006314Y-110833652D01*
X20799661Y-110919251D01*
X20583604Y-110977143D01*
X20361839Y-111006339D01*
X20138161Y-111006339D01*
X19916396Y-110977143D01*
X19700339Y-110919251D01*
X19493686Y-110833652D01*
X19299975Y-110721813D01*
X19122519Y-110585646D01*
X18964354Y-110427481D01*
X18828187Y-110250025D01*
X18716348Y-110056314D01*
X18630749Y-109849661D01*
X18572857Y-109633604D01*
X18543661Y-109411839D01*
X18543661Y-109188161D01*
X18572857Y-108966396D01*
X18630749Y-108750339D01*
X18716348Y-108543686D01*
X18828187Y-108349975D01*
X18964354Y-108172519D01*
X19122519Y-108014354D01*
X19299975Y-107878187D01*
X19493686Y-107766348D01*
X19700339Y-107680749D01*
X19916396Y-107622857D01*
X20138161Y-107593661D01*
X20361839Y-107593661D01*
X20583604Y-107622857D01*
G37*
G36*
X31783604Y-107622857D02*
G01*
X31999661Y-107680749D01*
X32206314Y-107766348D01*
X32400025Y-107878187D01*
X32577481Y-108014354D01*
X32735646Y-108172519D01*
X32871813Y-108349975D01*
X32983652Y-108543686D01*
X33069251Y-108750339D01*
X33127143Y-108966396D01*
X33156339Y-109188161D01*
X33156339Y-109411839D01*
X33127143Y-109633604D01*
X33069251Y-109849661D01*
X32983652Y-110056314D01*
X32871813Y-110250025D01*
X32735646Y-110427481D01*
X32577481Y-110585646D01*
X32400025Y-110721813D01*
X32206314Y-110833652D01*
X31999661Y-110919251D01*
X31783604Y-110977143D01*
X31561839Y-111006339D01*
X31338161Y-111006339D01*
X31116396Y-110977143D01*
X30900339Y-110919251D01*
X30693686Y-110833652D01*
X30499975Y-110721813D01*
X30322519Y-110585646D01*
X30164354Y-110427481D01*
X30028187Y-110250025D01*
X29916348Y-110056314D01*
X29830749Y-109849661D01*
X29772857Y-109633604D01*
X29743661Y-109411839D01*
X29743661Y-109188161D01*
X29772857Y-108966396D01*
X29830749Y-108750339D01*
X29916348Y-108543686D01*
X30028187Y-108349975D01*
X30164354Y-108172519D01*
X30322519Y-108014354D01*
X30499975Y-107878187D01*
X30693686Y-107766348D01*
X30900339Y-107680749D01*
X31116396Y-107622857D01*
X31338161Y-107593661D01*
X31561839Y-107593661D01*
X31783604Y-107622857D01*
G37*
G36*
X40583604Y-107622857D02*
G01*
X40799661Y-107680749D01*
X41006314Y-107766348D01*
X41200025Y-107878187D01*
X41377481Y-108014354D01*
X41535646Y-108172519D01*
X41671813Y-108349975D01*
X41783652Y-108543686D01*
X41869251Y-108750339D01*
X41927143Y-108966396D01*
X41956339Y-109188161D01*
X41956339Y-109411839D01*
X41927143Y-109633604D01*
X41869251Y-109849661D01*
X41783652Y-110056314D01*
X41671813Y-110250025D01*
X41535646Y-110427481D01*
X41377481Y-110585646D01*
X41200025Y-110721813D01*
X41006314Y-110833652D01*
X40799661Y-110919251D01*
X40583604Y-110977143D01*
X40361839Y-111006339D01*
X40138161Y-111006339D01*
X39916396Y-110977143D01*
X39700339Y-110919251D01*
X39493686Y-110833652D01*
X39299975Y-110721813D01*
X39122519Y-110585646D01*
X38964354Y-110427481D01*
X38828187Y-110250025D01*
X38716348Y-110056314D01*
X38630749Y-109849661D01*
X38572857Y-109633604D01*
X38543661Y-109411839D01*
X38543661Y-109188161D01*
X38572857Y-108966396D01*
X38630749Y-108750339D01*
X38716348Y-108543686D01*
X38828187Y-108349975D01*
X38964354Y-108172519D01*
X39122519Y-108014354D01*
X39299975Y-107878187D01*
X39493686Y-107766348D01*
X39700339Y-107680749D01*
X39916396Y-107622857D01*
X40138161Y-107593661D01*
X40361839Y-107593661D01*
X40583604Y-107622857D01*
G37*
G36*
X51783604Y-107622857D02*
G01*
X51999661Y-107680749D01*
X52206314Y-107766348D01*
X52400025Y-107878187D01*
X52577481Y-108014354D01*
X52735646Y-108172519D01*
X52871813Y-108349975D01*
X52983652Y-108543686D01*
X53069251Y-108750339D01*
X53127143Y-108966396D01*
X53156339Y-109188161D01*
X53156339Y-109411839D01*
X53127143Y-109633604D01*
X53069251Y-109849661D01*
X52983652Y-110056314D01*
X52871813Y-110250025D01*
X52735646Y-110427481D01*
X52577481Y-110585646D01*
X52400025Y-110721813D01*
X52206314Y-110833652D01*
X51999661Y-110919251D01*
X51783604Y-110977143D01*
X51561839Y-111006339D01*
X51338161Y-111006339D01*
X51116396Y-110977143D01*
X50900339Y-110919251D01*
X50693686Y-110833652D01*
X50499975Y-110721813D01*
X50322519Y-110585646D01*
X50164354Y-110427481D01*
X50028187Y-110250025D01*
X49916348Y-110056314D01*
X49830749Y-109849661D01*
X49772857Y-109633604D01*
X49743661Y-109411839D01*
X49743661Y-109188161D01*
X49772857Y-108966396D01*
X49830749Y-108750339D01*
X49916348Y-108543686D01*
X50028187Y-108349975D01*
X50164354Y-108172519D01*
X50322519Y-108014354D01*
X50499975Y-107878187D01*
X50693686Y-107766348D01*
X50900339Y-107680749D01*
X51116396Y-107622857D01*
X51338161Y-107593661D01*
X51561839Y-107593661D01*
X51783604Y-107622857D01*
G37*
G36*
X60583604Y-107622857D02*
G01*
X60799661Y-107680749D01*
X61006314Y-107766348D01*
X61200025Y-107878187D01*
X61377481Y-108014354D01*
X61535646Y-108172519D01*
X61671813Y-108349975D01*
X61783652Y-108543686D01*
X61869251Y-108750339D01*
X61927143Y-108966396D01*
X61956339Y-109188161D01*
X61956339Y-109411839D01*
X61927143Y-109633604D01*
X61869251Y-109849661D01*
X61783652Y-110056314D01*
X61671813Y-110250025D01*
X61535646Y-110427481D01*
X61377481Y-110585646D01*
X61200025Y-110721813D01*
X61006314Y-110833652D01*
X60799661Y-110919251D01*
X60583604Y-110977143D01*
X60361839Y-111006339D01*
X60138161Y-111006339D01*
X59916396Y-110977143D01*
X59700339Y-110919251D01*
X59493686Y-110833652D01*
X59299975Y-110721813D01*
X59122519Y-110585646D01*
X58964354Y-110427481D01*
X58828187Y-110250025D01*
X58716348Y-110056314D01*
X58630749Y-109849661D01*
X58572857Y-109633604D01*
X58543661Y-109411839D01*
X58543661Y-109188161D01*
X58572857Y-108966396D01*
X58630749Y-108750339D01*
X58716348Y-108543686D01*
X58828187Y-108349975D01*
X58964354Y-108172519D01*
X59122519Y-108014354D01*
X59299975Y-107878187D01*
X59493686Y-107766348D01*
X59700339Y-107680749D01*
X59916396Y-107622857D01*
X60138161Y-107593661D01*
X60361839Y-107593661D01*
X60583604Y-107622857D01*
G37*
G36*
X71783604Y-107622857D02*
G01*
X71999661Y-107680749D01*
X72206314Y-107766348D01*
X72400025Y-107878187D01*
X72577481Y-108014354D01*
X72735646Y-108172519D01*
X72871813Y-108349975D01*
X72983652Y-108543686D01*
X73069251Y-108750339D01*
X73127143Y-108966396D01*
X73156339Y-109188161D01*
X73156339Y-109411839D01*
X73127143Y-109633604D01*
X73069251Y-109849661D01*
X72983652Y-110056314D01*
X72871813Y-110250025D01*
X72735646Y-110427481D01*
X72577481Y-110585646D01*
X72400025Y-110721813D01*
X72206314Y-110833652D01*
X71999661Y-110919251D01*
X71783604Y-110977143D01*
X71561839Y-111006339D01*
X71338161Y-111006339D01*
X71116396Y-110977143D01*
X70900339Y-110919251D01*
X70693686Y-110833652D01*
X70499975Y-110721813D01*
X70322519Y-110585646D01*
X70164354Y-110427481D01*
X70028187Y-110250025D01*
X69916348Y-110056314D01*
X69830749Y-109849661D01*
X69772857Y-109633604D01*
X69743661Y-109411839D01*
X69743661Y-109188161D01*
X69772857Y-108966396D01*
X69830749Y-108750339D01*
X69916348Y-108543686D01*
X70028187Y-108349975D01*
X70164354Y-108172519D01*
X70322519Y-108014354D01*
X70499975Y-107878187D01*
X70693686Y-107766348D01*
X70900339Y-107680749D01*
X71116396Y-107622857D01*
X71338161Y-107593661D01*
X71561839Y-107593661D01*
X71783604Y-107622857D01*
G37*
G36*
X80583604Y-107622857D02*
G01*
X80799661Y-107680749D01*
X81006314Y-107766348D01*
X81200025Y-107878187D01*
X81377481Y-108014354D01*
X81535646Y-108172519D01*
X81671813Y-108349975D01*
X81783652Y-108543686D01*
X81869251Y-108750339D01*
X81927143Y-108966396D01*
X81956339Y-109188161D01*
X81956339Y-109411839D01*
X81927143Y-109633604D01*
X81869251Y-109849661D01*
X81783652Y-110056314D01*
X81671813Y-110250025D01*
X81535646Y-110427481D01*
X81377481Y-110585646D01*
X81200025Y-110721813D01*
X81006314Y-110833652D01*
X80799661Y-110919251D01*
X80583604Y-110977143D01*
X80361839Y-111006339D01*
X80138161Y-111006339D01*
X79916396Y-110977143D01*
X79700339Y-110919251D01*
X79493686Y-110833652D01*
X79299975Y-110721813D01*
X79122519Y-110585646D01*
X78964354Y-110427481D01*
X78828187Y-110250025D01*
X78716348Y-110056314D01*
X78630749Y-109849661D01*
X78572857Y-109633604D01*
X78543661Y-109411839D01*
X78543661Y-109188161D01*
X78572857Y-108966396D01*
X78630749Y-108750339D01*
X78716348Y-108543686D01*
X78828187Y-108349975D01*
X78964354Y-108172519D01*
X79122519Y-108014354D01*
X79299975Y-107878187D01*
X79493686Y-107766348D01*
X79700339Y-107680749D01*
X79916396Y-107622857D01*
X80138161Y-107593661D01*
X80361839Y-107593661D01*
X80583604Y-107622857D01*
G37*
G36*
X90253604Y-107352857D02*
G01*
X90469661Y-107410749D01*
X90676314Y-107496348D01*
X90870025Y-107608187D01*
X91047481Y-107744354D01*
X91205646Y-107902519D01*
X91341813Y-108079975D01*
X91453652Y-108273686D01*
X91539251Y-108480339D01*
X91597143Y-108696396D01*
X91626339Y-108918161D01*
X91626339Y-109141839D01*
X91597143Y-109363604D01*
X91539251Y-109579661D01*
X91453652Y-109786314D01*
X91341813Y-109980025D01*
X91205646Y-110157481D01*
X91047481Y-110315646D01*
X90870025Y-110451813D01*
X90676314Y-110563652D01*
X90469661Y-110649251D01*
X90253604Y-110707143D01*
X90031839Y-110736339D01*
X89808161Y-110736339D01*
X89586396Y-110707143D01*
X89370339Y-110649251D01*
X89163686Y-110563652D01*
X88969975Y-110451813D01*
X88792519Y-110315646D01*
X88634354Y-110157481D01*
X88498187Y-109980025D01*
X88386348Y-109786314D01*
X88300749Y-109579661D01*
X88242857Y-109363604D01*
X88213661Y-109141839D01*
X88213661Y-108918161D01*
X88242857Y-108696396D01*
X88300749Y-108480339D01*
X88386348Y-108273686D01*
X88498187Y-108079975D01*
X88634354Y-107902519D01*
X88792519Y-107744354D01*
X88969975Y-107608187D01*
X89163686Y-107496348D01*
X89370339Y-107410749D01*
X89586396Y-107352857D01*
X89808161Y-107323661D01*
X90031839Y-107323661D01*
X90253604Y-107352857D01*
G37*
G36*
X99053604Y-107352857D02*
G01*
X99269661Y-107410749D01*
X99476314Y-107496348D01*
X99670025Y-107608187D01*
X99847481Y-107744354D01*
X100005646Y-107902519D01*
X100141813Y-108079975D01*
X100253652Y-108273686D01*
X100339251Y-108480339D01*
X100397143Y-108696396D01*
X100426339Y-108918161D01*
X100426339Y-109141839D01*
X100397143Y-109363604D01*
X100339251Y-109579661D01*
X100253652Y-109786314D01*
X100141813Y-109980025D01*
X100005646Y-110157481D01*
X99847481Y-110315646D01*
X99670025Y-110451813D01*
X99476314Y-110563652D01*
X99269661Y-110649251D01*
X99053604Y-110707143D01*
X98831839Y-110736339D01*
X98608161Y-110736339D01*
X98386396Y-110707143D01*
X98170339Y-110649251D01*
X97963686Y-110563652D01*
X97769975Y-110451813D01*
X97592519Y-110315646D01*
X97434354Y-110157481D01*
X97298187Y-109980025D01*
X97186348Y-109786314D01*
X97100749Y-109579661D01*
X97042857Y-109363604D01*
X97013661Y-109141839D01*
X97013661Y-108918161D01*
X97042857Y-108696396D01*
X97100749Y-108480339D01*
X97186348Y-108273686D01*
X97298187Y-108079975D01*
X97434354Y-107902519D01*
X97592519Y-107744354D01*
X97769975Y-107608187D01*
X97963686Y-107496348D01*
X98170339Y-107410749D01*
X98386396Y-107352857D01*
X98608161Y-107323661D01*
X98831839Y-107323661D01*
X99053604Y-107352857D01*
G37*
G36*
X73122886Y-96108757D02*
G01*
X73285905Y-96176282D01*
X73432618Y-96274312D01*
X73557388Y-96399082D01*
X73655418Y-96545795D01*
X73722943Y-96708814D01*
X73757367Y-96881874D01*
X73757367Y-97058324D01*
X73722943Y-97231384D01*
X73655418Y-97394403D01*
X73557388Y-97541116D01*
X73432618Y-97665886D01*
X73285905Y-97763916D01*
X73122886Y-97831441D01*
X72949826Y-97865865D01*
X72773376Y-97865865D01*
X72600316Y-97831441D01*
X72437297Y-97763916D01*
X72290584Y-97665886D01*
X72165814Y-97541116D01*
X72067784Y-97394403D01*
X72000259Y-97231384D01*
X71965835Y-97058324D01*
X71965835Y-96881874D01*
X72000259Y-96708814D01*
X72067784Y-96545795D01*
X72165814Y-96399082D01*
X72290584Y-96274312D01*
X72437297Y-96176282D01*
X72600316Y-96108757D01*
X72773376Y-96074333D01*
X72949826Y-96074333D01*
X73122886Y-96108757D01*
G37*
G36*
X75622886Y-96108757D02*
G01*
X75785905Y-96176282D01*
X75932618Y-96274312D01*
X76057388Y-96399082D01*
X76155418Y-96545795D01*
X76222943Y-96708814D01*
X76257367Y-96881874D01*
X76257367Y-97058324D01*
X76222943Y-97231384D01*
X76155418Y-97394403D01*
X76057388Y-97541116D01*
X75932618Y-97665886D01*
X75785905Y-97763916D01*
X75622886Y-97831441D01*
X75449826Y-97865865D01*
X75273376Y-97865865D01*
X75100316Y-97831441D01*
X74937297Y-97763916D01*
X74790584Y-97665886D01*
X74665814Y-97541116D01*
X74567784Y-97394403D01*
X74500259Y-97231384D01*
X74465835Y-97058324D01*
X74465835Y-96881874D01*
X74500259Y-96708814D01*
X74567784Y-96545795D01*
X74665814Y-96399082D01*
X74790584Y-96274312D01*
X74937297Y-96176282D01*
X75100316Y-96108757D01*
X75273376Y-96074333D01*
X75449826Y-96074333D01*
X75622886Y-96108757D01*
G37*
G36*
X78122886Y-96108757D02*
G01*
X78285905Y-96176282D01*
X78432618Y-96274312D01*
X78557388Y-96399082D01*
X78655418Y-96545795D01*
X78722943Y-96708814D01*
X78757367Y-96881874D01*
X78757367Y-97058324D01*
X78722943Y-97231384D01*
X78655418Y-97394403D01*
X78557388Y-97541116D01*
X78432618Y-97665886D01*
X78285905Y-97763916D01*
X78122886Y-97831441D01*
X77949826Y-97865865D01*
X77773376Y-97865865D01*
X77600316Y-97831441D01*
X77437297Y-97763916D01*
X77290584Y-97665886D01*
X77165814Y-97541116D01*
X77067784Y-97394403D01*
X77000259Y-97231384D01*
X76965835Y-97058324D01*
X76965835Y-96881874D01*
X77000259Y-96708814D01*
X77067784Y-96545795D01*
X77165814Y-96399082D01*
X77290584Y-96274312D01*
X77437297Y-96176282D01*
X77600316Y-96108757D01*
X77773376Y-96074333D01*
X77949826Y-96074333D01*
X78122886Y-96108757D01*
G37*
G36*
X13598484Y-95480859D02*
G01*
X13753516Y-95545075D01*
X13893041Y-95638303D01*
X14011697Y-95756959D01*
X14104925Y-95896484D01*
X14169141Y-96051516D01*
X14201878Y-96216097D01*
X14201878Y-96383903D01*
X14169141Y-96548484D01*
X14104925Y-96703516D01*
X14011697Y-96843041D01*
X13893041Y-96961697D01*
X13753516Y-97054925D01*
X13598484Y-97119141D01*
X13433903Y-97151878D01*
X13266097Y-97151878D01*
X13101516Y-97119141D01*
X12946484Y-97054925D01*
X12806959Y-96961697D01*
X12688303Y-96843041D01*
X12595075Y-96703516D01*
X12530859Y-96548484D01*
X12498122Y-96383903D01*
X12498122Y-96216097D01*
X12530859Y-96051516D01*
X12595075Y-95896484D01*
X12688303Y-95756959D01*
X12806959Y-95638303D01*
X12946484Y-95545075D01*
X13101516Y-95480859D01*
X13266097Y-95448122D01*
X13433903Y-95448122D01*
X13598484Y-95480859D01*
G37*
G36*
X16098484Y-95480859D02*
G01*
X16253516Y-95545075D01*
X16393041Y-95638303D01*
X16511697Y-95756959D01*
X16604925Y-95896484D01*
X16669141Y-96051516D01*
X16701878Y-96216097D01*
X16701878Y-96383903D01*
X16669141Y-96548484D01*
X16604925Y-96703516D01*
X16511697Y-96843041D01*
X16393041Y-96961697D01*
X16253516Y-97054925D01*
X16098484Y-97119141D01*
X15933903Y-97151878D01*
X15766097Y-97151878D01*
X15601516Y-97119141D01*
X15446484Y-97054925D01*
X15306959Y-96961697D01*
X15188303Y-96843041D01*
X15095075Y-96703516D01*
X15030859Y-96548484D01*
X14998122Y-96383903D01*
X14998122Y-96216097D01*
X15030859Y-96051516D01*
X15095075Y-95896484D01*
X15188303Y-95756959D01*
X15306959Y-95638303D01*
X15446484Y-95545075D01*
X15601516Y-95480859D01*
X15766097Y-95448122D01*
X15933903Y-95448122D01*
X16098484Y-95480859D01*
G37*
G36*
X18598484Y-95480859D02*
G01*
X18753516Y-95545075D01*
X18893041Y-95638303D01*
X19011697Y-95756959D01*
X19104925Y-95896484D01*
X19169141Y-96051516D01*
X19201878Y-96216097D01*
X19201878Y-96383903D01*
X19169141Y-96548484D01*
X19104925Y-96703516D01*
X19011697Y-96843041D01*
X18893041Y-96961697D01*
X18753516Y-97054925D01*
X18598484Y-97119141D01*
X18433903Y-97151878D01*
X18266097Y-97151878D01*
X18101516Y-97119141D01*
X17946484Y-97054925D01*
X17806959Y-96961697D01*
X17688303Y-96843041D01*
X17595075Y-96703516D01*
X17530859Y-96548484D01*
X17498122Y-96383903D01*
X17498122Y-96216097D01*
X17530859Y-96051516D01*
X17595075Y-95896484D01*
X17688303Y-95756959D01*
X17806959Y-95638303D01*
X17946484Y-95545075D01*
X18101516Y-95480859D01*
X18266097Y-95448122D01*
X18433903Y-95448122D01*
X18598484Y-95480859D01*
G37*
G36*
X33598484Y-95480859D02*
G01*
X33753516Y-95545075D01*
X33893041Y-95638303D01*
X34011697Y-95756959D01*
X34104925Y-95896484D01*
X34169141Y-96051516D01*
X34201878Y-96216097D01*
X34201878Y-96383903D01*
X34169141Y-96548484D01*
X34104925Y-96703516D01*
X34011697Y-96843041D01*
X33893041Y-96961697D01*
X33753516Y-97054925D01*
X33598484Y-97119141D01*
X33433903Y-97151878D01*
X33266097Y-97151878D01*
X33101516Y-97119141D01*
X32946484Y-97054925D01*
X32806959Y-96961697D01*
X32688303Y-96843041D01*
X32595075Y-96703516D01*
X32530859Y-96548484D01*
X32498122Y-96383903D01*
X32498122Y-96216097D01*
X32530859Y-96051516D01*
X32595075Y-95896484D01*
X32688303Y-95756959D01*
X32806959Y-95638303D01*
X32946484Y-95545075D01*
X33101516Y-95480859D01*
X33266097Y-95448122D01*
X33433903Y-95448122D01*
X33598484Y-95480859D01*
G37*
G36*
X36098484Y-95480859D02*
G01*
X36253516Y-95545075D01*
X36393041Y-95638303D01*
X36511697Y-95756959D01*
X36604925Y-95896484D01*
X36669141Y-96051516D01*
X36701878Y-96216097D01*
X36701878Y-96383903D01*
X36669141Y-96548484D01*
X36604925Y-96703516D01*
X36511697Y-96843041D01*
X36393041Y-96961697D01*
X36253516Y-97054925D01*
X36098484Y-97119141D01*
X35933903Y-97151878D01*
X35766097Y-97151878D01*
X35601516Y-97119141D01*
X35446484Y-97054925D01*
X35306959Y-96961697D01*
X35188303Y-96843041D01*
X35095075Y-96703516D01*
X35030859Y-96548484D01*
X34998122Y-96383903D01*
X34998122Y-96216097D01*
X35030859Y-96051516D01*
X35095075Y-95896484D01*
X35188303Y-95756959D01*
X35306959Y-95638303D01*
X35446484Y-95545075D01*
X35601516Y-95480859D01*
X35766097Y-95448122D01*
X35933903Y-95448122D01*
X36098484Y-95480859D01*
G37*
G36*
X38598484Y-95480859D02*
G01*
X38753516Y-95545075D01*
X38893041Y-95638303D01*
X39011697Y-95756959D01*
X39104925Y-95896484D01*
X39169141Y-96051516D01*
X39201878Y-96216097D01*
X39201878Y-96383903D01*
X39169141Y-96548484D01*
X39104925Y-96703516D01*
X39011697Y-96843041D01*
X38893041Y-96961697D01*
X38753516Y-97054925D01*
X38598484Y-97119141D01*
X38433903Y-97151878D01*
X38266097Y-97151878D01*
X38101516Y-97119141D01*
X37946484Y-97054925D01*
X37806959Y-96961697D01*
X37688303Y-96843041D01*
X37595075Y-96703516D01*
X37530859Y-96548484D01*
X37498122Y-96383903D01*
X37498122Y-96216097D01*
X37530859Y-96051516D01*
X37595075Y-95896484D01*
X37688303Y-95756959D01*
X37806959Y-95638303D01*
X37946484Y-95545075D01*
X38101516Y-95480859D01*
X38266097Y-95448122D01*
X38433903Y-95448122D01*
X38598484Y-95480859D01*
G37*
G36*
X53598484Y-95480859D02*
G01*
X53753516Y-95545075D01*
X53893041Y-95638303D01*
X54011697Y-95756959D01*
X54104925Y-95896484D01*
X54169141Y-96051516D01*
X54201878Y-96216097D01*
X54201878Y-96383903D01*
X54169141Y-96548484D01*
X54104925Y-96703516D01*
X54011697Y-96843041D01*
X53893041Y-96961697D01*
X53753516Y-97054925D01*
X53598484Y-97119141D01*
X53433903Y-97151878D01*
X53266097Y-97151878D01*
X53101516Y-97119141D01*
X52946484Y-97054925D01*
X52806959Y-96961697D01*
X52688303Y-96843041D01*
X52595075Y-96703516D01*
X52530859Y-96548484D01*
X52498122Y-96383903D01*
X52498122Y-96216097D01*
X52530859Y-96051516D01*
X52595075Y-95896484D01*
X52688303Y-95756959D01*
X52806959Y-95638303D01*
X52946484Y-95545075D01*
X53101516Y-95480859D01*
X53266097Y-95448122D01*
X53433903Y-95448122D01*
X53598484Y-95480859D01*
G37*
G36*
X56098484Y-95480859D02*
G01*
X56253516Y-95545075D01*
X56393041Y-95638303D01*
X56511697Y-95756959D01*
X56604925Y-95896484D01*
X56669141Y-96051516D01*
X56701878Y-96216097D01*
X56701878Y-96383903D01*
X56669141Y-96548484D01*
X56604925Y-96703516D01*
X56511697Y-96843041D01*
X56393041Y-96961697D01*
X56253516Y-97054925D01*
X56098484Y-97119141D01*
X55933903Y-97151878D01*
X55766097Y-97151878D01*
X55601516Y-97119141D01*
X55446484Y-97054925D01*
X55306959Y-96961697D01*
X55188303Y-96843041D01*
X55095075Y-96703516D01*
X55030859Y-96548484D01*
X54998122Y-96383903D01*
X54998122Y-96216097D01*
X55030859Y-96051516D01*
X55095075Y-95896484D01*
X55188303Y-95756959D01*
X55306959Y-95638303D01*
X55446484Y-95545075D01*
X55601516Y-95480859D01*
X55766097Y-95448122D01*
X55933903Y-95448122D01*
X56098484Y-95480859D01*
G37*
G36*
X58598484Y-95480859D02*
G01*
X58753516Y-95545075D01*
X58893041Y-95638303D01*
X59011697Y-95756959D01*
X59104925Y-95896484D01*
X59169141Y-96051516D01*
X59201878Y-96216097D01*
X59201878Y-96383903D01*
X59169141Y-96548484D01*
X59104925Y-96703516D01*
X59011697Y-96843041D01*
X58893041Y-96961697D01*
X58753516Y-97054925D01*
X58598484Y-97119141D01*
X58433903Y-97151878D01*
X58266097Y-97151878D01*
X58101516Y-97119141D01*
X57946484Y-97054925D01*
X57806959Y-96961697D01*
X57688303Y-96843041D01*
X57595075Y-96703516D01*
X57530859Y-96548484D01*
X57498122Y-96383903D01*
X57498122Y-96216097D01*
X57530859Y-96051516D01*
X57595075Y-95896484D01*
X57688303Y-95756959D01*
X57806959Y-95638303D01*
X57946484Y-95545075D01*
X58101516Y-95480859D01*
X58266097Y-95448122D01*
X58433903Y-95448122D01*
X58598484Y-95480859D01*
G37*
G36*
X73122886Y-93608757D02*
G01*
X73285905Y-93676282D01*
X73432618Y-93774312D01*
X73557388Y-93899082D01*
X73655418Y-94045795D01*
X73722943Y-94208814D01*
X73757367Y-94381874D01*
X73757367Y-94558324D01*
X73722943Y-94731384D01*
X73655418Y-94894403D01*
X73557388Y-95041116D01*
X73432618Y-95165886D01*
X73285905Y-95263916D01*
X73122886Y-95331441D01*
X72949826Y-95365865D01*
X72773376Y-95365865D01*
X72600316Y-95331441D01*
X72437297Y-95263916D01*
X72290584Y-95165886D01*
X72165814Y-95041116D01*
X72067784Y-94894403D01*
X72000259Y-94731384D01*
X71965835Y-94558324D01*
X71965835Y-94381874D01*
X72000259Y-94208814D01*
X72067784Y-94045795D01*
X72165814Y-93899082D01*
X72290584Y-93774312D01*
X72437297Y-93676282D01*
X72600316Y-93608757D01*
X72773376Y-93574333D01*
X72949826Y-93574333D01*
X73122886Y-93608757D01*
G37*
G36*
X75622886Y-93608757D02*
G01*
X75785905Y-93676282D01*
X75932618Y-93774312D01*
X76057388Y-93899082D01*
X76155418Y-94045795D01*
X76222943Y-94208814D01*
X76257367Y-94381874D01*
X76257367Y-94558324D01*
X76222943Y-94731384D01*
X76155418Y-94894403D01*
X76057388Y-95041116D01*
X75932618Y-95165886D01*
X75785905Y-95263916D01*
X75622886Y-95331441D01*
X75449826Y-95365865D01*
X75273376Y-95365865D01*
X75100316Y-95331441D01*
X74937297Y-95263916D01*
X74790584Y-95165886D01*
X74665814Y-95041116D01*
X74567784Y-94894403D01*
X74500259Y-94731384D01*
X74465835Y-94558324D01*
X74465835Y-94381874D01*
X74500259Y-94208814D01*
X74567784Y-94045795D01*
X74665814Y-93899082D01*
X74790584Y-93774312D01*
X74937297Y-93676282D01*
X75100316Y-93608757D01*
X75273376Y-93574333D01*
X75449826Y-93574333D01*
X75622886Y-93608757D01*
G37*
G36*
X78122886Y-93608757D02*
G01*
X78285905Y-93676282D01*
X78432618Y-93774312D01*
X78557388Y-93899082D01*
X78655418Y-94045795D01*
X78722943Y-94208814D01*
X78757367Y-94381874D01*
X78757367Y-94558324D01*
X78722943Y-94731384D01*
X78655418Y-94894403D01*
X78557388Y-95041116D01*
X78432618Y-95165886D01*
X78285905Y-95263916D01*
X78122886Y-95331441D01*
X77949826Y-95365865D01*
X77773376Y-95365865D01*
X77600316Y-95331441D01*
X77437297Y-95263916D01*
X77290584Y-95165886D01*
X77165814Y-95041116D01*
X77067784Y-94894403D01*
X77000259Y-94731384D01*
X76965835Y-94558324D01*
X76965835Y-94381874D01*
X77000259Y-94208814D01*
X77067784Y-94045795D01*
X77165814Y-93899082D01*
X77290584Y-93774312D01*
X77437297Y-93676282D01*
X77600316Y-93608757D01*
X77773376Y-93574333D01*
X77949826Y-93574333D01*
X78122886Y-93608757D01*
G37*
G36*
X11783604Y-87622857D02*
G01*
X11999661Y-87680749D01*
X12206314Y-87766348D01*
X12400025Y-87878187D01*
X12577481Y-88014354D01*
X12735646Y-88172519D01*
X12871813Y-88349975D01*
X12983652Y-88543686D01*
X13069251Y-88750339D01*
X13127143Y-88966396D01*
X13156339Y-89188161D01*
X13156339Y-89411839D01*
X13127143Y-89633604D01*
X13069251Y-89849661D01*
X12983652Y-90056314D01*
X12871813Y-90250025D01*
X12735646Y-90427481D01*
X12577481Y-90585646D01*
X12400025Y-90721813D01*
X12206314Y-90833652D01*
X11999661Y-90919251D01*
X11783604Y-90977143D01*
X11561839Y-91006339D01*
X11338161Y-91006339D01*
X11116396Y-90977143D01*
X10900339Y-90919251D01*
X10693686Y-90833652D01*
X10499975Y-90721813D01*
X10322519Y-90585646D01*
X10164354Y-90427481D01*
X10028187Y-90250025D01*
X9916348Y-90056314D01*
X9830749Y-89849661D01*
X9772857Y-89633604D01*
X9743661Y-89411839D01*
X9743661Y-89188161D01*
X9772857Y-88966396D01*
X9830749Y-88750339D01*
X9916348Y-88543686D01*
X10028187Y-88349975D01*
X10164354Y-88172519D01*
X10322519Y-88014354D01*
X10499975Y-87878187D01*
X10693686Y-87766348D01*
X10900339Y-87680749D01*
X11116396Y-87622857D01*
X11338161Y-87593661D01*
X11561839Y-87593661D01*
X11783604Y-87622857D01*
G37*
G36*
X20583604Y-87622857D02*
G01*
X20799661Y-87680749D01*
X21006314Y-87766348D01*
X21200025Y-87878187D01*
X21377481Y-88014354D01*
X21535646Y-88172519D01*
X21671813Y-88349975D01*
X21783652Y-88543686D01*
X21869251Y-88750339D01*
X21927143Y-88966396D01*
X21956339Y-89188161D01*
X21956339Y-89411839D01*
X21927143Y-89633604D01*
X21869251Y-89849661D01*
X21783652Y-90056314D01*
X21671813Y-90250025D01*
X21535646Y-90427481D01*
X21377481Y-90585646D01*
X21200025Y-90721813D01*
X21006314Y-90833652D01*
X20799661Y-90919251D01*
X20583604Y-90977143D01*
X20361839Y-91006339D01*
X20138161Y-91006339D01*
X19916396Y-90977143D01*
X19700339Y-90919251D01*
X19493686Y-90833652D01*
X19299975Y-90721813D01*
X19122519Y-90585646D01*
X18964354Y-90427481D01*
X18828187Y-90250025D01*
X18716348Y-90056314D01*
X18630749Y-89849661D01*
X18572857Y-89633604D01*
X18543661Y-89411839D01*
X18543661Y-89188161D01*
X18572857Y-88966396D01*
X18630749Y-88750339D01*
X18716348Y-88543686D01*
X18828187Y-88349975D01*
X18964354Y-88172519D01*
X19122519Y-88014354D01*
X19299975Y-87878187D01*
X19493686Y-87766348D01*
X19700339Y-87680749D01*
X19916396Y-87622857D01*
X20138161Y-87593661D01*
X20361839Y-87593661D01*
X20583604Y-87622857D01*
G37*
G36*
X31783604Y-87622857D02*
G01*
X31999661Y-87680749D01*
X32206314Y-87766348D01*
X32400025Y-87878187D01*
X32577481Y-88014354D01*
X32735646Y-88172519D01*
X32871813Y-88349975D01*
X32983652Y-88543686D01*
X33069251Y-88750339D01*
X33127143Y-88966396D01*
X33156339Y-89188161D01*
X33156339Y-89411839D01*
X33127143Y-89633604D01*
X33069251Y-89849661D01*
X32983652Y-90056314D01*
X32871813Y-90250025D01*
X32735646Y-90427481D01*
X32577481Y-90585646D01*
X32400025Y-90721813D01*
X32206314Y-90833652D01*
X31999661Y-90919251D01*
X31783604Y-90977143D01*
X31561839Y-91006339D01*
X31338161Y-91006339D01*
X31116396Y-90977143D01*
X30900339Y-90919251D01*
X30693686Y-90833652D01*
X30499975Y-90721813D01*
X30322519Y-90585646D01*
X30164354Y-90427481D01*
X30028187Y-90250025D01*
X29916348Y-90056314D01*
X29830749Y-89849661D01*
X29772857Y-89633604D01*
X29743661Y-89411839D01*
X29743661Y-89188161D01*
X29772857Y-88966396D01*
X29830749Y-88750339D01*
X29916348Y-88543686D01*
X30028187Y-88349975D01*
X30164354Y-88172519D01*
X30322519Y-88014354D01*
X30499975Y-87878187D01*
X30693686Y-87766348D01*
X30900339Y-87680749D01*
X31116396Y-87622857D01*
X31338161Y-87593661D01*
X31561839Y-87593661D01*
X31783604Y-87622857D01*
G37*
G36*
X40583604Y-87622857D02*
G01*
X40799661Y-87680749D01*
X41006314Y-87766348D01*
X41200025Y-87878187D01*
X41377481Y-88014354D01*
X41535646Y-88172519D01*
X41671813Y-88349975D01*
X41783652Y-88543686D01*
X41869251Y-88750339D01*
X41927143Y-88966396D01*
X41956339Y-89188161D01*
X41956339Y-89411839D01*
X41927143Y-89633604D01*
X41869251Y-89849661D01*
X41783652Y-90056314D01*
X41671813Y-90250025D01*
X41535646Y-90427481D01*
X41377481Y-90585646D01*
X41200025Y-90721813D01*
X41006314Y-90833652D01*
X40799661Y-90919251D01*
X40583604Y-90977143D01*
X40361839Y-91006339D01*
X40138161Y-91006339D01*
X39916396Y-90977143D01*
X39700339Y-90919251D01*
X39493686Y-90833652D01*
X39299975Y-90721813D01*
X39122519Y-90585646D01*
X38964354Y-90427481D01*
X38828187Y-90250025D01*
X38716348Y-90056314D01*
X38630749Y-89849661D01*
X38572857Y-89633604D01*
X38543661Y-89411839D01*
X38543661Y-89188161D01*
X38572857Y-88966396D01*
X38630749Y-88750339D01*
X38716348Y-88543686D01*
X38828187Y-88349975D01*
X38964354Y-88172519D01*
X39122519Y-88014354D01*
X39299975Y-87878187D01*
X39493686Y-87766348D01*
X39700339Y-87680749D01*
X39916396Y-87622857D01*
X40138161Y-87593661D01*
X40361839Y-87593661D01*
X40583604Y-87622857D01*
G37*
G36*
X51783604Y-87622857D02*
G01*
X51999661Y-87680749D01*
X52206314Y-87766348D01*
X52400025Y-87878187D01*
X52577481Y-88014354D01*
X52735646Y-88172519D01*
X52871813Y-88349975D01*
X52983652Y-88543686D01*
X53069251Y-88750339D01*
X53127143Y-88966396D01*
X53156339Y-89188161D01*
X53156339Y-89411839D01*
X53127143Y-89633604D01*
X53069251Y-89849661D01*
X52983652Y-90056314D01*
X52871813Y-90250025D01*
X52735646Y-90427481D01*
X52577481Y-90585646D01*
X52400025Y-90721813D01*
X52206314Y-90833652D01*
X51999661Y-90919251D01*
X51783604Y-90977143D01*
X51561839Y-91006339D01*
X51338161Y-91006339D01*
X51116396Y-90977143D01*
X50900339Y-90919251D01*
X50693686Y-90833652D01*
X50499975Y-90721813D01*
X50322519Y-90585646D01*
X50164354Y-90427481D01*
X50028187Y-90250025D01*
X49916348Y-90056314D01*
X49830749Y-89849661D01*
X49772857Y-89633604D01*
X49743661Y-89411839D01*
X49743661Y-89188161D01*
X49772857Y-88966396D01*
X49830749Y-88750339D01*
X49916348Y-88543686D01*
X50028187Y-88349975D01*
X50164354Y-88172519D01*
X50322519Y-88014354D01*
X50499975Y-87878187D01*
X50693686Y-87766348D01*
X50900339Y-87680749D01*
X51116396Y-87622857D01*
X51338161Y-87593661D01*
X51561839Y-87593661D01*
X51783604Y-87622857D01*
G37*
G36*
X60583604Y-87622857D02*
G01*
X60799661Y-87680749D01*
X61006314Y-87766348D01*
X61200025Y-87878187D01*
X61377481Y-88014354D01*
X61535646Y-88172519D01*
X61671813Y-88349975D01*
X61783652Y-88543686D01*
X61869251Y-88750339D01*
X61927143Y-88966396D01*
X61956339Y-89188161D01*
X61956339Y-89411839D01*
X61927143Y-89633604D01*
X61869251Y-89849661D01*
X61783652Y-90056314D01*
X61671813Y-90250025D01*
X61535646Y-90427481D01*
X61377481Y-90585646D01*
X61200025Y-90721813D01*
X61006314Y-90833652D01*
X60799661Y-90919251D01*
X60583604Y-90977143D01*
X60361839Y-91006339D01*
X60138161Y-91006339D01*
X59916396Y-90977143D01*
X59700339Y-90919251D01*
X59493686Y-90833652D01*
X59299975Y-90721813D01*
X59122519Y-90585646D01*
X58964354Y-90427481D01*
X58828187Y-90250025D01*
X58716348Y-90056314D01*
X58630749Y-89849661D01*
X58572857Y-89633604D01*
X58543661Y-89411839D01*
X58543661Y-89188161D01*
X58572857Y-88966396D01*
X58630749Y-88750339D01*
X58716348Y-88543686D01*
X58828187Y-88349975D01*
X58964354Y-88172519D01*
X59122519Y-88014354D01*
X59299975Y-87878187D01*
X59493686Y-87766348D01*
X59700339Y-87680749D01*
X59916396Y-87622857D01*
X60138161Y-87593661D01*
X60361839Y-87593661D01*
X60583604Y-87622857D01*
G37*
G36*
X70869163Y-85897283D02*
G01*
X71033818Y-85950783D01*
X71188076Y-86029381D01*
X71328139Y-86131143D01*
X71450559Y-86253563D01*
X71552321Y-86393626D01*
X71630919Y-86547884D01*
X71684419Y-86712539D01*
X71711502Y-86883535D01*
X71711502Y-87056663D01*
X71684419Y-87227659D01*
X71630919Y-87392314D01*
X71552321Y-87546572D01*
X71450559Y-87686635D01*
X71328139Y-87809055D01*
X71188076Y-87910817D01*
X71033818Y-87989415D01*
X70869163Y-88042915D01*
X70698167Y-88069998D01*
X70525039Y-88069998D01*
X70354043Y-88042915D01*
X70189388Y-87989415D01*
X70035130Y-87910817D01*
X69895067Y-87809055D01*
X69772647Y-87686635D01*
X69670885Y-87546572D01*
X69592287Y-87392314D01*
X69538787Y-87227659D01*
X69511704Y-87056663D01*
X69511704Y-86883535D01*
X69538787Y-86712539D01*
X69592287Y-86547884D01*
X69670885Y-86393626D01*
X69772647Y-86253563D01*
X69895067Y-86131143D01*
X70035130Y-86029381D01*
X70189388Y-85950783D01*
X70354043Y-85897283D01*
X70525039Y-85870200D01*
X70698167Y-85870200D01*
X70869163Y-85897283D01*
G37*
G36*
X80369159Y-85897283D02*
G01*
X80533814Y-85950783D01*
X80688072Y-86029381D01*
X80828135Y-86131143D01*
X80950555Y-86253563D01*
X81052317Y-86393626D01*
X81130915Y-86547884D01*
X81184415Y-86712539D01*
X81211498Y-86883535D01*
X81211498Y-87056663D01*
X81184415Y-87227659D01*
X81130915Y-87392314D01*
X81052317Y-87546572D01*
X80950555Y-87686635D01*
X80828135Y-87809055D01*
X80688072Y-87910817D01*
X80533814Y-87989415D01*
X80369159Y-88042915D01*
X80198163Y-88069998D01*
X80025035Y-88069998D01*
X79854039Y-88042915D01*
X79689384Y-87989415D01*
X79535126Y-87910817D01*
X79395063Y-87809055D01*
X79272643Y-87686635D01*
X79170881Y-87546572D01*
X79092283Y-87392314D01*
X79038783Y-87227659D01*
X79011700Y-87056663D01*
X79011700Y-86883535D01*
X79038783Y-86712539D01*
X79092283Y-86547884D01*
X79170881Y-86393626D01*
X79272643Y-86253563D01*
X79395063Y-86131143D01*
X79535126Y-86029381D01*
X79689384Y-85950783D01*
X79854039Y-85897283D01*
X80025035Y-85870200D01*
X80198163Y-85870200D01*
X80369159Y-85897283D01*
G37*
G36*
X112118858Y-81405133D02*
G01*
X112128316Y-81405133D01*
X112155563Y-81412433D01*
X112224099Y-81426066D01*
X112256448Y-81439465D01*
X112279610Y-81445672D01*
X112300377Y-81457662D01*
X112332722Y-81471060D01*
X112390816Y-81509877D01*
X112415257Y-81523988D01*
X112421946Y-81530677D01*
X112430481Y-81536380D01*
X112513619Y-81619518D01*
X112519321Y-81628052D01*
X112526012Y-81634743D01*
X112540124Y-81659186D01*
X112578939Y-81717277D01*
X112592335Y-81749618D01*
X112604328Y-81770390D01*
X112610535Y-81793555D01*
X112623933Y-81825900D01*
X112637565Y-81894433D01*
X112644867Y-81921684D01*
X112644867Y-81931141D01*
X112646870Y-81941211D01*
X112646870Y-82058788D01*
X112644867Y-82068857D01*
X112644867Y-82078316D01*
X112637564Y-82105569D01*
X112623933Y-82174099D01*
X112610535Y-82206441D01*
X112604328Y-82229610D01*
X112592334Y-82250383D01*
X112578939Y-82282722D01*
X112540128Y-82340805D01*
X112526012Y-82365257D01*
X112519319Y-82371949D01*
X112513619Y-82380481D01*
X112430481Y-82463619D01*
X112421949Y-82469319D01*
X112415257Y-82476012D01*
X112390805Y-82490128D01*
X112332722Y-82528939D01*
X112300383Y-82542334D01*
X112279610Y-82554328D01*
X112256441Y-82560535D01*
X112224099Y-82573933D01*
X112155569Y-82587564D01*
X112128316Y-82594867D01*
X112118858Y-82594867D01*
X112108788Y-82596870D01*
X111991212Y-82596870D01*
X111981142Y-82594867D01*
X111971684Y-82594867D01*
X111944432Y-82587564D01*
X111875900Y-82573933D01*
X111843555Y-82560535D01*
X111820390Y-82554328D01*
X111799618Y-82542335D01*
X111767277Y-82528939D01*
X111709186Y-82490124D01*
X111684743Y-82476012D01*
X111678052Y-82469321D01*
X111669518Y-82463619D01*
X111586380Y-82380481D01*
X111580677Y-82371946D01*
X111573988Y-82365257D01*
X111559877Y-82340816D01*
X111521060Y-82282722D01*
X111507662Y-82250377D01*
X111495672Y-82229610D01*
X111489465Y-82206448D01*
X111476066Y-82174099D01*
X111462433Y-82105563D01*
X111455133Y-82078316D01*
X111455133Y-82068858D01*
X111453130Y-82058788D01*
X111453130Y-81941211D01*
X111455133Y-81931140D01*
X111455133Y-81921684D01*
X111462433Y-81894439D01*
X111476066Y-81825900D01*
X111489466Y-81793548D01*
X111495672Y-81770390D01*
X111507660Y-81749624D01*
X111521060Y-81717277D01*
X111559881Y-81659175D01*
X111573988Y-81634743D01*
X111580675Y-81628055D01*
X111586380Y-81619518D01*
X111669518Y-81536380D01*
X111678055Y-81530675D01*
X111684743Y-81523988D01*
X111709175Y-81509881D01*
X111767277Y-81471060D01*
X111799624Y-81457660D01*
X111820390Y-81445672D01*
X111843548Y-81439466D01*
X111875900Y-81426066D01*
X111944437Y-81412433D01*
X111971684Y-81405133D01*
X111981142Y-81405133D01*
X111991212Y-81403130D01*
X112108788Y-81403130D01*
X112118858Y-81405133D01*
G37*
G36*
X119118858Y-81405133D02*
G01*
X119128316Y-81405133D01*
X119155563Y-81412433D01*
X119224099Y-81426066D01*
X119256448Y-81439465D01*
X119279610Y-81445672D01*
X119300377Y-81457662D01*
X119332722Y-81471060D01*
X119390816Y-81509877D01*
X119415257Y-81523988D01*
X119421946Y-81530677D01*
X119430481Y-81536380D01*
X119513619Y-81619518D01*
X119519321Y-81628052D01*
X119526012Y-81634743D01*
X119540124Y-81659186D01*
X119578939Y-81717277D01*
X119592335Y-81749618D01*
X119604328Y-81770390D01*
X119610535Y-81793555D01*
X119623933Y-81825900D01*
X119637565Y-81894433D01*
X119644867Y-81921684D01*
X119644867Y-81931141D01*
X119646870Y-81941211D01*
X119646870Y-82058788D01*
X119644867Y-82068857D01*
X119644867Y-82078316D01*
X119637564Y-82105569D01*
X119623933Y-82174099D01*
X119610535Y-82206441D01*
X119604328Y-82229610D01*
X119592334Y-82250383D01*
X119578939Y-82282722D01*
X119540128Y-82340805D01*
X119526012Y-82365257D01*
X119519319Y-82371949D01*
X119513619Y-82380481D01*
X119430481Y-82463619D01*
X119421949Y-82469319D01*
X119415257Y-82476012D01*
X119390805Y-82490128D01*
X119332722Y-82528939D01*
X119300383Y-82542334D01*
X119279610Y-82554328D01*
X119256441Y-82560535D01*
X119224099Y-82573933D01*
X119155569Y-82587564D01*
X119128316Y-82594867D01*
X119118858Y-82594867D01*
X119108788Y-82596870D01*
X118991212Y-82596870D01*
X118981142Y-82594867D01*
X118971684Y-82594867D01*
X118944432Y-82587564D01*
X118875900Y-82573933D01*
X118843555Y-82560535D01*
X118820390Y-82554328D01*
X118799618Y-82542335D01*
X118767277Y-82528939D01*
X118709186Y-82490124D01*
X118684743Y-82476012D01*
X118678052Y-82469321D01*
X118669518Y-82463619D01*
X118586380Y-82380481D01*
X118580677Y-82371946D01*
X118573988Y-82365257D01*
X118559877Y-82340816D01*
X118521060Y-82282722D01*
X118507662Y-82250377D01*
X118495672Y-82229610D01*
X118489465Y-82206448D01*
X118476066Y-82174099D01*
X118462433Y-82105563D01*
X118455133Y-82078316D01*
X118455133Y-82068858D01*
X118453130Y-82058788D01*
X118453130Y-81941211D01*
X118455133Y-81931140D01*
X118455133Y-81921684D01*
X118462433Y-81894439D01*
X118476066Y-81825900D01*
X118489466Y-81793548D01*
X118495672Y-81770390D01*
X118507660Y-81749624D01*
X118521060Y-81717277D01*
X118559881Y-81659175D01*
X118573988Y-81634743D01*
X118580675Y-81628055D01*
X118586380Y-81619518D01*
X118669518Y-81536380D01*
X118678055Y-81530675D01*
X118684743Y-81523988D01*
X118709175Y-81509881D01*
X118767277Y-81471060D01*
X118799624Y-81457660D01*
X118820390Y-81445672D01*
X118843548Y-81439466D01*
X118875900Y-81426066D01*
X118944437Y-81412433D01*
X118971684Y-81405133D01*
X118981142Y-81405133D01*
X118991212Y-81403130D01*
X119108788Y-81403130D01*
X119118858Y-81405133D01*
G37*
G36*
X16222717Y-72051655D02*
G01*
X16445007Y-72123881D01*
X16653262Y-72229992D01*
X16842353Y-72367375D01*
X17007625Y-72532647D01*
X17145008Y-72721738D01*
X17251119Y-72929993D01*
X17323345Y-73152283D01*
X17359908Y-73383135D01*
X17359908Y-73616865D01*
X17323345Y-73847717D01*
X17251119Y-74070007D01*
X17145008Y-74278262D01*
X17007625Y-74467353D01*
X16842353Y-74632625D01*
X16653262Y-74770008D01*
X16445007Y-74876119D01*
X16222717Y-74948345D01*
X15991865Y-74984908D01*
X15758135Y-74984908D01*
X15527283Y-74948345D01*
X15304993Y-74876119D01*
X15096738Y-74770008D01*
X14907647Y-74632625D01*
X14742375Y-74467353D01*
X14604992Y-74278262D01*
X14498881Y-74070007D01*
X14426655Y-73847717D01*
X14390092Y-73616865D01*
X14390092Y-73383135D01*
X14426655Y-73152283D01*
X14498881Y-72929993D01*
X14604992Y-72721738D01*
X14742375Y-72532647D01*
X14907647Y-72367375D01*
X15096738Y-72229992D01*
X15304993Y-72123881D01*
X15527283Y-72051655D01*
X15758135Y-72015092D01*
X15991865Y-72015092D01*
X16222717Y-72051655D01*
G37*
G36*
X35347717Y-72051655D02*
G01*
X35570007Y-72123881D01*
X35778262Y-72229992D01*
X35967353Y-72367375D01*
X36132625Y-72532647D01*
X36270008Y-72721738D01*
X36376119Y-72929993D01*
X36448345Y-73152283D01*
X36484908Y-73383135D01*
X36484908Y-73616865D01*
X36448345Y-73847717D01*
X36376119Y-74070007D01*
X36270008Y-74278262D01*
X36132625Y-74467353D01*
X35967353Y-74632625D01*
X35778262Y-74770008D01*
X35570007Y-74876119D01*
X35347717Y-74948345D01*
X35116865Y-74984908D01*
X34883135Y-74984908D01*
X34652283Y-74948345D01*
X34429993Y-74876119D01*
X34221738Y-74770008D01*
X34032647Y-74632625D01*
X33867375Y-74467353D01*
X33729992Y-74278262D01*
X33623881Y-74070007D01*
X33551655Y-73847717D01*
X33515092Y-73616865D01*
X33515092Y-73383135D01*
X33551655Y-73152283D01*
X33623881Y-72929993D01*
X33729992Y-72721738D01*
X33867375Y-72532647D01*
X34032647Y-72367375D01*
X34221738Y-72229992D01*
X34429993Y-72123881D01*
X34652283Y-72051655D01*
X34883135Y-72015092D01*
X35116865Y-72015092D01*
X35347717Y-72051655D01*
G37*
G36*
X16222717Y-67351655D02*
G01*
X16445007Y-67423881D01*
X16653262Y-67529992D01*
X16842353Y-67667375D01*
X17007625Y-67832647D01*
X17145008Y-68021738D01*
X17251119Y-68229993D01*
X17323345Y-68452283D01*
X17359908Y-68683135D01*
X17359908Y-68916865D01*
X17323345Y-69147717D01*
X17251119Y-69370007D01*
X17145008Y-69578262D01*
X17007625Y-69767353D01*
X16842353Y-69932625D01*
X16653262Y-70070008D01*
X16445007Y-70176119D01*
X16222717Y-70248345D01*
X15991865Y-70284908D01*
X15758135Y-70284908D01*
X15527283Y-70248345D01*
X15304993Y-70176119D01*
X15096738Y-70070008D01*
X14907647Y-69932625D01*
X14742375Y-69767353D01*
X14604992Y-69578262D01*
X14498881Y-69370007D01*
X14426655Y-69147717D01*
X14390092Y-68916865D01*
X14390092Y-68683135D01*
X14426655Y-68452283D01*
X14498881Y-68229993D01*
X14604992Y-68021738D01*
X14742375Y-67832647D01*
X14907647Y-67667375D01*
X15096738Y-67529992D01*
X15304993Y-67423881D01*
X15527283Y-67351655D01*
X15758135Y-67315092D01*
X15991865Y-67315092D01*
X16222717Y-67351655D01*
G37*
G36*
X35347717Y-67351655D02*
G01*
X35570007Y-67423881D01*
X35778262Y-67529992D01*
X35967353Y-67667375D01*
X36132625Y-67832647D01*
X36270008Y-68021738D01*
X36376119Y-68229993D01*
X36448345Y-68452283D01*
X36484908Y-68683135D01*
X36484908Y-68916865D01*
X36448345Y-69147717D01*
X36376119Y-69370007D01*
X36270008Y-69578262D01*
X36132625Y-69767353D01*
X35967353Y-69932625D01*
X35778262Y-70070008D01*
X35570007Y-70176119D01*
X35347717Y-70248345D01*
X35116865Y-70284908D01*
X34883135Y-70284908D01*
X34652283Y-70248345D01*
X34429993Y-70176119D01*
X34221738Y-70070008D01*
X34032647Y-69932625D01*
X33867375Y-69767353D01*
X33729992Y-69578262D01*
X33623881Y-69370007D01*
X33551655Y-69147717D01*
X33515092Y-68916865D01*
X33515092Y-68683135D01*
X33551655Y-68452283D01*
X33623881Y-68229993D01*
X33729992Y-68021738D01*
X33867375Y-67832647D01*
X34032647Y-67667375D01*
X34221738Y-67529992D01*
X34429993Y-67423881D01*
X34652283Y-67351655D01*
X34883135Y-67315092D01*
X35116865Y-67315092D01*
X35347717Y-67351655D01*
G37*
G36*
X112168858Y-68805133D02*
G01*
X112178316Y-68805133D01*
X112205563Y-68812433D01*
X112274099Y-68826066D01*
X112306448Y-68839465D01*
X112329610Y-68845672D01*
X112350377Y-68857662D01*
X112382722Y-68871060D01*
X112440816Y-68909877D01*
X112465257Y-68923988D01*
X112471946Y-68930677D01*
X112480481Y-68936380D01*
X112563619Y-69019518D01*
X112569321Y-69028052D01*
X112576012Y-69034743D01*
X112590124Y-69059186D01*
X112628939Y-69117277D01*
X112642335Y-69149618D01*
X112654328Y-69170390D01*
X112660535Y-69193555D01*
X112673933Y-69225900D01*
X112687565Y-69294433D01*
X112694867Y-69321684D01*
X112694867Y-69331141D01*
X112696870Y-69341211D01*
X112696870Y-69458788D01*
X112694867Y-69468857D01*
X112694867Y-69478316D01*
X112687564Y-69505569D01*
X112673933Y-69574099D01*
X112660535Y-69606441D01*
X112654328Y-69629610D01*
X112642334Y-69650383D01*
X112628939Y-69682722D01*
X112590128Y-69740805D01*
X112576012Y-69765257D01*
X112569319Y-69771949D01*
X112563619Y-69780481D01*
X112480481Y-69863619D01*
X112471949Y-69869319D01*
X112465257Y-69876012D01*
X112440805Y-69890128D01*
X112382722Y-69928939D01*
X112350383Y-69942334D01*
X112329610Y-69954328D01*
X112306441Y-69960535D01*
X112274099Y-69973933D01*
X112205569Y-69987564D01*
X112178316Y-69994867D01*
X112168858Y-69994867D01*
X112158788Y-69996870D01*
X112041212Y-69996870D01*
X112031142Y-69994867D01*
X112021684Y-69994867D01*
X111994432Y-69987564D01*
X111925900Y-69973933D01*
X111893555Y-69960535D01*
X111870390Y-69954328D01*
X111849618Y-69942335D01*
X111817277Y-69928939D01*
X111759186Y-69890124D01*
X111734743Y-69876012D01*
X111728052Y-69869321D01*
X111719518Y-69863619D01*
X111636380Y-69780481D01*
X111630677Y-69771946D01*
X111623988Y-69765257D01*
X111609877Y-69740816D01*
X111571060Y-69682722D01*
X111557662Y-69650377D01*
X111545672Y-69629610D01*
X111539465Y-69606448D01*
X111526066Y-69574099D01*
X111512433Y-69505563D01*
X111505133Y-69478316D01*
X111505133Y-69468858D01*
X111503130Y-69458788D01*
X111503130Y-69341211D01*
X111505133Y-69331140D01*
X111505133Y-69321684D01*
X111512433Y-69294439D01*
X111526066Y-69225900D01*
X111539466Y-69193548D01*
X111545672Y-69170390D01*
X111557660Y-69149624D01*
X111571060Y-69117277D01*
X111609881Y-69059175D01*
X111623988Y-69034743D01*
X111630675Y-69028055D01*
X111636380Y-69019518D01*
X111719518Y-68936380D01*
X111728055Y-68930675D01*
X111734743Y-68923988D01*
X111759175Y-68909881D01*
X111817277Y-68871060D01*
X111849624Y-68857660D01*
X111870390Y-68845672D01*
X111893548Y-68839466D01*
X111925900Y-68826066D01*
X111994437Y-68812433D01*
X112021684Y-68805133D01*
X112031142Y-68805133D01*
X112041212Y-68803130D01*
X112158788Y-68803130D01*
X112168858Y-68805133D01*
G37*
G36*
X119168858Y-68805133D02*
G01*
X119178316Y-68805133D01*
X119205563Y-68812433D01*
X119274099Y-68826066D01*
X119306448Y-68839465D01*
X119329610Y-68845672D01*
X119350377Y-68857662D01*
X119382722Y-68871060D01*
X119440816Y-68909877D01*
X119465257Y-68923988D01*
X119471946Y-68930677D01*
X119480481Y-68936380D01*
X119563619Y-69019518D01*
X119569321Y-69028052D01*
X119576012Y-69034743D01*
X119590124Y-69059186D01*
X119628939Y-69117277D01*
X119642335Y-69149618D01*
X119654328Y-69170390D01*
X119660535Y-69193555D01*
X119673933Y-69225900D01*
X119687565Y-69294433D01*
X119694867Y-69321684D01*
X119694867Y-69331141D01*
X119696870Y-69341211D01*
X119696870Y-69458788D01*
X119694867Y-69468857D01*
X119694867Y-69478316D01*
X119687564Y-69505569D01*
X119673933Y-69574099D01*
X119660535Y-69606441D01*
X119654328Y-69629610D01*
X119642334Y-69650383D01*
X119628939Y-69682722D01*
X119590128Y-69740805D01*
X119576012Y-69765257D01*
X119569319Y-69771949D01*
X119563619Y-69780481D01*
X119480481Y-69863619D01*
X119471949Y-69869319D01*
X119465257Y-69876012D01*
X119440805Y-69890128D01*
X119382722Y-69928939D01*
X119350383Y-69942334D01*
X119329610Y-69954328D01*
X119306441Y-69960535D01*
X119274099Y-69973933D01*
X119205569Y-69987564D01*
X119178316Y-69994867D01*
X119168858Y-69994867D01*
X119158788Y-69996870D01*
X119041212Y-69996870D01*
X119031142Y-69994867D01*
X119021684Y-69994867D01*
X118994432Y-69987564D01*
X118925900Y-69973933D01*
X118893555Y-69960535D01*
X118870390Y-69954328D01*
X118849618Y-69942335D01*
X118817277Y-69928939D01*
X118759186Y-69890124D01*
X118734743Y-69876012D01*
X118728052Y-69869321D01*
X118719518Y-69863619D01*
X118636380Y-69780481D01*
X118630677Y-69771946D01*
X118623988Y-69765257D01*
X118609877Y-69740816D01*
X118571060Y-69682722D01*
X118557662Y-69650377D01*
X118545672Y-69629610D01*
X118539465Y-69606448D01*
X118526066Y-69574099D01*
X118512433Y-69505563D01*
X118505133Y-69478316D01*
X118505133Y-69468858D01*
X118503130Y-69458788D01*
X118503130Y-69341211D01*
X118505133Y-69331140D01*
X118505133Y-69321684D01*
X118512433Y-69294439D01*
X118526066Y-69225900D01*
X118539466Y-69193548D01*
X118545672Y-69170390D01*
X118557660Y-69149624D01*
X118571060Y-69117277D01*
X118609881Y-69059175D01*
X118623988Y-69034743D01*
X118630675Y-69028055D01*
X118636380Y-69019518D01*
X118719518Y-68936380D01*
X118728055Y-68930675D01*
X118734743Y-68923988D01*
X118759175Y-68909881D01*
X118817277Y-68871060D01*
X118849624Y-68857660D01*
X118870390Y-68845672D01*
X118893548Y-68839466D01*
X118925900Y-68826066D01*
X118994437Y-68812433D01*
X119021684Y-68805133D01*
X119031142Y-68805133D01*
X119041212Y-68803130D01*
X119158788Y-68803130D01*
X119168858Y-68805133D01*
G37*
G36*
X17301534Y-62618264D02*
G01*
X17334625Y-62640375D01*
X17356736Y-62673466D01*
X17364500Y-62712500D01*
X17364500Y-65487500D01*
X17356736Y-65526534D01*
X17334625Y-65559625D01*
X17301534Y-65581736D01*
X17262500Y-65589500D01*
X14487500Y-65589500D01*
X14448466Y-65581736D01*
X14415375Y-65559625D01*
X14393264Y-65526534D01*
X14385500Y-65487500D01*
X14385500Y-62712500D01*
X14393264Y-62673466D01*
X14415375Y-62640375D01*
X14448466Y-62618264D01*
X14487500Y-62610500D01*
X17262500Y-62610500D01*
X17301534Y-62618264D01*
G37*
G36*
X36426534Y-62618264D02*
G01*
X36459625Y-62640375D01*
X36481736Y-62673466D01*
X36489500Y-62712500D01*
X36489500Y-65487500D01*
X36481736Y-65526534D01*
X36459625Y-65559625D01*
X36426534Y-65581736D01*
X36387500Y-65589500D01*
X33612500Y-65589500D01*
X33573466Y-65581736D01*
X33540375Y-65559625D01*
X33518264Y-65526534D01*
X33510500Y-65487500D01*
X33510500Y-62712500D01*
X33518264Y-62673466D01*
X33540375Y-62640375D01*
X33573466Y-62618264D01*
X33612500Y-62610500D01*
X36387500Y-62610500D01*
X36426534Y-62618264D01*
G37*
G36*
X112018858Y-56255133D02*
G01*
X112028316Y-56255133D01*
X112055563Y-56262433D01*
X112124099Y-56276066D01*
X112156448Y-56289465D01*
X112179610Y-56295672D01*
X112200377Y-56307662D01*
X112232722Y-56321060D01*
X112290816Y-56359877D01*
X112315257Y-56373988D01*
X112321946Y-56380677D01*
X112330481Y-56386380D01*
X112413619Y-56469518D01*
X112419321Y-56478052D01*
X112426012Y-56484743D01*
X112440124Y-56509186D01*
X112478939Y-56567277D01*
X112492335Y-56599618D01*
X112504328Y-56620390D01*
X112510535Y-56643555D01*
X112523933Y-56675900D01*
X112537565Y-56744433D01*
X112544867Y-56771684D01*
X112544867Y-56781141D01*
X112546870Y-56791211D01*
X112546870Y-56908788D01*
X112544867Y-56918857D01*
X112544867Y-56928316D01*
X112537564Y-56955569D01*
X112523933Y-57024099D01*
X112510535Y-57056441D01*
X112504328Y-57079610D01*
X112492334Y-57100383D01*
X112478939Y-57132722D01*
X112440128Y-57190805D01*
X112426012Y-57215257D01*
X112419319Y-57221949D01*
X112413619Y-57230481D01*
X112330481Y-57313619D01*
X112321949Y-57319319D01*
X112315257Y-57326012D01*
X112290805Y-57340128D01*
X112232722Y-57378939D01*
X112200383Y-57392334D01*
X112179610Y-57404328D01*
X112156441Y-57410535D01*
X112124099Y-57423933D01*
X112055569Y-57437564D01*
X112028316Y-57444867D01*
X112018858Y-57444867D01*
X112008788Y-57446870D01*
X111891212Y-57446870D01*
X111881142Y-57444867D01*
X111871684Y-57444867D01*
X111844432Y-57437564D01*
X111775900Y-57423933D01*
X111743555Y-57410535D01*
X111720390Y-57404328D01*
X111699618Y-57392335D01*
X111667277Y-57378939D01*
X111609186Y-57340124D01*
X111584743Y-57326012D01*
X111578052Y-57319321D01*
X111569518Y-57313619D01*
X111486380Y-57230481D01*
X111480677Y-57221946D01*
X111473988Y-57215257D01*
X111459877Y-57190816D01*
X111421060Y-57132722D01*
X111407662Y-57100377D01*
X111395672Y-57079610D01*
X111389465Y-57056448D01*
X111376066Y-57024099D01*
X111362433Y-56955563D01*
X111355133Y-56928316D01*
X111355133Y-56918858D01*
X111353130Y-56908788D01*
X111353130Y-56791211D01*
X111355133Y-56781140D01*
X111355133Y-56771684D01*
X111362433Y-56744439D01*
X111376066Y-56675900D01*
X111389466Y-56643548D01*
X111395672Y-56620390D01*
X111407660Y-56599624D01*
X111421060Y-56567277D01*
X111459881Y-56509175D01*
X111473988Y-56484743D01*
X111480675Y-56478055D01*
X111486380Y-56469518D01*
X111569518Y-56386380D01*
X111578055Y-56380675D01*
X111584743Y-56373988D01*
X111609175Y-56359881D01*
X111667277Y-56321060D01*
X111699624Y-56307660D01*
X111720390Y-56295672D01*
X111743548Y-56289466D01*
X111775900Y-56276066D01*
X111844437Y-56262433D01*
X111871684Y-56255133D01*
X111881142Y-56255133D01*
X111891212Y-56253130D01*
X112008788Y-56253130D01*
X112018858Y-56255133D01*
G37*
G36*
X119018858Y-56255133D02*
G01*
X119028316Y-56255133D01*
X119055563Y-56262433D01*
X119124099Y-56276066D01*
X119156448Y-56289465D01*
X119179610Y-56295672D01*
X119200377Y-56307662D01*
X119232722Y-56321060D01*
X119290816Y-56359877D01*
X119315257Y-56373988D01*
X119321946Y-56380677D01*
X119330481Y-56386380D01*
X119413619Y-56469518D01*
X119419321Y-56478052D01*
X119426012Y-56484743D01*
X119440124Y-56509186D01*
X119478939Y-56567277D01*
X119492335Y-56599618D01*
X119504328Y-56620390D01*
X119510535Y-56643555D01*
X119523933Y-56675900D01*
X119537565Y-56744433D01*
X119544867Y-56771684D01*
X119544867Y-56781141D01*
X119546870Y-56791211D01*
X119546870Y-56908788D01*
X119544867Y-56918857D01*
X119544867Y-56928316D01*
X119537564Y-56955569D01*
X119523933Y-57024099D01*
X119510535Y-57056441D01*
X119504328Y-57079610D01*
X119492334Y-57100383D01*
X119478939Y-57132722D01*
X119440128Y-57190805D01*
X119426012Y-57215257D01*
X119419319Y-57221949D01*
X119413619Y-57230481D01*
X119330481Y-57313619D01*
X119321949Y-57319319D01*
X119315257Y-57326012D01*
X119290805Y-57340128D01*
X119232722Y-57378939D01*
X119200383Y-57392334D01*
X119179610Y-57404328D01*
X119156441Y-57410535D01*
X119124099Y-57423933D01*
X119055569Y-57437564D01*
X119028316Y-57444867D01*
X119018858Y-57444867D01*
X119008788Y-57446870D01*
X118891212Y-57446870D01*
X118881142Y-57444867D01*
X118871684Y-57444867D01*
X118844432Y-57437564D01*
X118775900Y-57423933D01*
X118743555Y-57410535D01*
X118720390Y-57404328D01*
X118699618Y-57392335D01*
X118667277Y-57378939D01*
X118609186Y-57340124D01*
X118584743Y-57326012D01*
X118578052Y-57319321D01*
X118569518Y-57313619D01*
X118486380Y-57230481D01*
X118480677Y-57221946D01*
X118473988Y-57215257D01*
X118459877Y-57190816D01*
X118421060Y-57132722D01*
X118407662Y-57100377D01*
X118395672Y-57079610D01*
X118389465Y-57056448D01*
X118376066Y-57024099D01*
X118362433Y-56955563D01*
X118355133Y-56928316D01*
X118355133Y-56918858D01*
X118353130Y-56908788D01*
X118353130Y-56791211D01*
X118355133Y-56781140D01*
X118355133Y-56771684D01*
X118362433Y-56744439D01*
X118376066Y-56675900D01*
X118389466Y-56643548D01*
X118395672Y-56620390D01*
X118407660Y-56599624D01*
X118421060Y-56567277D01*
X118459881Y-56509175D01*
X118473988Y-56484743D01*
X118480675Y-56478055D01*
X118486380Y-56469518D01*
X118569518Y-56386380D01*
X118578055Y-56380675D01*
X118584743Y-56373988D01*
X118609175Y-56359881D01*
X118667277Y-56321060D01*
X118699624Y-56307660D01*
X118720390Y-56295672D01*
X118743548Y-56289466D01*
X118775900Y-56276066D01*
X118844437Y-56262433D01*
X118871684Y-56255133D01*
X118881142Y-56255133D01*
X118891212Y-56253130D01*
X119008788Y-56253130D01*
X119018858Y-56255133D01*
G37*
G36*
X12624038Y-54737271D02*
G01*
X12777856Y-54800984D01*
X12916289Y-54893482D01*
X13034017Y-55011210D01*
X13126515Y-55149643D01*
X13190228Y-55303461D01*
X13222709Y-55466754D01*
X13222709Y-55633246D01*
X13190228Y-55796539D01*
X13126515Y-55950357D01*
X13034017Y-56088790D01*
X12916289Y-56206518D01*
X12777856Y-56299016D01*
X12624038Y-56362729D01*
X12460745Y-56395210D01*
X12294253Y-56395210D01*
X12130960Y-56362729D01*
X11977142Y-56299016D01*
X11838709Y-56206518D01*
X11720981Y-56088790D01*
X11628483Y-55950357D01*
X11564770Y-55796539D01*
X11532289Y-55633246D01*
X11532289Y-55466754D01*
X11564770Y-55303461D01*
X11628483Y-55149643D01*
X11720981Y-55011210D01*
X11838709Y-54893482D01*
X11977142Y-54800984D01*
X12130960Y-54737271D01*
X12294253Y-54704790D01*
X12460745Y-54704790D01*
X12624038Y-54737271D01*
G37*
G36*
X19124040Y-54737271D02*
G01*
X19277858Y-54800984D01*
X19416291Y-54893482D01*
X19534019Y-55011210D01*
X19626517Y-55149643D01*
X19690230Y-55303461D01*
X19722711Y-55466754D01*
X19722711Y-55633246D01*
X19690230Y-55796539D01*
X19626517Y-55950357D01*
X19534019Y-56088790D01*
X19416291Y-56206518D01*
X19277858Y-56299016D01*
X19124040Y-56362729D01*
X18960747Y-56395210D01*
X18794255Y-56395210D01*
X18630962Y-56362729D01*
X18477144Y-56299016D01*
X18338711Y-56206518D01*
X18220983Y-56088790D01*
X18128485Y-55950357D01*
X18064772Y-55796539D01*
X18032291Y-55633246D01*
X18032291Y-55466754D01*
X18064772Y-55303461D01*
X18128485Y-55149643D01*
X18220983Y-55011210D01*
X18338711Y-54893482D01*
X18477144Y-54800984D01*
X18630962Y-54737271D01*
X18794255Y-54704790D01*
X18960747Y-54704790D01*
X19124040Y-54737271D01*
G37*
G36*
X31749038Y-54737271D02*
G01*
X31902856Y-54800984D01*
X32041289Y-54893482D01*
X32159017Y-55011210D01*
X32251515Y-55149643D01*
X32315228Y-55303461D01*
X32347709Y-55466754D01*
X32347709Y-55633246D01*
X32315228Y-55796539D01*
X32251515Y-55950357D01*
X32159017Y-56088790D01*
X32041289Y-56206518D01*
X31902856Y-56299016D01*
X31749038Y-56362729D01*
X31585745Y-56395210D01*
X31419253Y-56395210D01*
X31255960Y-56362729D01*
X31102142Y-56299016D01*
X30963709Y-56206518D01*
X30845981Y-56088790D01*
X30753483Y-55950357D01*
X30689770Y-55796539D01*
X30657289Y-55633246D01*
X30657289Y-55466754D01*
X30689770Y-55303461D01*
X30753483Y-55149643D01*
X30845981Y-55011210D01*
X30963709Y-54893482D01*
X31102142Y-54800984D01*
X31255960Y-54737271D01*
X31419253Y-54704790D01*
X31585745Y-54704790D01*
X31749038Y-54737271D01*
G37*
G36*
X38249040Y-54737271D02*
G01*
X38402858Y-54800984D01*
X38541291Y-54893482D01*
X38659019Y-55011210D01*
X38751517Y-55149643D01*
X38815230Y-55303461D01*
X38847711Y-55466754D01*
X38847711Y-55633246D01*
X38815230Y-55796539D01*
X38751517Y-55950357D01*
X38659019Y-56088790D01*
X38541291Y-56206518D01*
X38402858Y-56299016D01*
X38249040Y-56362729D01*
X38085747Y-56395210D01*
X37919255Y-56395210D01*
X37755962Y-56362729D01*
X37602144Y-56299016D01*
X37463711Y-56206518D01*
X37345983Y-56088790D01*
X37253485Y-55950357D01*
X37189772Y-55796539D01*
X37157291Y-55633246D01*
X37157291Y-55466754D01*
X37189772Y-55303461D01*
X37253485Y-55149643D01*
X37345983Y-55011210D01*
X37463711Y-54893482D01*
X37602144Y-54800984D01*
X37755962Y-54737271D01*
X37919255Y-54704790D01*
X38085747Y-54704790D01*
X38249040Y-54737271D01*
G37*
G36*
X13165067Y-50208311D02*
G01*
X13197510Y-50229988D01*
X13219187Y-50262431D01*
X13226799Y-50300699D01*
X13226799Y-51799299D01*
X13219187Y-51837567D01*
X13197510Y-51870010D01*
X13165067Y-51891687D01*
X13126799Y-51899299D01*
X11628199Y-51899299D01*
X11589931Y-51891687D01*
X11557488Y-51870010D01*
X11535811Y-51837567D01*
X11528199Y-51799299D01*
X11528199Y-50300699D01*
X11535811Y-50262431D01*
X11557488Y-50229988D01*
X11589931Y-50208311D01*
X11628199Y-50200699D01*
X13126799Y-50200699D01*
X13165067Y-50208311D01*
G37*
G36*
X32290067Y-50208311D02*
G01*
X32322510Y-50229988D01*
X32344187Y-50262431D01*
X32351799Y-50300699D01*
X32351799Y-51799299D01*
X32344187Y-51837567D01*
X32322510Y-51870010D01*
X32290067Y-51891687D01*
X32251799Y-51899299D01*
X30753199Y-51899299D01*
X30714931Y-51891687D01*
X30682488Y-51870010D01*
X30660811Y-51837567D01*
X30653199Y-51799299D01*
X30653199Y-50300699D01*
X30660811Y-50262431D01*
X30682488Y-50229988D01*
X30714931Y-50208311D01*
X30753199Y-50200699D01*
X32251799Y-50200699D01*
X32290067Y-50208311D01*
G37*
G36*
X19124040Y-50237270D02*
G01*
X19277858Y-50300983D01*
X19416291Y-50393481D01*
X19534019Y-50511209D01*
X19626517Y-50649642D01*
X19690230Y-50803460D01*
X19722711Y-50966753D01*
X19722711Y-51133245D01*
X19690230Y-51296538D01*
X19626517Y-51450356D01*
X19534019Y-51588789D01*
X19416291Y-51706517D01*
X19277858Y-51799015D01*
X19124040Y-51862728D01*
X18960747Y-51895209D01*
X18794255Y-51895209D01*
X18630962Y-51862728D01*
X18477144Y-51799015D01*
X18338711Y-51706517D01*
X18220983Y-51588789D01*
X18128485Y-51450356D01*
X18064772Y-51296538D01*
X18032291Y-51133245D01*
X18032291Y-50966753D01*
X18064772Y-50803460D01*
X18128485Y-50649642D01*
X18220983Y-50511209D01*
X18338711Y-50393481D01*
X18477144Y-50300983D01*
X18630962Y-50237270D01*
X18794255Y-50204789D01*
X18960747Y-50204789D01*
X19124040Y-50237270D01*
G37*
G36*
X38249040Y-50237270D02*
G01*
X38402858Y-50300983D01*
X38541291Y-50393481D01*
X38659019Y-50511209D01*
X38751517Y-50649642D01*
X38815230Y-50803460D01*
X38847711Y-50966753D01*
X38847711Y-51133245D01*
X38815230Y-51296538D01*
X38751517Y-51450356D01*
X38659019Y-51588789D01*
X38541291Y-51706517D01*
X38402858Y-51799015D01*
X38249040Y-51862728D01*
X38085747Y-51895209D01*
X37919255Y-51895209D01*
X37755962Y-51862728D01*
X37602144Y-51799015D01*
X37463711Y-51706517D01*
X37345983Y-51588789D01*
X37253485Y-51450356D01*
X37189772Y-51296538D01*
X37157291Y-51133245D01*
X37157291Y-50966753D01*
X37189772Y-50803460D01*
X37253485Y-50649642D01*
X37345983Y-50511209D01*
X37463711Y-50393481D01*
X37602144Y-50300983D01*
X37755962Y-50237270D01*
X37919255Y-50204789D01*
X38085747Y-50204789D01*
X38249040Y-50237270D01*
G37*
G36*
X115373686Y-41650241D02*
G01*
X115427577Y-41652889D01*
X115434210Y-41654208D01*
X115448316Y-41655133D01*
X115475562Y-41662433D01*
X115544099Y-41676066D01*
X115576448Y-41689465D01*
X115599610Y-41695672D01*
X115620377Y-41707662D01*
X115652722Y-41721060D01*
X115710816Y-41759877D01*
X115735257Y-41773988D01*
X115741946Y-41780677D01*
X115750481Y-41786380D01*
X115833619Y-41869518D01*
X115839321Y-41878052D01*
X115846012Y-41884743D01*
X115860124Y-41909186D01*
X115898939Y-41967277D01*
X115912335Y-41999618D01*
X115924328Y-42020390D01*
X115930535Y-42043555D01*
X115943933Y-42075900D01*
X115957565Y-42144433D01*
X115964867Y-42171684D01*
X115964867Y-42181141D01*
X115966870Y-42191211D01*
X115966870Y-42308788D01*
X115964867Y-42318857D01*
X115964867Y-42328316D01*
X115957564Y-42355569D01*
X115943933Y-42424099D01*
X115930535Y-42456441D01*
X115924328Y-42479610D01*
X115912334Y-42500383D01*
X115898939Y-42532722D01*
X115860128Y-42590805D01*
X115846012Y-42615257D01*
X115839319Y-42621949D01*
X115833619Y-42630481D01*
X115750481Y-42713619D01*
X115741949Y-42719319D01*
X115735257Y-42726012D01*
X115710805Y-42740128D01*
X115652722Y-42778939D01*
X115620383Y-42792334D01*
X115599610Y-42804328D01*
X115576441Y-42810535D01*
X115544099Y-42823933D01*
X115475576Y-42837562D01*
X115448316Y-42844867D01*
X115434203Y-42845791D01*
X115427577Y-42847110D01*
X115373691Y-42849758D01*
X115370000Y-42850000D01*
X115368768Y-42850000D01*
X114271232Y-42850000D01*
X114270000Y-42850000D01*
X114266308Y-42849758D01*
X114212422Y-42847110D01*
X114205795Y-42845791D01*
X114191684Y-42844867D01*
X114164426Y-42837563D01*
X114095900Y-42823933D01*
X114063555Y-42810535D01*
X114040390Y-42804328D01*
X114019618Y-42792335D01*
X113987277Y-42778939D01*
X113929186Y-42740124D01*
X113904743Y-42726012D01*
X113898052Y-42719321D01*
X113889518Y-42713619D01*
X113806380Y-42630481D01*
X113800677Y-42621946D01*
X113793988Y-42615257D01*
X113779877Y-42590816D01*
X113741060Y-42532722D01*
X113727662Y-42500377D01*
X113715672Y-42479610D01*
X113709465Y-42456448D01*
X113696066Y-42424099D01*
X113682433Y-42355563D01*
X113675133Y-42328316D01*
X113675133Y-42318858D01*
X113673130Y-42308788D01*
X113673130Y-42191211D01*
X113675133Y-42181140D01*
X113675133Y-42171684D01*
X113682433Y-42144439D01*
X113696066Y-42075900D01*
X113709466Y-42043548D01*
X113715672Y-42020390D01*
X113727660Y-41999624D01*
X113741060Y-41967277D01*
X113779881Y-41909175D01*
X113793988Y-41884743D01*
X113800675Y-41878055D01*
X113806380Y-41869518D01*
X113889518Y-41786380D01*
X113898055Y-41780675D01*
X113904743Y-41773988D01*
X113929175Y-41759881D01*
X113987277Y-41721060D01*
X114019624Y-41707660D01*
X114040390Y-41695672D01*
X114063548Y-41689466D01*
X114095900Y-41676066D01*
X114164440Y-41662432D01*
X114191684Y-41655133D01*
X114205787Y-41654208D01*
X114212422Y-41652889D01*
X114266313Y-41650241D01*
X114270000Y-41650000D01*
X115370000Y-41650000D01*
X115373686Y-41650241D01*
G37*
G36*
X119403686Y-41650241D02*
G01*
X119457577Y-41652889D01*
X119464210Y-41654208D01*
X119478316Y-41655133D01*
X119505562Y-41662433D01*
X119574099Y-41676066D01*
X119606448Y-41689465D01*
X119629610Y-41695672D01*
X119650377Y-41707662D01*
X119682722Y-41721060D01*
X119740816Y-41759877D01*
X119765257Y-41773988D01*
X119771946Y-41780677D01*
X119780481Y-41786380D01*
X119863619Y-41869518D01*
X119869321Y-41878052D01*
X119876012Y-41884743D01*
X119890124Y-41909186D01*
X119928939Y-41967277D01*
X119942335Y-41999618D01*
X119954328Y-42020390D01*
X119960535Y-42043555D01*
X119973933Y-42075900D01*
X119987565Y-42144433D01*
X119994867Y-42171684D01*
X119994867Y-42181141D01*
X119996870Y-42191211D01*
X119996870Y-42308788D01*
X119994867Y-42318857D01*
X119994867Y-42328316D01*
X119987564Y-42355569D01*
X119973933Y-42424099D01*
X119960535Y-42456441D01*
X119954328Y-42479610D01*
X119942334Y-42500383D01*
X119928939Y-42532722D01*
X119890128Y-42590805D01*
X119876012Y-42615257D01*
X119869319Y-42621949D01*
X119863619Y-42630481D01*
X119780481Y-42713619D01*
X119771949Y-42719319D01*
X119765257Y-42726012D01*
X119740805Y-42740128D01*
X119682722Y-42778939D01*
X119650383Y-42792334D01*
X119629610Y-42804328D01*
X119606441Y-42810535D01*
X119574099Y-42823933D01*
X119505576Y-42837562D01*
X119478316Y-42844867D01*
X119464203Y-42845791D01*
X119457577Y-42847110D01*
X119403691Y-42849758D01*
X119400000Y-42850000D01*
X119398768Y-42850000D01*
X118601232Y-42850000D01*
X118600000Y-42850000D01*
X118596308Y-42849758D01*
X118542422Y-42847110D01*
X118535795Y-42845791D01*
X118521684Y-42844867D01*
X118494426Y-42837563D01*
X118425900Y-42823933D01*
X118393555Y-42810535D01*
X118370390Y-42804328D01*
X118349618Y-42792335D01*
X118317277Y-42778939D01*
X118259186Y-42740124D01*
X118234743Y-42726012D01*
X118228052Y-42719321D01*
X118219518Y-42713619D01*
X118136380Y-42630481D01*
X118130677Y-42621946D01*
X118123988Y-42615257D01*
X118109877Y-42590816D01*
X118071060Y-42532722D01*
X118057662Y-42500377D01*
X118045672Y-42479610D01*
X118039465Y-42456448D01*
X118026066Y-42424099D01*
X118012433Y-42355563D01*
X118005133Y-42328316D01*
X118005133Y-42318858D01*
X118003130Y-42308788D01*
X118003130Y-42191211D01*
X118005133Y-42181140D01*
X118005133Y-42171684D01*
X118012433Y-42144439D01*
X118026066Y-42075900D01*
X118039466Y-42043548D01*
X118045672Y-42020390D01*
X118057660Y-41999624D01*
X118071060Y-41967277D01*
X118109881Y-41909175D01*
X118123988Y-41884743D01*
X118130675Y-41878055D01*
X118136380Y-41869518D01*
X118219518Y-41786380D01*
X118228055Y-41780675D01*
X118234743Y-41773988D01*
X118259175Y-41759881D01*
X118317277Y-41721060D01*
X118349624Y-41707660D01*
X118370390Y-41695672D01*
X118393548Y-41689466D01*
X118425900Y-41676066D01*
X118494440Y-41662432D01*
X118521684Y-41655133D01*
X118535787Y-41654208D01*
X118542422Y-41652889D01*
X118596313Y-41650241D01*
X118600000Y-41650000D01*
X119400000Y-41650000D01*
X119403686Y-41650241D01*
G37*
G36*
X115482640Y-40427351D02*
G01*
X115578724Y-40482825D01*
X115657175Y-40561276D01*
X115712649Y-40657360D01*
X115741364Y-40764526D01*
X115741364Y-40875474D01*
X115712649Y-40982640D01*
X115657175Y-41078724D01*
X115578724Y-41157175D01*
X115482640Y-41212649D01*
X115375474Y-41241364D01*
X115264526Y-41241364D01*
X115157360Y-41212649D01*
X115061276Y-41157175D01*
X114982825Y-41078724D01*
X114927351Y-40982640D01*
X114898636Y-40875474D01*
X114898636Y-40764526D01*
X114927351Y-40657360D01*
X114982825Y-40561276D01*
X115061276Y-40482825D01*
X115157360Y-40427351D01*
X115264526Y-40398636D01*
X115375474Y-40398636D01*
X115482640Y-40427351D01*
G37*
G36*
X13086607Y-35455847D02*
G01*
X13349944Y-35526408D01*
X13601818Y-35630738D01*
X13837919Y-35767051D01*
X14054209Y-35933015D01*
X14246985Y-36125791D01*
X14412949Y-36342081D01*
X14549262Y-36578182D01*
X14653592Y-36830056D01*
X14724153Y-37093393D01*
X14759738Y-37363687D01*
X14759738Y-37636313D01*
X14724153Y-37906607D01*
X14653592Y-38169944D01*
X14549262Y-38421818D01*
X14412949Y-38657919D01*
X14246985Y-38874209D01*
X14054209Y-39066985D01*
X13837919Y-39232949D01*
X13601818Y-39369262D01*
X13349944Y-39473592D01*
X13086607Y-39544153D01*
X12816313Y-39579738D01*
X12543687Y-39579738D01*
X12273393Y-39544153D01*
X12010056Y-39473592D01*
X11758182Y-39369262D01*
X11522081Y-39232949D01*
X11305791Y-39066985D01*
X11113015Y-38874209D01*
X10947051Y-38657919D01*
X10810738Y-38421818D01*
X10706408Y-38169944D01*
X10635847Y-37906607D01*
X10600262Y-37636313D01*
X10600262Y-37363687D01*
X10635847Y-37093393D01*
X10706408Y-36830056D01*
X10810738Y-36578182D01*
X10947051Y-36342081D01*
X11113015Y-36125791D01*
X11305791Y-35933015D01*
X11522081Y-35767051D01*
X11758182Y-35630738D01*
X12010056Y-35526408D01*
X12273393Y-35455847D01*
X12543687Y-35420262D01*
X12816313Y-35420262D01*
X13086607Y-35455847D01*
G37*
G36*
X50486607Y-35455847D02*
G01*
X50749944Y-35526408D01*
X51001818Y-35630738D01*
X51237919Y-35767051D01*
X51454209Y-35933015D01*
X51646985Y-36125791D01*
X51812949Y-36342081D01*
X51949262Y-36578182D01*
X52053592Y-36830056D01*
X52124153Y-37093393D01*
X52159738Y-37363687D01*
X52159738Y-37636313D01*
X52124153Y-37906607D01*
X52053592Y-38169944D01*
X51949262Y-38421818D01*
X51812949Y-38657919D01*
X51646985Y-38874209D01*
X51454209Y-39066985D01*
X51237919Y-39232949D01*
X51001818Y-39369262D01*
X50749944Y-39473592D01*
X50486607Y-39544153D01*
X50216313Y-39579738D01*
X49943687Y-39579738D01*
X49673393Y-39544153D01*
X49410056Y-39473592D01*
X49158182Y-39369262D01*
X48922081Y-39232949D01*
X48705791Y-39066985D01*
X48513015Y-38874209D01*
X48347051Y-38657919D01*
X48210738Y-38421818D01*
X48106408Y-38169944D01*
X48035847Y-37906607D01*
X48000262Y-37636313D01*
X48000262Y-37363687D01*
X48035847Y-37093393D01*
X48106408Y-36830056D01*
X48210738Y-36578182D01*
X48347051Y-36342081D01*
X48513015Y-36125791D01*
X48705791Y-35933015D01*
X48922081Y-35767051D01*
X49158182Y-35630738D01*
X49410056Y-35526408D01*
X49673393Y-35455847D01*
X49943687Y-35420262D01*
X50216313Y-35420262D01*
X50486607Y-35455847D01*
G37*
G36*
X115482640Y-34647351D02*
G01*
X115578724Y-34702825D01*
X115657175Y-34781276D01*
X115712649Y-34877360D01*
X115741364Y-34984526D01*
X115741364Y-35095474D01*
X115712649Y-35202640D01*
X115657175Y-35298724D01*
X115578724Y-35377175D01*
X115482640Y-35432649D01*
X115375474Y-35461364D01*
X115264526Y-35461364D01*
X115157360Y-35432649D01*
X115061276Y-35377175D01*
X114982825Y-35298724D01*
X114927351Y-35202640D01*
X114898636Y-35095474D01*
X114898636Y-34984526D01*
X114927351Y-34877360D01*
X114982825Y-34781276D01*
X115061276Y-34702825D01*
X115157360Y-34647351D01*
X115264526Y-34618636D01*
X115375474Y-34618636D01*
X115482640Y-34647351D01*
G37*
G36*
X115373686Y-33010241D02*
G01*
X115427577Y-33012889D01*
X115434210Y-33014208D01*
X115448316Y-33015133D01*
X115475562Y-33022433D01*
X115544099Y-33036066D01*
X115576448Y-33049465D01*
X115599610Y-33055672D01*
X115620377Y-33067662D01*
X115652722Y-33081060D01*
X115710816Y-33119877D01*
X115735257Y-33133988D01*
X115741946Y-33140677D01*
X115750481Y-33146380D01*
X115833619Y-33229518D01*
X115839321Y-33238052D01*
X115846012Y-33244743D01*
X115860124Y-33269186D01*
X115898939Y-33327277D01*
X115912335Y-33359618D01*
X115924328Y-33380390D01*
X115930535Y-33403555D01*
X115943933Y-33435900D01*
X115957565Y-33504433D01*
X115964867Y-33531684D01*
X115964867Y-33541141D01*
X115966870Y-33551211D01*
X115966870Y-33668788D01*
X115964867Y-33678857D01*
X115964867Y-33688316D01*
X115957564Y-33715569D01*
X115943933Y-33784099D01*
X115930535Y-33816441D01*
X115924328Y-33839610D01*
X115912334Y-33860383D01*
X115898939Y-33892722D01*
X115860128Y-33950805D01*
X115846012Y-33975257D01*
X115839319Y-33981949D01*
X115833619Y-33990481D01*
X115750481Y-34073619D01*
X115741949Y-34079319D01*
X115735257Y-34086012D01*
X115710805Y-34100128D01*
X115652722Y-34138939D01*
X115620383Y-34152334D01*
X115599610Y-34164328D01*
X115576441Y-34170535D01*
X115544099Y-34183933D01*
X115475576Y-34197562D01*
X115448316Y-34204867D01*
X115434203Y-34205791D01*
X115427577Y-34207110D01*
X115373691Y-34209758D01*
X115370000Y-34210000D01*
X115368768Y-34210000D01*
X114271232Y-34210000D01*
X114270000Y-34210000D01*
X114266308Y-34209758D01*
X114212422Y-34207110D01*
X114205795Y-34205791D01*
X114191684Y-34204867D01*
X114164426Y-34197563D01*
X114095900Y-34183933D01*
X114063555Y-34170535D01*
X114040390Y-34164328D01*
X114019618Y-34152335D01*
X113987277Y-34138939D01*
X113929186Y-34100124D01*
X113904743Y-34086012D01*
X113898052Y-34079321D01*
X113889518Y-34073619D01*
X113806380Y-33990481D01*
X113800677Y-33981946D01*
X113793988Y-33975257D01*
X113779877Y-33950816D01*
X113741060Y-33892722D01*
X113727662Y-33860377D01*
X113715672Y-33839610D01*
X113709465Y-33816448D01*
X113696066Y-33784099D01*
X113682433Y-33715563D01*
X113675133Y-33688316D01*
X113675133Y-33678858D01*
X113673130Y-33668788D01*
X113673130Y-33551211D01*
X113675133Y-33541140D01*
X113675133Y-33531684D01*
X113682433Y-33504439D01*
X113696066Y-33435900D01*
X113709466Y-33403548D01*
X113715672Y-33380390D01*
X113727660Y-33359624D01*
X113741060Y-33327277D01*
X113779881Y-33269175D01*
X113793988Y-33244743D01*
X113800675Y-33238055D01*
X113806380Y-33229518D01*
X113889518Y-33146380D01*
X113898055Y-33140675D01*
X113904743Y-33133988D01*
X113929175Y-33119881D01*
X113987277Y-33081060D01*
X114019624Y-33067660D01*
X114040390Y-33055672D01*
X114063548Y-33049466D01*
X114095900Y-33036066D01*
X114164440Y-33022432D01*
X114191684Y-33015133D01*
X114205787Y-33014208D01*
X114212422Y-33012889D01*
X114266313Y-33010241D01*
X114270000Y-33010000D01*
X115370000Y-33010000D01*
X115373686Y-33010241D01*
G37*
G36*
X119403686Y-33010241D02*
G01*
X119457577Y-33012889D01*
X119464210Y-33014208D01*
X119478316Y-33015133D01*
X119505562Y-33022433D01*
X119574099Y-33036066D01*
X119606448Y-33049465D01*
X119629610Y-33055672D01*
X119650377Y-33067662D01*
X119682722Y-33081060D01*
X119740816Y-33119877D01*
X119765257Y-33133988D01*
X119771946Y-33140677D01*
X119780481Y-33146380D01*
X119863619Y-33229518D01*
X119869321Y-33238052D01*
X119876012Y-33244743D01*
X119890124Y-33269186D01*
X119928939Y-33327277D01*
X119942335Y-33359618D01*
X119954328Y-33380390D01*
X119960535Y-33403555D01*
X119973933Y-33435900D01*
X119987565Y-33504433D01*
X119994867Y-33531684D01*
X119994867Y-33541141D01*
X119996870Y-33551211D01*
X119996870Y-33668788D01*
X119994867Y-33678857D01*
X119994867Y-33688316D01*
X119987564Y-33715569D01*
X119973933Y-33784099D01*
X119960535Y-33816441D01*
X119954328Y-33839610D01*
X119942334Y-33860383D01*
X119928939Y-33892722D01*
X119890128Y-33950805D01*
X119876012Y-33975257D01*
X119869319Y-33981949D01*
X119863619Y-33990481D01*
X119780481Y-34073619D01*
X119771949Y-34079319D01*
X119765257Y-34086012D01*
X119740805Y-34100128D01*
X119682722Y-34138939D01*
X119650383Y-34152334D01*
X119629610Y-34164328D01*
X119606441Y-34170535D01*
X119574099Y-34183933D01*
X119505576Y-34197562D01*
X119478316Y-34204867D01*
X119464203Y-34205791D01*
X119457577Y-34207110D01*
X119403691Y-34209758D01*
X119400000Y-34210000D01*
X119398768Y-34210000D01*
X118601232Y-34210000D01*
X118600000Y-34210000D01*
X118596308Y-34209758D01*
X118542422Y-34207110D01*
X118535795Y-34205791D01*
X118521684Y-34204867D01*
X118494426Y-34197563D01*
X118425900Y-34183933D01*
X118393555Y-34170535D01*
X118370390Y-34164328D01*
X118349618Y-34152335D01*
X118317277Y-34138939D01*
X118259186Y-34100124D01*
X118234743Y-34086012D01*
X118228052Y-34079321D01*
X118219518Y-34073619D01*
X118136380Y-33990481D01*
X118130677Y-33981946D01*
X118123988Y-33975257D01*
X118109877Y-33950816D01*
X118071060Y-33892722D01*
X118057662Y-33860377D01*
X118045672Y-33839610D01*
X118039465Y-33816448D01*
X118026066Y-33784099D01*
X118012433Y-33715563D01*
X118005133Y-33688316D01*
X118005133Y-33678858D01*
X118003130Y-33668788D01*
X118003130Y-33551211D01*
X118005133Y-33541140D01*
X118005133Y-33531684D01*
X118012433Y-33504439D01*
X118026066Y-33435900D01*
X118039466Y-33403548D01*
X118045672Y-33380390D01*
X118057660Y-33359624D01*
X118071060Y-33327277D01*
X118109881Y-33269175D01*
X118123988Y-33244743D01*
X118130675Y-33238055D01*
X118136380Y-33229518D01*
X118219518Y-33146380D01*
X118228055Y-33140675D01*
X118234743Y-33133988D01*
X118259175Y-33119881D01*
X118317277Y-33081060D01*
X118349624Y-33067660D01*
X118370390Y-33055672D01*
X118393548Y-33049466D01*
X118425900Y-33036066D01*
X118494440Y-33022432D01*
X118521684Y-33015133D01*
X118535787Y-33014208D01*
X118542422Y-33012889D01*
X118596313Y-33010241D01*
X118600000Y-33010000D01*
X119400000Y-33010000D01*
X119403686Y-33010241D01*
G37*
G36*
X5985768Y-2640974D02*
G01*
X6302823Y-2713340D01*
X6609782Y-2820749D01*
X6902785Y-2961852D01*
X7178147Y-3134873D01*
X7432405Y-3337638D01*
X7662362Y-3567595D01*
X7865127Y-3821853D01*
X8038148Y-4097215D01*
X8179251Y-4390218D01*
X8286660Y-4697177D01*
X8359026Y-5014232D01*
X8395438Y-5337396D01*
X8395438Y-5662604D01*
X8359026Y-5985768D01*
X8286660Y-6302823D01*
X8179251Y-6609782D01*
X8038148Y-6902785D01*
X7865127Y-7178147D01*
X7662362Y-7432405D01*
X7432405Y-7662362D01*
X7178147Y-7865127D01*
X6902785Y-8038148D01*
X6609782Y-8179251D01*
X6302823Y-8286660D01*
X5985768Y-8359026D01*
X5662604Y-8395438D01*
X5337396Y-8395438D01*
X5014232Y-8359026D01*
X4697177Y-8286660D01*
X4390218Y-8179251D01*
X4097215Y-8038148D01*
X3821853Y-7865127D01*
X3567595Y-7662362D01*
X3337638Y-7432405D01*
X3134873Y-7178147D01*
X2961852Y-6902785D01*
X2820749Y-6609782D01*
X2713340Y-6302823D01*
X2640974Y-5985768D01*
X2604562Y-5662604D01*
X2604562Y-5337396D01*
X2640974Y-5014232D01*
X2713340Y-4697177D01*
X2820749Y-4390218D01*
X2961852Y-4097215D01*
X3134873Y-3821853D01*
X3337638Y-3567595D01*
X3567595Y-3337638D01*
X3821853Y-3134873D01*
X4097215Y-2961852D01*
X4390218Y-2820749D01*
X4697177Y-2713340D01*
X5014232Y-2640974D01*
X5337396Y-2604562D01*
X5662604Y-2604562D01*
X5985768Y-2640974D01*
G37*
G36*
X115985768Y-2640974D02*
G01*
X116302823Y-2713340D01*
X116609782Y-2820749D01*
X116902785Y-2961852D01*
X117178147Y-3134873D01*
X117432405Y-3337638D01*
X117662362Y-3567595D01*
X117865127Y-3821853D01*
X118038148Y-4097215D01*
X118179251Y-4390218D01*
X118286660Y-4697177D01*
X118359026Y-5014232D01*
X118395438Y-5337396D01*
X118395438Y-5662604D01*
X118359026Y-5985768D01*
X118286660Y-6302823D01*
X118179251Y-6609782D01*
X118038148Y-6902785D01*
X117865127Y-7178147D01*
X117662362Y-7432405D01*
X117432405Y-7662362D01*
X117178147Y-7865127D01*
X116902785Y-8038148D01*
X116609782Y-8179251D01*
X116302823Y-8286660D01*
X115985768Y-8359026D01*
X115662604Y-8395438D01*
X115337396Y-8395438D01*
X115014232Y-8359026D01*
X114697177Y-8286660D01*
X114390218Y-8179251D01*
X114097215Y-8038148D01*
X113821853Y-7865127D01*
X113567595Y-7662362D01*
X113337638Y-7432405D01*
X113134873Y-7178147D01*
X112961852Y-6902785D01*
X112820749Y-6609782D01*
X112713340Y-6302823D01*
X112640974Y-5985768D01*
X112604562Y-5662604D01*
X112604562Y-5337396D01*
X112640974Y-5014232D01*
X112713340Y-4697177D01*
X112820749Y-4390218D01*
X112961852Y-4097215D01*
X113134873Y-3821853D01*
X113337638Y-3567595D01*
X113567595Y-3337638D01*
X113821853Y-3134873D01*
X114097215Y-2961852D01*
X114390218Y-2820749D01*
X114697177Y-2713340D01*
X115014232Y-2640974D01*
X115337396Y-2604562D01*
X115662604Y-2604562D01*
X115985768Y-2640974D01*
G37*
G36*
X13086607Y-2455847D02*
G01*
X13349944Y-2526408D01*
X13601818Y-2630738D01*
X13837919Y-2767051D01*
X14054209Y-2933015D01*
X14246985Y-3125791D01*
X14412949Y-3342081D01*
X14549262Y-3578182D01*
X14653592Y-3830056D01*
X14724153Y-4093393D01*
X14759738Y-4363687D01*
X14759738Y-4636313D01*
X14724153Y-4906607D01*
X14653592Y-5169944D01*
X14549262Y-5421818D01*
X14412949Y-5657919D01*
X14246985Y-5874209D01*
X14054209Y-6066985D01*
X13837919Y-6232949D01*
X13601818Y-6369262D01*
X13349944Y-6473592D01*
X13086607Y-6544153D01*
X12816313Y-6579738D01*
X12543687Y-6579738D01*
X12273393Y-6544153D01*
X12010056Y-6473592D01*
X11758182Y-6369262D01*
X11522081Y-6232949D01*
X11305791Y-6066985D01*
X11113015Y-5874209D01*
X10947051Y-5657919D01*
X10810738Y-5421818D01*
X10706408Y-5169944D01*
X10635847Y-4906607D01*
X10600262Y-4636313D01*
X10600262Y-4363687D01*
X10635847Y-4093393D01*
X10706408Y-3830056D01*
X10810738Y-3578182D01*
X10947051Y-3342081D01*
X11113015Y-3125791D01*
X11305791Y-2933015D01*
X11522081Y-2767051D01*
X11758182Y-2630738D01*
X12010056Y-2526408D01*
X12273393Y-2455847D01*
X12543687Y-2420262D01*
X12816313Y-2420262D01*
X13086607Y-2455847D01*
G37*
G36*
X50486607Y-2455847D02*
G01*
X50749944Y-2526408D01*
X51001818Y-2630738D01*
X51237919Y-2767051D01*
X51454209Y-2933015D01*
X51646985Y-3125791D01*
X51812949Y-3342081D01*
X51949262Y-3578182D01*
X52053592Y-3830056D01*
X52124153Y-4093393D01*
X52159738Y-4363687D01*
X52159738Y-4636313D01*
X52124153Y-4906607D01*
X52053592Y-5169944D01*
X51949262Y-5421818D01*
X51812949Y-5657919D01*
X51646985Y-5874209D01*
X51454209Y-6066985D01*
X51237919Y-6232949D01*
X51001818Y-6369262D01*
X50749944Y-6473592D01*
X50486607Y-6544153D01*
X50216313Y-6579738D01*
X49943687Y-6579738D01*
X49673393Y-6544153D01*
X49410056Y-6473592D01*
X49158182Y-6369262D01*
X48922081Y-6232949D01*
X48705791Y-6066985D01*
X48513015Y-5874209D01*
X48347051Y-5657919D01*
X48210738Y-5421818D01*
X48106408Y-5169944D01*
X48035847Y-4906607D01*
X48000262Y-4636313D01*
X48000262Y-4363687D01*
X48035847Y-4093393D01*
X48106408Y-3830056D01*
X48210738Y-3578182D01*
X48347051Y-3342081D01*
X48513015Y-3125791D01*
X48705791Y-2933015D01*
X48922081Y-2767051D01*
X49158182Y-2630738D01*
X49410056Y-2526408D01*
X49673393Y-2455847D01*
X49943687Y-2420262D01*
X50216313Y-2420262D01*
X50486607Y-2455847D01*
G37*
G36*
X58075770Y-3390907D02*
G01*
X58247827Y-3462175D01*
X58402674Y-3565640D01*
X58534360Y-3697326D01*
X58637825Y-3852173D01*
X58709093Y-4024230D01*
X58745425Y-4206884D01*
X58750000Y-4300000D01*
X58750000Y-5500000D01*
X58745425Y-5593116D01*
X58709093Y-5775770D01*
X58637825Y-5947827D01*
X58534360Y-6102674D01*
X58402674Y-6234360D01*
X58247827Y-6337825D01*
X58075770Y-6409093D01*
X57893116Y-6445425D01*
X57706884Y-6445425D01*
X57524230Y-6409093D01*
X57352173Y-6337825D01*
X57197326Y-6234360D01*
X57065640Y-6102674D01*
X56962175Y-5947827D01*
X56890907Y-5775770D01*
X56854575Y-5593116D01*
X56850000Y-5500000D01*
X56850000Y-4300000D01*
X56854575Y-4206884D01*
X56890907Y-4024230D01*
X56962175Y-3852173D01*
X57065640Y-3697326D01*
X57197326Y-3565640D01*
X57352173Y-3462175D01*
X57524230Y-3390907D01*
X57706884Y-3354575D01*
X57893116Y-3354575D01*
X58075770Y-3390907D01*
G37*
G36*
X62875770Y-3390907D02*
G01*
X63047827Y-3462175D01*
X63202674Y-3565640D01*
X63334360Y-3697326D01*
X63437825Y-3852173D01*
X63509093Y-4024230D01*
X63545425Y-4206884D01*
X63550000Y-4300000D01*
X63550000Y-5500000D01*
X63545425Y-5593116D01*
X63509093Y-5775770D01*
X63437825Y-5947827D01*
X63334360Y-6102674D01*
X63202674Y-6234360D01*
X63047827Y-6337825D01*
X62875770Y-6409093D01*
X62693116Y-6445425D01*
X62506884Y-6445425D01*
X62324230Y-6409093D01*
X62152173Y-6337825D01*
X61997326Y-6234360D01*
X61865640Y-6102674D01*
X61762175Y-5947827D01*
X61690907Y-5775770D01*
X61654575Y-5593116D01*
X61650000Y-5500000D01*
X61650000Y-4300000D01*
X61654575Y-4206884D01*
X61690907Y-4024230D01*
X61762175Y-3852173D01*
X61865640Y-3697326D01*
X61997326Y-3565640D01*
X62152173Y-3462175D01*
X62324230Y-3390907D01*
X62506884Y-3354575D01*
X62693116Y-3354575D01*
X62875770Y-3390907D01*
G37*
G36*
X67675770Y-3390907D02*
G01*
X67847827Y-3462175D01*
X68002674Y-3565640D01*
X68134360Y-3697326D01*
X68237825Y-3852173D01*
X68309093Y-4024230D01*
X68345425Y-4206884D01*
X68350000Y-4300000D01*
X68350000Y-5500000D01*
X68345425Y-5593116D01*
X68309093Y-5775770D01*
X68237825Y-5947827D01*
X68134360Y-6102674D01*
X68002674Y-6234360D01*
X67847827Y-6337825D01*
X67675770Y-6409093D01*
X67493116Y-6445425D01*
X67306884Y-6445425D01*
X67124230Y-6409093D01*
X66952173Y-6337825D01*
X66797326Y-6234360D01*
X66665640Y-6102674D01*
X66562175Y-5947827D01*
X66490907Y-5775770D01*
X66454575Y-5593116D01*
X66450000Y-5500000D01*
X66450000Y-4300000D01*
X66454575Y-4206884D01*
X66490907Y-4024230D01*
X66562175Y-3852173D01*
X66665640Y-3697326D01*
X66797326Y-3565640D01*
X66952173Y-3462175D01*
X67124230Y-3390907D01*
X67306884Y-3354575D01*
X67493116Y-3354575D01*
X67675770Y-3390907D01*
G37*
G36*
X24728960Y-2989800D02*
G01*
X24753682Y-3006318D01*
X24770200Y-3031040D01*
X24776000Y-3060200D01*
X24776000Y-4939800D01*
X24770200Y-4968960D01*
X24753682Y-4993682D01*
X24728960Y-5010200D01*
X24699800Y-5016000D01*
X22820200Y-5016000D01*
X22791040Y-5010200D01*
X22766318Y-4993682D01*
X22749800Y-4968960D01*
X22744000Y-4939800D01*
X22744000Y-3060200D01*
X22749800Y-3031040D01*
X22766318Y-3006318D01*
X22791040Y-2989800D01*
X22820200Y-2984000D01*
X24699800Y-2984000D01*
X24728960Y-2989800D01*
G37*
G36*
X26594929Y-3027749D02*
G01*
X26778939Y-3103968D01*
X26944544Y-3214621D01*
X27085379Y-3355456D01*
X27196032Y-3521061D01*
X27272251Y-3705071D01*
X27311108Y-3900415D01*
X27311108Y-4099585D01*
X27272251Y-4294929D01*
X27196032Y-4478939D01*
X27085379Y-4644544D01*
X26944544Y-4785379D01*
X26778939Y-4896032D01*
X26594929Y-4972251D01*
X26399585Y-5011108D01*
X26200415Y-5011108D01*
X26005071Y-4972251D01*
X25821061Y-4896032D01*
X25655456Y-4785379D01*
X25514621Y-4644544D01*
X25403968Y-4478939D01*
X25327749Y-4294929D01*
X25288892Y-4099585D01*
X25288892Y-3900415D01*
X25327749Y-3705071D01*
X25403968Y-3521061D01*
X25514621Y-3355456D01*
X25655456Y-3214621D01*
X25821061Y-3103968D01*
X26005071Y-3027749D01*
X26200415Y-2988892D01*
X26399585Y-2988892D01*
X26594929Y-3027749D01*
G37*
G36*
X29134929Y-3027749D02*
G01*
X29318939Y-3103968D01*
X29484544Y-3214621D01*
X29625379Y-3355456D01*
X29736032Y-3521061D01*
X29812251Y-3705071D01*
X29851108Y-3900415D01*
X29851108Y-4099585D01*
X29812251Y-4294929D01*
X29736032Y-4478939D01*
X29625379Y-4644544D01*
X29484544Y-4785379D01*
X29318939Y-4896032D01*
X29134929Y-4972251D01*
X28939585Y-5011108D01*
X28740415Y-5011108D01*
X28545071Y-4972251D01*
X28361061Y-4896032D01*
X28195456Y-4785379D01*
X28054621Y-4644544D01*
X27943968Y-4478939D01*
X27867749Y-4294929D01*
X27828892Y-4099585D01*
X27828892Y-3900415D01*
X27867749Y-3705071D01*
X27943968Y-3521061D01*
X28054621Y-3355456D01*
X28195456Y-3214621D01*
X28361061Y-3103968D01*
X28545071Y-3027749D01*
X28740415Y-2988892D01*
X28939585Y-2988892D01*
X29134929Y-3027749D01*
G37*
G36*
X31674929Y-3027749D02*
G01*
X31858939Y-3103968D01*
X32024544Y-3214621D01*
X32165379Y-3355456D01*
X32276032Y-3521061D01*
X32352251Y-3705071D01*
X32391108Y-3900415D01*
X32391108Y-4099585D01*
X32352251Y-4294929D01*
X32276032Y-4478939D01*
X32165379Y-4644544D01*
X32024544Y-4785379D01*
X31858939Y-4896032D01*
X31674929Y-4972251D01*
X31479585Y-5011108D01*
X31280415Y-5011108D01*
X31085071Y-4972251D01*
X30901061Y-4896032D01*
X30735456Y-4785379D01*
X30594621Y-4644544D01*
X30483968Y-4478939D01*
X30407749Y-4294929D01*
X30368892Y-4099585D01*
X30368892Y-3900415D01*
X30407749Y-3705071D01*
X30483968Y-3521061D01*
X30594621Y-3355456D01*
X30735456Y-3214621D01*
X30901061Y-3103968D01*
X31085071Y-3027749D01*
X31280415Y-2988892D01*
X31479585Y-2988892D01*
X31674929Y-3027749D01*
G37*
G36*
X34214929Y-3027749D02*
G01*
X34398939Y-3103968D01*
X34564544Y-3214621D01*
X34705379Y-3355456D01*
X34816032Y-3521061D01*
X34892251Y-3705071D01*
X34931108Y-3900415D01*
X34931108Y-4099585D01*
X34892251Y-4294929D01*
X34816032Y-4478939D01*
X34705379Y-4644544D01*
X34564544Y-4785379D01*
X34398939Y-4896032D01*
X34214929Y-4972251D01*
X34019585Y-5011108D01*
X33820415Y-5011108D01*
X33625071Y-4972251D01*
X33441061Y-4896032D01*
X33275456Y-4785379D01*
X33134621Y-4644544D01*
X33023968Y-4478939D01*
X32947749Y-4294929D01*
X32908892Y-4099585D01*
X32908892Y-3900415D01*
X32947749Y-3705071D01*
X33023968Y-3521061D01*
X33134621Y-3355456D01*
X33275456Y-3214621D01*
X33441061Y-3103968D01*
X33625071Y-3027749D01*
X33820415Y-2988892D01*
X34019585Y-2988892D01*
X34214929Y-3027749D01*
G37*
G36*
X36754929Y-3027749D02*
G01*
X36938939Y-3103968D01*
X37104544Y-3214621D01*
X37245379Y-3355456D01*
X37356032Y-3521061D01*
X37432251Y-3705071D01*
X37471108Y-3900415D01*
X37471108Y-4099585D01*
X37432251Y-4294929D01*
X37356032Y-4478939D01*
X37245379Y-4644544D01*
X37104544Y-4785379D01*
X36938939Y-4896032D01*
X36754929Y-4972251D01*
X36559585Y-5011108D01*
X36360415Y-5011108D01*
X36165071Y-4972251D01*
X35981061Y-4896032D01*
X35815456Y-4785379D01*
X35674621Y-4644544D01*
X35563968Y-4478939D01*
X35487749Y-4294929D01*
X35448892Y-4099585D01*
X35448892Y-3900415D01*
X35487749Y-3705071D01*
X35563968Y-3521061D01*
X35674621Y-3355456D01*
X35815456Y-3214621D01*
X35981061Y-3103968D01*
X36165071Y-3027749D01*
X36360415Y-2988892D01*
X36559585Y-2988892D01*
X36754929Y-3027749D01*
G37*
G36*
X39294929Y-3027749D02*
G01*
X39478939Y-3103968D01*
X39644544Y-3214621D01*
X39785379Y-3355456D01*
X39896032Y-3521061D01*
X39972251Y-3705071D01*
X40011108Y-3900415D01*
X40011108Y-4099585D01*
X39972251Y-4294929D01*
X39896032Y-4478939D01*
X39785379Y-4644544D01*
X39644544Y-4785379D01*
X39478939Y-4896032D01*
X39294929Y-4972251D01*
X39099585Y-5011108D01*
X38900415Y-5011108D01*
X38705071Y-4972251D01*
X38521061Y-4896032D01*
X38355456Y-4785379D01*
X38214621Y-4644544D01*
X38103968Y-4478939D01*
X38027749Y-4294929D01*
X37988892Y-4099585D01*
X37988892Y-3900415D01*
X38027749Y-3705071D01*
X38103968Y-3521061D01*
X38214621Y-3355456D01*
X38355456Y-3214621D01*
X38521061Y-3103968D01*
X38705071Y-3027749D01*
X38900415Y-2988892D01*
X39099585Y-2988892D01*
X39294929Y-3027749D01*
G37*
M02*
