M48
; DRILL file {KiCad 9.0.7} date 2026-05-21T23:08:07+0200
; FORMAT={-:-/ absolute / inch / decimal}
; #@! TF.CreationDate,2026-05-21T23:08:07+02:00
; #@! TF.GenerationSoftware,Kicad,Pcbnew,9.0.7
; #@! TF.FileFunction,Plated,1,4,PTH
FMAT,2
INCH
; #@! TA.AperFunction,Plated,PTH,ViaDrill
T1C0.0079
; #@! TA.AperFunction,Plated,PTH,ComponentDrill
T2C0.0236
; #@! TA.AperFunction,Plated,PTH,ComponentDrill
T3C0.0390
; #@! TA.AperFunction,Plated,PTH,ComponentDrill
T4C0.0394
; #@! TA.AperFunction,Plated,PTH,ComponentDrill
T5C0.0400
; #@! TA.AperFunction,Plated,PTH,ComponentDrill
T6C0.0430
; #@! TA.AperFunction,Plated,PTH,ComponentDrill
T7C0.0433
; #@! TA.AperFunction,Plated,PTH,ComponentDrill
T8C0.0728
; #@! TA.AperFunction,Plated,PTH,ComponentDrill
T9C0.0866
; #@! TA.AperFunction,Plated,PTH,ComponentDrill
T10C0.1260
%
G90
G05
T1
X0.1969Y-3.3465
X0.1969Y-3.5433
X0.1969Y-3.7402
X0.1969Y-3.937
X0.1969Y-4.1339
X0.3937Y-1.7717
X0.3937Y-2.3622
X0.3937Y-2.5591
X0.3937Y-2.7559
X0.3937Y-2.9528
X0.3937Y-3.1496
X0.3937Y-3.3465
X0.3937Y-4.1339
X0.4843Y-3.878
X0.4862Y-4.5079
X0.5252Y-3.876
X0.5256Y-4.5079
X0.5906Y-0.5906
X0.5906Y-0.7874
X0.5906Y-0.9843
X0.5906Y-1.0827
X0.5906Y-1.1811
X0.5906Y-1.7717
X0.5906Y-3.1496
X0.689Y-0.4921
X0.689Y-0.5906
X0.689Y-0.689
X0.689Y-0.7874
X0.689Y-0.9843
X0.689Y-1.0827
X0.689Y-1.1811
X0.7874Y-1.0827
X0.7874Y-1.1811
X0.7874Y-1.378
X0.7874Y-1.5748
X0.7874Y-1.7717
X0.8553Y-2.5236
X0.8563Y-2.4882
X0.8701Y-0.1575
X0.8858Y-0.4921
X0.8858Y-0.5906
X0.8858Y-0.689
X0.8858Y-1.0827
X0.8858Y-1.1811
X0.8858Y-2.8543
X0.8858Y-3.0512
X0.8858Y-3.3465
X0.9626Y-0.3346
X0.9843Y-0.5906
X0.9843Y-0.689
X0.9843Y-0.8858
X0.9843Y-0.9843
X0.9843Y-1.1811
X0.9843Y-1.378
X0.9843Y-1.5748
X0.9843Y-1.7717
X0.9843Y-1.9685
X0.9843Y-2.3622
X0.9843Y-3.3465
X0.9843Y-3.7402
X0.9843Y-3.8386
X0.9843Y-4.1339
X0.9843Y-4.3307
X0.9843Y-4.5276
X1.0224Y-0.3638
X1.0685Y-0.3465
X1.0827Y-2.8543
X1.0827Y-3.0512
X1.0827Y-3.3465
X1.0827Y-3.7402
X1.0827Y-3.8386
X1.1575Y-2.4882
X1.1644Y-2.5236
X1.1811Y-0.4921
X1.1811Y-0.5906
X1.1811Y-1.5748
X1.1811Y-1.7717
X1.1811Y-1.9685
X1.1811Y-3.3465
X1.1811Y-4.1339
X1.2677Y-3.8602
X1.2776Y-4.5079
X1.2795Y-0.2953
X1.2795Y-0.3937
X1.2795Y-0.4921
X1.2795Y-0.5906
X1.2795Y-0.9843
X1.2795Y-1.0827
X1.2795Y-3.3465
X1.3126Y-3.8587
X1.313Y-4.5083
X1.378Y-0.2953
X1.378Y-0.3937
X1.378Y-0.4921
X1.378Y-0.5906
X1.378Y-1.1811
X1.378Y-1.7717
X1.4764Y-1.2795
X1.4764Y-1.7717
X1.5748Y-0.689
X1.5748Y-0.9843
X1.5748Y-1.0827
X1.5748Y-1.8701
X1.5817Y-2.5315
X1.6732Y-0.3937
X1.6732Y-0.4921
X1.6732Y-0.8858
X1.6732Y-0.9843
X1.6732Y-1.0827
X1.6732Y-1.4764
X1.6732Y-1.9685
X1.7291Y-2.4543
X1.7402Y-2.2657
X1.75Y-2.3406
X1.751Y-2.376
X1.7539Y-2.2283
X1.7638Y-2.4931
X1.7717Y-0.4921
X1.7717Y-0.5906
X1.7717Y-0.689
X1.7717Y-0.8858
X1.7717Y-0.9843
X1.7717Y-1.0827
X1.7717Y-1.1811
X1.7717Y-1.9685
X1.7717Y-2.0669
X1.7717Y-4.1339
X1.7717Y-4.3307
X1.7717Y-4.5276
X1.7943Y-2.5453
X1.8291Y-3.0862
X1.8346Y-3.1417
X1.8366Y-2.5587
X1.8701Y-0.689
X1.8701Y-1.0827
X1.8701Y-1.2795
X1.8701Y-2.0669
X1.8701Y-2.1654
X1.8701Y-2.2638
X1.8701Y-2.8543
X1.8701Y-3.4449
X1.8701Y-3.5433
X1.8701Y-3.6417
X1.8701Y-3.7402
X1.8701Y-3.8386
X1.8701Y-4.1339
X1.8701Y-4.3307
X1.8701Y-4.5276
X1.8976Y-2.7283
X1.937Y-1.748
X1.9646Y-1.7205
X1.9685Y-0.4921
X1.9685Y-1.1811
X1.9685Y-1.2795
X1.9685Y-3.8386
X1.9713Y-2.6138
X1.972Y-1.9098
X1.972Y-2.5685
X1.9909Y-2.3083
X2.0252Y-2.0039
X2.0567Y-2.0303
X2.0587Y-1.7594
X2.061Y-3.8701
X2.063Y-4.5118
X2.0669Y-1.2795
X2.0669Y-2.6575
X2.0732Y-2.8949
X2.0913Y-1.7709
X2.1004Y-4.5138
X2.102Y-3.8689
X2.1079Y-2.3094
X2.1228Y-2.8957
X2.1433Y-2.0051
X2.1654Y-0.4921
X2.1654Y-0.5906
X2.1654Y-0.7874
X2.1654Y-0.9843
X2.1654Y-1.1811
X2.1654Y-1.2795
X2.1654Y-1.378
X2.1654Y-1.4764
X2.1654Y-2.5591
X2.1705Y-2.0323
X2.1728Y-2.8953
X2.1752Y-1.8
X2.1774Y-0.3776
X2.1819Y-2.7146
X2.185Y-1.689
X2.1988Y-3.6984
X2.1988Y-4.3752
X2.2106Y-1.8031
X2.2213Y-2.7398
X2.2224Y-2.9567
X2.2327Y-2.3094
X2.2346Y-2.665
X2.2382Y-4.376
X2.2504Y-2.0035
X2.2616Y-0.8844
X2.2638Y-0.4921
X2.2638Y-0.5906
X2.2638Y-0.7874
X2.2638Y-1.1811
X2.2673Y-1.8299
X2.2726Y-2.9567
X2.2728Y-2.6909
X2.2815Y-2.0327
X2.2921Y-1.5193
X2.3094Y-1.8299
X2.3224Y-2.7413
X2.3228Y-2.9567
X2.3287Y-1.5709
X2.3514Y-2.1575
X2.3583Y-2.739
X2.3622Y-0.4921
X2.3622Y-0.5906
X2.4173Y-1.3012
X2.4252Y-1.0315
X2.4291Y-0.9961
X2.4606Y-0.7874
X2.4606Y-0.8858
X2.472Y-2.0429
X2.4795Y-1.6209
X2.498Y-1.2268
X2.502Y-1.5581
X2.5197Y-1.4035
X2.5492Y-2.0
X2.5591Y-2.8543
X2.5591Y-2.9528
X2.5591Y-3.0512
X2.5591Y-3.1496
X2.5591Y-4.3307
X2.5591Y-4.5276
X2.5886Y-1.1224
X2.6575Y-2.4606
X2.6575Y-2.5591
X2.6575Y-2.6575
X2.6575Y-2.7559
X2.6575Y-2.8543
X2.6575Y-2.9528
X2.6575Y-3.0512
X2.6575Y-3.1496
X2.6614Y-1.1024
X2.6811Y-1.2953
X2.686Y-1.5325
X2.69Y-1.0748
X2.7372Y-0.686
X2.7559Y-2.3622
X2.7559Y-2.4606
X2.7559Y-2.5591
X2.7559Y-2.6575
X2.7559Y-2.7559
X2.7559Y-2.8543
X2.7559Y-2.9528
X2.7559Y-3.0512
X2.7559Y-3.1496
X2.7795Y-1.1161
X2.7815Y-1.1555
X2.8331Y-1.4185
X2.8366Y-0.685
X2.8366Y-1.6303
X2.8409Y-1.5492
X2.8437Y-1.4701
X2.8543Y-0.1969
X2.8543Y-0.2953
X2.8543Y-0.3937
X2.8543Y-0.4921
X2.8543Y-2.2638
X2.8543Y-2.3622
X2.8543Y-2.4606
X2.8543Y-2.5591
X2.8543Y-2.6575
X2.8543Y-2.7559
X2.8543Y-2.8543
X2.8543Y-2.9528
X2.8543Y-3.0512
X2.8543Y-3.1496
X2.8547Y-4.5118
X2.8583Y-1.6772
X2.8661Y-1.3504
X2.8819Y-1.5925
X2.8854Y-1.5197
X2.8868Y-0.685
X2.8882Y-4.5118
X2.915Y-1.3665
X2.9331Y-1.6417
X2.9366Y-0.6898
X2.9449Y-1.063
X2.9528Y-0.1969
X2.9528Y-0.2953
X2.9528Y-0.3937
X2.9528Y-0.4921
X2.9528Y-2.1654
X2.9528Y-2.2638
X2.9528Y-2.3622
X2.9528Y-2.4606
X2.9528Y-2.5591
X2.9528Y-2.6575
X2.9528Y-2.7559
X2.9528Y-2.8543
X2.9528Y-2.9528
X2.9528Y-3.0512
X2.9528Y-3.1496
X2.9606Y-1.3661
X2.961Y-1.5992
X2.9626Y-1.1008
X2.9764Y-1.0315
X2.9921Y-0.9961
X2.9941Y-1.7913
X3.0035Y-1.4126
X3.0201Y-1.8131
X3.0295Y-0.9677
X3.0382Y-2.1531
X3.0443Y-1.4419
X3.0512Y-0.1969
X3.0512Y-0.2953
X3.0512Y-0.3937
X3.0512Y-0.4921
X3.0512Y-2.0669
X3.0547Y-1.9843
X3.0551Y-1.0
X3.0551Y-1.8209
X3.065Y-3.6535
X3.0713Y-2.2858
X3.0748Y-2.189
X3.0817Y-1.4154
X3.0846Y-1.9596
X3.0909Y-2.5713
X3.1339Y-1.4203
X3.1362Y-2.5709
X3.1447Y-0.187
X3.1492Y-1.5724
X3.1575Y-1.1969
X3.1591Y-1.6189
X3.178Y-0.7358
X3.1811Y-0.9685
X3.1953Y-1.1594
X3.2114Y-0.8248
X3.2161Y-1.2575
X3.2205Y-0.9685
X3.2244Y-0.5394
X3.2244Y-0.7362
X3.2256Y-2.1937
X3.228Y-2.1461
X3.2421Y-2.6346
X3.2461Y-2.5823
X3.2524Y-0.8437
X3.2559Y-1.7126
X3.2567Y-1.7453
X3.2677Y-1.2677
X3.2677Y-3.6417
X3.2687Y-3.0689
X3.2728Y-0.3496
X3.2732Y-0.5382
X3.2744Y-1.8496
X3.2795Y-0.7283
X3.2894Y-1.2398
X3.2953Y-3.0866
X3.2992Y-2.4961
X3.3126Y-2.0866
X3.3142Y-2.1252
X3.315Y-0.3228
X3.315Y-3.6402
X3.3169Y-2.263
X3.3177Y-2.2911
X3.3185Y-2.3193
X3.3189Y-3.2963
X3.3228Y-0.7283
X3.3244Y-1.9654
X3.3386Y-2.4961
X3.3386Y-2.5906
X3.3406Y-0.8453
X3.3425Y-1.4921
X3.3465Y-1.2362
X3.3465Y-2.7559
X3.3465Y-2.8543
X3.3465Y-2.9528
X3.3465Y-3.937
X3.3484Y-2.2906
X3.3488Y-2.3181
X3.3492Y-2.263
X3.3543Y-1.1496
X3.3551Y-3.3362
X3.3575Y-0.3575
X3.3681Y-1.5142
X3.3685Y-1.822
X3.3732Y-0.7291
X3.3756Y-0.8063
X3.3811Y-2.263
X3.3811Y-2.2902
X3.3811Y-2.3173
X3.387Y-1.1114
X3.3898Y-0.3228
X3.4094Y-0.0827
X3.4232Y-3.6299
X3.4291Y-0.7283
X3.4331Y-2.0862
X3.4419Y-3.6486
X3.4449Y-2.7559
X3.4449Y-2.8543
X3.4449Y-2.9528
X3.4516Y-1.9528
X3.4594Y-0.8421
X3.4724Y-1.6063
X3.4752Y-0.726
X3.4754Y-2.4154
X3.4843Y-0.6102
X3.487Y-0.3559
X3.4882Y-1.3465
X3.4913Y-1.9524
X3.5039Y-2.5433
X3.5039Y-2.5827
X3.5059Y-0.6693
X3.5063Y-0.8138
X3.5126Y-1.3736
X3.5197Y-0.3228
X3.5276Y-1.5118
X3.5311Y-0.6118
X3.5354Y-1.1575
X3.5433Y-1.5748
X3.5433Y-1.6732
X3.5433Y-2.4606
X3.5433Y-2.6575
X3.5433Y-2.7559
X3.5433Y-2.8543
X3.5433Y-2.9528
X3.5433Y-3.248
X3.5433Y-3.3465
X3.5433Y-3.937
X3.5433Y-4.0354
X3.5472Y-2.1565
X3.5482Y-2.2904
X3.5571Y-1.4941
X3.5669Y-1.1654
X3.5709Y-2.126
X3.5787Y-0.3575
X3.5807Y-0.8402
X3.6004Y-2.2945
X3.6043Y-0.0876
X3.6063Y-0.3189
X3.6063Y-0.7244
X3.6146Y-4.4965
X3.6161Y-2.1309
X3.628Y-0.8406
X3.6417Y-1.2795
X3.6417Y-1.378
X3.6417Y-1.5748
X3.6417Y-1.6732
X3.6417Y-2.2638
X3.6417Y-2.4606
X3.6417Y-2.5591
X3.6417Y-2.6575
X3.6417Y-2.7559
X3.6417Y-2.8543
X3.6417Y-2.9528
X3.6417Y-3.248
X3.6417Y-3.3465
X3.6417Y-3.937
X3.6417Y-4.0354
X3.6512Y-0.724
X3.6535Y-4.4941
X3.7008Y-0.8425
X3.7118Y-1.965
X3.7126Y-2.0059
X3.7402Y-3.937
X3.7402Y-4.0354
X3.7402Y-4.1339
X3.7465Y-0.8425
X3.7854Y-0.189
X3.8002Y-3.6261
X3.8386Y-0.1969
X3.8386Y-0.2953
X3.8386Y-0.3937
X3.8386Y-0.4921
X3.8386Y-0.5906
X3.8386Y-0.689
X3.8386Y-0.7874
X3.8386Y-0.8858
X3.8386Y-0.9843
X3.8386Y-1.1811
X3.8386Y-1.2795
X3.8386Y-1.378
X3.8386Y-1.5748
X3.8386Y-1.6732
X3.8386Y-1.7717
X3.8386Y-2.0866
X3.8386Y-2.1654
X3.8386Y-2.2441
X3.8386Y-2.5591
X3.8386Y-2.6575
X3.8386Y-3.6959
X3.8449Y-3.6067
X3.8504Y-1.9252
X3.8524Y-1.874
X3.8783Y-2.3776
X3.8937Y-1.8445
X3.8976Y-1.8819
X3.9138Y-2.3776
X3.937Y-0.1969
X3.937Y-0.2953
X3.937Y-0.3937
X3.937Y-0.4921
X3.937Y-0.5906
X3.937Y-0.689
X3.937Y-0.7874
X3.937Y-1.2795
X3.937Y-1.378
X3.937Y-1.5748
X3.937Y-1.6732
X3.937Y-1.7717
X3.937Y-2.0866
X3.937Y-2.1654
X3.937Y-2.2441
X3.937Y-2.5591
X3.937Y-2.6575
X3.937Y-2.7559
X3.937Y-2.8543
X3.937Y-3.248
X3.937Y-4.1339
X3.9636Y-1.0
X3.9728Y-2.3638
X3.9728Y-2.3953
X4.0226Y-1.0119
X4.0354Y-0.2953
X4.0354Y-0.3937
X4.0354Y-0.4921
X4.0354Y-1.378
X4.0354Y-1.5748
X4.0354Y-1.6732
X4.0354Y-1.7717
X4.0354Y-2.0866
X4.0354Y-2.1654
X4.0354Y-2.2441
X4.0354Y-2.5591
X4.0354Y-2.6575
X4.0354Y-2.7559
X4.0354Y-3.248
X4.1132Y-0.9095
X4.1339Y-0.2953
X4.1339Y-0.3937
X4.1339Y-0.4921
X4.1339Y-1.378
X4.1339Y-1.5748
X4.1339Y-1.6732
X4.1339Y-1.7717
X4.1339Y-2.0866
X4.1339Y-2.1654
X4.1339Y-2.2441
X4.1339Y-2.6575
X4.1339Y-2.7559
X4.1339Y-3.248
X4.1339Y-4.1339
X4.1339Y-4.4291
X4.1683Y-0.9095
X4.1913Y-1.9283
X4.2323Y-1.1811
X4.2323Y-1.2795
X4.2333Y-1.0079
X4.2815Y-1.9122
X4.2831Y-1.9394
X4.2943Y-0.9922
X4.3297Y-0.9922
X4.3307Y-1.1024
X4.3307Y-1.1811
X4.3307Y-1.2795
X4.3307Y-3.937
X4.3307Y-4.1339
X4.3307Y-4.4291
X4.3563Y-0.873
X4.3787Y-0.826
X4.4114Y-1.4764
X4.4256Y-0.9906
X4.4291Y-0.4921
X4.4291Y-0.5906
X4.4291Y-0.689
X4.4291Y-0.7874
X4.4291Y-1.0827
X4.4291Y-1.1811
X4.4291Y-1.7717
X4.4291Y-1.8701
X4.4291Y-1.9685
X4.439Y-1.3583
X4.4488Y-1.3287
X4.4488Y-1.624
X4.4488Y-1.6535
X4.5276Y-0.4921
X4.5276Y-0.5906
X4.5276Y-0.689
X4.5276Y-1.0827
X4.5276Y-1.1811
X4.5276Y-1.25
X4.5276Y-1.8701
X4.5276Y-1.9685
X4.5276Y-3.7402
X4.5276Y-3.937
X4.5276Y-4.1339
X4.5276Y-4.3307
X4.5374Y-1.7323
X4.5728Y-1.0118
X4.626Y-0.4921
X4.626Y-0.5906
X4.626Y-0.689
X4.626Y-1.0827
X4.626Y-1.1811
X4.626Y-1.8701
X4.626Y-1.9685
X4.626Y-2.4636
X4.628Y-3.4518
X4.6299Y-2.9656
T3
X0.4873Y-2.0098
X0.4873Y-2.187
X0.7432Y-2.0098
X0.7432Y-2.187
X1.2403Y-2.0098
X1.2403Y-2.187
X1.4962Y-2.0098
X1.4962Y-2.187
T4
X0.5256Y-3.7913
X0.5256Y-4.5787
X0.624Y-3.7913
X0.624Y-4.5787
X0.7224Y-3.7913
X0.7224Y-4.5787
X1.313Y-3.7913
X1.313Y-4.5787
X1.4114Y-3.7913
X1.4114Y-4.5787
X1.5098Y-3.7913
X1.5098Y-4.5787
X2.1004Y-3.7913
X2.1004Y-4.5787
X2.1988Y-3.7913
X2.1988Y-4.5787
X2.2972Y-3.7913
X2.2972Y-4.5787
X2.8878Y-4.5787
X2.9862Y-4.5787
X3.0846Y-4.5787
X3.615Y-4.5681
X3.7134Y-4.5681
X3.8118Y-4.5681
T5
X0.9354Y-0.1575
X1.0354Y-0.1575
X1.1354Y-0.1575
X1.2354Y-0.1575
X1.3354Y-0.1575
X1.4354Y-0.1575
X1.5354Y-0.1575
T6
X2.8686Y-3.7193
X2.8686Y-3.8177
X2.967Y-3.7193
X2.967Y-3.8177
X3.0654Y-3.7193
X3.0654Y-3.8177
T8
X0.625Y-2.5236
X0.625Y-2.7087
X0.625Y-2.8937
X1.378Y-2.5236
X1.378Y-2.7087
X1.378Y-2.8937
T9
X0.4508Y-3.5157
X0.4508Y-4.3031
X0.7972Y-3.5157
X0.7972Y-4.3031
X1.2382Y-3.5157
X1.2382Y-4.3031
X1.5846Y-3.5157
X1.5846Y-4.3031
X2.0256Y-3.5157
X2.0256Y-4.3031
X2.372Y-3.5157
X2.372Y-4.3031
X2.813Y-4.3031
X3.1594Y-4.3031
X3.5402Y-4.2925
X3.8866Y-4.2925
T10
X0.2165Y-0.2165
X0.2165Y-4.5472
X4.5472Y-0.2165
X4.5472Y-4.5472
T2
G00X4.4988Y-1.3232
M15
G01X4.5421Y-1.3232
M16
G05
G00X4.4988Y-1.6634
M15
G01X4.5421Y-1.6634
M16
G05
G00X4.6693Y-1.3232
M15
G01X4.7008Y-1.3232
M16
G05
G00X4.6693Y-1.6634
M15
G01X4.7008Y-1.6634
M16
G05
T7
G00X2.2756Y-0.1693
M15
G01X2.2756Y-0.2165
M16
G05
G00X2.4646Y-0.1693
M15
G01X2.4646Y-0.2165
M16
G05
G00X2.6535Y-0.1693
M15
G01X2.6535Y-0.2165
M16
G05
M30
