%TF.GenerationSoftware,KiCad,Pcbnew,9.0.7*%
%TF.CreationDate,2026-05-21T23:08:07+02:00*%
%TF.ProjectId,GalernaDsp,47616c65-726e-4614-9473-702e6b696361,rev?*%
%TF.SameCoordinates,Original*%
%TF.FileFunction,Copper,L1,Top*%
%TF.FilePolarity,Positive*%
%FSLAX46Y46*%
G04 Gerber Fmt 4.6, Leading zero omitted, Abs format (unit mm)*
G04 Created by KiCad (PCBNEW 9.0.7) date 2026-05-21 23:08:07*
%MOMM*%
%LPD*%
G01*
G04 APERTURE LIST*
G04 Aperture macros list*
%AMRoundRect*
0 Rectangle with rounded corners*
0 $1 Rounding radius*
0 $2 $3 $4 $5 $6 $7 $8 $9 X,Y pos of 4 corners*
0 Add a 4 corners polygon primitive as box body*
4,1,4,$2,$3,$4,$5,$6,$7,$8,$9,$2,$3,0*
0 Add four circle primitives for the rounded corners*
1,1,$1+$1,$2,$3*
1,1,$1+$1,$4,$5*
1,1,$1+$1,$6,$7*
1,1,$1+$1,$8,$9*
0 Add four rect primitives between the rounded corners*
20,1,$1+$1,$2,$3,$4,$5,0*
20,1,$1+$1,$4,$5,$6,$7,0*
20,1,$1+$1,$6,$7,$8,$9,0*
20,1,$1+$1,$8,$9,$2,$3,0*%
%AMFreePoly0*
4,1,14,0.318306,0.106694,0.381694,0.043306,0.400000,-0.000888,0.400000,-0.062500,0.381694,-0.106694,0.337500,-0.125000,-0.337500,-0.125000,-0.381694,-0.106694,-0.400000,-0.062500,-0.400000,0.062500,-0.381694,0.106694,-0.337500,0.125000,0.274112,0.125000,0.318306,0.106694,0.318306,0.106694,$1*%
%AMFreePoly1*
4,1,14,0.381694,0.106694,0.400000,0.062500,0.400000,0.000888,0.381694,-0.043306,0.318306,-0.106694,0.274112,-0.125000,-0.337500,-0.125000,-0.381694,-0.106694,-0.400000,-0.062500,-0.400000,0.062500,-0.381694,0.106694,-0.337500,0.125000,0.337500,0.125000,0.381694,0.106694,0.381694,0.106694,$1*%
%AMFreePoly2*
4,1,14,0.106694,0.381694,0.125000,0.337500,0.125000,-0.337500,0.106694,-0.381694,0.062500,-0.400000,-0.062500,-0.400000,-0.106694,-0.381694,-0.125000,-0.337500,-0.125000,0.274112,-0.106694,0.318306,-0.043306,0.381694,0.000888,0.400000,0.062500,0.400000,0.106694,0.381694,0.106694,0.381694,$1*%
%AMFreePoly3*
4,1,14,0.043306,0.381694,0.106694,0.318306,0.125000,0.274112,0.125000,-0.337500,0.106694,-0.381694,0.062500,-0.400000,-0.062500,-0.400000,-0.106694,-0.381694,-0.125000,-0.337500,-0.125000,0.337500,-0.106694,0.381694,-0.062500,0.400000,-0.000888,0.400000,0.043306,0.381694,0.043306,0.381694,$1*%
%AMFreePoly4*
4,1,14,0.381694,0.106694,0.400000,0.062500,0.400000,-0.062500,0.381694,-0.106694,0.337500,-0.125000,-0.274112,-0.125000,-0.318306,-0.106694,-0.381694,-0.043306,-0.400000,0.000888,-0.400000,0.062500,-0.381694,0.106694,-0.337500,0.125000,0.337500,0.125000,0.381694,0.106694,0.381694,0.106694,$1*%
%AMFreePoly5*
4,1,14,0.381694,0.106694,0.400000,0.062500,0.400000,-0.062500,0.381694,-0.106694,0.337500,-0.125000,-0.337500,-0.125000,-0.381694,-0.106694,-0.400000,-0.062500,-0.400000,-0.000888,-0.381694,0.043306,-0.318306,0.106694,-0.274112,0.125000,0.337500,0.125000,0.381694,0.106694,0.381694,0.106694,$1*%
%AMFreePoly6*
4,1,14,0.106694,0.381694,0.125000,0.337500,0.125000,-0.274112,0.106694,-0.318306,0.043306,-0.381694,-0.000888,-0.400000,-0.062500,-0.400000,-0.106694,-0.381694,-0.125000,-0.337500,-0.125000,0.337500,-0.106694,0.381694,-0.062500,0.400000,0.062500,0.400000,0.106694,0.381694,0.106694,0.381694,$1*%
%AMFreePoly7*
4,1,14,0.106694,0.381694,0.125000,0.337500,0.125000,-0.337500,0.106694,-0.381694,0.062500,-0.400000,0.000888,-0.400000,-0.043306,-0.381694,-0.106694,-0.318306,-0.125000,-0.274112,-0.125000,0.337500,-0.106694,0.381694,-0.062500,0.400000,0.062500,0.400000,0.106694,0.381694,0.106694,0.381694,$1*%
G04 Aperture macros list end*
%TA.AperFunction,SMDPad,CuDef*%
%ADD10R,1.400000X1.200000*%
%TD*%
%TA.AperFunction,SMDPad,CuDef*%
%ADD11RoundRect,0.140000X0.140000X0.170000X-0.140000X0.170000X-0.140000X-0.170000X0.140000X-0.170000X0*%
%TD*%
%TA.AperFunction,ComponentPad*%
%ADD12C,1.508000*%
%TD*%
%TA.AperFunction,ComponentPad*%
%ADD13C,3.216000*%
%TD*%
%TA.AperFunction,SMDPad,CuDef*%
%ADD14RoundRect,0.225000X0.225000X0.250000X-0.225000X0.250000X-0.225000X-0.250000X0.225000X-0.250000X0*%
%TD*%
%TA.AperFunction,SMDPad,CuDef*%
%ADD15RoundRect,0.225000X0.250000X-0.225000X0.250000X0.225000X-0.250000X0.225000X-0.250000X-0.225000X0*%
%TD*%
%TA.AperFunction,SMDPad,CuDef*%
%ADD16RoundRect,0.140000X-0.170000X0.140000X-0.170000X-0.140000X0.170000X-0.140000X0.170000X0.140000X0*%
%TD*%
%TA.AperFunction,SMDPad,CuDef*%
%ADD17R,0.700000X2.000000*%
%TD*%
%TA.AperFunction,SMDPad,CuDef*%
%ADD18R,2.700000X1.400000*%
%TD*%
%TA.AperFunction,SMDPad,CuDef*%
%ADD19R,1.000000X2.600000*%
%TD*%
%TA.AperFunction,SMDPad,CuDef*%
%ADD20R,1.500000X2.600000*%
%TD*%
%TA.AperFunction,SMDPad,CuDef*%
%ADD21R,1.200000X1.200000*%
%TD*%
%TA.AperFunction,SMDPad,CuDef*%
%ADD22RoundRect,0.243750X0.243750X0.456250X-0.243750X0.456250X-0.243750X-0.456250X0.243750X-0.456250X0*%
%TD*%
%TA.AperFunction,SMDPad,CuDef*%
%ADD23RoundRect,0.135000X0.135000X0.185000X-0.135000X0.185000X-0.135000X-0.185000X0.135000X-0.185000X0*%
%TD*%
%TA.AperFunction,SMDPad,CuDef*%
%ADD24RoundRect,0.250000X-0.925000X-1.500000X0.925000X-1.500000X0.925000X1.500000X-0.925000X1.500000X0*%
%TD*%
%TA.AperFunction,SMDPad,CuDef*%
%ADD25RoundRect,0.140000X0.170000X-0.140000X0.170000X0.140000X-0.170000X0.140000X-0.170000X-0.140000X0*%
%TD*%
%TA.AperFunction,ComponentPad*%
%ADD26C,3.600000*%
%TD*%
%TA.AperFunction,ConnectorPad*%
%ADD27C,5.600000*%
%TD*%
%TA.AperFunction,ComponentPad*%
%ADD28R,2.775000X2.775000*%
%TD*%
%TA.AperFunction,ComponentPad*%
%ADD29C,2.775000*%
%TD*%
%TA.AperFunction,SMDPad,CuDef*%
%ADD30RoundRect,0.135000X0.185000X-0.135000X0.185000X0.135000X-0.185000X0.135000X-0.185000X-0.135000X0*%
%TD*%
%TA.AperFunction,SMDPad,CuDef*%
%ADD31R,3.048000X1.600200*%
%TD*%
%TA.AperFunction,SMDPad,CuDef*%
%ADD32RoundRect,0.250000X0.262500X0.450000X-0.262500X0.450000X-0.262500X-0.450000X0.262500X-0.450000X0*%
%TD*%
%TA.AperFunction,SMDPad,CuDef*%
%ADD33RoundRect,0.140000X-0.140000X-0.170000X0.140000X-0.170000X0.140000X0.170000X-0.140000X0.170000X0*%
%TD*%
%TA.AperFunction,SMDPad,CuDef*%
%ADD34RoundRect,0.250000X0.475000X-0.250000X0.475000X0.250000X-0.475000X0.250000X-0.475000X-0.250000X0*%
%TD*%
%TA.AperFunction,SMDPad,CuDef*%
%ADD35RoundRect,0.218750X0.256250X-0.218750X0.256250X0.218750X-0.256250X0.218750X-0.256250X-0.218750X0*%
%TD*%
%TA.AperFunction,SMDPad,CuDef*%
%ADD36RoundRect,0.125000X-0.600000X-0.125000X0.600000X-0.125000X0.600000X0.125000X-0.600000X0.125000X0*%
%TD*%
%TA.AperFunction,HeatsinkPad*%
%ADD37R,1.570000X1.890000*%
%TD*%
%TA.AperFunction,SMDPad,CuDef*%
%ADD38RoundRect,0.218750X0.381250X-0.218750X0.381250X0.218750X-0.381250X0.218750X-0.381250X-0.218750X0*%
%TD*%
%TA.AperFunction,ComponentPad*%
%ADD39R,1.498600X1.498600*%
%TD*%
%TA.AperFunction,ComponentPad*%
%ADD40C,1.498600*%
%TD*%
%TA.AperFunction,SMDPad,CuDef*%
%ADD41RoundRect,0.250000X0.250000X0.475000X-0.250000X0.475000X-0.250000X-0.475000X0.250000X-0.475000X0*%
%TD*%
%TA.AperFunction,SMDPad,CuDef*%
%ADD42R,1.500000X3.000000*%
%TD*%
%TA.AperFunction,SMDPad,CuDef*%
%ADD43RoundRect,0.135000X-0.185000X0.135000X-0.185000X-0.135000X0.185000X-0.135000X0.185000X0.135000X0*%
%TD*%
%TA.AperFunction,SMDPad,CuDef*%
%ADD44RoundRect,0.225000X-0.250000X0.225000X-0.250000X-0.225000X0.250000X-0.225000X0.250000X0.225000X0*%
%TD*%
%TA.AperFunction,SMDPad,CuDef*%
%ADD45RoundRect,0.135000X-0.135000X-0.185000X0.135000X-0.185000X0.135000X0.185000X-0.135000X0.185000X0*%
%TD*%
%TA.AperFunction,SMDPad,CuDef*%
%ADD46RoundRect,0.250000X-0.250000X-0.475000X0.250000X-0.475000X0.250000X0.475000X-0.250000X0.475000X0*%
%TD*%
%TA.AperFunction,SMDPad,CuDef*%
%ADD47R,1.230000X1.860000*%
%TD*%
%TA.AperFunction,ComponentPad*%
%ADD48O,1.700000X2.900000*%
%TD*%
%TA.AperFunction,SMDPad,CuDef*%
%ADD49RoundRect,0.250000X-0.475000X0.250000X-0.475000X-0.250000X0.475000X-0.250000X0.475000X0.250000X0*%
%TD*%
%TA.AperFunction,SMDPad,CuDef*%
%ADD50RoundRect,0.150000X0.512500X0.150000X-0.512500X0.150000X-0.512500X-0.150000X0.512500X-0.150000X0*%
%TD*%
%TA.AperFunction,WasherPad*%
%ADD51C,4.016000*%
%TD*%
%TA.AperFunction,ComponentPad*%
%ADD52R,1.879600X1.879600*%
%TD*%
%TA.AperFunction,ComponentPad*%
%ADD53C,1.879600*%
%TD*%
%TA.AperFunction,ComponentPad*%
%ADD54C,1.600200*%
%TD*%
%TA.AperFunction,SMDPad,CuDef*%
%ADD55R,0.650000X2.770000*%
%TD*%
%TA.AperFunction,SMDPad,CuDef*%
%ADD56RoundRect,0.225000X-0.225000X-0.250000X0.225000X-0.250000X0.225000X0.250000X-0.225000X0.250000X0*%
%TD*%
%TA.AperFunction,SMDPad,CuDef*%
%ADD57RoundRect,0.150000X0.425000X-0.150000X0.425000X0.150000X-0.425000X0.150000X-0.425000X-0.150000X0*%
%TD*%
%TA.AperFunction,SMDPad,CuDef*%
%ADD58RoundRect,0.075000X0.500000X-0.075000X0.500000X0.075000X-0.500000X0.075000X-0.500000X-0.075000X0*%
%TD*%
%TA.AperFunction,HeatsinkPad*%
%ADD59O,2.100000X1.000000*%
%TD*%
%TA.AperFunction,HeatsinkPad*%
%ADD60O,1.800000X1.000000*%
%TD*%
%TA.AperFunction,SMDPad,CuDef*%
%ADD61RoundRect,0.200000X0.200000X0.275000X-0.200000X0.275000X-0.200000X-0.275000X0.200000X-0.275000X0*%
%TD*%
%TA.AperFunction,SMDPad,CuDef*%
%ADD62R,0.350000X0.550000*%
%TD*%
%TA.AperFunction,SMDPad,CuDef*%
%ADD63RoundRect,0.218750X-0.218750X-0.256250X0.218750X-0.256250X0.218750X0.256250X-0.218750X0.256250X0*%
%TD*%
%TA.AperFunction,SMDPad,CuDef*%
%ADD64FreePoly0,270.000000*%
%TD*%
%TA.AperFunction,SMDPad,CuDef*%
%ADD65RoundRect,0.062500X-0.062500X0.337500X-0.062500X-0.337500X0.062500X-0.337500X0.062500X0.337500X0*%
%TD*%
%TA.AperFunction,SMDPad,CuDef*%
%ADD66FreePoly1,270.000000*%
%TD*%
%TA.AperFunction,SMDPad,CuDef*%
%ADD67FreePoly2,270.000000*%
%TD*%
%TA.AperFunction,SMDPad,CuDef*%
%ADD68RoundRect,0.062500X-0.337500X0.062500X-0.337500X-0.062500X0.337500X-0.062500X0.337500X0.062500X0*%
%TD*%
%TA.AperFunction,SMDPad,CuDef*%
%ADD69FreePoly3,270.000000*%
%TD*%
%TA.AperFunction,SMDPad,CuDef*%
%ADD70FreePoly4,270.000000*%
%TD*%
%TA.AperFunction,SMDPad,CuDef*%
%ADD71FreePoly5,270.000000*%
%TD*%
%TA.AperFunction,SMDPad,CuDef*%
%ADD72FreePoly6,270.000000*%
%TD*%
%TA.AperFunction,SMDPad,CuDef*%
%ADD73FreePoly7,270.000000*%
%TD*%
%TA.AperFunction,HeatsinkPad*%
%ADD74R,2.600000X2.600000*%
%TD*%
%TA.AperFunction,SMDPad,CuDef*%
%ADD75RoundRect,0.075000X-0.700000X-0.075000X0.700000X-0.075000X0.700000X0.075000X-0.700000X0.075000X0*%
%TD*%
%TA.AperFunction,SMDPad,CuDef*%
%ADD76RoundRect,0.075000X-0.075000X-0.700000X0.075000X-0.700000X0.075000X0.700000X-0.075000X0.700000X0*%
%TD*%
%TA.AperFunction,SMDPad,CuDef*%
%ADD77RoundRect,0.042000X0.258000X-0.943000X0.258000X0.943000X-0.258000X0.943000X-0.258000X-0.943000X0*%
%TD*%
%TA.AperFunction,ViaPad*%
%ADD78C,0.450000*%
%TD*%
%TA.AperFunction,Conductor*%
%ADD79C,0.700000*%
%TD*%
%TA.AperFunction,Conductor*%
%ADD80C,0.500000*%
%TD*%
%TA.AperFunction,Conductor*%
%ADD81C,0.300000*%
%TD*%
%TA.AperFunction,Conductor*%
%ADD82C,0.200000*%
%TD*%
G04 APERTURE END LIST*
D10*
%TO.P,X1,1,OSC1*%
%TO.N,/[1] MCU/MCU_HSE_IN*%
X64935000Y-33050000D03*
%TO.P,X1,2,GND*%
%TO.N,GND*%
X62735000Y-33050000D03*
%TO.P,X1,3,OSC2*%
%TO.N,Net-(X1-OSC2)*%
X62735000Y-34750000D03*
%TO.P,X1,4,GND*%
%TO.N,GND*%
X64935000Y-34750000D03*
%TD*%
D11*
%TO.P,C47,1*%
%TO.N,/[2] Power/LDO_BP*%
X100760000Y-47100000D03*
%TO.P,C47,2*%
%TO.N,GND*%
X99800000Y-47100000D03*
%TD*%
%TO.P,C33,1*%
%TO.N,GND*%
X97480000Y-92925000D03*
%TO.P,C33,2*%
%TO.N,+3V3A*%
X96520000Y-92925000D03*
%TD*%
D12*
%TO.P,POT_6,1*%
%TO.N,+3V3*%
X33350000Y-116300000D03*
%TO.P,POT_6,2*%
%TO.N,/[3] Input Control/POT_6_CTL*%
X35850000Y-116300000D03*
%TO.P,POT_6,3*%
%TO.N,GND*%
X38350000Y-116300000D03*
D13*
%TO.P,POT_6,NC1*%
%TO.N,unconnected-(POT_6-PadNC1)*%
X31450000Y-109300000D03*
%TO.P,POT_6,NC2*%
%TO.N,unconnected-(POT_6-PadNC2)*%
X40250000Y-109300000D03*
%TD*%
D14*
%TO.P,C14,1*%
%TO.N,/[1] MCU/+3V3_SD*%
X88275000Y-925000D03*
%TO.P,C14,2*%
%TO.N,GND*%
X86725000Y-925000D03*
%TD*%
D15*
%TO.P,C15,1*%
%TO.N,/[1] MCU/VDDA*%
X66850000Y-40925000D03*
%TO.P,C15,2*%
%TO.N,GND*%
X66850000Y-39375000D03*
%TD*%
D16*
%TO.P,C44,1*%
%TO.N,/[2] Power/LDO_IN*%
X106180000Y-47150000D03*
%TO.P,C44,2*%
%TO.N,GND*%
X106180000Y-48110000D03*
%TD*%
D11*
%TO.P,C3,1*%
%TO.N,/[1] MCU/MCU_NRST*%
X61130000Y-39900000D03*
%TO.P,C3,2*%
%TO.N,GND*%
X60170000Y-39900000D03*
%TD*%
D17*
%TO.P,J1,1,DAT2*%
%TO.N,/[1] MCU/SDCARD_SDIO_D2*%
X85000000Y-4250000D03*
%TO.P,J1,2,CD/DAT3*%
%TO.N,/[1] MCU/SDCARD_SDIO_D3*%
X86100000Y-4250000D03*
%TO.P,J1,3,CMD*%
%TO.N,/[1] MCU/SDCARD_SDIO_CMD*%
X87200000Y-4250000D03*
%TO.P,J1,4,VDD*%
%TO.N,/[1] MCU/+3V3_SD*%
X88300000Y-4250000D03*
%TO.P,J1,5,CLK*%
%TO.N,Net-(J1-CLK)*%
X89400000Y-4250000D03*
%TO.P,J1,6,VSS*%
%TO.N,GND*%
X90500000Y-4250000D03*
%TO.P,J1,7,DAT0*%
%TO.N,/[1] MCU/SDCARD_SDIO_D0*%
X91600000Y-4250000D03*
%TO.P,J1,8,DAT1*%
%TO.N,/[1] MCU/SDCARD_SDIO_D1*%
X92700000Y-4250000D03*
D18*
%TO.P,J1,9,CD_SW*%
%TO.N,/[1] MCU/SDCARD_DETECT*%
X86400000Y-16950000D03*
D19*
%TO.P,J1,S1,GND*%
%TO.N,GND*%
X94800000Y-4750000D03*
D20*
%TO.P,J1,S2,GND*%
X81450000Y-4750000D03*
D18*
%TO.P,J1,S3,GND*%
X91300000Y-16950000D03*
D21*
%TO.P,J1,S5,GND*%
X83350000Y-17050000D03*
%TD*%
D15*
%TO.P,C4,1*%
%TO.N,+3V3*%
X67200000Y-34900000D03*
%TO.P,C4,2*%
%TO.N,GND*%
X67200000Y-33350000D03*
%TD*%
D12*
%TO.P,POT_8,1*%
%TO.N,+3V3*%
X73350000Y-116300000D03*
%TO.P,POT_8,2*%
%TO.N,/[3] Input Control/POT_7_CTL*%
X75850000Y-116300000D03*
%TO.P,POT_8,3*%
%TO.N,GND*%
X78350000Y-116300000D03*
D13*
%TO.P,POT_8,NC1*%
%TO.N,unconnected-(POT_8-PadNC1)*%
X71450000Y-109300000D03*
%TO.P,POT_8,NC2*%
%TO.N,unconnected-(POT_8-PadNC2)*%
X80250000Y-109300000D03*
%TD*%
D22*
%TO.P,D6,1,K*%
%TO.N,Net-(D6-K)*%
X117117500Y-22500000D03*
%TO.P,D6,2,A*%
%TO.N,+3V3*%
X115242500Y-22500000D03*
%TD*%
D23*
%TO.P,R15,1*%
%TO.N,+3V3*%
X91125000Y-55900000D03*
%TO.P,R15,2*%
%TO.N,CODEC_I2C_SCL*%
X90105000Y-55900000D03*
%TD*%
D24*
%TO.P,L2,1,1*%
%TO.N,/[2] Power/BUCK_SW*%
X103240000Y-17401020D03*
%TO.P,L2,2,2*%
%TO.N,+3V3*%
X109290000Y-17401020D03*
%TD*%
D11*
%TO.P,C12,1*%
%TO.N,/[1] MCU/+3V3_SD*%
X88555000Y-2300000D03*
%TO.P,C12,2*%
%TO.N,GND*%
X87595000Y-2300000D03*
%TD*%
D25*
%TO.P,C25,1*%
%TO.N,+3V3*%
X85175000Y-53955000D03*
%TO.P,C25,2*%
%TO.N,GND*%
X85175000Y-52995000D03*
%TD*%
D26*
%TO.P,H4,1*%
%TO.N,N/C*%
X115500000Y-115500000D03*
D27*
X115500000Y-115500000D03*
%TD*%
D28*
%TO.P,SW2,1*%
%TO.N,+3V3*%
X15875000Y-64100000D03*
D29*
%TO.P,SW2,2*%
%TO.N,SW_3*%
X15875000Y-68800000D03*
%TO.P,SW2,3*%
%TO.N,GND*%
X15875000Y-73500000D03*
%TD*%
D12*
%TO.P,POT_1,1*%
%TO.N,+3V3*%
X13350000Y-96300000D03*
%TO.P,POT_1,2*%
%TO.N,/[3] Input Control/POT_0_CTL*%
X15850000Y-96300000D03*
%TO.P,POT_1,3*%
%TO.N,GND*%
X18350000Y-96300000D03*
D13*
%TO.P,POT_1,NC1*%
%TO.N,unconnected-(POT_1-PadNC1)*%
X11450000Y-89300000D03*
%TO.P,POT_1,NC2*%
%TO.N,unconnected-(POT_1-PadNC2)*%
X20250000Y-89300000D03*
%TD*%
D30*
%TO.P,R5,1*%
%TO.N,/[1] MCU/SDCARD_SDIO_CK*%
X78000000Y-30220000D03*
%TO.P,R5,2*%
%TO.N,Net-(J1-CLK)*%
X78000000Y-29200000D03*
%TD*%
D31*
%TO.P,C35,1*%
%TO.N,Net-(U3-VO1)*%
X99453800Y-88500000D03*
%TO.P,C35,2*%
%TO.N,/[2] Audio/HEADPHONE_OUT_L*%
X104610000Y-88500000D03*
%TD*%
D32*
%TO.P,FB2,1*%
%TO.N,VBUS*%
X109392500Y-45220000D03*
%TO.P,FB2,2*%
%TO.N,/[2] Power/LDO_IN*%
X107567500Y-45220000D03*
%TD*%
D11*
%TO.P,C52,1*%
%TO.N,POT_MUX_ADC*%
X64690000Y-51900000D03*
%TO.P,C52,2*%
%TO.N,GND*%
X63730000Y-51900000D03*
%TD*%
D33*
%TO.P,C30,1*%
%TO.N,/[2] Audio/AUDIO_WIPER_OUT_R*%
X85920000Y-94650000D03*
%TO.P,C30,2*%
%TO.N,Net-(C30-Pad2)*%
X86880000Y-94650000D03*
%TD*%
D34*
%TO.P,C10,1*%
%TO.N,Net-(U1-VCAP_2)*%
X84720000Y-34610000D03*
%TO.P,C10,2*%
%TO.N,GND*%
X84720000Y-32710000D03*
%TD*%
D11*
%TO.P,C1,1*%
%TO.N,/[1] MCU/MCU_HSE_IN*%
X65810000Y-36350000D03*
%TO.P,C1,2*%
%TO.N,GND*%
X64850000Y-36350000D03*
%TD*%
D35*
%TO.P,D5,1,K*%
%TO.N,GND*%
X56710000Y-57217500D03*
%TO.P,D5,2,A*%
%TO.N,Net-(D5-A)*%
X56710000Y-55642500D03*
%TD*%
D36*
%TO.P,U3,1,BYPASS*%
%TO.N,Net-(U3-BYPASS)*%
X89760000Y-91200000D03*
%TO.P,U3,2,GND*%
%TO.N,GND*%
X89760000Y-91850000D03*
%TO.P,U3,3,SHDN*%
X89760000Y-92500000D03*
%TO.P,U3,4,IN2-*%
%TO.N,Net-(U3-IN2-)*%
X89760000Y-93150000D03*
%TO.P,U3,5,VO2*%
%TO.N,Net-(U3-VO2)*%
X94060000Y-93150000D03*
%TO.P,U3,6,VDD*%
%TO.N,+3V3A*%
X94060000Y-92500000D03*
%TO.P,U3,7,VO1*%
%TO.N,Net-(U3-VO1)*%
X94060000Y-91850000D03*
%TO.P,U3,8,IN1-*%
%TO.N,Net-(U3-IN1-)*%
X94060000Y-91200000D03*
D37*
%TO.P,U3,9,GND*%
%TO.N,GND*%
X91910000Y-92175000D03*
%TD*%
D33*
%TO.P,C9,1*%
%TO.N,+3V3*%
X82040000Y-33240000D03*
%TO.P,C9,2*%
%TO.N,GND*%
X83000000Y-33240000D03*
%TD*%
D23*
%TO.P,R31,1*%
%TO.N,+3V3*%
X106675000Y-25601020D03*
%TO.P,R31,2*%
%TO.N,/[2] Power/BUCK_FB*%
X105655000Y-25601020D03*
%TD*%
D25*
%TO.P,C5,1*%
%TO.N,+3V3*%
X68600000Y-34610000D03*
%TO.P,C5,2*%
%TO.N,GND*%
X68600000Y-33650000D03*
%TD*%
D38*
%TO.P,FB1,1*%
%TO.N,+3V3*%
X107525000Y-10400000D03*
%TO.P,FB1,2*%
%TO.N,/[1] MCU/+3V3_SD*%
X107525000Y-8275000D03*
%TD*%
D12*
%TO.P,POT_2,1*%
%TO.N,+3V3*%
X33350000Y-96300000D03*
%TO.P,POT_2,2*%
%TO.N,/[3] Input Control/POT_4_CTL*%
X35850000Y-96300000D03*
%TO.P,POT_2,3*%
%TO.N,GND*%
X38350000Y-96300000D03*
D13*
%TO.P,POT_2,NC1*%
%TO.N,unconnected-(POT_2-PadNC1)*%
X31450000Y-89300000D03*
%TO.P,POT_2,NC2*%
%TO.N,unconnected-(POT_2-PadNC2)*%
X40250000Y-89300000D03*
%TD*%
D39*
%TO.P,BTN2,1*%
%TO.N,PUSH_BTN_1*%
X31502499Y-51049999D03*
D40*
%TO.P,BTN2,2*%
X38002501Y-51049999D03*
%TO.P,BTN2,3*%
%TO.N,GND*%
X31502499Y-55550000D03*
%TO.P,BTN2,4*%
X38002501Y-55550000D03*
%TD*%
D26*
%TO.P,H1,1*%
%TO.N,N/C*%
X5500000Y-5500000D03*
D27*
X5500000Y-5500000D03*
%TD*%
D41*
%TO.P,C40,1*%
%TO.N,Net-(C40-Pad1)*%
X97460000Y-61615000D03*
%TO.P,C40,2*%
%TO.N,/[2] Audio/CODEC_R_IN*%
X95560000Y-61615000D03*
%TD*%
D42*
%TO.P,J3,R1*%
%TO.N,/[2] Audio/AUDIO_R_IN*%
X114450000Y-60350000D03*
%TO.P,J3,R2*%
%TO.N,GND*%
X117450000Y-60350000D03*
%TO.P,J3,S*%
%TO.N,unconnected-(J3-PadS)*%
X109050000Y-53350000D03*
%TO.P,J3,T*%
%TO.N,/[2] Audio/AUDIO_L_IN*%
X110450000Y-60350000D03*
%TD*%
D30*
%TO.P,R7,1*%
%TO.N,+3V3*%
X90950000Y-20620000D03*
%TO.P,R7,2*%
%TO.N,/[1] MCU/SDCARD_SDIO_D0*%
X90950000Y-19600000D03*
%TD*%
D35*
%TO.P,D4,1,K*%
%TO.N,GND*%
X53540000Y-57320000D03*
%TO.P,D4,2,A*%
%TO.N,Net-(D4-A)*%
X53540000Y-55745000D03*
%TD*%
D31*
%TO.P,C36,1*%
%TO.N,Net-(U3-VO2)*%
X99631900Y-96250000D03*
%TO.P,C36,2*%
%TO.N,/[2] Audio/HEADPHONE_OUT_R*%
X104788100Y-96250000D03*
%TD*%
D43*
%TO.P,R12,1*%
%TO.N,/[1] MCU/LED_1*%
X53520500Y-53140000D03*
%TO.P,R12,2*%
%TO.N,Net-(D4-A)*%
X53520500Y-54160000D03*
%TD*%
D44*
%TO.P,C20,1*%
%TO.N,Net-(U2-VREF)*%
X79400000Y-56500000D03*
%TO.P,C20,2*%
%TO.N,GND*%
X79400000Y-58050000D03*
%TD*%
D45*
%TO.P,R23,1*%
%TO.N,GND*%
X79810000Y-64450000D03*
%TO.P,R23,2*%
%TO.N,Net-(C37-Pad1)*%
X80830000Y-64450000D03*
%TD*%
D15*
%TO.P,C23,1*%
%TO.N,+3V3*%
X85925000Y-51475000D03*
%TO.P,C23,2*%
%TO.N,GND*%
X85925000Y-49925000D03*
%TD*%
D26*
%TO.P,H3,1*%
%TO.N,N/C*%
X5500000Y-115500000D03*
D27*
X5500000Y-115500000D03*
%TD*%
D46*
%TO.P,C8,1*%
%TO.N,Net-(U1-VCAP_1)*%
X80050000Y-47050000D03*
%TO.P,C8,2*%
%TO.N,GND*%
X81950000Y-47050000D03*
%TD*%
D23*
%TO.P,R32,1*%
%TO.N,/[2] Power/BUCK_FB*%
X104075000Y-25601020D03*
%TO.P,R32,2*%
%TO.N,GND*%
X103055000Y-25601020D03*
%TD*%
D44*
%TO.P,C22,1*%
%TO.N,Net-(U2-ADCVREF)*%
X86025000Y-63475000D03*
%TO.P,C22,2*%
%TO.N,GND*%
X86025000Y-65025000D03*
%TD*%
D45*
%TO.P,R34,1*%
%TO.N,Net-(U7-COM_OUT{slash}IN)*%
X63690000Y-53175000D03*
%TO.P,R34,2*%
%TO.N,POT_MUX_ADC*%
X64710000Y-53175000D03*
%TD*%
D47*
%TO.P,SW_2,1,1*%
%TO.N,/[1] MCU/MCU_NRST*%
X61130000Y-42900000D03*
%TO.P,SW_2,2,2*%
%TO.N,GND*%
X56770000Y-42900000D03*
%TD*%
D48*
%TO.P,SW_1,1,1*%
%TO.N,GND*%
X57800000Y-4900000D03*
%TO.P,SW_1,2,2*%
%TO.N,Net-(D1-A)*%
X62600000Y-4900000D03*
%TO.P,SW_1,3,3*%
%TO.N,+3V3*%
X67400000Y-4900000D03*
%TD*%
D49*
%TO.P,C49,1*%
%TO.N,+3V3*%
X109365000Y-22151020D03*
%TO.P,C49,2*%
%TO.N,GND*%
X109365000Y-24051020D03*
%TD*%
D45*
%TO.P,R4,1*%
%TO.N,Net-(X1-OSC2)*%
X62330000Y-37450000D03*
%TO.P,R4,2*%
%TO.N,/[1] MCU/MCU_HSE_OUT*%
X63350000Y-37450000D03*
%TD*%
D50*
%TO.P,U6,1,IN*%
%TO.N,/[2] Power/LDO_IN*%
X104645000Y-49000000D03*
%TO.P,U6,2,GND*%
%TO.N,GND*%
X104645000Y-48050000D03*
%TO.P,U6,3,EN*%
%TO.N,/[2] Power/LDO_IN*%
X104645000Y-47100000D03*
%TO.P,U6,4,BP*%
%TO.N,/[2] Power/LDO_BP*%
X102370000Y-47100000D03*
%TO.P,U6,5,OUT*%
%TO.N,+3V3A*%
X102370000Y-49000000D03*
%TD*%
D43*
%TO.P,R13,1*%
%TO.N,/[1] MCU/LED_2*%
X56701000Y-53050000D03*
%TO.P,R13,2*%
%TO.N,Net-(D5-A)*%
X56701000Y-54070000D03*
%TD*%
D51*
%TO.P,ER-OLEDM015-2W1,*%
%TO.N,*%
X12680000Y-4500000D03*
X12680000Y-37500000D03*
X50080000Y-4500000D03*
X50080000Y-37500000D03*
D52*
%TO.P,ER-OLEDM015-2W1,1,GND*%
%TO.N,GND*%
X23760000Y-4000000D03*
D53*
%TO.P,ER-OLEDM015-2W1,2,VCC*%
%TO.N,+3V3*%
X26300000Y-4000000D03*
%TO.P,ER-OLEDM015-2W1,3,SCL*%
%TO.N,/[1] MCU/OLED_SPI_SCK*%
X28840000Y-4000000D03*
%TO.P,ER-OLEDM015-2W1,4,SDA*%
%TO.N,/[1] MCU/OLED_SPI_DATA*%
X31380000Y-4000000D03*
%TO.P,ER-OLEDM015-2W1,5,RES*%
%TO.N,/[1] MCU/OLED_RST*%
X33920000Y-4000000D03*
%TO.P,ER-OLEDM015-2W1,6,DC*%
%TO.N,/[1] MCU/OLED_DC*%
X36460000Y-4000000D03*
%TO.P,ER-OLEDM015-2W1,7,CS*%
%TO.N,/[1] MCU/OLED_SPI_CS*%
X39000000Y-4000000D03*
%TD*%
D41*
%TO.P,C39,1*%
%TO.N,Net-(C39-Pad1)*%
X97460000Y-59240000D03*
%TO.P,C39,2*%
%TO.N,/[2] Audio/CODEC_L_IN*%
X95560000Y-59240000D03*
%TD*%
D11*
%TO.P,C6,1*%
%TO.N,+3V3*%
X73500000Y-46000000D03*
%TO.P,C6,2*%
%TO.N,GND*%
X72540000Y-46000000D03*
%TD*%
D43*
%TO.P,R26,1*%
%TO.N,Net-(C38-Pad1)*%
X77410000Y-65480000D03*
%TO.P,R26,2*%
%TO.N,/[2] Audio/AUDIO_R_OUT*%
X77410000Y-66500000D03*
%TD*%
D30*
%TO.P,R21,1*%
%TO.N,GND*%
X100110000Y-59740000D03*
%TO.P,R21,2*%
%TO.N,Net-(C39-Pad1)*%
X100110000Y-58720000D03*
%TD*%
D45*
%TO.P,R17,1*%
%TO.N,Net-(C29-Pad2)*%
X93050000Y-89250000D03*
%TO.P,R17,2*%
%TO.N,Net-(U3-IN1-)*%
X94070000Y-89250000D03*
%TD*%
D50*
%TO.P,U5,1,EN*%
%TO.N,VBUS*%
X107065000Y-24001020D03*
%TO.P,U5,2,GND*%
%TO.N,GND*%
X107065000Y-23051020D03*
%TO.P,U5,3,SW*%
%TO.N,/[2] Power/BUCK_SW*%
X107065000Y-22101020D03*
%TO.P,U5,4,VIN*%
%TO.N,VBUS*%
X104790000Y-22101020D03*
%TO.P,U5,5,FB*%
%TO.N,/[2] Power/BUCK_FB*%
X104790000Y-24001020D03*
%TD*%
%TO.P,U4,1,I/O1*%
%TO.N,/[2] Power/USB_D-*%
X110787500Y-38450000D03*
%TO.P,U4,2,GND*%
%TO.N,GND*%
X110787500Y-37500000D03*
%TO.P,U4,3,I/O2*%
%TO.N,/[2] Power/USB_D+*%
X110787500Y-36550000D03*
%TO.P,U4,4,I/O2*%
%TO.N,MCU_USB_D+*%
X108512500Y-36550000D03*
%TO.P,U4,5,VBUS*%
%TO.N,VBUS*%
X108512500Y-37500000D03*
%TO.P,U4,6,I/O1*%
%TO.N,MCU_USB_D-*%
X108512500Y-38450000D03*
%TD*%
D28*
%TO.P,SW1,1*%
%TO.N,+3V3*%
X35000000Y-64100000D03*
D29*
%TO.P,SW1,2*%
%TO.N,SW_2*%
X35000000Y-68800000D03*
%TO.P,SW1,3*%
%TO.N,GND*%
X35000000Y-73500000D03*
%TD*%
D45*
%TO.P,R18,1*%
%TO.N,Net-(C30-Pad2)*%
X88000000Y-94650000D03*
%TO.P,R18,2*%
%TO.N,Net-(U3-IN2-)*%
X89020000Y-94650000D03*
%TD*%
D25*
%TO.P,C13,1*%
%TO.N,/[1] MCU/VDDA*%
X68400000Y-40780000D03*
%TO.P,C13,2*%
%TO.N,GND*%
X68400000Y-39820000D03*
%TD*%
D54*
%TO.P,R16,1,1*%
%TO.N,GND*%
X72861601Y-96970099D03*
%TO.P,R16,2,2*%
%TO.N,/[2] Audio/AUDIO_WIPER_OUT_R*%
X75361601Y-96970099D03*
%TO.P,R16,3,3*%
%TO.N,/[2] Audio/AUDIO_R_OUT*%
X77861601Y-96970099D03*
%TO.P,R16,4,4*%
%TO.N,GND*%
X72861601Y-94470099D03*
%TO.P,R16,5,5*%
%TO.N,/[2] Audio/AUDIO_WIPER_OUT_L*%
X75361601Y-94470099D03*
%TO.P,R16,6,6*%
%TO.N,/[2] Audio/AUDIO_L_OUT*%
X77861601Y-94470099D03*
%TD*%
D23*
%TO.P,R30,1*%
%TO.N,/[2] Power/USBCC1*%
X117000000Y-44000000D03*
%TO.P,R30,2*%
%TO.N,GND*%
X115980000Y-44000000D03*
%TD*%
D25*
%TO.P,C27,1*%
%TO.N,+3V3*%
X86300000Y-53955000D03*
%TO.P,C27,2*%
%TO.N,GND*%
X86300000Y-52995000D03*
%TD*%
D12*
%TO.P,POT_4,1*%
%TO.N,+3V3*%
X91820000Y-116030000D03*
%TO.P,POT_4,2*%
%TO.N,/[3] Input Control/POT_5_CTL*%
X94320000Y-116030000D03*
%TO.P,POT_4,3*%
%TO.N,GND*%
X96820000Y-116030000D03*
D13*
%TO.P,POT_4,NC1*%
%TO.N,unconnected-(POT_4-PadNC1)*%
X89920000Y-109030000D03*
%TO.P,POT_4,NC2*%
%TO.N,unconnected-(POT_4-PadNC2)*%
X98720000Y-109030000D03*
%TD*%
D12*
%TO.P,POT_5,1*%
%TO.N,+3V3*%
X13350000Y-116300000D03*
%TO.P,POT_5,2*%
%TO.N,/[3] Input Control/POT_2_CTL*%
X15850000Y-116300000D03*
%TO.P,POT_5,3*%
%TO.N,GND*%
X18350000Y-116300000D03*
D13*
%TO.P,POT_5,NC1*%
%TO.N,unconnected-(POT_5-PadNC1)*%
X11450000Y-109300000D03*
%TO.P,POT_5,NC2*%
%TO.N,unconnected-(POT_5-PadNC2)*%
X20250000Y-109300000D03*
%TD*%
D14*
%TO.P,C51,1*%
%TO.N,+3V3*%
X49975000Y-68300000D03*
%TO.P,C51,2*%
%TO.N,GND*%
X48425000Y-68300000D03*
%TD*%
D25*
%TO.P,C42,1*%
%TO.N,Net-(C40-Pad1)*%
X99010000Y-62040000D03*
%TO.P,C42,2*%
%TO.N,GND*%
X99010000Y-61080000D03*
%TD*%
D16*
%TO.P,C21,1*%
%TO.N,Net-(U2-VREF)*%
X81100000Y-57100000D03*
%TO.P,C21,2*%
%TO.N,GND*%
X81100000Y-58060000D03*
%TD*%
D26*
%TO.P,H2,1*%
%TO.N,N/C*%
X115500000Y-5500000D03*
D27*
X115500000Y-5500000D03*
%TD*%
D44*
%TO.P,C46,1*%
%TO.N,/[2] Power/LDO_IN*%
X107560000Y-47195000D03*
%TO.P,C46,2*%
%TO.N,GND*%
X107560000Y-48745000D03*
%TD*%
D55*
%TO.P,CN1,1,VTREF*%
%TO.N,+3V3*%
X74600000Y-19560000D03*
%TO.P,CN1,2,SWDIO*%
%TO.N,/[1] MCU/SWD_IO*%
X74600000Y-23600000D03*
%TO.P,CN1,3,GND*%
%TO.N,GND*%
X73330000Y-19560000D03*
%TO.P,CN1,4,SWDCLK*%
%TO.N,/[1] MCU/SWD_CLK*%
X73330000Y-23600000D03*
%TO.P,CN1,5,GND*%
%TO.N,GND*%
X72060000Y-19560000D03*
%TO.P,CN1,6,SWO*%
%TO.N,/[1] MCU/SWD_O*%
X72060000Y-23600000D03*
%TO.P,CN1,7,NC*%
%TO.N,unconnected-(CN1-NC-Pad7)*%
X70790000Y-19560000D03*
%TO.P,CN1,8,NC*%
%TO.N,unconnected-(CN1-NC-Pad8)*%
X70790000Y-23600000D03*
%TO.P,CN1,9,GND*%
%TO.N,GND*%
X69520000Y-19560000D03*
%TO.P,CN1,10,NRST*%
%TO.N,/[1] MCU/MCU_NRST*%
X69520000Y-23600000D03*
%TD*%
D25*
%TO.P,C34,1*%
%TO.N,GND*%
X88060000Y-92160000D03*
%TO.P,C34,2*%
%TO.N,Net-(U3-BYPASS)*%
X88060000Y-91200000D03*
%TD*%
D34*
%TO.P,C37,1*%
%TO.N,Net-(C37-Pad1)*%
X80370000Y-62920000D03*
%TO.P,C37,2*%
%TO.N,/[2] Audio/CODEC_L_OUT*%
X80370000Y-61020000D03*
%TD*%
D33*
%TO.P,C29,1*%
%TO.N,/[2] Audio/AUDIO_WIPER_OUT_L*%
X90675000Y-89225000D03*
%TO.P,C29,2*%
%TO.N,Net-(C29-Pad2)*%
X91635000Y-89225000D03*
%TD*%
D23*
%TO.P,R1,1*%
%TO.N,Net-(D1-K)*%
X57330000Y-9590000D03*
%TO.P,R1,2*%
%TO.N,GND*%
X56310000Y-9590000D03*
%TD*%
D34*
%TO.P,C38,1*%
%TO.N,Net-(C38-Pad1)*%
X77900000Y-62910000D03*
%TO.P,C38,2*%
%TO.N,/[2] Audio/CODEC_R_OUT*%
X77900000Y-61010000D03*
%TD*%
D42*
%TO.P,J4,R1*%
%TO.N,/[2] Audio/AUDIO_R_OUT*%
X114600000Y-72900000D03*
%TO.P,J4,R2*%
%TO.N,GND*%
X117600000Y-72900000D03*
%TO.P,J4,S*%
%TO.N,unconnected-(J4-PadS)*%
X109200000Y-65900000D03*
%TO.P,J4,T*%
%TO.N,/[2] Audio/AUDIO_L_OUT*%
X110600000Y-72900000D03*
%TD*%
D56*
%TO.P,C32,1*%
%TO.N,+3V3A*%
X82460000Y-64600000D03*
%TO.P,C32,2*%
%TO.N,GND*%
X84010000Y-64600000D03*
%TD*%
D23*
%TO.P,R14,1*%
%TO.N,+3V3*%
X91135000Y-57175000D03*
%TO.P,R14,2*%
%TO.N,CODEC_I2C_SDA*%
X90115000Y-57175000D03*
%TD*%
D30*
%TO.P,R8,1*%
%TO.N,+3V3*%
X94000000Y-20620000D03*
%TO.P,R8,2*%
%TO.N,/[1] MCU/SDCARD_SDIO_D1*%
X94000000Y-19600000D03*
%TD*%
D23*
%TO.P,R24,1*%
%TO.N,GND*%
X78450000Y-64420000D03*
%TO.P,R24,2*%
%TO.N,Net-(C38-Pad1)*%
X77430000Y-64420000D03*
%TD*%
D16*
%TO.P,C28,1*%
%TO.N,+3V3A*%
X83475000Y-61510000D03*
%TO.P,C28,2*%
%TO.N,GND*%
X83475000Y-62470000D03*
%TD*%
D12*
%TO.P,POT_3,1*%
%TO.N,+3V3*%
X53350000Y-96300000D03*
%TO.P,POT_3,2*%
%TO.N,/[3] Input Control/POT_1_CTL*%
X55850000Y-96300000D03*
%TO.P,POT_3,3*%
%TO.N,GND*%
X58350000Y-96300000D03*
D13*
%TO.P,POT_3,NC1*%
%TO.N,unconnected-(POT_3-PadNC1)*%
X51450000Y-89300000D03*
%TO.P,POT_3,NC2*%
%TO.N,unconnected-(POT_3-PadNC2)*%
X60250000Y-89300000D03*
%TD*%
D30*
%TO.P,R10,1*%
%TO.N,+3V3*%
X87900000Y-20620000D03*
%TO.P,R10,2*%
%TO.N,/[1] MCU/SDCARD_SDIO_D3*%
X87900000Y-19600000D03*
%TD*%
D16*
%TO.P,C7,1*%
%TO.N,+3V3*%
X81020000Y-44340000D03*
%TO.P,C7,2*%
%TO.N,GND*%
X81020000Y-45300000D03*
%TD*%
D43*
%TO.P,R11,1*%
%TO.N,/[1] MCU/LED_0*%
X50570000Y-53110000D03*
%TO.P,R11,2*%
%TO.N,Net-(D3-A)*%
X50570000Y-54130000D03*
%TD*%
D57*
%TO.P,J5,A1,GND*%
%TO.N,GND*%
X114245000Y-41130000D03*
%TO.P,J5,A4,VBUS*%
%TO.N,VBUS*%
X114245000Y-40330000D03*
D58*
%TO.P,J5,A5,CC1*%
%TO.N,/[2] Power/USBCC1*%
X114245000Y-39180000D03*
%TO.P,J5,A6,D+*%
%TO.N,/[2] Power/USB_D+*%
X114245000Y-38180000D03*
%TO.P,J5,A7,D-*%
%TO.N,/[2] Power/USB_D-*%
X114245000Y-37680000D03*
%TO.P,J5,A8,SBU1*%
%TO.N,unconnected-(J5-SBU1-PadA8)*%
X114245000Y-36680000D03*
D57*
%TO.P,J5,A9,VBUS*%
%TO.N,VBUS*%
X114245000Y-35530000D03*
%TO.P,J5,A12,GND*%
%TO.N,GND*%
X114245000Y-34730000D03*
%TO.P,J5,B1,GND*%
X114245000Y-34730000D03*
%TO.P,J5,B4,VBUS*%
%TO.N,VBUS*%
X114245000Y-35530000D03*
D58*
%TO.P,J5,B5,CC2*%
%TO.N,/[2] Power/USBCC2*%
X114245000Y-36180000D03*
%TO.P,J5,B6,D+*%
%TO.N,/[2] Power/USB_D+*%
X114245000Y-37180000D03*
%TO.P,J5,B7,D-*%
%TO.N,/[2] Power/USB_D-*%
X114245000Y-38680000D03*
%TO.P,J5,B8,SBU2*%
%TO.N,unconnected-(J5-SBU2-PadB8)*%
X114245000Y-39680000D03*
D57*
%TO.P,J5,B9,VBUS*%
%TO.N,VBUS*%
X114245000Y-40330000D03*
%TO.P,J5,B12,GND*%
%TO.N,GND*%
X114245000Y-41130000D03*
D59*
%TO.P,J5,S1,SHIELD*%
X114820000Y-42250000D03*
D60*
X119000000Y-42250000D03*
D59*
X114820000Y-33610000D03*
D60*
X119000000Y-33610000D03*
%TD*%
D45*
%TO.P,R20,1*%
%TO.N,Net-(U3-IN2-)*%
X91360000Y-94600000D03*
%TO.P,R20,2*%
%TO.N,Net-(U3-VO2)*%
X92380000Y-94600000D03*
%TD*%
D23*
%TO.P,R33,1*%
%TO.N,Net-(D6-K)*%
X117175000Y-24575000D03*
%TO.P,R33,2*%
%TO.N,GND*%
X116155000Y-24575000D03*
%TD*%
D30*
%TO.P,R9,1*%
%TO.N,+3V3*%
X84850000Y-20620000D03*
%TO.P,R9,2*%
%TO.N,/[1] MCU/SDCARD_SDIO_D2*%
X84850000Y-19600000D03*
%TD*%
D23*
%TO.P,R29,1*%
%TO.N,/[2] Power/USBCC2*%
X117000000Y-31750000D03*
%TO.P,R29,2*%
%TO.N,GND*%
X115980000Y-31750000D03*
%TD*%
D43*
%TO.P,R22,1*%
%TO.N,GND*%
X100110000Y-61050000D03*
%TO.P,R22,2*%
%TO.N,Net-(C40-Pad1)*%
X100110000Y-62070000D03*
%TD*%
D49*
%TO.P,C45,1*%
%TO.N,VBUS*%
X101265000Y-22301020D03*
%TO.P,C45,2*%
%TO.N,GND*%
X101265000Y-24201020D03*
%TD*%
D11*
%TO.P,C18,1*%
%TO.N,+3V3*%
X25660000Y-5900000D03*
%TO.P,C18,2*%
%TO.N,GND*%
X24700000Y-5900000D03*
%TD*%
D33*
%TO.P,C11,1*%
%TO.N,+3V3*%
X72090000Y-30700000D03*
%TO.P,C11,2*%
%TO.N,GND*%
X73050000Y-30700000D03*
%TD*%
D12*
%TO.P,POT_7,1*%
%TO.N,+3V3*%
X53350000Y-116300000D03*
%TO.P,POT_7,2*%
%TO.N,/[3] Input Control/POT_3_CTL*%
X55850000Y-116300000D03*
%TO.P,POT_7,3*%
%TO.N,GND*%
X58350000Y-116300000D03*
D13*
%TO.P,POT_7,NC1*%
%TO.N,unconnected-(POT_7-PadNC1)*%
X51450000Y-109300000D03*
%TO.P,POT_7,NC2*%
%TO.N,unconnected-(POT_7-PadNC2)*%
X60250000Y-109300000D03*
%TD*%
D14*
%TO.P,C19,1*%
%TO.N,+3V3*%
X26000000Y-7250000D03*
%TO.P,C19,2*%
%TO.N,GND*%
X24450000Y-7250000D03*
%TD*%
D45*
%TO.P,R3,1*%
%TO.N,Net-(D1-A)*%
X62730000Y-9575000D03*
%TO.P,R3,2*%
%TO.N,/[1] MCU/MCU_BOOT0*%
X63750000Y-9575000D03*
%TD*%
D61*
%TO.P,FB3,1*%
%TO.N,/[1] MCU/VDDA*%
X66800000Y-42575000D03*
%TO.P,FB3,2*%
%TO.N,+3V3*%
X65150000Y-42575000D03*
%TD*%
D62*
%TO.P,D2,1,1*%
%TO.N,GND*%
X90425000Y-2275000D03*
%TO.P,D2,2,2*%
%TO.N,/[1] MCU/+3V3_SD*%
X89785000Y-2275000D03*
%TD*%
D44*
%TO.P,C24,1*%
%TO.N,Net-(U2-VMID)*%
X87675000Y-63400000D03*
%TO.P,C24,2*%
%TO.N,GND*%
X87675000Y-64950000D03*
%TD*%
D11*
%TO.P,C50,1*%
%TO.N,+3V3*%
X49940000Y-69800000D03*
%TO.P,C50,2*%
%TO.N,GND*%
X48980000Y-69800000D03*
%TD*%
D33*
%TO.P,C2,1*%
%TO.N,Net-(X1-OSC2)*%
X62370000Y-36350000D03*
%TO.P,C2,2*%
%TO.N,GND*%
X63330000Y-36350000D03*
%TD*%
D39*
%TO.P,BTN1,1*%
%TO.N,PUSH_BTN_0*%
X12377499Y-51049999D03*
D40*
%TO.P,BTN1,2*%
X18877501Y-51049999D03*
%TO.P,BTN1,3*%
%TO.N,GND*%
X12377499Y-55550000D03*
%TO.P,BTN1,4*%
X18877501Y-55550000D03*
%TD*%
D23*
%TO.P,R28,1*%
%TO.N,/[2] Audio/AUDIO_R_IN*%
X104570000Y-62070000D03*
%TO.P,R28,2*%
%TO.N,Net-(C40-Pad1)*%
X103550000Y-62070000D03*
%TD*%
D63*
%TO.P,D1,1,K*%
%TO.N,Net-(D1-K)*%
X59182500Y-9590000D03*
%TO.P,D1,2,A*%
%TO.N,Net-(D1-A)*%
X60757500Y-9590000D03*
%TD*%
D33*
%TO.P,C26,1*%
%TO.N,Net-(U2-VMID)*%
X86270000Y-61350000D03*
%TO.P,C26,2*%
%TO.N,GND*%
X87230000Y-61350000D03*
%TD*%
D23*
%TO.P,R27,1*%
%TO.N,/[2] Audio/AUDIO_L_IN*%
X104590000Y-58720000D03*
%TO.P,R27,2*%
%TO.N,Net-(C39-Pad1)*%
X103570000Y-58720000D03*
%TD*%
D16*
%TO.P,C43,1*%
%TO.N,VBUS*%
X103065000Y-22221020D03*
%TO.P,C43,2*%
%TO.N,GND*%
X103065000Y-23181020D03*
%TD*%
%TO.P,C41,1*%
%TO.N,Net-(C39-Pad1)*%
X98970000Y-58740000D03*
%TO.P,C41,2*%
%TO.N,GND*%
X98970000Y-59700000D03*
%TD*%
D45*
%TO.P,R2,1*%
%TO.N,+3V3*%
X60140000Y-38600000D03*
%TO.P,R2,2*%
%TO.N,/[1] MCU/MCU_NRST*%
X61160000Y-38600000D03*
%TD*%
D42*
%TO.P,J2,R1*%
%TO.N,/[2] Audio/HEADPHONE_OUT_R*%
X114550000Y-85500000D03*
%TO.P,J2,R2*%
%TO.N,GND*%
X117550000Y-85500000D03*
%TO.P,J2,S*%
%TO.N,unconnected-(J2-PadS)*%
X109150000Y-78500000D03*
%TO.P,J2,T*%
%TO.N,/[2] Audio/HEADPHONE_OUT_L*%
X110550000Y-85500000D03*
%TD*%
D30*
%TO.P,R6,1*%
%TO.N,+3V3*%
X82600000Y-20620000D03*
%TO.P,R6,2*%
%TO.N,/[1] MCU/SDCARD_SDIO_CMD*%
X82600000Y-19600000D03*
%TD*%
D43*
%TO.P,R25,1*%
%TO.N,Net-(C37-Pad1)*%
X80940000Y-65510000D03*
%TO.P,R25,2*%
%TO.N,/[2] Audio/AUDIO_L_OUT*%
X80940000Y-66530000D03*
%TD*%
D16*
%TO.P,C31,1*%
%TO.N,+3V3A*%
X84600000Y-61515000D03*
%TO.P,C31,2*%
%TO.N,GND*%
X84600000Y-62475000D03*
%TD*%
D43*
%TO.P,R19,1*%
%TO.N,Net-(U3-IN1-)*%
X95760000Y-90390000D03*
%TO.P,R19,2*%
%TO.N,Net-(U3-VO1)*%
X95760000Y-91410000D03*
%TD*%
D64*
%TO.P,U2,1,MCLK*%
%TO.N,CODEC_I2S_MCK*%
X86400000Y-56125000D03*
D65*
%TO.P,U2,2,DVDD*%
%TO.N,+3V3*%
X85950000Y-56125000D03*
%TO.P,U2,3,PVDD*%
X85500000Y-56125000D03*
%TO.P,U2,4,DGND*%
%TO.N,GND*%
X85050000Y-56125000D03*
%TO.P,U2,5,SCLK*%
%TO.N,CODEC_I2S_CK*%
X84600000Y-56125000D03*
%TO.P,U2,6,DSDIN*%
%TO.N,CODEC_I2S_SD*%
X84150000Y-56125000D03*
D66*
%TO.P,U2,7,LRCK*%
%TO.N,CODEC_I2S_WS*%
X83700000Y-56125000D03*
D67*
%TO.P,U2,8,ASDOUT*%
%TO.N,CODEC_I2S_SDI*%
X83100000Y-56725000D03*
D68*
%TO.P,U2,9,NC*%
%TO.N,unconnected-(U2-NC-Pad9)*%
X83100000Y-57175000D03*
%TO.P,U2,10,VREF*%
%TO.N,Net-(U2-VREF)*%
X83100000Y-57625000D03*
%TO.P,U2,11,ROUT1*%
%TO.N,/[2] Audio/CODEC_R_OUT*%
X83100000Y-58075000D03*
%TO.P,U2,12,LOUT1*%
%TO.N,/[2] Audio/CODEC_L_OUT*%
X83100000Y-58525000D03*
%TO.P,U2,13,HPGND*%
%TO.N,GND*%
X83100000Y-58975000D03*
D69*
%TO.P,U2,14,ROUT2*%
%TO.N,unconnected-(U2-ROUT2-Pad14)*%
X83100000Y-59425000D03*
D70*
%TO.P,U2,15,LOUT2*%
%TO.N,unconnected-(U2-LOUT2-Pad15)*%
X83700000Y-60025000D03*
D65*
%TO.P,U2,16,HPVDD*%
%TO.N,+3V3A*%
X84150000Y-60025000D03*
%TO.P,U2,17,AVDD*%
X84600000Y-60025000D03*
%TO.P,U2,18,AGND*%
%TO.N,GND*%
X85050000Y-60025000D03*
%TO.P,U2,19,ADCVREF*%
%TO.N,Net-(U2-ADCVREF)*%
X85500000Y-60025000D03*
%TO.P,U2,20,VMID*%
%TO.N,Net-(U2-VMID)*%
X85950000Y-60025000D03*
D71*
%TO.P,U2,21,RIN2*%
%TO.N,unconnected-(U2-RIN2-Pad21)*%
X86400000Y-60025000D03*
D72*
%TO.P,U2,22,LIN2*%
%TO.N,unconnected-(U2-LIN2-Pad22)*%
X87000000Y-59425000D03*
D68*
%TO.P,U2,23,RIN1*%
%TO.N,/[2] Audio/CODEC_R_IN*%
X87000000Y-58975000D03*
%TO.P,U2,24,LIN1*%
%TO.N,/[2] Audio/CODEC_L_IN*%
X87000000Y-58525000D03*
%TO.P,U2,25,NC*%
%TO.N,unconnected-(U2-NC-Pad25)*%
X87000000Y-58075000D03*
%TO.P,U2,26,CE*%
%TO.N,GND*%
X87000000Y-57625000D03*
%TO.P,U2,27,CDATA*%
%TO.N,CODEC_I2C_SDA*%
X87000000Y-57175000D03*
D73*
%TO.P,U2,28,CCLK*%
%TO.N,CODEC_I2C_SCL*%
X87000000Y-56725000D03*
D74*
%TO.P,U2,29,EPAD*%
%TO.N,GND*%
X85050000Y-58075000D03*
%TD*%
D75*
%TO.P,U1,1,VBAT*%
%TO.N,+3V3*%
X70425000Y-34625000D03*
%TO.P,U1,2,PC13*%
%TO.N,unconnected-(U1-PC13-Pad2)*%
X70425000Y-35125000D03*
%TO.P,U1,3,PC14*%
%TO.N,unconnected-(U1-PC14-Pad3)*%
X70425000Y-35625000D03*
%TO.P,U1,4,PC15*%
%TO.N,unconnected-(U1-PC15-Pad4)*%
X70425000Y-36125000D03*
%TO.P,U1,5,PH0*%
%TO.N,/[1] MCU/MCU_HSE_IN*%
X70425000Y-36625000D03*
%TO.P,U1,6,PH1*%
%TO.N,/[1] MCU/MCU_HSE_OUT*%
X70425000Y-37125000D03*
%TO.P,U1,7,NRST*%
%TO.N,/[1] MCU/MCU_NRST*%
X70425000Y-37625000D03*
%TO.P,U1,8,PC0*%
%TO.N,PUSH_BTN_1*%
X70425000Y-38125000D03*
%TO.P,U1,9,PC1*%
%TO.N,PUSH_BTN_0*%
X70425000Y-38625000D03*
%TO.P,U1,10,PC2*%
%TO.N,unconnected-(U1-PC2-Pad10)*%
X70425000Y-39125000D03*
%TO.P,U1,11,PC3*%
%TO.N,unconnected-(U1-PC3-Pad11)*%
X70425000Y-39625000D03*
%TO.P,U1,12,VSSA*%
%TO.N,GND*%
X70425000Y-40125000D03*
%TO.P,U1,13,VDDA*%
%TO.N,/[1] MCU/VDDA*%
X70425000Y-40625000D03*
%TO.P,U1,14,PA0*%
%TO.N,POT_MUX_ADC*%
X70425000Y-41125000D03*
%TO.P,U1,15,PA1*%
%TO.N,/[1] MCU/LED_0*%
X70425000Y-41625000D03*
%TO.P,U1,16,PA2*%
%TO.N,/[1] MCU/LED_1*%
X70425000Y-42125000D03*
D76*
%TO.P,U1,17,PA3*%
%TO.N,/[1] MCU/LED_2*%
X72350000Y-44050000D03*
%TO.P,U1,18,VSS*%
%TO.N,GND*%
X72850000Y-44050000D03*
%TO.P,U1,19,VDD*%
%TO.N,+3V3*%
X73350000Y-44050000D03*
%TO.P,U1,20,PA4*%
%TO.N,/[1] MCU/OLED_SPI_CS*%
X73850000Y-44050000D03*
%TO.P,U1,21,PA5*%
%TO.N,/[1] MCU/OLED_SPI_SCK*%
X74350000Y-44050000D03*
%TO.P,U1,22,PA6*%
%TO.N,/[1] MCU/OLED_DC*%
X74850000Y-44050000D03*
%TO.P,U1,23,PA7*%
%TO.N,/[1] MCU/OLED_SPI_DATA*%
X75350000Y-44050000D03*
%TO.P,U1,24,PC4*%
%TO.N,/[1] MCU/OLED_RST*%
X75850000Y-44050000D03*
%TO.P,U1,25,PC5*%
%TO.N,unconnected-(U1-PC5-Pad25)*%
X76350000Y-44050000D03*
%TO.P,U1,26,PB0*%
%TO.N,POT_MUX_SEL_0*%
X76850000Y-44050000D03*
%TO.P,U1,27,PB1*%
%TO.N,POT_MUX_SEL_1*%
X77350000Y-44050000D03*
%TO.P,U1,28,PB2*%
%TO.N,POT_MUX_SEL_2*%
X77850000Y-44050000D03*
%TO.P,U1,29,PB10*%
%TO.N,CODEC_I2C_SCL*%
X78350000Y-44050000D03*
%TO.P,U1,30,PB11*%
%TO.N,CODEC_I2C_SDA*%
X78850000Y-44050000D03*
%TO.P,U1,31,VCAP_1*%
%TO.N,Net-(U1-VCAP_1)*%
X79350000Y-44050000D03*
%TO.P,U1,32,VDD*%
%TO.N,+3V3*%
X79850000Y-44050000D03*
D75*
%TO.P,U1,33,PB12*%
%TO.N,CODEC_I2S_WS*%
X81775000Y-42125000D03*
%TO.P,U1,34,PB13*%
%TO.N,CODEC_I2S_CK*%
X81775000Y-41625000D03*
%TO.P,U1,35,PB14*%
%TO.N,CODEC_I2S_SDI*%
X81775000Y-41125000D03*
%TO.P,U1,36,PB15*%
%TO.N,CODEC_I2S_SD*%
X81775000Y-40625000D03*
%TO.P,U1,37,PC6*%
%TO.N,CODEC_I2S_MCK*%
X81775000Y-40125000D03*
%TO.P,U1,38,PC7*%
%TO.N,unconnected-(U1-PC7-Pad38)*%
X81775000Y-39625000D03*
%TO.P,U1,39,PC8*%
%TO.N,/[1] MCU/SDCARD_SDIO_D0*%
X81775000Y-39125000D03*
%TO.P,U1,40,PC9*%
%TO.N,/[1] MCU/SDCARD_SDIO_D1*%
X81775000Y-38625000D03*
%TO.P,U1,41,PA8*%
%TO.N,unconnected-(U1-PA8-Pad41)*%
X81775000Y-38125000D03*
%TO.P,U1,42,PA9*%
%TO.N,unconnected-(U1-PA9-Pad42)*%
X81775000Y-37625000D03*
%TO.P,U1,43,PA10*%
%TO.N,unconnected-(U1-PA10-Pad43)*%
X81775000Y-37125000D03*
%TO.P,U1,44,PA11*%
%TO.N,MCU_USB_D-*%
X81775000Y-36625000D03*
%TO.P,U1,45,PA12*%
%TO.N,MCU_USB_D+*%
X81775000Y-36125000D03*
%TO.P,U1,46,PA13*%
%TO.N,/[1] MCU/SWD_IO*%
X81775000Y-35625000D03*
%TO.P,U1,47,VCAP_2*%
%TO.N,Net-(U1-VCAP_2)*%
X81775000Y-35125000D03*
%TO.P,U1,48,VDD*%
%TO.N,+3V3*%
X81775000Y-34625000D03*
D76*
%TO.P,U1,49,PA14*%
%TO.N,/[1] MCU/SWD_CLK*%
X79850000Y-32700000D03*
%TO.P,U1,50,PA15*%
%TO.N,/[1] MCU/SDCARD_DETECT*%
X79350000Y-32700000D03*
%TO.P,U1,51,PC10*%
%TO.N,/[1] MCU/SDCARD_SDIO_D2*%
X78850000Y-32700000D03*
%TO.P,U1,52,PC11*%
%TO.N,/[1] MCU/SDCARD_SDIO_D3*%
X78350000Y-32700000D03*
%TO.P,U1,53,PC12*%
%TO.N,/[1] MCU/SDCARD_SDIO_CK*%
X77850000Y-32700000D03*
%TO.P,U1,54,PD2*%
%TO.N,/[1] MCU/SDCARD_SDIO_CMD*%
X77350000Y-32700000D03*
%TO.P,U1,55,PB3*%
%TO.N,/[1] MCU/SWD_O*%
X76850000Y-32700000D03*
%TO.P,U1,56,PB4*%
%TO.N,SW_2*%
X76350000Y-32700000D03*
%TO.P,U1,57,PB5*%
%TO.N,SW_3*%
X75850000Y-32700000D03*
%TO.P,U1,58,PB6*%
%TO.N,unconnected-(U1-PB6-Pad58)*%
X75350000Y-32700000D03*
%TO.P,U1,59,PB7*%
%TO.N,unconnected-(U1-PB7-Pad59)*%
X74850000Y-32700000D03*
%TO.P,U1,60,BOOT0*%
%TO.N,/[1] MCU/MCU_BOOT0*%
X74350000Y-32700000D03*
%TO.P,U1,61,PB8*%
%TO.N,unconnected-(U1-PB8-Pad61)*%
X73850000Y-32700000D03*
%TO.P,U1,62,PB9*%
%TO.N,unconnected-(U1-PB9-Pad62)*%
X73350000Y-32700000D03*
%TO.P,U1,63,VSS*%
%TO.N,GND*%
X72850000Y-32700000D03*
%TO.P,U1,64,VDD*%
%TO.N,+3V3*%
X72350000Y-32700000D03*
%TD*%
D14*
%TO.P,C48,1*%
%TO.N,+3V3A*%
X100575000Y-48950000D03*
%TO.P,C48,2*%
%TO.N,GND*%
X99025000Y-48950000D03*
%TD*%
D77*
%TO.P,U7,1,4*%
%TO.N,/[3] Input Control/POT_4_CTL*%
X50110000Y-76750000D03*
%TO.P,U7,2,6*%
%TO.N,/[3] Input Control/POT_6_CTL*%
X51380000Y-76750000D03*
%TO.P,U7,3,COM_OUT/IN*%
%TO.N,Net-(U7-COM_OUT{slash}IN)*%
X52650000Y-76750000D03*
%TO.P,U7,4,7*%
%TO.N,/[3] Input Control/POT_7_CTL*%
X53920000Y-76750000D03*
%TO.P,U7,5,5*%
%TO.N,/[3] Input Control/POT_5_CTL*%
X55190000Y-76750000D03*
%TO.P,U7,6,INH*%
%TO.N,GND*%
X56460000Y-76750000D03*
%TO.P,U7,7,VSS*%
X57730000Y-76750000D03*
%TO.P,U7,8,VEE*%
X59000000Y-76750000D03*
%TO.P,U7,9,C*%
%TO.N,POT_MUX_SEL_2*%
X59000000Y-71800000D03*
%TO.P,U7,10,B*%
%TO.N,POT_MUX_SEL_1*%
X57730000Y-71800000D03*
%TO.P,U7,11,A*%
%TO.N,POT_MUX_SEL_0*%
X56460000Y-71800000D03*
%TO.P,U7,12,3*%
%TO.N,/[3] Input Control/POT_3_CTL*%
X55190000Y-71800000D03*
%TO.P,U7,13,0*%
%TO.N,/[3] Input Control/POT_1_CTL*%
X53920000Y-71800000D03*
%TO.P,U7,14,1*%
%TO.N,/[3] Input Control/POT_2_CTL*%
X52650000Y-71800000D03*
%TO.P,U7,15,2*%
%TO.N,/[3] Input Control/POT_0_CTL*%
X51380000Y-71800000D03*
%TO.P,U7,16,VDD*%
%TO.N,+3V3*%
X50110000Y-71800000D03*
%TD*%
D44*
%TO.P,C16,1*%
%TO.N,+3V3*%
X112400000Y-22375000D03*
%TO.P,C16,2*%
%TO.N,GND*%
X112400000Y-23925000D03*
%TD*%
D15*
%TO.P,C17,1*%
%TO.N,+3V3*%
X64850000Y-41000000D03*
%TO.P,C17,2*%
%TO.N,GND*%
X64850000Y-39450000D03*
%TD*%
D35*
%TO.P,D3,1,K*%
%TO.N,GND*%
X50560000Y-57280000D03*
%TO.P,D3,2,A*%
%TO.N,Net-(D3-A)*%
X50560000Y-55705000D03*
%TD*%
D78*
%TO.N,GND*%
X97500000Y-10000000D03*
X100000000Y-67500000D03*
X42500000Y-50000000D03*
X83550000Y-31490000D03*
X15000000Y-30000000D03*
X25000000Y-17500000D03*
X65000000Y-72500000D03*
X52500000Y-32500000D03*
X92500000Y-82500000D03*
X88270000Y-18440000D03*
X32200000Y-98050000D03*
X45000000Y-50000000D03*
X57500000Y-30000000D03*
X45000000Y-115000000D03*
X56710000Y-58660000D03*
X76950000Y-24580000D03*
X87500000Y-75000000D03*
X75000000Y-80000000D03*
X92500000Y-67500000D03*
X109075000Y-25201020D03*
X17500000Y-25000000D03*
X97500000Y-32500000D03*
X22500000Y-15000000D03*
X90000000Y-40000000D03*
X30000000Y-12500000D03*
X102500000Y-10000000D03*
X70000000Y-67500000D03*
X77500000Y-5000000D03*
X86600000Y-2100000D03*
X10000000Y-65000000D03*
X70000000Y-65000000D03*
X22500000Y-72500000D03*
X37500000Y-45000000D03*
X105000000Y-45000000D03*
X47500000Y-115000000D03*
X97500000Y-35000000D03*
X102500000Y-57000000D03*
X105000000Y-35000000D03*
X47500000Y-90000000D03*
X37500000Y-32500000D03*
X45000000Y-15000000D03*
X74040000Y-34710000D03*
X53540000Y-58660000D03*
X75000000Y-10000000D03*
X109975000Y-25201020D03*
X10000000Y-60000000D03*
X57445210Y-22462815D03*
X57500000Y-20000000D03*
X10000000Y-45000000D03*
X85000000Y-75000000D03*
X57160000Y-50890000D03*
X25000000Y-85000000D03*
X25000000Y-50000000D03*
X75000000Y-57500000D03*
X112500000Y-17500000D03*
X50000000Y-32500000D03*
X105000000Y-7500000D03*
X72500000Y-72500000D03*
X97500000Y-22500000D03*
X100000000Y-45000000D03*
X77500000Y-7500000D03*
X95000000Y-102500000D03*
X98510000Y-60390000D03*
X92500000Y-102500000D03*
X30000000Y-40000000D03*
X85000000Y-31400000D03*
X32500000Y-12500000D03*
X112410000Y-25160000D03*
X27500000Y-95000000D03*
X82700000Y-43500000D03*
X50000000Y-97500000D03*
X72500000Y-60000000D03*
X55305000Y-9590000D03*
X72050000Y-17400000D03*
X55000000Y-25000000D03*
X72510000Y-114600000D03*
X105875000Y-23101020D03*
X62500000Y-22500000D03*
X10000000Y-85000000D03*
X15000000Y-27500000D03*
X89800000Y-29400000D03*
X70000000Y-62500000D03*
X97500000Y-5000000D03*
X15000000Y-80000000D03*
X40000000Y-25000000D03*
X90000000Y-100000000D03*
X83700000Y-78400000D03*
X42500000Y-37500000D03*
X10000000Y-75000000D03*
X92150000Y-21350000D03*
X85000000Y-70000000D03*
X92800000Y-114150000D03*
X102500000Y-45000000D03*
X65000000Y-75000000D03*
X86030000Y-28230000D03*
X50570000Y-58630000D03*
X94280000Y-49910000D03*
X100000000Y-40000000D03*
X111220000Y-20980000D03*
X81570000Y-20950000D03*
X90000000Y-70000000D03*
X77500000Y-10000000D03*
X32500000Y-27500000D03*
X40000000Y-27500000D03*
X84200000Y-92460000D03*
X67500000Y-72500000D03*
X92500000Y-42500000D03*
X115000000Y-31750000D03*
X85680000Y-18520000D03*
X76290000Y-35880000D03*
X57725000Y-75100000D03*
X22500000Y-12500000D03*
X47500000Y-32500000D03*
X32500000Y-15000000D03*
X67600000Y-28000000D03*
X90000000Y-67500000D03*
X90000000Y-75000000D03*
X100000000Y-32500000D03*
X32500000Y-7500000D03*
X60000000Y-15000000D03*
X30000000Y-45000000D03*
X47500000Y-52500000D03*
X87425000Y-92675000D03*
X116150000Y-25700000D03*
X62790000Y-51890000D03*
X79875000Y-4750000D03*
X102500000Y-55000000D03*
X75000000Y-62500000D03*
X75000000Y-77500000D03*
X97500000Y-93875000D03*
X44450000Y-59450000D03*
X45000000Y-30000000D03*
X112750000Y-34500000D03*
X55000000Y-37500000D03*
X75210000Y-40620000D03*
X75000000Y-67500000D03*
X73200000Y-40450000D03*
X115000000Y-50000000D03*
X117550000Y-87675000D03*
X44550000Y-56600000D03*
X97850000Y-47600000D03*
X25000000Y-45000000D03*
X100000000Y-70000000D03*
X100000000Y-72500000D03*
X102500000Y-53000000D03*
X20000000Y-40000000D03*
X98900000Y-46850000D03*
X77590000Y-50400000D03*
X85000000Y-72500000D03*
X99000000Y-47800000D03*
X105000000Y-82500000D03*
X102500000Y-7500000D03*
X100000000Y-57000000D03*
X100910000Y-60840000D03*
X70000000Y-77500000D03*
X85060000Y-58880000D03*
X81800000Y-24600000D03*
X32500000Y-25000000D03*
X91550000Y-2225000D03*
X25000000Y-60000000D03*
X75000000Y-5000000D03*
X117500000Y-30000000D03*
X25000000Y-40000000D03*
X25000000Y-22500000D03*
X92500000Y-75000000D03*
X84140000Y-53000000D03*
X79660000Y-65300000D03*
X75000000Y-65000000D03*
X20000000Y-27500000D03*
X17500000Y-27500000D03*
X20000000Y-30000000D03*
X79600000Y-36075000D03*
X42500000Y-27500000D03*
X105000000Y-42500000D03*
X97500000Y-20000000D03*
X84440000Y-49920000D03*
X57500000Y-12500000D03*
X107500000Y-32500000D03*
X52500000Y-67500000D03*
X45000000Y-27500000D03*
X112500000Y-45000000D03*
X75000000Y-7500000D03*
X22500000Y-27500000D03*
X72800000Y-34300000D03*
X27500000Y-97500000D03*
X12300000Y-98500000D03*
X22500000Y-17500000D03*
X97500000Y-45000000D03*
X112500000Y-30000000D03*
X72500000Y-7500000D03*
X100000000Y-7500000D03*
X10000000Y-70000000D03*
X35000000Y-7500000D03*
X25000000Y-97500000D03*
X97500000Y-67500000D03*
X115000000Y-27500000D03*
X47500000Y-72500000D03*
X42500000Y-10000000D03*
X46650000Y-64990000D03*
X27500000Y-72500000D03*
X17500000Y-15000000D03*
X72500000Y-75000000D03*
X47500000Y-87500000D03*
X102500000Y-42500000D03*
X99410000Y-60390000D03*
X100000000Y-55000000D03*
X115000000Y-17500000D03*
X89000000Y-65600000D03*
X70000000Y-60000000D03*
X97500000Y-12500000D03*
X96150000Y-4800000D03*
X65000000Y-110000000D03*
X100000000Y-5000000D03*
X40000000Y-47500000D03*
X47500000Y-95000000D03*
X30000000Y-15000000D03*
X72500000Y-65000000D03*
X75250000Y-27960000D03*
X35000000Y-10000000D03*
X30000000Y-85000000D03*
X70000000Y-75000000D03*
X79990000Y-39940000D03*
X85880000Y-58860000D03*
X91450000Y-58280000D03*
X45000000Y-25000000D03*
X25000000Y-15000000D03*
X22100000Y-4000000D03*
X97500000Y-55000000D03*
X112050000Y-37500000D03*
X21750000Y-63200000D03*
X97500000Y-30000000D03*
X54440000Y-50930000D03*
X85880000Y-58170000D03*
X52400000Y-114600000D03*
X40000000Y-17500000D03*
X67500000Y-80000000D03*
X20000000Y-45000000D03*
X35000000Y-15000000D03*
X75000000Y-70000000D03*
X47500000Y-110000000D03*
X100000000Y-65000000D03*
X97500000Y-57000000D03*
X112500000Y-27500000D03*
X100000000Y-42500000D03*
X105000000Y-67500000D03*
X46460000Y-78390000D03*
X82350000Y-66920000D03*
X61700000Y-25300000D03*
X5000000Y-100000000D03*
X90000000Y-82500000D03*
X112500000Y-50000000D03*
X25000000Y-35000000D03*
X45000000Y-12500000D03*
X70000000Y-80000000D03*
X90000000Y-62500000D03*
X63550000Y-39575000D03*
X76000000Y-25300000D03*
X45000000Y-22500000D03*
X67500000Y-67500000D03*
X117500000Y-50000000D03*
X106460000Y-48980000D03*
X72500000Y-77500000D03*
X35000000Y-12500000D03*
X92500000Y-32500000D03*
X25000000Y-95000000D03*
X81160000Y-29450000D03*
X65000000Y-80000000D03*
X72500000Y-70000000D03*
X97500000Y-17500000D03*
X15000000Y-45000000D03*
X55000000Y-65000000D03*
X102500000Y-82500000D03*
X112500000Y-20000000D03*
X84800000Y-65800000D03*
X81990000Y-54510000D03*
X77500000Y-12500000D03*
X5000000Y-90000000D03*
X5000000Y-105000000D03*
X24450000Y-8500000D03*
X97500000Y-7500000D03*
X97500000Y-65000000D03*
X84290000Y-58910000D03*
X97500000Y-15000000D03*
X110000000Y-30000000D03*
X56450000Y-75100000D03*
X83140000Y-13670000D03*
X55000000Y-15000000D03*
X22500000Y-30000000D03*
X97500000Y-25000000D03*
X113000000Y-42000000D03*
X95000000Y-105000000D03*
X67500000Y-62500000D03*
X67500000Y-77500000D03*
X47500000Y-17500000D03*
X110000000Y-28000000D03*
X56850000Y-111150000D03*
X72500000Y-80000000D03*
X83000000Y-32200000D03*
X105000000Y-55000000D03*
X115000000Y-95000000D03*
X92740000Y-18390000D03*
X88200000Y-40800000D03*
X95000000Y-100000000D03*
X110000000Y-105000000D03*
X86950000Y-92200000D03*
X57590000Y-46480000D03*
X97800000Y-48900000D03*
X73325000Y-17400000D03*
X88275000Y-61350000D03*
X45000000Y-17500000D03*
X100000000Y-35000000D03*
X70650000Y-29350000D03*
X92500000Y-65000000D03*
X100000000Y-105000000D03*
X55250000Y-45720000D03*
X75000000Y-75000000D03*
X27500000Y-77500000D03*
X102500000Y-35000000D03*
X108750000Y-48570000D03*
X89690000Y-15540000D03*
X102500000Y-65000000D03*
X55000000Y-32500000D03*
X90900000Y-9080000D03*
X69525000Y-17425000D03*
X84270000Y-58195000D03*
X65000000Y-77500000D03*
X90000000Y-102500000D03*
X105000000Y-112500000D03*
X47500000Y-105000000D03*
X72500000Y-62500000D03*
X92500000Y-70000000D03*
X100000000Y-17500000D03*
X17500000Y-17500000D03*
X5000000Y-95000000D03*
X100000000Y-12500000D03*
X75000000Y-55000000D03*
X117500000Y-15000000D03*
X83300000Y-18500000D03*
X90350000Y-37950000D03*
X45000000Y-110000000D03*
X100000000Y-82500000D03*
X65000000Y-115000000D03*
X75000000Y-60000000D03*
X55500000Y-42900000D03*
X20000000Y-35000000D03*
X42500000Y-12500000D03*
X115000000Y-47500000D03*
X90000000Y-72500000D03*
X83800000Y-63400000D03*
X102500000Y-12500000D03*
X35000000Y-45000000D03*
X59000000Y-75100000D03*
X42500000Y-25000000D03*
X67500000Y-75000000D03*
X105000000Y-10000000D03*
X113000000Y-41250000D03*
X25000000Y-30000000D03*
X17500000Y-12500000D03*
X47500000Y-27500000D03*
X77500000Y-52500000D03*
X75000000Y-72500000D03*
X115000000Y-15000000D03*
X90000000Y-42500000D03*
X115000000Y-100000000D03*
X78510000Y-65310000D03*
X84800000Y-63400000D03*
X105000000Y-57000000D03*
X117500000Y-12500000D03*
X17500000Y-20000000D03*
X84250000Y-57480000D03*
X89000000Y-64600000D03*
X85000000Y-100000000D03*
X105000000Y-70000000D03*
X55000000Y-35000000D03*
X117500000Y-62575000D03*
X72500000Y-57500000D03*
X17500000Y-30000000D03*
X115000000Y-30000000D03*
X10000000Y-80000000D03*
X87500000Y-72500000D03*
X104475000Y-23101020D03*
X97500000Y-53000000D03*
X110000000Y-32500000D03*
X100000000Y-20000000D03*
X112500000Y-15000000D03*
X90700000Y-54000000D03*
X88680000Y-49590000D03*
X110000000Y-100000000D03*
X100910000Y-60040000D03*
X83130000Y-8880000D03*
X47500000Y-97500000D03*
X89050000Y-17000000D03*
X112500000Y-12500000D03*
X113000000Y-33750000D03*
X48200000Y-69300000D03*
X85050000Y-58180000D03*
X105000000Y-53000000D03*
X85880000Y-57480000D03*
X73290000Y-38600000D03*
X52350000Y-98300000D03*
X100000000Y-10000000D03*
X50090000Y-65240000D03*
X52290000Y-44690000D03*
X25000000Y-25000000D03*
X100000000Y-15000000D03*
X107500000Y-30000000D03*
X57500000Y-15000000D03*
X97500000Y-42500000D03*
X45000000Y-52500000D03*
X102500000Y-40000000D03*
X55420000Y-68950000D03*
X92500000Y-85000000D03*
X72600000Y-42600000D03*
X50000000Y-30000000D03*
X87200000Y-52990000D03*
X22500000Y-85000000D03*
X47500000Y-55000000D03*
X100000000Y-53000000D03*
X72500000Y-67500000D03*
X67500000Y-70000000D03*
X72500000Y-10000000D03*
X15000000Y-25000000D03*
X97500000Y-40000000D03*
X108790000Y-49260000D03*
X60000000Y-12500000D03*
X110000000Y-112500000D03*
X29400000Y-63200000D03*
X115000000Y-105000000D03*
X115000000Y-110000000D03*
X117500000Y-47500000D03*
X102175000Y-25701020D03*
X85220000Y-84740000D03*
X55000000Y-20000000D03*
X77170000Y-54690000D03*
X5000000Y-85000000D03*
X102500000Y-67500000D03*
X50000000Y-12500000D03*
X92500000Y-72500000D03*
X105000000Y-12500000D03*
X68225000Y-38925000D03*
X85550000Y-38460000D03*
X35000000Y-30000000D03*
X47500000Y-92500000D03*
X62500000Y-20000000D03*
X85740000Y-20480000D03*
X112500000Y-47500000D03*
X64000000Y-35650000D03*
X117500000Y-27500000D03*
X56760000Y-67690000D03*
X75000000Y-12500000D03*
X71960000Y-36030000D03*
X95160000Y-21400000D03*
X25000000Y-110000000D03*
X10000000Y-105000000D03*
X59900000Y-69570000D03*
X85280000Y-9080000D03*
X25000000Y-105000000D03*
X72500000Y-5000000D03*
X105000000Y-105000000D03*
X59150000Y-39900000D03*
X70000000Y-72500000D03*
X92500000Y-35000000D03*
X97660000Y-91610000D03*
X32500000Y-85000000D03*
X47500000Y-57500000D03*
X72500000Y-12500000D03*
X55000000Y-30000000D03*
X115000000Y-12500000D03*
X89220000Y-34890000D03*
X45000000Y-105000000D03*
X87500000Y-70000000D03*
X51440000Y-50900000D03*
X92500000Y-62500000D03*
X67500000Y-65000000D03*
X105000000Y-40000000D03*
X15000000Y-20000000D03*
X32450000Y-114500000D03*
X88570000Y-9040000D03*
X115250000Y-44000000D03*
X78010000Y-58060000D03*
X92500000Y-100000000D03*
X32500000Y-10000000D03*
X92500000Y-40000000D03*
X117600000Y-75325000D03*
X68100000Y-32900000D03*
X90000000Y-85000000D03*
X22500000Y-77500000D03*
X27500000Y-85000000D03*
X80720000Y-18690000D03*
X30000000Y-50000000D03*
X100675000Y-25401020D03*
X43920000Y-62340000D03*
X25000000Y-115000000D03*
X61400000Y-33050000D03*
X49900000Y-43700000D03*
X89060000Y-20670000D03*
X55000000Y-12500000D03*
X83170000Y-46980000D03*
X92500000Y-57500000D03*
X42500000Y-22500000D03*
X85070000Y-57480000D03*
X27140000Y-8800000D03*
X117500000Y-17500000D03*
X12350000Y-114500000D03*
X30000000Y-105000000D03*
X15000000Y-15000000D03*
X70000000Y-70000000D03*
X102500000Y-70000000D03*
%TO.N,PUSH_BTN_0*%
X72160000Y-39350000D03*
X44475000Y-60350000D03*
%TO.N,PUSH_BTN_1*%
X72230000Y-37340000D03*
X44200000Y-57550000D03*
%TO.N,+3V3*%
X81690000Y-31940000D03*
X107525000Y-25600000D03*
X33340000Y-98010000D03*
X94000000Y-21400000D03*
X50070000Y-66390000D03*
X87870000Y-21390000D03*
X84850000Y-21470000D03*
X87670000Y-49600000D03*
X21725000Y-64100000D03*
X91850000Y-54125000D03*
X73360000Y-114600000D03*
X91810000Y-114210000D03*
X74590000Y-17520000D03*
X13340000Y-98450000D03*
X13350000Y-114500000D03*
X82720000Y-44330000D03*
X59725000Y-54800000D03*
X40175000Y-64300000D03*
X110650000Y-22175000D03*
X90950000Y-21340000D03*
X63450000Y-31160000D03*
X29575000Y-64100000D03*
X25970000Y-9240000D03*
X53350000Y-114650000D03*
X62980000Y-41170000D03*
X53390000Y-98270000D03*
X82610000Y-21430000D03*
X33350000Y-114510000D03*
X58220000Y-38590000D03*
%TO.N,+3V3A*%
X82450000Y-65590000D03*
X96526321Y-92103197D03*
X94300000Y-50950000D03*
%TO.N,POT_MUX_ADC*%
X72050000Y-41410000D03*
X64750000Y-50800000D03*
%TO.N,/[1] MCU/SWD_CLK*%
X80200000Y-30400000D03*
X74800000Y-27000000D03*
%TO.N,/[1] MCU/SWD_IO*%
X85200000Y-29200000D03*
X75600000Y-26200000D03*
%TO.N,/[1] MCU/OLED_RST*%
X75200000Y-34700000D03*
X61600000Y-26200000D03*
%TO.N,/[1] MCU/OLED_SPI_CS*%
X65750000Y-28510000D03*
X74500000Y-41700000D03*
%TO.N,/[1] MCU/OLED_DC*%
X49200000Y-44400000D03*
X50090000Y-48510000D03*
%TO.N,/[1] MCU/SDCARD_SDIO_D1*%
X84900000Y-37900000D03*
X88600000Y-34200000D03*
%TO.N,/[1] MCU/SDCARD_SDIO_D0*%
X91600000Y-8100000D03*
X89600000Y-38400000D03*
X91600000Y-18400000D03*
X90600000Y-29600000D03*
%TO.N,Net-(J1-CLK)*%
X89400000Y-8200000D03*
X88500000Y-15500000D03*
%TO.N,/[1] MCU/SDCARD_SDIO_CMD*%
X77600000Y-25400000D03*
X81900000Y-18700000D03*
X80800000Y-24600000D03*
X81900000Y-13700000D03*
%TO.N,/[1] MCU/SDCARD_SDIO_D3*%
X86100000Y-8200000D03*
X87100000Y-18500000D03*
%TO.N,/[2] Audio/AUDIO_L_OUT*%
X83025000Y-77950000D03*
X77850000Y-92800000D03*
%TO.N,/[2] Audio/AUDIO_R_OUT*%
X83000000Y-92500000D03*
X84300000Y-83725000D03*
%TO.N,/[1] MCU/MCU_BOOT0*%
X68325000Y-27300000D03*
X70600000Y-28350000D03*
%TO.N,/[1] MCU/SDCARD_SDIO_D2*%
X84200000Y-8200000D03*
X84400000Y-18500000D03*
%TO.N,/[1] MCU/LED_0*%
X52240000Y-51570000D03*
X53120000Y-44980000D03*
%TO.N,/[1] MCU/LED_1*%
X56150000Y-45800000D03*
X55130000Y-51620000D03*
%TO.N,/[1] MCU/LED_2*%
X58660000Y-46480000D03*
X57950000Y-51630000D03*
%TO.N,SW_2*%
X78275000Y-35950000D03*
X45575000Y-64650000D03*
%TO.N,POT_MUX_SEL_0*%
X56420000Y-69590000D03*
X76050000Y-45500000D03*
%TO.N,CODEC_I2S_SDI*%
X80240000Y-41120000D03*
X81930000Y-55720000D03*
%TO.N,POT_MUX_SEL_1*%
X57730000Y-68350000D03*
X76711524Y-46051598D03*
%TO.N,CODEC_I2C_SCL*%
X90100000Y-54775000D03*
X78350000Y-49775000D03*
%TO.N,POT_MUX_SEL_2*%
X77600000Y-46250000D03*
X58990000Y-69630000D03*
%TO.N,/[3] Input Control/POT_2_CTL*%
X52660000Y-73530000D03*
X46600000Y-79800000D03*
%TO.N,/[3] Input Control/POT_3_CTL*%
X55190000Y-73540000D03*
X55850000Y-111130000D03*
%TO.N,/[3] Input Control/POT_1_CTL*%
X55850000Y-93940000D03*
X53920000Y-73550000D03*
%TO.N,CODEC_I2S_CK*%
X85560000Y-46280000D03*
X84180000Y-53980000D03*
%TO.N,CODEC_I2C_SDA*%
X78100000Y-55600000D03*
X90125000Y-58175000D03*
%TO.N,SW_3*%
X44800000Y-63325000D03*
X77325000Y-36625000D03*
%TD*%
D79*
%TO.N,GND*%
X72861601Y-94470099D02*
X72861601Y-96970099D01*
D80*
X83000000Y-33240000D02*
X84190000Y-33240000D01*
X97480000Y-93855000D02*
X97500000Y-93875000D01*
D81*
X72850000Y-34250000D02*
X72800000Y-34300000D01*
D80*
X53540000Y-57320000D02*
X53540000Y-58660000D01*
X57730000Y-76750000D02*
X57730000Y-75130000D01*
D79*
X117600000Y-72900000D02*
X117600000Y-75325000D01*
D80*
X97480000Y-92925000D02*
X97480000Y-93855000D01*
D81*
X63730000Y-51900000D02*
X62800000Y-51900000D01*
D79*
X23760000Y-4000000D02*
X23760000Y-4960000D01*
D81*
X70425000Y-40125000D02*
X69375000Y-40125000D01*
D80*
X83300000Y-18500000D02*
X83300000Y-17100000D01*
D81*
X73050000Y-31450000D02*
X73050000Y-30700000D01*
D80*
X56770000Y-42900000D02*
X55500000Y-42900000D01*
X87195000Y-52995000D02*
X87200000Y-52990000D01*
D81*
X90425000Y-2275000D02*
X90425000Y-4175000D01*
D80*
X57730000Y-4970000D02*
X57800000Y-4900000D01*
X86300000Y-52995000D02*
X87195000Y-52995000D01*
X56460000Y-76750000D02*
X56460000Y-75140000D01*
X85925000Y-49925000D02*
X84445000Y-49925000D01*
D79*
X24450000Y-7250000D02*
X24450000Y-8500000D01*
D80*
X57730000Y-75130000D02*
X57700000Y-75100000D01*
X84190000Y-33240000D02*
X84720000Y-32710000D01*
X72060000Y-19560000D02*
X72060000Y-17410000D01*
D79*
X64000000Y-35650000D02*
X64000000Y-36300000D01*
X24700000Y-5900000D02*
X24700000Y-7000000D01*
D80*
X96150000Y-4800000D02*
X94850000Y-4800000D01*
X81090000Y-58050000D02*
X81100000Y-58060000D01*
D82*
X83100000Y-58975000D02*
X84150000Y-58975000D01*
D80*
X110787500Y-37500000D02*
X112050000Y-37500000D01*
X87230000Y-61350000D02*
X88275000Y-61350000D01*
D82*
X85050000Y-60025000D02*
X85050000Y-58075000D01*
D80*
X69520000Y-19560000D02*
X69520000Y-17430000D01*
X56710000Y-57217500D02*
X56710000Y-58660000D01*
D81*
X72850000Y-32700000D02*
X72850000Y-31650000D01*
D80*
X84145000Y-52995000D02*
X84140000Y-53000000D01*
D79*
X64935000Y-34750000D02*
X64900000Y-34750000D01*
D80*
X81950000Y-45650000D02*
X81950000Y-47050000D01*
D79*
X23760000Y-4960000D02*
X24700000Y-5900000D01*
D81*
X90425000Y-4175000D02*
X90500000Y-4250000D01*
D80*
X116155000Y-24575000D02*
X116155000Y-25695000D01*
X89050000Y-17000000D02*
X91250000Y-17000000D01*
X72060000Y-17410000D02*
X72050000Y-17400000D01*
X115980000Y-31750000D02*
X115000000Y-31750000D01*
D81*
X72500000Y-45500000D02*
X72540000Y-45540000D01*
D80*
X69520000Y-17430000D02*
X69525000Y-17425000D01*
D82*
X85050000Y-56125000D02*
X85050000Y-58075000D01*
D80*
X73330000Y-19560000D02*
X73330000Y-17480000D01*
X112400000Y-25150000D02*
X112410000Y-25160000D01*
X83300000Y-17100000D02*
X83350000Y-17050000D01*
D82*
X85500000Y-57625000D02*
X85050000Y-58075000D01*
D80*
X79400000Y-58050000D02*
X81090000Y-58050000D01*
X85175000Y-52995000D02*
X84145000Y-52995000D01*
D81*
X72850000Y-45150000D02*
X72500000Y-45500000D01*
X72850000Y-31650000D02*
X73050000Y-31450000D01*
X109491020Y-23925000D02*
X109365000Y-24051020D01*
D80*
X50560000Y-57280000D02*
X50560000Y-58620000D01*
D79*
X63950000Y-36350000D02*
X64850000Y-36350000D01*
D82*
X84150000Y-58975000D02*
X85050000Y-58075000D01*
D79*
X117500000Y-60300000D02*
X117500000Y-62575000D01*
D80*
X84445000Y-49925000D02*
X84440000Y-49920000D01*
X81600000Y-45300000D02*
X81950000Y-45650000D01*
X112400000Y-25120000D02*
X112360000Y-25160000D01*
D79*
X24700000Y-7000000D02*
X24450000Y-7250000D01*
D80*
X56310000Y-9590000D02*
X55305000Y-9590000D01*
X112400000Y-23925000D02*
X112400000Y-25150000D01*
D81*
X72540000Y-45540000D02*
X72540000Y-46000000D01*
X72850000Y-44050000D02*
X72850000Y-45150000D01*
X72850000Y-32700000D02*
X72850000Y-34250000D01*
D80*
X116155000Y-25695000D02*
X116150000Y-25700000D01*
X115980000Y-44000000D02*
X115250000Y-44000000D01*
X81020000Y-45300000D02*
X81600000Y-45300000D01*
X79400000Y-58050000D02*
X78020000Y-58050000D01*
D79*
X64000000Y-36300000D02*
X63950000Y-36350000D01*
D81*
X72850000Y-42850000D02*
X72850000Y-44050000D01*
D80*
X79875000Y-4750000D02*
X81450000Y-4750000D01*
D79*
X117550000Y-85500000D02*
X117550000Y-87675000D01*
X63330000Y-36350000D02*
X63950000Y-36350000D01*
D80*
X73330000Y-17480000D02*
X73325000Y-17475000D01*
D79*
X64900000Y-34750000D02*
X64000000Y-35650000D01*
X62735000Y-33050000D02*
X61400000Y-33050000D01*
D80*
X78020000Y-58050000D02*
X78010000Y-58060000D01*
D82*
X87000000Y-57625000D02*
X85500000Y-57625000D01*
D80*
X59000000Y-76750000D02*
X59000000Y-75100000D01*
D79*
X60170000Y-39900000D02*
X59150000Y-39900000D01*
D81*
X112400000Y-23925000D02*
X109491020Y-23925000D01*
D79*
X22100000Y-4000000D02*
X23760000Y-4000000D01*
D81*
X72600000Y-42600000D02*
X72850000Y-42850000D01*
D80*
X50560000Y-58620000D02*
X50570000Y-58630000D01*
D81*
X62800000Y-51900000D02*
X62790000Y-51890000D01*
D80*
X94850000Y-4800000D02*
X94800000Y-4750000D01*
D81*
X69070000Y-39820000D02*
X68400000Y-39820000D01*
D80*
X91250000Y-17000000D02*
X91300000Y-16950000D01*
D81*
X69375000Y-40125000D02*
X69070000Y-39820000D01*
%TO.N,PUSH_BTN_0*%
X70425000Y-38625000D02*
X71435000Y-38625000D01*
X39950000Y-60350000D02*
X37500000Y-57900000D01*
X44475000Y-60350000D02*
X39950000Y-60350000D01*
X71435000Y-38625000D02*
X72160000Y-39350000D01*
D80*
X19650000Y-51049999D02*
X13149998Y-51049999D01*
D81*
X22799999Y-51049999D02*
X19650000Y-51049999D01*
X37500000Y-57900000D02*
X29650000Y-57900000D01*
X29650000Y-57900000D02*
X22799999Y-51049999D01*
%TO.N,PUSH_BTN_1*%
X41600000Y-54950000D02*
X41600000Y-51975000D01*
X71445000Y-38125000D02*
X72230000Y-37340000D01*
X40674999Y-51049999D02*
X39500000Y-51049999D01*
X41600000Y-51975000D02*
X40674999Y-51049999D01*
X70425000Y-38125000D02*
X71445000Y-38125000D01*
X44200000Y-57550000D02*
X41600000Y-54950000D01*
D80*
X39500000Y-51049999D02*
X31502499Y-51049999D01*
D81*
%TO.N,/[1] MCU/MCU_HSE_IN*%
X65810000Y-36350000D02*
X65810000Y-35890000D01*
X70425000Y-36625000D02*
X69175000Y-36625000D01*
X69175000Y-36625000D02*
X68900000Y-36350000D01*
X66150000Y-35550000D02*
X66150000Y-33950000D01*
X65810000Y-35890000D02*
X66150000Y-35550000D01*
X68900000Y-36350000D02*
X65810000Y-36350000D01*
X66150000Y-33950000D02*
X65250000Y-33050000D01*
X65250000Y-33050000D02*
X64935000Y-33050000D01*
%TO.N,Net-(X1-OSC2)*%
X62370000Y-35930000D02*
X62650000Y-35650000D01*
X62370000Y-36350000D02*
X62370000Y-35930000D01*
X62650000Y-34835000D02*
X62735000Y-34750000D01*
X62330000Y-37450000D02*
X62330000Y-36390000D01*
X62650000Y-35650000D02*
X62650000Y-34835000D01*
X62330000Y-36390000D02*
X62370000Y-36350000D01*
%TO.N,/[1] MCU/MCU_NRST*%
X61160000Y-39870000D02*
X61130000Y-39900000D01*
X60300000Y-36900000D02*
X61160000Y-37760000D01*
X61160000Y-38600000D02*
X61160000Y-39870000D01*
X57800000Y-36900000D02*
X60300000Y-36900000D01*
X57300000Y-33000000D02*
X57300000Y-36400000D01*
X69520000Y-27380000D02*
X66800000Y-30100000D01*
X57300000Y-36400000D02*
X57800000Y-36900000D01*
X70425000Y-37625000D02*
X69025000Y-37625000D01*
X68525000Y-38125000D02*
X64125000Y-38125000D01*
X61160000Y-37760000D02*
X61160000Y-38600000D01*
X60200000Y-30100000D02*
X57300000Y-33000000D01*
X66800000Y-30100000D02*
X60200000Y-30100000D01*
X64125000Y-38125000D02*
X63650000Y-38600000D01*
X63650000Y-38600000D02*
X61160000Y-38600000D01*
X69025000Y-37625000D02*
X68525000Y-38125000D01*
X61130000Y-39900000D02*
X61130000Y-42900000D01*
X69520000Y-23600000D02*
X69520000Y-27380000D01*
D80*
%TO.N,+3V3*%
X91125000Y-55900000D02*
X91125000Y-57165000D01*
D81*
X73350000Y-41310000D02*
X74650000Y-40010000D01*
D80*
X94000000Y-20620000D02*
X94000000Y-21400000D01*
X33350000Y-116300000D02*
X33350000Y-114510000D01*
X85175000Y-54475000D02*
X85175000Y-53955000D01*
X33350000Y-98000000D02*
X33340000Y-98010000D01*
D81*
X68615000Y-34625000D02*
X68600000Y-34610000D01*
D80*
X82040000Y-33240000D02*
X82040000Y-32290000D01*
D81*
X80140000Y-44340000D02*
X79850000Y-44050000D01*
D80*
X91810000Y-114210000D02*
X91810000Y-116020000D01*
X51010000Y-66390000D02*
X50070000Y-66390000D01*
X73350000Y-114610000D02*
X73360000Y-114600000D01*
X106675000Y-25601020D02*
X107523980Y-25601020D01*
X110650000Y-22175000D02*
X112200000Y-22175000D01*
X74600000Y-17530000D02*
X74590000Y-17520000D01*
X13340000Y-98450000D02*
X13340000Y-96310000D01*
X58220000Y-38590000D02*
X60130000Y-38590000D01*
X112200000Y-22175000D02*
X112400000Y-22375000D01*
D81*
X72350000Y-31650000D02*
X72090000Y-31390000D01*
D80*
X87670000Y-49600000D02*
X87670000Y-51370000D01*
D81*
X86300000Y-54925000D02*
X86300000Y-54650000D01*
X109388980Y-22175000D02*
X109365000Y-22151020D01*
X74650000Y-37750000D02*
X71385000Y-34485000D01*
D80*
X62980000Y-41170000D02*
X64680000Y-41170000D01*
X91850000Y-54125000D02*
X91850000Y-55175000D01*
X13350000Y-114500000D02*
X13350000Y-116300000D01*
X86300000Y-53955000D02*
X87985000Y-53955000D01*
D81*
X71245000Y-34625000D02*
X71385000Y-34485000D01*
D80*
X26300000Y-5000000D02*
X26300000Y-4000000D01*
X50110000Y-71800000D02*
X50110000Y-69970000D01*
D81*
X71385000Y-34485000D02*
X72350000Y-33520000D01*
X73350000Y-45100000D02*
X73500000Y-45250000D01*
D80*
X53390000Y-96340000D02*
X53350000Y-96300000D01*
D81*
X72090000Y-31390000D02*
X72090000Y-30700000D01*
D79*
X109290000Y-17401020D02*
X109290000Y-13290000D01*
D80*
X88550000Y-53390000D02*
X88550000Y-52460000D01*
X60130000Y-38590000D02*
X60140000Y-38600000D01*
D81*
X74650000Y-40010000D02*
X74650000Y-37750000D01*
D80*
X82040000Y-33240000D02*
X82040000Y-33890000D01*
X25660000Y-6360000D02*
X26000000Y-6700000D01*
X25970000Y-9240000D02*
X25970000Y-7280000D01*
X88550000Y-52460000D02*
X87565000Y-51475000D01*
X50070000Y-68205000D02*
X49975000Y-68300000D01*
D81*
X73350000Y-44050000D02*
X73350000Y-45100000D01*
X110650000Y-22175000D02*
X109388980Y-22175000D01*
D80*
X82040000Y-32290000D02*
X81690000Y-31940000D01*
D81*
X85375000Y-54750000D02*
X85175000Y-54550000D01*
D80*
X59725000Y-54800000D02*
X59725000Y-57675000D01*
X67640000Y-31160000D02*
X63450000Y-31160000D01*
X87900000Y-21360000D02*
X87870000Y-21390000D01*
D82*
X85950000Y-56125000D02*
X85950000Y-55275000D01*
D81*
X70425000Y-34625000D02*
X71245000Y-34625000D01*
D80*
X40175000Y-64300000D02*
X39975000Y-64100000D01*
D82*
X85950000Y-55275000D02*
X86300000Y-54925000D01*
D80*
X33350000Y-96300000D02*
X33350000Y-98000000D01*
X35500000Y-64100000D02*
X29575000Y-64100000D01*
X87985000Y-53955000D02*
X88550000Y-53390000D01*
X25660000Y-5900000D02*
X25660000Y-6360000D01*
X13340000Y-96310000D02*
X13350000Y-96300000D01*
D81*
X70425000Y-34625000D02*
X68615000Y-34625000D01*
D80*
X25660000Y-5900000D02*
X25660000Y-5640000D01*
X107523980Y-25601020D02*
X107525000Y-25600000D01*
X112400000Y-22375000D02*
X115117500Y-22375000D01*
X82600000Y-21420000D02*
X82610000Y-21430000D01*
X53390000Y-98270000D02*
X53390000Y-96340000D01*
X25970000Y-7280000D02*
X26000000Y-7250000D01*
X21725000Y-64100000D02*
X15875000Y-64100000D01*
D82*
X85500000Y-56125000D02*
X85500000Y-54875000D01*
D80*
X87900000Y-20620000D02*
X87900000Y-21360000D01*
X90950000Y-20620000D02*
X90950000Y-21340000D01*
X82720000Y-44330000D02*
X81030000Y-44330000D01*
D79*
X107525000Y-11525000D02*
X107525000Y-10400000D01*
D80*
X25660000Y-5640000D02*
X26300000Y-5000000D01*
X50110000Y-69970000D02*
X49940000Y-69800000D01*
D81*
X73500000Y-45250000D02*
X73500000Y-46000000D01*
D79*
X115117500Y-22375000D02*
X115242500Y-22500000D01*
D80*
X91850000Y-55175000D02*
X91125000Y-55900000D01*
X39975000Y-64100000D02*
X35000000Y-64100000D01*
X86300000Y-54650000D02*
X86300000Y-53955000D01*
D81*
X73350000Y-44050000D02*
X73350000Y-41310000D01*
D80*
X85175000Y-53955000D02*
X86300000Y-53955000D01*
D82*
X85500000Y-54875000D02*
X85375000Y-54750000D01*
D81*
X81020000Y-44340000D02*
X80140000Y-44340000D01*
X82040000Y-34360000D02*
X81775000Y-34625000D01*
D80*
X74600000Y-19560000D02*
X74600000Y-17530000D01*
X91810000Y-116020000D02*
X91820000Y-116030000D01*
X73350000Y-116300000D02*
X73350000Y-114610000D01*
X82600000Y-20620000D02*
X82600000Y-21420000D01*
X64745000Y-41020000D02*
X64850000Y-41125000D01*
X87565000Y-51475000D02*
X85925000Y-51475000D01*
X50070000Y-66390000D02*
X50070000Y-68205000D01*
X26000000Y-6700000D02*
X26000000Y-7250000D01*
X91125000Y-57165000D02*
X91135000Y-57175000D01*
X84850000Y-20620000D02*
X84850000Y-21470000D01*
X59725000Y-57675000D02*
X51010000Y-66390000D01*
D81*
X85175000Y-54550000D02*
X85175000Y-54475000D01*
X82040000Y-33890000D02*
X82040000Y-34360000D01*
D80*
X64680000Y-41170000D02*
X64850000Y-41000000D01*
X67640000Y-31160000D02*
X68100000Y-30700000D01*
D79*
X109290000Y-13290000D02*
X107525000Y-11525000D01*
D80*
X53350000Y-116300000D02*
X53350000Y-114650000D01*
X72090000Y-30700000D02*
X68100000Y-30700000D01*
D81*
X72350000Y-32700000D02*
X72350000Y-31650000D01*
D80*
X87670000Y-51370000D02*
X87565000Y-51475000D01*
D81*
X72350000Y-33520000D02*
X72350000Y-32700000D01*
D80*
X81030000Y-44330000D02*
X81020000Y-44340000D01*
%TO.N,/[1] MCU/+3V3_SD*%
X107525000Y-7450000D02*
X101000000Y-925000D01*
X88300000Y-3100000D02*
X88555000Y-2845000D01*
X107525000Y-8275000D02*
X107525000Y-7450000D01*
X88300000Y-4250000D02*
X88300000Y-3100000D01*
X101000000Y-925000D02*
X88275000Y-925000D01*
X88555000Y-2845000D02*
X88555000Y-2300000D01*
D81*
%TO.N,/[1] MCU/VDDA*%
X69220000Y-40780000D02*
X68400000Y-40780000D01*
X70425000Y-40625000D02*
X69375000Y-40625000D01*
X69375000Y-40625000D02*
X69220000Y-40780000D01*
D80*
%TO.N,+3V3A*%
X82965000Y-61510000D02*
X82460000Y-62015000D01*
D81*
X94060000Y-92500000D02*
X95225000Y-92500000D01*
D80*
X96520000Y-92925000D02*
X96520000Y-92109518D01*
X82460000Y-62015000D02*
X82460000Y-64150000D01*
X100575000Y-48950000D02*
X98575000Y-50950000D01*
X98575000Y-50950000D02*
X94300000Y-50950000D01*
D81*
X83475000Y-61510000D02*
X84595000Y-61510000D01*
D80*
X102370000Y-49000000D02*
X100625000Y-49000000D01*
D81*
X84600000Y-60875000D02*
X84600000Y-61515000D01*
X83475000Y-61200000D02*
X83475000Y-61510000D01*
D80*
X96520000Y-92109518D02*
X96526321Y-92103197D01*
D82*
X84150000Y-60025000D02*
X84150000Y-60525000D01*
D80*
X95650000Y-92925000D02*
X96520000Y-92925000D01*
X82450000Y-64160000D02*
X82460000Y-64150000D01*
X84595000Y-61510000D02*
X84600000Y-61515000D01*
X83475000Y-61510000D02*
X82965000Y-61510000D01*
X95500000Y-92775000D02*
X95650000Y-92925000D01*
D82*
X84600000Y-60025000D02*
X84600000Y-60875000D01*
D81*
X83800000Y-60875000D02*
X83475000Y-61200000D01*
D80*
X82450000Y-65590000D02*
X82450000Y-64160000D01*
D81*
X95225000Y-92500000D02*
X95500000Y-92775000D01*
D82*
X84150000Y-60525000D02*
X83800000Y-60875000D01*
%TO.N,Net-(U2-VREF)*%
X82475000Y-57625000D02*
X82125000Y-57275000D01*
D81*
X81950000Y-57100000D02*
X81100000Y-57100000D01*
D82*
X83100000Y-57625000D02*
X82475000Y-57625000D01*
D81*
X82125000Y-57275000D02*
X81950000Y-57100000D01*
D80*
X79400000Y-56500000D02*
X80500000Y-56500000D01*
X80500000Y-56500000D02*
X81100000Y-57100000D01*
%TO.N,/[2] Audio/AUDIO_WIPER_OUT_L*%
X88775000Y-89225000D02*
X88400000Y-89600000D01*
X90675000Y-89225000D02*
X88775000Y-89225000D01*
X88400000Y-89600000D02*
X77625000Y-89600000D01*
X77625000Y-89600000D02*
X75361601Y-91863399D01*
X75361601Y-91863399D02*
X75361601Y-94470099D01*
D81*
%TO.N,Net-(U2-ADCVREF)*%
X85500000Y-62055000D02*
X85615000Y-62170000D01*
D80*
X85615000Y-62170000D02*
X86025000Y-62580000D01*
X86025000Y-62580000D02*
X86025000Y-63475000D01*
D81*
X85615000Y-62170000D02*
X85615000Y-62115000D01*
D82*
X85500000Y-60025000D02*
X85500000Y-61050000D01*
D81*
X85500000Y-61050000D02*
X85500000Y-62055000D01*
D80*
%TO.N,/[2] Audio/AUDIO_WIPER_OUT_R*%
X85525000Y-94650000D02*
X81175000Y-99000000D01*
X81175000Y-99000000D02*
X77391502Y-99000000D01*
X85920000Y-94650000D02*
X85525000Y-94650000D01*
X77391502Y-99000000D02*
X75361601Y-96970099D01*
D79*
%TO.N,/[2] Audio/HEADPHONE_OUT_L*%
X110025000Y-85500000D02*
X110550000Y-85500000D01*
X104610000Y-88500000D02*
X107025000Y-88500000D01*
X107025000Y-88500000D02*
X110025000Y-85500000D01*
%TO.N,/[2] Audio/HEADPHONE_OUT_R*%
X114550000Y-85500000D02*
X114550000Y-88825000D01*
X114550000Y-88825000D02*
X107125000Y-96250000D01*
X107125000Y-96250000D02*
X104788100Y-96250000D01*
D82*
%TO.N,/[2] Audio/CODEC_L_OUT*%
X83100000Y-58525000D02*
X82634202Y-58525000D01*
D81*
X80370000Y-61020000D02*
X80370000Y-60910000D01*
X82080000Y-59720000D02*
X82080000Y-59079202D01*
X80370000Y-60910000D02*
X81310000Y-59970000D01*
D82*
X82634202Y-58525000D02*
X82080000Y-59079202D01*
D81*
X81830000Y-59970000D02*
X82080000Y-59720000D01*
X81310000Y-59970000D02*
X81830000Y-59970000D01*
D80*
%TO.N,Net-(C29-Pad2)*%
X91660000Y-89250000D02*
X91635000Y-89225000D01*
X93050000Y-89250000D02*
X91660000Y-89250000D01*
D81*
%TO.N,/[2] Audio/CODEC_R_OUT*%
X81275000Y-59200000D02*
X78420000Y-59200000D01*
X81750000Y-58725000D02*
X81275000Y-59200000D01*
D82*
X82400000Y-58075000D02*
X81750000Y-58725000D01*
X83100000Y-58075000D02*
X82400000Y-58075000D01*
D81*
X77900000Y-59720000D02*
X77900000Y-61010000D01*
X78420000Y-59200000D02*
X77900000Y-59720000D01*
D80*
%TO.N,Net-(C30-Pad2)*%
X88000000Y-94650000D02*
X86880000Y-94650000D01*
D81*
%TO.N,/[2] Audio/CODEC_L_IN*%
X89990000Y-59240000D02*
X95560000Y-59240000D01*
D82*
X88370000Y-58520000D02*
X88365000Y-58525000D01*
D81*
X89270000Y-58520000D02*
X88370000Y-58520000D01*
D82*
X88365000Y-58525000D02*
X87000000Y-58525000D01*
D81*
X89270000Y-58520000D02*
X89990000Y-59240000D01*
%TO.N,Net-(C38-Pad1)*%
X77430000Y-65460000D02*
X77410000Y-65480000D01*
X77430000Y-64420000D02*
X77430000Y-65460000D01*
X77430000Y-64420000D02*
X77430000Y-63380000D01*
X77430000Y-63380000D02*
X77900000Y-62910000D01*
D80*
%TO.N,Net-(C39-Pad1)*%
X97960000Y-58740000D02*
X98970000Y-58740000D01*
X97460000Y-59240000D02*
X97960000Y-58740000D01*
X100110000Y-58720000D02*
X98990000Y-58720000D01*
X103570000Y-58720000D02*
X100110000Y-58720000D01*
X98990000Y-58720000D02*
X98970000Y-58740000D01*
D82*
%TO.N,/[2] Audio/CODEC_R_IN*%
X87775000Y-58975000D02*
X87980000Y-59180000D01*
D81*
X87980000Y-59180000D02*
X90415000Y-61615000D01*
D82*
X87000000Y-58975000D02*
X87775000Y-58975000D01*
D81*
X90415000Y-61615000D02*
X95560000Y-61615000D01*
D80*
%TO.N,VBUS*%
X98700000Y-23100000D02*
X98700000Y-27075000D01*
X111500000Y-35000000D02*
X112030000Y-35530000D01*
D81*
X109600000Y-37500000D02*
X109600000Y-35600000D01*
D80*
X111250000Y-35000000D02*
X111000000Y-35000000D01*
X109600000Y-39800000D02*
X110130000Y-40330000D01*
X109600000Y-35400000D02*
X109600000Y-35600000D01*
X109392500Y-42197500D02*
X109392500Y-45220000D01*
X98700000Y-27075000D02*
X101012500Y-29387500D01*
X109900000Y-35100000D02*
X109600000Y-35400000D01*
D81*
X107065000Y-24001020D02*
X108200000Y-25136020D01*
X108200000Y-25136020D02*
X108200000Y-27700000D01*
X108512500Y-37500000D02*
X109600000Y-37500000D01*
D80*
X106625000Y-35000000D02*
X110600000Y-35000000D01*
X111250000Y-35000000D02*
X110600000Y-35000000D01*
X99498980Y-22301020D02*
X98700000Y-23100000D01*
X109600000Y-39500000D02*
X109600000Y-39800000D01*
D81*
X108200000Y-27700000D02*
X106512500Y-29387500D01*
X109600000Y-37500000D02*
X109600000Y-39500000D01*
D80*
X101265000Y-22301020D02*
X99498980Y-22301020D01*
X110000000Y-35000000D02*
X109900000Y-35100000D01*
X110600000Y-35000000D02*
X110000000Y-35000000D01*
X111500000Y-35000000D02*
X111250000Y-35000000D01*
X111260000Y-40330000D02*
X114245000Y-40330000D01*
D81*
X106512500Y-29387500D02*
X101012500Y-29387500D01*
D80*
X110130000Y-40330000D02*
X111260000Y-40330000D01*
X114245000Y-35530000D02*
X112030000Y-35530000D01*
X111260000Y-40330000D02*
X109392500Y-42197500D01*
X101012500Y-29387500D02*
X106625000Y-35000000D01*
%TO.N,/[2] Power/LDO_IN*%
X103910000Y-49000000D02*
X103450000Y-48540000D01*
X103450000Y-47580000D02*
X103930000Y-47100000D01*
X103930000Y-47100000D02*
X104645000Y-47100000D01*
X103450000Y-48540000D02*
X103450000Y-47580000D01*
X107567500Y-45220000D02*
X107567500Y-47187500D01*
X104645000Y-49000000D02*
X103910000Y-49000000D01*
X107567500Y-47187500D02*
X107560000Y-47195000D01*
%TO.N,/[2] Power/LDO_BP*%
X102370000Y-47100000D02*
X100760000Y-47100000D01*
D81*
%TO.N,POT_MUX_ADC*%
X64690000Y-53155000D02*
X64710000Y-53175000D01*
X64750000Y-51840000D02*
X64690000Y-51900000D01*
X71765000Y-41125000D02*
X72050000Y-41410000D01*
X64750000Y-50800000D02*
X64750000Y-51840000D01*
X64690000Y-51900000D02*
X64690000Y-53155000D01*
X70425000Y-41125000D02*
X71765000Y-41125000D01*
%TO.N,/[1] MCU/SWD_CLK*%
X80200000Y-31000000D02*
X80200000Y-30400000D01*
X79850000Y-31350000D02*
X80200000Y-31000000D01*
X79850000Y-32700000D02*
X79850000Y-31350000D01*
X74800000Y-27000000D02*
X73330000Y-25530000D01*
X73330000Y-25530000D02*
X73330000Y-23600000D01*
%TO.N,/[1] MCU/SWD_IO*%
X87050000Y-31050000D02*
X85200000Y-29200000D01*
X75600000Y-26200000D02*
X74600000Y-25200000D01*
X81775000Y-35625000D02*
X86095000Y-35625000D01*
X74600000Y-25200000D02*
X74600000Y-23600000D01*
X87050000Y-34670000D02*
X87050000Y-31050000D01*
X86095000Y-35625000D02*
X87050000Y-34670000D01*
%TO.N,/[1] MCU/SWD_O*%
X76850000Y-31650000D02*
X76000000Y-30800000D01*
X72060000Y-25860000D02*
X72060000Y-23600000D01*
X76850000Y-32700000D02*
X76850000Y-31650000D01*
X76000000Y-30800000D02*
X76000000Y-29800000D01*
X76000000Y-29800000D02*
X72060000Y-25860000D01*
D80*
%TO.N,Net-(D1-A)*%
X62715000Y-9590000D02*
X62730000Y-9575000D01*
X62730000Y-9575000D02*
X62730000Y-5030000D01*
X60757500Y-9590000D02*
X62715000Y-9590000D01*
X62730000Y-5030000D02*
X62600000Y-4900000D01*
%TO.N,Net-(D1-K)*%
X59182500Y-9590000D02*
X57330000Y-9590000D01*
%TO.N,Net-(D3-A)*%
X50560000Y-55705000D02*
X50560000Y-54140000D01*
X50560000Y-54140000D02*
X50570000Y-54130000D01*
%TO.N,Net-(D4-A)*%
X53560000Y-55745000D02*
X53625000Y-55745000D01*
D81*
X53550500Y-56028000D02*
X53570000Y-56047500D01*
D80*
X53540000Y-55745000D02*
X53540000Y-54179500D01*
X53540000Y-54179500D02*
X53520500Y-54160000D01*
X53625000Y-55745000D02*
X53640000Y-55760000D01*
D81*
%TO.N,Net-(D5-A)*%
X56731000Y-55918500D02*
X56770000Y-55957500D01*
D80*
X56710000Y-55642500D02*
X56710000Y-54079000D01*
X56710000Y-54079000D02*
X56701000Y-54070000D01*
D81*
%TO.N,Net-(D6-K)*%
X117150000Y-24550000D02*
X117175000Y-24575000D01*
D80*
X117175000Y-22557500D02*
X117117500Y-22500000D01*
D79*
X117225000Y-22607500D02*
X117117500Y-22500000D01*
D80*
X117175000Y-24575000D02*
X117175000Y-22557500D01*
D81*
%TO.N,/[1] MCU/OLED_RST*%
X35200000Y-1800000D02*
X33920000Y-3080000D01*
X75200000Y-36570000D02*
X75200000Y-34700000D01*
X46400000Y-7300000D02*
X40900000Y-1800000D01*
X33920000Y-3080000D02*
X33920000Y-4000000D01*
X58900000Y-26200000D02*
X46400000Y-13700000D01*
X40900000Y-1800000D02*
X35200000Y-1800000D01*
X75850000Y-37220000D02*
X75200000Y-36570000D01*
X46400000Y-13700000D02*
X46400000Y-7300000D01*
X61600000Y-26200000D02*
X58900000Y-26200000D01*
X75850000Y-44050000D02*
X75850000Y-37220000D01*
%TO.N,/[1] MCU/OLED_SPI_DATA*%
X31380000Y-4000000D02*
X31380000Y-2780000D01*
X19800000Y-22400000D02*
X47300000Y-49900000D01*
X31380000Y-2780000D02*
X30300000Y-1700000D01*
X30300000Y-1700000D02*
X21300000Y-1700000D01*
X47300000Y-49900000D02*
X73200000Y-49900000D01*
X21300000Y-1700000D02*
X19800000Y-3200000D01*
X75350000Y-47750000D02*
X75350000Y-44050000D01*
X73200000Y-49900000D02*
X75350000Y-47750000D01*
X19800000Y-3200000D02*
X19800000Y-22400000D01*
%TO.N,/[1] MCU/OLED_SPI_SCK*%
X74350000Y-46950000D02*
X74100000Y-47200000D01*
X74100000Y-47200000D02*
X48500000Y-47200000D01*
X74350000Y-44050000D02*
X74350000Y-46950000D01*
X28840000Y-27540000D02*
X28840000Y-4000000D01*
X48500000Y-47200000D02*
X28840000Y-27540000D01*
%TO.N,/[1] MCU/OLED_SPI_CS*%
X65040000Y-27800000D02*
X54000000Y-27800000D01*
X54000000Y-27800000D02*
X39000000Y-12800000D01*
X65750000Y-28510000D02*
X65040000Y-27800000D01*
X73850000Y-44050000D02*
X73850000Y-43150000D01*
X73850000Y-43150000D02*
X74500000Y-42500000D01*
X74500000Y-42500000D02*
X74500000Y-41700000D01*
X39000000Y-12800000D02*
X39000000Y-4000000D01*
%TO.N,/[1] MCU/OLED_DC*%
X44300000Y-39500000D02*
X44300000Y-34900000D01*
X73500000Y-48500000D02*
X74850000Y-47150000D01*
X44300000Y-34900000D02*
X36460000Y-27060000D01*
X50100000Y-48500000D02*
X73500000Y-48500000D01*
X36460000Y-27060000D02*
X36460000Y-4000000D01*
X49200000Y-44400000D02*
X44300000Y-39500000D01*
X74850000Y-44050000D02*
X74850000Y-47150000D01*
X50100000Y-48500000D02*
X50090000Y-48510000D01*
%TO.N,/[1] MCU/SDCARD_DETECT*%
X86400000Y-22030000D02*
X86400000Y-16950000D01*
X85690000Y-22740000D02*
X86400000Y-22030000D01*
X79350000Y-32700000D02*
X79350000Y-30050000D01*
X79350000Y-30050000D02*
X85690000Y-23710000D01*
X85690000Y-23710000D02*
X85690000Y-22740000D01*
%TO.N,/[1] MCU/SDCARD_SDIO_D1*%
X93600000Y-19600000D02*
X94000000Y-19600000D01*
X94000000Y-19600000D02*
X94000000Y-7500000D01*
X84175000Y-38625000D02*
X85000000Y-37800000D01*
X94000000Y-7500000D02*
X92700000Y-6200000D01*
X93000000Y-20200000D02*
X93600000Y-19600000D01*
X81775000Y-38625000D02*
X84175000Y-38625000D01*
X93000000Y-29800000D02*
X93000000Y-20200000D01*
X88600000Y-34200000D02*
X93000000Y-29800000D01*
X92700000Y-6200000D02*
X92700000Y-4250000D01*
%TO.N,/[1] MCU/SDCARD_SDIO_D0*%
X85800000Y-39400000D02*
X86800000Y-38400000D01*
X91600000Y-18950000D02*
X90950000Y-19600000D01*
X83125000Y-39125000D02*
X83400000Y-39400000D01*
X89800000Y-25400000D02*
X89800000Y-20400000D01*
X91600000Y-4250000D02*
X91600000Y-8100000D01*
X90600000Y-26200000D02*
X89800000Y-25400000D01*
X89800000Y-20400000D02*
X90600000Y-19600000D01*
X81775000Y-39125000D02*
X83125000Y-39125000D01*
X86800000Y-38400000D02*
X89600000Y-38400000D01*
X90600000Y-19600000D02*
X90950000Y-19600000D01*
X90600000Y-29600000D02*
X90600000Y-26200000D01*
X91600000Y-18400000D02*
X91600000Y-18950000D01*
X83400000Y-39400000D02*
X85800000Y-39400000D01*
%TO.N,Net-(J1-CLK)*%
X78000000Y-28000000D02*
X79500000Y-26500000D01*
X80000000Y-26000000D02*
X80000000Y-17500000D01*
X82000000Y-15500000D02*
X88500000Y-15500000D01*
X79500000Y-26500000D02*
X79800000Y-26200000D01*
X80000000Y-17500000D02*
X82000000Y-15500000D01*
X89400000Y-8200000D02*
X89400000Y-4250000D01*
X79500000Y-26500000D02*
X80000000Y-26000000D01*
X78000000Y-29200000D02*
X78000000Y-28000000D01*
%TO.N,/[1] MCU/SDCARD_SDIO_CMD*%
X77000000Y-26000000D02*
X77600000Y-25400000D01*
X82600000Y-19600000D02*
X81800000Y-19600000D01*
X81800000Y-19600000D02*
X80800000Y-20600000D01*
X82900000Y-11900000D02*
X81900000Y-12900000D01*
X77000000Y-31000000D02*
X77000000Y-26000000D01*
X86100000Y-11900000D02*
X82900000Y-11900000D01*
X77350000Y-31350000D02*
X77000000Y-31000000D01*
X81900000Y-12900000D02*
X81900000Y-13700000D01*
X82600000Y-19400000D02*
X81900000Y-18700000D01*
X82600000Y-19600000D02*
X82600000Y-19400000D01*
X87200000Y-4250000D02*
X87200000Y-10800000D01*
X80800000Y-20600000D02*
X80800000Y-24600000D01*
X86100000Y-11900000D02*
X87200000Y-10800000D01*
X77350000Y-31350000D02*
X77350000Y-32700000D01*
%TO.N,/[1] MCU/SDCARD_SDIO_D3*%
X87400000Y-19600000D02*
X87900000Y-19600000D01*
X86100000Y-4250000D02*
X86100000Y-8200000D01*
X78350000Y-33950000D02*
X78800000Y-34400000D01*
X78350000Y-32700000D02*
X78350000Y-33950000D01*
X87900000Y-19600000D02*
X87900000Y-19300000D01*
X80800000Y-33600000D02*
X80800000Y-30800000D01*
X87000000Y-24600000D02*
X87000000Y-20000000D01*
X87000000Y-20000000D02*
X87400000Y-19600000D01*
X80800000Y-30800000D02*
X87000000Y-24600000D01*
X78800000Y-34400000D02*
X80000000Y-34400000D01*
X80000000Y-34400000D02*
X80800000Y-33600000D01*
X87900000Y-19300000D02*
X87100000Y-18500000D01*
D80*
%TO.N,/[2] Audio/AUDIO_L_IN*%
X104590000Y-58720000D02*
X108820000Y-58720000D01*
X108820000Y-58720000D02*
X110450000Y-60350000D01*
%TO.N,/[2] Audio/AUDIO_R_IN*%
X111830000Y-62970000D02*
X114450000Y-60350000D01*
X104570000Y-62070000D02*
X105470000Y-62970000D01*
X105470000Y-62970000D02*
X111830000Y-62970000D01*
%TO.N,/[2] Audio/AUDIO_L_OUT*%
X84475000Y-76500000D02*
X84750000Y-76500000D01*
X77861601Y-92811601D02*
X77850000Y-92800000D01*
X83740000Y-76500000D02*
X80940000Y-73700000D01*
X104400000Y-72900000D02*
X110600000Y-72900000D01*
X80940000Y-73700000D02*
X80940000Y-66530000D01*
X77861601Y-94470099D02*
X77861601Y-92811601D01*
X83025000Y-77950000D02*
X84475000Y-76500000D01*
X84750000Y-76500000D02*
X100800000Y-76500000D01*
X84750000Y-76500000D02*
X83740000Y-76500000D01*
X100800000Y-76500000D02*
X104400000Y-72900000D01*
%TO.N,/[2] Audio/AUDIO_R_OUT*%
X77410000Y-78210000D02*
X77410000Y-66500000D01*
X106600000Y-75800000D02*
X111700000Y-75800000D01*
X90975000Y-79800000D02*
X88225000Y-79800000D01*
X79754901Y-96970099D02*
X83000000Y-93725000D01*
X88225000Y-79800000D02*
X84300000Y-83725000D01*
X90975000Y-79800000D02*
X102600000Y-79800000D01*
X77861601Y-96970099D02*
X79754901Y-96970099D01*
X102600000Y-79800000D02*
X106600000Y-75800000D01*
X83000000Y-93725000D02*
X83000000Y-92500000D01*
X111700000Y-75800000D02*
X114600000Y-72900000D01*
X90975000Y-79800000D02*
X79000000Y-79800000D01*
X79000000Y-79800000D02*
X77410000Y-78210000D01*
D81*
%TO.N,/[2] Power/USB_D-*%
X113270000Y-37680000D02*
X113150000Y-37800000D01*
X114245000Y-37680000D02*
X113270000Y-37680000D01*
X113380000Y-38680000D02*
X113150000Y-38450000D01*
X113150000Y-37800000D02*
X112500000Y-38450000D01*
X113150000Y-38450000D02*
X113150000Y-37800000D01*
X112500000Y-38450000D02*
X110787500Y-38450000D01*
X114245000Y-38680000D02*
X113380000Y-38680000D01*
%TO.N,/[2] Power/USB_D+*%
X115700000Y-37500000D02*
X115380000Y-37180000D01*
X115700000Y-37850000D02*
X115700000Y-37500000D01*
X112650000Y-36550000D02*
X110787500Y-36550000D01*
X115370000Y-38180000D02*
X115700000Y-37850000D01*
X114245000Y-37180000D02*
X113280000Y-37180000D01*
X113280000Y-37180000D02*
X112650000Y-36550000D01*
X114245000Y-38180000D02*
X115370000Y-38180000D01*
X115380000Y-37180000D02*
X114245000Y-37180000D01*
%TO.N,/[2] Power/USBCC1*%
X114245000Y-39180000D02*
X115680000Y-39180000D01*
X117000000Y-44000000D02*
X117000000Y-40500000D01*
X115680000Y-39180000D02*
X117000000Y-40500000D01*
%TO.N,/[2] Power/USBCC2*%
X114245000Y-36180000D02*
X116070000Y-36180000D01*
X116070000Y-36180000D02*
X117000000Y-35250000D01*
X117000000Y-35250000D02*
X117000000Y-31750000D01*
%TO.N,/[1] MCU/MCU_BOOT0*%
X74350000Y-30600000D02*
X72100000Y-28350000D01*
X68300000Y-27275000D02*
X66450000Y-27275000D01*
X63750000Y-24575000D02*
X63750000Y-9575000D01*
X68325000Y-27300000D02*
X68300000Y-27275000D01*
X74350000Y-32700000D02*
X74350000Y-30600000D01*
X66450000Y-27275000D02*
X63750000Y-24575000D01*
X70600000Y-28350000D02*
X72100000Y-28350000D01*
%TO.N,/[1] MCU/MCU_HSE_OUT*%
X70425000Y-37125000D02*
X66525000Y-37125000D01*
X66200000Y-37450000D02*
X63350000Y-37450000D01*
X66525000Y-37125000D02*
X66200000Y-37450000D01*
%TO.N,/[1] MCU/SDCARD_SDIO_D2*%
X78850000Y-32700000D02*
X78850000Y-29150000D01*
X84850000Y-18950000D02*
X84400000Y-18500000D01*
X78850000Y-29150000D02*
X83800000Y-24200000D01*
X84200000Y-7100000D02*
X85000000Y-6300000D01*
X84400000Y-19600000D02*
X84850000Y-19600000D01*
X83800000Y-20200000D02*
X84400000Y-19600000D01*
X83800000Y-24200000D02*
X83800000Y-20200000D01*
X84850000Y-19600000D02*
X84850000Y-18950000D01*
X84200000Y-7100000D02*
X84200000Y-8200000D01*
X85000000Y-4250000D02*
X85000000Y-6300000D01*
%TO.N,/[1] MCU/LED_0*%
X50570000Y-52570000D02*
X50570000Y-53110000D01*
X53120000Y-44980000D02*
X66170000Y-44980000D01*
X50579000Y-53101000D02*
X50570000Y-53110000D01*
X51570000Y-51570000D02*
X50570000Y-52570000D01*
X69525000Y-41625000D02*
X70425000Y-41625000D01*
X52240000Y-51570000D02*
X51570000Y-51570000D01*
X66170000Y-44980000D02*
X69525000Y-41625000D01*
%TO.N,/[1] MCU/LED_1*%
X69675000Y-42125000D02*
X70425000Y-42125000D01*
X53509500Y-53129000D02*
X53520500Y-53140000D01*
X54230000Y-51620000D02*
X53520500Y-52329500D01*
X56180000Y-45770000D02*
X66030000Y-45770000D01*
X56150000Y-45800000D02*
X56180000Y-45770000D01*
X66030000Y-45770000D02*
X69675000Y-42125000D01*
X55130000Y-51620000D02*
X54230000Y-51620000D01*
X53520500Y-52329500D02*
X53520500Y-53140000D01*
%TO.N,/[1] MCU/LED_2*%
X56701000Y-52209000D02*
X57280000Y-51630000D01*
X58680000Y-46500000D02*
X69900000Y-46500000D01*
X56701000Y-53050000D02*
X56701000Y-52209000D01*
X57280000Y-51630000D02*
X57950000Y-51630000D01*
X72350000Y-44050000D02*
X69900000Y-46500000D01*
X56700000Y-53049000D02*
X56701000Y-53050000D01*
X58680000Y-46500000D02*
X58660000Y-46480000D01*
D80*
%TO.N,/[2] Power/BUCK_FB*%
X104800000Y-25551020D02*
X104750000Y-25601020D01*
X104750000Y-25601020D02*
X104075000Y-25601020D01*
X104790000Y-25541020D02*
X104800000Y-25551020D01*
X104850000Y-25601020D02*
X104800000Y-25551020D01*
X104790000Y-24001020D02*
X104790000Y-25541020D01*
X105655000Y-25601020D02*
X104850000Y-25601020D01*
D81*
%TO.N,Net-(C40-Pad1)*%
X99010000Y-62040000D02*
X100080000Y-62040000D01*
X97885000Y-62040000D02*
X99010000Y-62040000D01*
X100080000Y-62040000D02*
X100110000Y-62070000D01*
X97460000Y-61615000D02*
X97885000Y-62040000D01*
D80*
X100110000Y-62070000D02*
X103550000Y-62070000D01*
D81*
%TO.N,SW_2*%
X41425000Y-68800000D02*
X35500000Y-68800000D01*
X78275000Y-35525000D02*
X78275000Y-35950000D01*
X76350000Y-32700000D02*
X76350000Y-33600000D01*
X45575000Y-64650000D02*
X41425000Y-68800000D01*
X76350000Y-33600000D02*
X78275000Y-35525000D01*
D82*
%TO.N,MCU_USB_D+*%
X83012501Y-36200000D02*
X82937501Y-36125000D01*
X106743749Y-37325000D02*
X102322488Y-37325000D01*
X101197488Y-36200000D02*
X83012501Y-36200000D01*
X102322488Y-37325000D02*
X101197488Y-36200000D01*
X82937501Y-36125000D02*
X81775000Y-36125000D01*
X107518749Y-36550000D02*
X106743749Y-37325000D01*
X108512500Y-36550000D02*
X107518749Y-36550000D01*
D81*
%TO.N,/[1] MCU/SDCARD_SDIO_CK*%
X78000000Y-31000000D02*
X78000000Y-30220000D01*
X77850000Y-32700000D02*
X77850000Y-31150000D01*
X77850000Y-31150000D02*
X78000000Y-31000000D01*
%TO.N,POT_MUX_SEL_0*%
X56420000Y-71760000D02*
X56460000Y-71800000D01*
X76850000Y-45020753D02*
X76850000Y-44050000D01*
X76850000Y-45020753D02*
X76370753Y-45500000D01*
X76370753Y-45500000D02*
X76050000Y-45500000D01*
X56420000Y-69590000D02*
X56420000Y-71760000D01*
D82*
%TO.N,CODEC_I2S_SDI*%
X83100000Y-56725000D02*
X82335000Y-56725000D01*
D81*
X82180000Y-56570000D02*
X81930000Y-56320000D01*
D82*
X82335000Y-56725000D02*
X82180000Y-56570000D01*
D81*
X81930000Y-56320000D02*
X81930000Y-55720000D01*
X80245000Y-41125000D02*
X80240000Y-41120000D01*
X81775000Y-41125000D02*
X80245000Y-41125000D01*
%TO.N,CODEC_I2S_SD*%
X85800000Y-47060000D02*
X83410000Y-49450000D01*
X83605000Y-40625000D02*
X87440000Y-44460000D01*
X83410000Y-49450000D02*
X83410000Y-54380000D01*
X81775000Y-40625000D02*
X83605000Y-40625000D01*
X87440000Y-44460000D02*
X87440000Y-46620000D01*
X87000000Y-47060000D02*
X85800000Y-47060000D01*
D82*
X84150000Y-55120000D02*
X83830000Y-54800000D01*
D81*
X83410000Y-54380000D02*
X83830000Y-54800000D01*
X87440000Y-46620000D02*
X87000000Y-47060000D01*
D82*
X84150000Y-56125000D02*
X84150000Y-55120000D01*
D81*
%TO.N,POT_MUX_SEL_1*%
X57730000Y-71800000D02*
X57730000Y-68350000D01*
X77350000Y-44050000D02*
X77350000Y-45413122D01*
X77350000Y-45413122D02*
X76711524Y-46051598D01*
D82*
%TO.N,CODEC_I2C_SCL*%
X87805000Y-56725000D02*
X88180000Y-56350000D01*
X88180000Y-56345000D02*
X88350000Y-56175000D01*
D81*
X88625000Y-55900000D02*
X90105000Y-55900000D01*
X88350000Y-56175000D02*
X88625000Y-55900000D01*
X90105000Y-55900000D02*
X90105000Y-54780000D01*
D82*
X87000000Y-56725000D02*
X87805000Y-56725000D01*
D81*
X78350000Y-44050000D02*
X78350000Y-49775000D01*
X90105000Y-54780000D02*
X90100000Y-54775000D01*
D82*
X88180000Y-56350000D02*
X88180000Y-56345000D01*
D81*
%TO.N,POT_MUX_SEL_2*%
X58990000Y-71790000D02*
X59000000Y-71800000D01*
X77850000Y-46000000D02*
X77600000Y-46250000D01*
X58990000Y-69630000D02*
X58990000Y-71790000D01*
X77850000Y-44050000D02*
X77850000Y-46000000D01*
D82*
%TO.N,MCU_USB_D-*%
X82937501Y-36625000D02*
X81775000Y-36625000D01*
X106743749Y-37675000D02*
X102177512Y-37675000D01*
X102177512Y-37675000D02*
X101052512Y-36550000D01*
X107518749Y-38450000D02*
X106743749Y-37675000D01*
X83012501Y-36550000D02*
X82937501Y-36625000D01*
X108512500Y-38450000D02*
X107518749Y-38450000D01*
X101052512Y-36550000D02*
X83012501Y-36550000D01*
D81*
%TO.N,CODEC_I2S_MCK*%
X86560000Y-55280000D02*
X87090000Y-54750000D01*
X88800000Y-54750000D02*
X90300000Y-53250000D01*
D82*
X86400000Y-55440000D02*
X86400000Y-56125000D01*
D81*
X85825000Y-40125000D02*
X81775000Y-40125000D01*
D82*
X86560000Y-55280000D02*
X86400000Y-55440000D01*
D81*
X90300000Y-53250000D02*
X90300000Y-44600000D01*
X87090000Y-54750000D02*
X88800000Y-54750000D01*
X90300000Y-44600000D02*
X85825000Y-40125000D01*
%TO.N,/[3] Input Control/POT_7_CTL*%
X73620000Y-105850000D02*
X75850000Y-108080000D01*
X61440000Y-82260000D02*
X63630000Y-84450000D01*
X53920000Y-76750000D02*
X53920000Y-80280000D01*
X63630000Y-84450000D02*
X63630000Y-102980000D01*
X55900000Y-82260000D02*
X61440000Y-82260000D01*
X63630000Y-102980000D02*
X66500000Y-105850000D01*
X53920000Y-80280000D02*
X55900000Y-82260000D01*
X66500000Y-105850000D02*
X73620000Y-105850000D01*
X75850000Y-108080000D02*
X75850000Y-116300000D01*
%TO.N,/[3] Input Control/POT_2_CTL*%
X46600000Y-79800000D02*
X44800000Y-81600000D01*
X28600000Y-81600000D02*
X26200000Y-84000000D01*
X18200000Y-104600000D02*
X15850000Y-106950000D01*
X26200000Y-100200000D02*
X21800000Y-104600000D01*
X15850000Y-106950000D02*
X15850000Y-116300000D01*
X52650000Y-73380000D02*
X52660000Y-73390000D01*
X21800000Y-104600000D02*
X18200000Y-104600000D01*
X52650000Y-71800000D02*
X52650000Y-73380000D01*
X26200000Y-84000000D02*
X26200000Y-100200000D01*
X44800000Y-81600000D02*
X28600000Y-81600000D01*
%TO.N,/[3] Input Control/POT_6_CTL*%
X51380000Y-76750000D02*
X51380000Y-80960000D01*
X43760000Y-102160000D02*
X35850000Y-110070000D01*
X51380000Y-80960000D02*
X43760000Y-88580000D01*
X43760000Y-88580000D02*
X43760000Y-102160000D01*
X35850000Y-110070000D02*
X35850000Y-116300000D01*
%TO.N,/[3] Input Control/POT_3_CTL*%
X55190000Y-71800000D02*
X55190000Y-73540000D01*
X55850000Y-111130000D02*
X55850000Y-116300000D01*
%TO.N,/[3] Input Control/POT_1_CTL*%
X53920000Y-71800000D02*
X53920000Y-73550000D01*
X55850000Y-93940000D02*
X55850000Y-96300000D01*
%TO.N,/[3] Input Control/POT_0_CTL*%
X21650000Y-79480000D02*
X42300000Y-79480000D01*
X15850000Y-96300000D02*
X15850000Y-85280000D01*
X50950000Y-74080000D02*
X51380000Y-73650000D01*
X15850000Y-85280000D02*
X21650000Y-79480000D01*
X42300000Y-79480000D02*
X47700000Y-74080000D01*
X51380000Y-73650000D02*
X51380000Y-71800000D01*
X47700000Y-74080000D02*
X50950000Y-74080000D01*
%TO.N,/[3] Input Control/POT_4_CTL*%
X39360000Y-84610000D02*
X35850000Y-88120000D01*
X50110000Y-76750000D02*
X50110000Y-79630000D01*
X45130000Y-84610000D02*
X39360000Y-84610000D01*
X50110000Y-79630000D02*
X45130000Y-84610000D01*
X35850000Y-88120000D02*
X35850000Y-96300000D01*
%TO.N,/[3] Input Control/POT_5_CTL*%
X89990000Y-104800000D02*
X94320000Y-109130000D01*
X66550000Y-85070000D02*
X66550000Y-100390000D01*
X68120000Y-101960000D02*
X81910000Y-101960000D01*
X94320000Y-109130000D02*
X94320000Y-116030000D01*
X84750000Y-104800000D02*
X89990000Y-104800000D01*
X66550000Y-100390000D02*
X68120000Y-101960000D01*
X62580000Y-81100000D02*
X66550000Y-85070000D01*
X81910000Y-101960000D02*
X84750000Y-104800000D01*
X55190000Y-79370000D02*
X56920000Y-81100000D01*
X56920000Y-81100000D02*
X62580000Y-81100000D01*
X55190000Y-76750000D02*
X55190000Y-79370000D01*
D82*
%TO.N,CODEC_I2S_CK*%
X84600000Y-56125000D02*
X84600000Y-55150000D01*
D81*
X83325000Y-41625000D02*
X85570000Y-43870000D01*
X84200000Y-54000000D02*
X84180000Y-53980000D01*
X84200000Y-54400000D02*
X84200000Y-54000000D01*
D82*
X84600000Y-55150000D02*
X84590000Y-55140000D01*
D81*
X85570000Y-43870000D02*
X85570000Y-46270000D01*
X84590000Y-55140000D02*
X84590000Y-54960000D01*
X85570000Y-46270000D02*
X85560000Y-46280000D01*
X81775000Y-41625000D02*
X83325000Y-41625000D01*
X84590000Y-54790000D02*
X84200000Y-54400000D01*
X84590000Y-54960000D02*
X84590000Y-54790000D01*
%TO.N,CODEC_I2S_WS*%
X84150000Y-47520000D02*
X84150000Y-43550000D01*
X84150000Y-43550000D02*
X82725000Y-42125000D01*
D82*
X83700000Y-56125000D02*
X83700000Y-55400000D01*
D81*
X82725000Y-42125000D02*
X81775000Y-42125000D01*
X83390000Y-55090000D02*
X82660000Y-54360000D01*
X82660000Y-54360000D02*
X82660000Y-49010000D01*
X82660000Y-49010000D02*
X84150000Y-47520000D01*
D82*
X83700000Y-55400000D02*
X83390000Y-55090000D01*
D81*
%TO.N,CODEC_I2C_SDA*%
X79225000Y-48975000D02*
X78850000Y-48600000D01*
X78850000Y-48600000D02*
X78850000Y-44050000D01*
X90115000Y-58165000D02*
X90125000Y-58175000D01*
X79225000Y-54475000D02*
X79225000Y-48975000D01*
D82*
X88575000Y-57175000D02*
X87000000Y-57175000D01*
D81*
X90115000Y-57175000D02*
X88585000Y-57175000D01*
X78100000Y-55600000D02*
X79225000Y-54475000D01*
D82*
X88575000Y-57175000D02*
X88580000Y-57170000D01*
D81*
X88585000Y-57175000D02*
X88580000Y-57170000D01*
X90115000Y-57175000D02*
X90115000Y-58165000D01*
%TO.N,Net-(U1-VCAP_1)*%
X79350000Y-45000000D02*
X80050000Y-45700000D01*
X79350000Y-44050000D02*
X79350000Y-45000000D01*
X80050000Y-45700000D02*
X80050000Y-46475000D01*
%TO.N,Net-(U1-VCAP_2)*%
X83390000Y-34610000D02*
X84720000Y-34610000D01*
X81775000Y-35125000D02*
X82875000Y-35125000D01*
X82875000Y-35125000D02*
X83390000Y-34610000D01*
D82*
%TO.N,Net-(U2-VMID)*%
X85950000Y-60573382D02*
X86270000Y-60893382D01*
D81*
X87385000Y-62110000D02*
X87675000Y-62400000D01*
X86480000Y-62110000D02*
X87385000Y-62110000D01*
X87675000Y-62400000D02*
X87675000Y-62720000D01*
X86270000Y-61350000D02*
X86270000Y-61900000D01*
D80*
X87675000Y-63400000D02*
X87675000Y-62720000D01*
D82*
X85950000Y-60025000D02*
X85950000Y-60573382D01*
D81*
X86270000Y-61900000D02*
X86480000Y-62110000D01*
X86270000Y-61350000D02*
X86270000Y-60893382D01*
%TO.N,SW_3*%
X25850000Y-66600000D02*
X23650000Y-68800000D01*
X44800000Y-63325000D02*
X41525000Y-66600000D01*
X23650000Y-68800000D02*
X15875000Y-68800000D01*
X75850000Y-34350000D02*
X77325000Y-35825000D01*
X41525000Y-66600000D02*
X25850000Y-66600000D01*
X75850000Y-32700000D02*
X75850000Y-34350000D01*
X77325000Y-35825000D02*
X77325000Y-36625000D01*
%TO.N,Net-(U7-COM_OUT{slash}IN)*%
X63690000Y-70340000D02*
X63690000Y-53175000D01*
X52650000Y-76750000D02*
X52650000Y-75810000D01*
X59640000Y-74390000D02*
X63690000Y-70340000D01*
X52650000Y-75810000D02*
X54070000Y-74390000D01*
X54070000Y-74390000D02*
X59640000Y-74390000D01*
%TO.N,Net-(U3-IN2-)*%
X89760000Y-93935000D02*
X89875000Y-94050000D01*
D80*
X89070000Y-94600000D02*
X89020000Y-94650000D01*
X90425000Y-94600000D02*
X91360000Y-94600000D01*
D81*
X89760000Y-93150000D02*
X89760000Y-93935000D01*
D80*
X89875000Y-94050000D02*
X90425000Y-94600000D01*
X91360000Y-94600000D02*
X89070000Y-94600000D01*
D81*
%TO.N,Net-(U3-IN1-)*%
X94950000Y-91200000D02*
X95760000Y-90390000D01*
X94060000Y-91200000D02*
X94950000Y-91200000D01*
D80*
X95760000Y-89735000D02*
X95275000Y-89250000D01*
X95275000Y-89250000D02*
X94070000Y-89250000D01*
X95760000Y-90390000D02*
X95760000Y-89735000D01*
%TO.N,Net-(U3-VO2)*%
X95700000Y-93900000D02*
X98050000Y-96250000D01*
X98050000Y-96250000D02*
X99631900Y-96250000D01*
D81*
X94950000Y-93150000D02*
X95700000Y-93900000D01*
X93825000Y-94275000D02*
X94060000Y-94040000D01*
X94060000Y-93150000D02*
X94950000Y-93150000D01*
X94060000Y-94040000D02*
X94060000Y-93150000D01*
D80*
X93500000Y-94600000D02*
X93825000Y-94275000D01*
X92380000Y-94600000D02*
X93500000Y-94600000D01*
D81*
%TO.N,Net-(U3-VO1)*%
X95000000Y-91850000D02*
X95440001Y-91410000D01*
D80*
X95760000Y-91410000D02*
X96240000Y-91410000D01*
X98000000Y-88500000D02*
X99453800Y-88500000D01*
X97250000Y-90400000D02*
X97250000Y-89250000D01*
D81*
X95440001Y-91410000D02*
X95760000Y-91410000D01*
X94060000Y-91850000D02*
X95000000Y-91850000D01*
D80*
X97250000Y-89250000D02*
X98000000Y-88500000D01*
X96240000Y-91410000D02*
X97250000Y-90400000D01*
D81*
%TO.N,Net-(U3-BYPASS)*%
X89760000Y-91200000D02*
X88060000Y-91200000D01*
%TO.N,Net-(C37-Pad1)*%
X80830000Y-65400000D02*
X80940000Y-65510000D01*
X80830000Y-63380000D02*
X80370000Y-62920000D01*
X80830000Y-64450000D02*
X80830000Y-65400000D01*
X80830000Y-64450000D02*
X80830000Y-63380000D01*
%TD*%
%TA.AperFunction,Conductor*%
%TO.N,GND*%
G36*
X48815677Y-67319685D02*
G01*
X48836319Y-67336319D01*
X49058252Y-67558252D01*
X49091737Y-67619575D01*
X49093701Y-67646933D01*
X49094500Y-67646933D01*
X49094500Y-68684744D01*
X49096788Y-68722053D01*
X49096788Y-68722057D01*
X49100491Y-68752132D01*
X49107319Y-68788885D01*
X49190798Y-69122802D01*
X49194500Y-69152876D01*
X49194500Y-69364885D01*
X49203481Y-69438412D01*
X49203481Y-69438415D01*
X49223167Y-69517799D01*
X49226780Y-69526415D01*
X49248041Y-69587174D01*
X49255000Y-69628128D01*
X49255000Y-70002973D01*
X49254457Y-70014563D01*
X49253629Y-70023383D01*
X49251730Y-70036278D01*
X49251333Y-70038245D01*
X49251331Y-70038265D01*
X49251330Y-70038272D01*
X49247202Y-70105593D01*
X49247202Y-70105598D01*
X49247202Y-70105602D01*
X49247201Y-70105609D01*
X49249214Y-70163951D01*
X49249216Y-70163959D01*
X49260602Y-70198902D01*
X49261492Y-70229177D01*
X49264743Y-70259277D01*
X49262569Y-70265816D01*
X49262656Y-70268742D01*
X49253614Y-70292770D01*
X49240721Y-70318557D01*
X49234273Y-70331452D01*
X49186689Y-70382611D01*
X49123364Y-70400000D01*
X48551362Y-70400000D01*
X48484323Y-70380315D01*
X48463681Y-70363681D01*
X47586319Y-69486319D01*
X47552834Y-69424996D01*
X47550000Y-69398638D01*
X47550000Y-67776315D01*
X47560687Y-67725954D01*
X47717272Y-67373639D01*
X47762488Y-67320372D01*
X47829324Y-67300006D01*
X47830585Y-67300000D01*
X48748638Y-67300000D01*
X48815677Y-67319685D01*
G37*
%TD.AperFunction*%
%TD*%
%TA.AperFunction,Conductor*%
%TO.N,GND*%
G36*
X84216434Y-62046959D02*
G01*
X84221842Y-62048851D01*
X84221843Y-62048852D01*
X84347181Y-62092710D01*
X84362057Y-62094105D01*
X84376930Y-62095500D01*
X84376934Y-62095500D01*
X84823066Y-62095500D01*
X84852819Y-62092710D01*
X84852821Y-62092709D01*
X84858964Y-62092133D01*
X84863899Y-62093092D01*
X84868702Y-62091605D01*
X84897852Y-62099695D01*
X84927549Y-62105471D01*
X84932500Y-62109312D01*
X84936026Y-62110291D01*
X84963040Y-62133005D01*
X85046449Y-62226423D01*
X85073728Y-62276915D01*
X85102015Y-62382483D01*
X85102017Y-62382487D01*
X85113387Y-62402180D01*
X85130000Y-62464180D01*
X85130000Y-63800000D01*
X85280000Y-64150000D01*
X85460565Y-64150000D01*
X85506080Y-64161923D01*
X85507134Y-64159252D01*
X85515024Y-64162363D01*
X85515025Y-64162364D01*
X85649410Y-64215359D01*
X85733856Y-64225500D01*
X85733862Y-64225500D01*
X86316138Y-64225500D01*
X86316144Y-64225500D01*
X86400590Y-64215359D01*
X86534975Y-64162364D01*
X86534975Y-64162363D01*
X86542866Y-64159252D01*
X86543919Y-64161923D01*
X86589435Y-64150000D01*
X87372277Y-64150000D01*
X87380152Y-64150470D01*
X87380164Y-64150279D01*
X87383855Y-64150500D01*
X87383856Y-64150500D01*
X87966145Y-64150500D01*
X87969836Y-64150279D01*
X87969847Y-64150470D01*
X87977723Y-64150000D01*
X89207165Y-64150000D01*
X89274204Y-64169685D01*
X89307159Y-64200671D01*
X89575994Y-64567264D01*
X89599765Y-64632966D01*
X89600000Y-64640593D01*
X89600000Y-66096245D01*
X89580315Y-66163284D01*
X89527511Y-66209039D01*
X89476246Y-66220245D01*
X84622730Y-66229875D01*
X84555652Y-66210323D01*
X84522734Y-66179536D01*
X84080005Y-65580007D01*
X84080000Y-65580000D01*
X84079996Y-65579996D01*
X84079990Y-65579988D01*
X83483664Y-64945801D01*
X83452080Y-64883477D01*
X83450000Y-64860858D01*
X83450000Y-63439999D01*
X83072764Y-63223438D01*
X83024425Y-63172990D01*
X83010500Y-63115899D01*
X83010500Y-62294386D01*
X83019144Y-62264945D01*
X83025668Y-62234959D01*
X83029422Y-62229943D01*
X83030185Y-62227347D01*
X83046815Y-62206709D01*
X83129427Y-62124096D01*
X83190750Y-62090612D01*
X83228686Y-62088320D01*
X83251931Y-62090500D01*
X83251934Y-62090500D01*
X83698070Y-62090500D01*
X83711289Y-62089260D01*
X83727819Y-62087710D01*
X83727823Y-62087708D01*
X83727826Y-62087708D01*
X83844279Y-62046959D01*
X83885234Y-62040000D01*
X84175478Y-62040000D01*
X84216434Y-62046959D01*
G37*
%TD.AperFunction*%
%TD*%
%TA.AperFunction,Conductor*%
%TO.N,+3V3*%
G36*
X68093062Y-34263090D02*
G01*
X68151384Y-34292251D01*
X68231783Y-34319285D01*
X68298810Y-34331835D01*
X68372889Y-34335228D01*
X68383560Y-34335718D01*
X68383560Y-34335717D01*
X68383563Y-34335718D01*
X68385441Y-34335541D01*
X68397022Y-34335000D01*
X68802969Y-34335000D01*
X68810802Y-34335248D01*
X68812702Y-34335368D01*
X68831812Y-34337160D01*
X68860061Y-34338494D01*
X68860456Y-34338420D01*
X68867481Y-34338840D01*
X68957630Y-34325336D01*
X69026846Y-34334872D01*
X69079919Y-34380315D01*
X69099998Y-34447237D01*
X69100000Y-34447968D01*
X69100000Y-34960625D01*
X69093165Y-34983900D01*
X69090583Y-35008025D01*
X69083497Y-35016825D01*
X69080315Y-35027664D01*
X69061982Y-35043549D01*
X69046767Y-35062448D01*
X69031125Y-35070286D01*
X69027511Y-35073419D01*
X69015214Y-35078261D01*
X68969091Y-35093636D01*
X68929877Y-35100000D01*
X68050000Y-35100000D01*
X67737051Y-35457655D01*
X67678091Y-35495145D01*
X67643732Y-35500000D01*
X66724500Y-35500000D01*
X66657461Y-35480315D01*
X66611706Y-35427511D01*
X66600500Y-35376000D01*
X66600500Y-34386625D01*
X66601770Y-34382297D01*
X66600808Y-34377892D01*
X66611525Y-34349076D01*
X66620185Y-34319586D01*
X66624032Y-34315449D01*
X66625165Y-34312405D01*
X66650099Y-34287426D01*
X66666932Y-34274801D01*
X66732374Y-34250324D01*
X66741333Y-34250000D01*
X68037610Y-34250000D01*
X68093062Y-34263090D01*
G37*
%TD.AperFunction*%
%TD*%
%TA.AperFunction,Conductor*%
%TO.N,GND*%
G36*
X113318745Y-40900185D02*
G01*
X113331080Y-40909233D01*
X113500000Y-41050000D01*
X113876000Y-41050000D01*
X113943039Y-41069685D01*
X113988794Y-41122489D01*
X114000000Y-41174000D01*
X114000000Y-41426000D01*
X113980315Y-41493039D01*
X113927511Y-41538794D01*
X113876000Y-41550000D01*
X113749999Y-41550000D01*
X113500000Y-41799999D01*
X113500000Y-42248638D01*
X113480315Y-42315677D01*
X113463681Y-42336319D01*
X113286319Y-42513681D01*
X113224996Y-42547166D01*
X113198638Y-42550000D01*
X112801362Y-42550000D01*
X112734323Y-42530315D01*
X112713681Y-42513681D01*
X112536319Y-42336319D01*
X112502834Y-42274996D01*
X112500000Y-42248638D01*
X112500000Y-41101362D01*
X112508644Y-41071921D01*
X112515168Y-41041935D01*
X112518922Y-41036919D01*
X112519685Y-41034323D01*
X112536319Y-41013681D01*
X112633181Y-40916819D01*
X112694504Y-40883334D01*
X112720862Y-40880500D01*
X113251706Y-40880500D01*
X113318745Y-40900185D01*
G37*
%TD.AperFunction*%
%TD*%
%TA.AperFunction,Conductor*%
%TO.N,GND*%
G36*
X108304524Y-22820705D02*
G01*
X108325756Y-22837932D01*
X108328063Y-22840270D01*
X108328067Y-22840274D01*
X108385427Y-22880139D01*
X108385433Y-22880142D01*
X108385437Y-22880145D01*
X108423950Y-22899445D01*
X108463172Y-22919102D01*
X108463175Y-22919103D01*
X108463179Y-22919105D01*
X108659303Y-22984480D01*
X108706977Y-22996212D01*
X108706979Y-22996212D01*
X108706982Y-22996213D01*
X108746195Y-23002576D01*
X108779516Y-23005261D01*
X108795123Y-23006520D01*
X108795126Y-23006520D01*
X109873584Y-23006520D01*
X109890338Y-23007657D01*
X110510127Y-23092173D01*
X110573891Y-23120735D01*
X110604281Y-23159582D01*
X110724818Y-23400655D01*
X110736549Y-23424117D01*
X110761909Y-23474838D01*
X110775000Y-23530292D01*
X110775000Y-25149658D01*
X110755315Y-25216697D01*
X110738681Y-25237339D01*
X110411319Y-25564701D01*
X110349996Y-25598186D01*
X110323638Y-25601020D01*
X109112544Y-25601020D01*
X109045505Y-25581335D01*
X109043761Y-25580194D01*
X108705717Y-25354831D01*
X108660856Y-25301266D01*
X108650500Y-25251657D01*
X108650500Y-25076713D01*
X108650500Y-25076711D01*
X108619799Y-24962134D01*
X108619797Y-24962130D01*
X108594731Y-24918714D01*
X108560493Y-24859412D01*
X108560487Y-24859404D01*
X108511319Y-24810236D01*
X108477834Y-24748913D01*
X108475000Y-24722555D01*
X108475000Y-23801020D01*
X108175000Y-23401020D01*
X107642898Y-23401020D01*
X107634662Y-23400634D01*
X107634662Y-23400655D01*
X107631777Y-23400520D01*
X107631766Y-23400520D01*
X106498234Y-23400520D01*
X106498223Y-23400520D01*
X106495338Y-23400655D01*
X106495337Y-23400634D01*
X106487102Y-23401020D01*
X105367898Y-23401020D01*
X105359662Y-23400634D01*
X105359662Y-23400655D01*
X105356777Y-23400520D01*
X105356766Y-23400520D01*
X104223234Y-23400520D01*
X104223223Y-23400520D01*
X104220338Y-23400655D01*
X104220337Y-23400634D01*
X104212102Y-23401020D01*
X103565000Y-23401020D01*
X103571955Y-25140015D01*
X103554144Y-25201584D01*
X103554959Y-25202015D01*
X103552883Y-25205941D01*
X103552539Y-25207133D01*
X103551298Y-25208941D01*
X103550616Y-25210231D01*
X103507259Y-25334138D01*
X103507258Y-25334140D01*
X103504500Y-25363558D01*
X103504500Y-25838470D01*
X103504501Y-25838476D01*
X103507259Y-25867899D01*
X103507259Y-25867901D01*
X103507260Y-25867902D01*
X103514864Y-25889632D01*
X103518427Y-25959410D01*
X103497023Y-26004988D01*
X103312200Y-26251420D01*
X103256229Y-26293241D01*
X103213000Y-26301020D01*
X100711109Y-26301020D01*
X100644536Y-26281634D01*
X99632427Y-25637564D01*
X99586437Y-25584965D01*
X99575000Y-25532950D01*
X99575000Y-23964833D01*
X99594685Y-23897794D01*
X99626926Y-23863930D01*
X100242664Y-23424117D01*
X100308658Y-23401169D01*
X100314738Y-23401020D01*
X101675000Y-23401020D01*
X102189570Y-23057973D01*
X102209481Y-23047187D01*
X102435744Y-22950217D01*
X102514313Y-22916546D01*
X102563158Y-22906520D01*
X102830803Y-22906520D01*
X102833662Y-22906453D01*
X102845106Y-22906185D01*
X102845726Y-22906155D01*
X102851530Y-22906020D01*
X103278472Y-22906020D01*
X103284275Y-22906155D01*
X103284896Y-22906185D01*
X103299198Y-22906520D01*
X104294316Y-22906520D01*
X104294324Y-22906520D01*
X104334199Y-22903907D01*
X104366292Y-22899682D01*
X104405486Y-22891885D01*
X104430267Y-22885244D01*
X104462360Y-22881020D01*
X104487640Y-22881020D01*
X104519732Y-22885244D01*
X104544514Y-22891885D01*
X104583708Y-22899682D01*
X104615801Y-22903907D01*
X104655676Y-22906520D01*
X104655684Y-22906520D01*
X105323639Y-22906520D01*
X105325559Y-22906417D01*
X105356297Y-22904769D01*
X105382655Y-22901935D01*
X105389660Y-22901100D01*
X105496407Y-22866317D01*
X105496620Y-22866201D01*
X105557730Y-22832832D01*
X105567184Y-22825755D01*
X105632647Y-22801336D01*
X105641497Y-22801020D01*
X108237485Y-22801020D01*
X108304524Y-22820705D01*
G37*
%TD.AperFunction*%
%TD*%
%TA.AperFunction,Conductor*%
%TO.N,GND*%
G36*
X100033087Y-46469685D02*
G01*
X100078842Y-46522489D01*
X100081179Y-46527948D01*
X100177545Y-46768863D01*
X100184166Y-46838418D01*
X100183558Y-46841374D01*
X100182289Y-46847181D01*
X100179500Y-46876929D01*
X100179500Y-47323070D01*
X100182289Y-47352814D01*
X100182291Y-47352826D01*
X100226147Y-47478157D01*
X100230490Y-47486373D01*
X100229205Y-47487051D01*
X100249741Y-47543269D01*
X100250000Y-47551278D01*
X100250000Y-47852416D01*
X100230315Y-47919455D01*
X100218168Y-47935368D01*
X99800000Y-48399999D01*
X99800000Y-48895113D01*
X99780315Y-48962152D01*
X99763681Y-48982794D01*
X98782794Y-49963681D01*
X98721471Y-49997166D01*
X98695113Y-50000000D01*
X97720207Y-50000000D01*
X97653168Y-49980315D01*
X97613878Y-49939797D01*
X97367671Y-49529451D01*
X97350000Y-49465654D01*
X97350000Y-47362542D01*
X97369685Y-47295503D01*
X97400293Y-47262826D01*
X98467148Y-46474282D01*
X98532759Y-46450264D01*
X98540852Y-46450000D01*
X99966048Y-46450000D01*
X100033087Y-46469685D01*
G37*
%TD.AperFunction*%
%TD*%
%TA.AperFunction,Conductor*%
%TO.N,GND*%
G36*
X81715677Y-44919685D02*
G01*
X81736319Y-44936319D01*
X82700000Y-45900000D01*
X83397181Y-45900000D01*
X83464220Y-45919685D01*
X83509975Y-45972489D01*
X83519037Y-46001042D01*
X83627446Y-46576447D01*
X83629513Y-46603779D01*
X83601980Y-47383850D01*
X83579943Y-47450153D01*
X83565738Y-47467157D01*
X83169216Y-47863681D01*
X83107893Y-47897166D01*
X83081535Y-47900000D01*
X81051362Y-47900000D01*
X81021921Y-47891355D01*
X80991935Y-47884832D01*
X80986919Y-47881077D01*
X80984323Y-47880315D01*
X80963681Y-47863681D01*
X80936319Y-47836319D01*
X80902834Y-47774996D01*
X80900000Y-47748638D01*
X80900000Y-46099999D01*
X80655217Y-45936811D01*
X80610356Y-45883246D01*
X80600000Y-45833637D01*
X80600000Y-45166362D01*
X80602255Y-45158682D01*
X80600983Y-45150780D01*
X80611957Y-45125639D01*
X80619685Y-45099323D01*
X80626447Y-45092445D01*
X80628936Y-45086745D01*
X80655214Y-45063190D01*
X80838011Y-44941326D01*
X80904711Y-44920518D01*
X80906794Y-44920500D01*
X81243070Y-44920500D01*
X81256289Y-44919260D01*
X81272819Y-44917710D01*
X81303544Y-44906958D01*
X81344499Y-44900000D01*
X81648638Y-44900000D01*
X81715677Y-44919685D01*
G37*
%TD.AperFunction*%
%TD*%
%TA.AperFunction,Conductor*%
%TO.N,GND*%
G36*
X87066177Y-270185D02*
G01*
X87086819Y-286819D01*
X87308181Y-508181D01*
X87341666Y-569504D01*
X87344500Y-595862D01*
X87344500Y-1385438D01*
X87349433Y-1436031D01*
X87350256Y-1444465D01*
X87359516Y-1491490D01*
X87367845Y-1524153D01*
X87367846Y-1524155D01*
X87400000Y-1584484D01*
X87400000Y-1600000D01*
X87408269Y-1600000D01*
X87420652Y-1623233D01*
X87464285Y-1677804D01*
X87464289Y-1677807D01*
X87464291Y-1677810D01*
X87527694Y-1737294D01*
X87527693Y-1737294D01*
X87527695Y-1737296D01*
X87527698Y-1737298D01*
X87796819Y-1925682D01*
X87814806Y-1948178D01*
X87835008Y-1968702D01*
X87837530Y-1976599D01*
X87840452Y-1980253D01*
X87847081Y-2001867D01*
X87848502Y-2008660D01*
X87848817Y-2012386D01*
X87855776Y-2053342D01*
X87866787Y-2096030D01*
X87867371Y-2098821D01*
X87867142Y-2101699D01*
X87870000Y-2124221D01*
X87870000Y-2502972D01*
X87869458Y-2514554D01*
X87868491Y-2524850D01*
X87868491Y-2524857D01*
X87872372Y-2609588D01*
X87872372Y-2609591D01*
X87878954Y-2644749D01*
X87878228Y-2651939D01*
X87880755Y-2658712D01*
X87874768Y-2686239D01*
X87871941Y-2714266D01*
X87867079Y-2721593D01*
X87865907Y-2726985D01*
X87844757Y-2755241D01*
X87836323Y-2763676D01*
X87775002Y-2797165D01*
X87748637Y-2800000D01*
X87251362Y-2800000D01*
X87184323Y-2780315D01*
X87163681Y-2763681D01*
X87000000Y-2600000D01*
X86324000Y-2600000D01*
X86256961Y-2580315D01*
X86211206Y-2527511D01*
X86200000Y-2476000D01*
X86200000Y-2000000D01*
X85836319Y-1636319D01*
X85802834Y-1574996D01*
X85800000Y-1548638D01*
X85800000Y-651362D01*
X85819685Y-584323D01*
X85836319Y-563681D01*
X86113181Y-286819D01*
X86174504Y-253334D01*
X86200862Y-250500D01*
X86999138Y-250500D01*
X87066177Y-270185D01*
G37*
%TD.AperFunction*%
%TD*%
%TA.AperFunction,Conductor*%
%TO.N,GND*%
G36*
X68833087Y-32469685D02*
G01*
X68878842Y-32522489D01*
X68881175Y-32527939D01*
X69041131Y-32927828D01*
X69050000Y-32973879D01*
X69050000Y-33776120D01*
X69048588Y-33783449D01*
X69049442Y-33787871D01*
X69041131Y-33822171D01*
X69032713Y-33843217D01*
X68987706Y-33955734D01*
X68944531Y-34010668D01*
X68878511Y-34033539D01*
X68860421Y-34032032D01*
X68860331Y-34032994D01*
X68823070Y-34029500D01*
X68823066Y-34029500D01*
X68376934Y-34029500D01*
X68371773Y-34029983D01*
X68355034Y-34031553D01*
X68288007Y-34019003D01*
X67950001Y-33850000D01*
X67950000Y-33850000D01*
X66793497Y-33850000D01*
X66770398Y-33843217D01*
X66746452Y-33840729D01*
X66731045Y-33831662D01*
X66726458Y-33830315D01*
X66716035Y-33822828D01*
X66546538Y-33687230D01*
X66506486Y-33629979D01*
X66500000Y-33590402D01*
X66500000Y-33400000D01*
X66486319Y-33386319D01*
X66452834Y-33324996D01*
X66450000Y-33298638D01*
X66450000Y-32701362D01*
X66458644Y-32671921D01*
X66465168Y-32641935D01*
X66468922Y-32636919D01*
X66469685Y-32634323D01*
X66486319Y-32613681D01*
X66613681Y-32486319D01*
X66675004Y-32452834D01*
X66701362Y-32450000D01*
X68766048Y-32450000D01*
X68833087Y-32469685D01*
G37*
%TD.AperFunction*%
%TD*%
%TA.AperFunction,Conductor*%
%TO.N,GND*%
G36*
X80096118Y-63883292D02*
G01*
X80135959Y-63924737D01*
X80182880Y-64004503D01*
X80200000Y-64067373D01*
X80200000Y-65552198D01*
X80194644Y-65570437D01*
X80194274Y-65589445D01*
X80185003Y-65603269D01*
X80180315Y-65619237D01*
X80165949Y-65631685D01*
X80155361Y-65647475D01*
X80129006Y-65663696D01*
X80127511Y-65664992D01*
X80125304Y-65665975D01*
X80065537Y-65691873D01*
X79923590Y-65753384D01*
X79874289Y-65763607D01*
X78247145Y-65763607D01*
X78180106Y-65743922D01*
X78164764Y-65732286D01*
X78072118Y-65649934D01*
X78035090Y-65590683D01*
X78030499Y-65557260D01*
X78030499Y-65292544D01*
X78027741Y-65263121D01*
X78026958Y-65260882D01*
X78020000Y-65219930D01*
X78020000Y-64036536D01*
X78024064Y-64021230D01*
X78023367Y-64007838D01*
X78036336Y-63975018D01*
X78064298Y-63926084D01*
X78114651Y-63877645D01*
X78171960Y-63863607D01*
X80029079Y-63863607D01*
X80096118Y-63883292D01*
G37*
%TD.AperFunction*%
%TD*%
%TA.AperFunction,Conductor*%
%TO.N,GND*%
G36*
X92779452Y-90967671D02*
G01*
X92939797Y-91063878D01*
X92987156Y-91115249D01*
X93000000Y-91170207D01*
X93000000Y-93265402D01*
X92999289Y-93267822D01*
X92999904Y-93270268D01*
X92989500Y-93301158D01*
X92980315Y-93332441D01*
X92978160Y-93334831D01*
X92977604Y-93336483D01*
X92953463Y-93362229D01*
X92908966Y-93397827D01*
X92844320Y-93424336D01*
X92831503Y-93425000D01*
X91110563Y-93425000D01*
X91044843Y-93406152D01*
X90933280Y-93336425D01*
X90886864Y-93284201D01*
X90875000Y-93231273D01*
X90875000Y-93000001D01*
X90874998Y-92999997D01*
X90734255Y-92802956D01*
X90715520Y-92785119D01*
X90712390Y-92779359D01*
X90708528Y-92771780D01*
X90708525Y-92771777D01*
X90708523Y-92771774D01*
X90613225Y-92676476D01*
X90613221Y-92676473D01*
X90613220Y-92676472D01*
X90493126Y-92615281D01*
X90493124Y-92615280D01*
X90493121Y-92615279D01*
X90393493Y-92599500D01*
X90393488Y-92599500D01*
X89126512Y-92599500D01*
X89126507Y-92599500D01*
X89026878Y-92615279D01*
X88906778Y-92676473D01*
X88906774Y-92676476D01*
X88811473Y-92771777D01*
X88809943Y-92773884D01*
X88807426Y-92775824D01*
X88804571Y-92778680D01*
X88804202Y-92778311D01*
X88754613Y-92816551D01*
X88709624Y-92825000D01*
X88700001Y-92825000D01*
X88700000Y-92825000D01*
X88587116Y-92956698D01*
X88528541Y-92994788D01*
X88492968Y-93000000D01*
X86801362Y-93000000D01*
X86734323Y-92980315D01*
X86713681Y-92963681D01*
X86536319Y-92786319D01*
X86502834Y-92724996D01*
X86500000Y-92698638D01*
X86500000Y-92098317D01*
X86519685Y-92031278D01*
X86564239Y-91989668D01*
X86913828Y-91797394D01*
X86972093Y-91765349D01*
X87031851Y-91750000D01*
X87706923Y-91750000D01*
X87747878Y-91756958D01*
X87807181Y-91777710D01*
X87822057Y-91779105D01*
X87836930Y-91780500D01*
X87836934Y-91780500D01*
X88283070Y-91780500D01*
X88296289Y-91779260D01*
X88312819Y-91777710D01*
X88372121Y-91756958D01*
X88413077Y-91750000D01*
X88650000Y-91750000D01*
X88740410Y-91677672D01*
X88762684Y-91668538D01*
X88782937Y-91655523D01*
X88800629Y-91652979D01*
X88805056Y-91651164D01*
X88817872Y-91650500D01*
X88834795Y-91650500D01*
X88901834Y-91670185D01*
X88906555Y-91673412D01*
X88906777Y-91673525D01*
X88906780Y-91673528D01*
X89026874Y-91734719D01*
X89026876Y-91734719D01*
X89026878Y-91734720D01*
X89126507Y-91750500D01*
X89126512Y-91750500D01*
X90393493Y-91750500D01*
X90493121Y-91734720D01*
X90493121Y-91734719D01*
X90493126Y-91734719D01*
X90613220Y-91673528D01*
X90636248Y-91650500D01*
X90700430Y-91586319D01*
X90761753Y-91552834D01*
X90788111Y-91550000D01*
X90800000Y-91550000D01*
X90800000Y-91196222D01*
X90803304Y-91184969D01*
X90802137Y-91173300D01*
X90812968Y-91152057D01*
X90819685Y-91129183D01*
X90829353Y-91119922D01*
X90833875Y-91111055D01*
X90861518Y-91089114D01*
X91071044Y-90966891D01*
X91133524Y-90950000D01*
X92715655Y-90950000D01*
X92779452Y-90967671D01*
G37*
%TD.AperFunction*%
%TD*%
%TA.AperFunction,Conductor*%
%TO.N,/[1] MCU/VDDA*%
G36*
X68030721Y-40356959D02*
G01*
X68147173Y-40397708D01*
X68147177Y-40397708D01*
X68147181Y-40397710D01*
X68162057Y-40399105D01*
X68176930Y-40400500D01*
X68599138Y-40400500D01*
X68628578Y-40409144D01*
X68658565Y-40415668D01*
X68663580Y-40419422D01*
X68666177Y-40420185D01*
X68686819Y-40436819D01*
X68813681Y-40563681D01*
X68847166Y-40625004D01*
X68850000Y-40651362D01*
X68850000Y-41020763D01*
X68830315Y-41087802D01*
X68778095Y-41133289D01*
X67499999Y-41724999D01*
X67362060Y-42989448D01*
X67335221Y-43053957D01*
X67277766Y-43093715D01*
X67238791Y-43100000D01*
X66925000Y-43100000D01*
X66500000Y-43100000D01*
X66329500Y-43100000D01*
X66262461Y-43080315D01*
X66216706Y-43027511D01*
X66205500Y-42976000D01*
X66205500Y-42329271D01*
X66201962Y-42298887D01*
X66197327Y-42259082D01*
X66184236Y-42203628D01*
X66160157Y-42137194D01*
X66160155Y-42137190D01*
X66118591Y-42054061D01*
X66105500Y-41998607D01*
X66105500Y-40851361D01*
X66105390Y-40849320D01*
X66103749Y-40818703D01*
X66100915Y-40792345D01*
X66100080Y-40785340D01*
X66092345Y-40761604D01*
X66090292Y-40691767D01*
X66113414Y-40645731D01*
X66312770Y-40396537D01*
X66370020Y-40356486D01*
X66409597Y-40350000D01*
X67989766Y-40350000D01*
X68030721Y-40356959D01*
G37*
%TD.AperFunction*%
%TD*%
%TA.AperFunction,Conductor*%
%TO.N,GND*%
G36*
X91103349Y-1500181D02*
G01*
X91907693Y-1543659D01*
X91973572Y-1566933D01*
X92016410Y-1622130D01*
X92025000Y-1667478D01*
X92025000Y-2551000D01*
X92005315Y-2618039D01*
X91952511Y-2663794D01*
X91901000Y-2675000D01*
X91125000Y-2675000D01*
X90410932Y-2675000D01*
X90389787Y-2668791D01*
X90367804Y-2667258D01*
X90356919Y-2659140D01*
X90343893Y-2655315D01*
X90329463Y-2638661D01*
X90311797Y-2625486D01*
X90301026Y-2605844D01*
X90298138Y-2602511D01*
X90294827Y-2594539D01*
X90268394Y-2524051D01*
X90260499Y-2480516D01*
X90260499Y-1955136D01*
X90257585Y-1930009D01*
X90256511Y-1920745D01*
X90257451Y-1920635D01*
X90255501Y-1906208D01*
X90255500Y-1905918D01*
X90255500Y-1887544D01*
X90255489Y-1884905D01*
X90255471Y-1882821D01*
X90255418Y-1882489D01*
X90255401Y-1877291D01*
X90256580Y-1873220D01*
X90251262Y-1836221D01*
X90250000Y-1818577D01*
X90250000Y-1720870D01*
X90269685Y-1653831D01*
X90279848Y-1640177D01*
X90362884Y-1543302D01*
X90421459Y-1505212D01*
X90457032Y-1500000D01*
X91096655Y-1500000D01*
X91103349Y-1500181D01*
G37*
%TD.AperFunction*%
%TD*%
%TA.AperFunction,Conductor*%
%TO.N,+3V3*%
G36*
X50623542Y-67319685D02*
G01*
X50633965Y-67327172D01*
X51053462Y-67662770D01*
X51093514Y-67720019D01*
X51100000Y-67759597D01*
X51100000Y-68937999D01*
X51080315Y-69005038D01*
X51050400Y-69037199D01*
X50700000Y-69299999D01*
X50700000Y-69870728D01*
X50686909Y-69926182D01*
X50623594Y-70052813D01*
X50587855Y-70124291D01*
X50534273Y-70231454D01*
X50486686Y-70282613D01*
X50423364Y-70300000D01*
X49751362Y-70300000D01*
X49721921Y-70291355D01*
X49691935Y-70284832D01*
X49686919Y-70281077D01*
X49684323Y-70280315D01*
X49663681Y-70263681D01*
X49585614Y-70185614D01*
X49552129Y-70124291D01*
X49556257Y-70056970D01*
X49557710Y-70052819D01*
X49560500Y-70023066D01*
X49560500Y-69576934D01*
X49557710Y-69547181D01*
X49557708Y-69547177D01*
X49557708Y-69547173D01*
X49510783Y-69413072D01*
X49511857Y-69412695D01*
X49500000Y-69364881D01*
X49500000Y-69100000D01*
X49403702Y-68714808D01*
X49400000Y-68684734D01*
X49400000Y-67651362D01*
X49419685Y-67584323D01*
X49436319Y-67563681D01*
X49663681Y-67336319D01*
X49725004Y-67302834D01*
X49751362Y-67300000D01*
X50556503Y-67300000D01*
X50623542Y-67319685D01*
G37*
%TD.AperFunction*%
%TD*%
%TA.AperFunction,Conductor*%
%TO.N,GND*%
G36*
X105202012Y-47761956D02*
G01*
X105208372Y-47764181D01*
X105241059Y-47781455D01*
X105254747Y-47791557D01*
X105254825Y-47791615D01*
X105262811Y-47797311D01*
X105262838Y-47797330D01*
X105269420Y-47801866D01*
X105282349Y-47808024D01*
X105356698Y-47843436D01*
X105356700Y-47843436D01*
X105356705Y-47843439D01*
X105404871Y-47857582D01*
X105423733Y-47863121D01*
X105423734Y-47863121D01*
X105423744Y-47863124D01*
X105509816Y-47875500D01*
X105509819Y-47875500D01*
X105798334Y-47875500D01*
X105798345Y-47875500D01*
X105849523Y-47871183D01*
X105890477Y-47864224D01*
X105940201Y-47851397D01*
X105967174Y-47841958D01*
X106008128Y-47835000D01*
X106351873Y-47835000D01*
X106355959Y-47835694D01*
X106358190Y-47835161D01*
X106392824Y-47841957D01*
X106396148Y-47843120D01*
X106428829Y-47860392D01*
X106454296Y-47879187D01*
X106466215Y-47889198D01*
X106489228Y-47911137D01*
X106530568Y-47944210D01*
X106759047Y-48096530D01*
X106770000Y-48120000D01*
X106793916Y-48119775D01*
X106799300Y-48123365D01*
X106801505Y-48124822D01*
X106803249Y-48125963D01*
X106884433Y-48163439D01*
X106951472Y-48183124D01*
X107037544Y-48195500D01*
X107037547Y-48195500D01*
X108044285Y-48195500D01*
X108044289Y-48195500D01*
X108106318Y-48189137D01*
X108155619Y-48178914D01*
X108215060Y-48160090D01*
X108318428Y-48115296D01*
X108366568Y-48105078D01*
X108885073Y-48100232D01*
X108933082Y-48109421D01*
X109322861Y-48268514D01*
X109377489Y-48312072D01*
X109399896Y-48378251D01*
X109400000Y-48383318D01*
X109400000Y-49440402D01*
X109380315Y-49507441D01*
X109353462Y-49537230D01*
X109033965Y-49792828D01*
X108969319Y-49819336D01*
X108956503Y-49820000D01*
X106817621Y-49820000D01*
X106764991Y-49808277D01*
X105901370Y-49403454D01*
X105849023Y-49357176D01*
X105830000Y-49291177D01*
X105830000Y-48650000D01*
X105829999Y-48649999D01*
X105610000Y-48520000D01*
X105509816Y-48520000D01*
X105442777Y-48500315D01*
X105436195Y-48495779D01*
X105370382Y-48447207D01*
X105242199Y-48402354D01*
X105242198Y-48402353D01*
X105242196Y-48402353D01*
X105211770Y-48399500D01*
X105211766Y-48399500D01*
X104139387Y-48399500D01*
X104109946Y-48390855D01*
X104079960Y-48384332D01*
X104074944Y-48380577D01*
X104072348Y-48379815D01*
X104051706Y-48363181D01*
X104036819Y-48348294D01*
X104003334Y-48286971D01*
X104000500Y-48260613D01*
X104000500Y-47879000D01*
X104020185Y-47811961D01*
X104072989Y-47766206D01*
X104124500Y-47755000D01*
X105161065Y-47755000D01*
X105202012Y-47761956D01*
G37*
%TD.AperFunction*%
%TD*%
%TA.AperFunction,Conductor*%
%TO.N,+3V3*%
G36*
X110490677Y-15320705D02*
G01*
X110511319Y-15337339D01*
X110838681Y-15664701D01*
X110872166Y-15726024D01*
X110875000Y-15752382D01*
X110875000Y-19234657D01*
X110855315Y-19301696D01*
X110819783Y-19337831D01*
X110275000Y-19701019D01*
X110275000Y-22524384D01*
X110270581Y-22539431D01*
X110271134Y-22555104D01*
X110260939Y-22572268D01*
X110255315Y-22591423D01*
X110242991Y-22602487D01*
X110235455Y-22615177D01*
X110206454Y-22635293D01*
X110101182Y-22687929D01*
X110045728Y-22701020D01*
X108795123Y-22701020D01*
X108755911Y-22694657D01*
X108657848Y-22661969D01*
X108559787Y-22629282D01*
X108502413Y-22589407D01*
X108475704Y-22524844D01*
X108475000Y-22511645D01*
X108475000Y-19701020D01*
X108474999Y-19701019D01*
X107743545Y-19335292D01*
X107692387Y-19287705D01*
X107675000Y-19224383D01*
X107675000Y-15760617D01*
X107694685Y-15693578D01*
X107721536Y-15663791D01*
X108141035Y-15328192D01*
X108205681Y-15301684D01*
X108218497Y-15301020D01*
X110423638Y-15301020D01*
X110490677Y-15320705D01*
G37*
%TD.AperFunction*%
%TD*%
%TA.AperFunction,Conductor*%
%TO.N,GND*%
G36*
X113265677Y-33269685D02*
G01*
X113286319Y-33286319D01*
X113463681Y-33463681D01*
X113497166Y-33525004D01*
X113500000Y-33551362D01*
X113500000Y-34250000D01*
X114165212Y-34471737D01*
X114185134Y-34485582D01*
X114207203Y-34495661D01*
X114213309Y-34505163D01*
X114222587Y-34511611D01*
X114231860Y-34534029D01*
X114244977Y-34554439D01*
X114247466Y-34571755D01*
X114249295Y-34576175D01*
X114250000Y-34589374D01*
X114250000Y-34805500D01*
X114230315Y-34872539D01*
X114177511Y-34918294D01*
X114126000Y-34929500D01*
X113765730Y-34929500D01*
X113735300Y-34932353D01*
X113735298Y-34932354D01*
X113620451Y-34972541D01*
X113579496Y-34979500D01*
X112530862Y-34979500D01*
X112501421Y-34970855D01*
X112471435Y-34964332D01*
X112466419Y-34960577D01*
X112463823Y-34959815D01*
X112443181Y-34943181D01*
X112286319Y-34786319D01*
X112252834Y-34724996D01*
X112250000Y-34698638D01*
X112250000Y-33551362D01*
X112269685Y-33484323D01*
X112286319Y-33463681D01*
X112463681Y-33286319D01*
X112525004Y-33252834D01*
X112551362Y-33250000D01*
X113198638Y-33250000D01*
X113265677Y-33269685D01*
G37*
%TD.AperFunction*%
%TD*%
%TA.AperFunction,Conductor*%
%TO.N,VBUS*%
G36*
X102101181Y-21614110D02*
G01*
X102275000Y-21701020D01*
X105323638Y-21701020D01*
X105353078Y-21709664D01*
X105383065Y-21716188D01*
X105388080Y-21719942D01*
X105390677Y-21720705D01*
X105411319Y-21737339D01*
X105538681Y-21864701D01*
X105572166Y-21926024D01*
X105575000Y-21952382D01*
X105575000Y-22349658D01*
X105555315Y-22416697D01*
X105538681Y-22437339D01*
X105411319Y-22564701D01*
X105349996Y-22598186D01*
X105323638Y-22601020D01*
X104655676Y-22601020D01*
X104623583Y-22596795D01*
X104613473Y-22594086D01*
X104544183Y-22575520D01*
X104405817Y-22575520D01*
X104326417Y-22596795D01*
X104294324Y-22601020D01*
X103299198Y-22601020D01*
X103290962Y-22600634D01*
X103290962Y-22600655D01*
X103288077Y-22600520D01*
X103288066Y-22600520D01*
X102841934Y-22600520D01*
X102841923Y-22600520D01*
X102839038Y-22600655D01*
X102839037Y-22600634D01*
X102830802Y-22601020D01*
X102475000Y-22601020D01*
X101798394Y-22890994D01*
X101749548Y-22901020D01*
X100595123Y-22901020D01*
X100592190Y-22900544D01*
X100590641Y-22900939D01*
X100555912Y-22894657D01*
X100457848Y-22861969D01*
X100359787Y-22829282D01*
X100302413Y-22789407D01*
X100275704Y-22724844D01*
X100275000Y-22711645D01*
X100275000Y-21852382D01*
X100294685Y-21785343D01*
X100311319Y-21764701D01*
X100438681Y-21637339D01*
X100500004Y-21603854D01*
X100526362Y-21601020D01*
X102045728Y-21601020D01*
X102101181Y-21614110D01*
G37*
%TD.AperFunction*%
%TD*%
%TA.AperFunction,Conductor*%
%TO.N,/[2] Power/BUCK_SW*%
G36*
X104504495Y-15220705D02*
G01*
X104506239Y-15221846D01*
X105019784Y-15564209D01*
X105064644Y-15617773D01*
X105075000Y-15667382D01*
X105075000Y-19501020D01*
X107827610Y-21663785D01*
X107868163Y-21720681D01*
X107875000Y-21761288D01*
X107875000Y-22324383D01*
X107870582Y-22339428D01*
X107871135Y-22355102D01*
X107860938Y-22372269D01*
X107855315Y-22391422D01*
X107842992Y-22402486D01*
X107835456Y-22415175D01*
X107806456Y-22435291D01*
X107772699Y-22452170D01*
X107703934Y-22464546D01*
X107676289Y-22458304D01*
X107662197Y-22453373D01*
X107631770Y-22450520D01*
X107631766Y-22450520D01*
X106498234Y-22450520D01*
X106498230Y-22450520D01*
X106460288Y-22454078D01*
X106460089Y-22451957D01*
X106439146Y-22450473D01*
X106407438Y-22449941D01*
X106403220Y-22447928D01*
X106401111Y-22447779D01*
X106375584Y-22434742D01*
X106230217Y-22337831D01*
X106185356Y-22284266D01*
X106175000Y-22234657D01*
X106175000Y-21601020D01*
X104175000Y-20001020D01*
X102034598Y-20001020D01*
X101967559Y-19981335D01*
X101937770Y-19954482D01*
X101602172Y-19534985D01*
X101575664Y-19470339D01*
X101575000Y-19457523D01*
X101575000Y-15660617D01*
X101594685Y-15593578D01*
X101621536Y-15563791D01*
X102041035Y-15228192D01*
X102105681Y-15201684D01*
X102118497Y-15201020D01*
X104437456Y-15201020D01*
X104504495Y-15220705D01*
G37*
%TD.AperFunction*%
%TD*%
%TA.AperFunction,Conductor*%
%TO.N,/[2] Power/LDO_IN*%
G36*
X108019775Y-44269685D02*
G01*
X108035272Y-44281459D01*
X108328536Y-44543019D01*
X108365465Y-44602331D01*
X108370000Y-44635559D01*
X108370000Y-47678591D01*
X108364644Y-47696830D01*
X108364274Y-47715838D01*
X108355003Y-47729662D01*
X108350315Y-47745630D01*
X108335949Y-47758078D01*
X108325361Y-47773868D01*
X108299006Y-47790089D01*
X108297511Y-47791385D01*
X108295304Y-47792368D01*
X108235537Y-47818266D01*
X108093590Y-47879777D01*
X108044289Y-47890000D01*
X107037544Y-47890000D01*
X106970505Y-47870315D01*
X106968761Y-47869174D01*
X106700029Y-47690019D01*
X106669040Y-47660476D01*
X106664998Y-47654999D01*
X106558158Y-47576148D01*
X106558157Y-47576147D01*
X106432826Y-47532291D01*
X106432814Y-47532289D01*
X106403070Y-47529500D01*
X106403066Y-47529500D01*
X105956934Y-47529500D01*
X105956930Y-47529500D01*
X105927185Y-47532289D01*
X105927176Y-47532291D01*
X105859364Y-47556020D01*
X105839299Y-47563041D01*
X105798345Y-47570000D01*
X105509816Y-47570000D01*
X105442777Y-47550315D01*
X105436195Y-47545779D01*
X105370382Y-47497207D01*
X105242199Y-47452354D01*
X105242198Y-47452353D01*
X105242196Y-47452353D01*
X105211770Y-47449500D01*
X105211766Y-47449500D01*
X104078234Y-47449500D01*
X104078230Y-47449500D01*
X104047805Y-47452353D01*
X104040430Y-47453964D01*
X104039754Y-47450869D01*
X104020156Y-47451849D01*
X103986187Y-47454079D01*
X103985307Y-47453591D01*
X103984304Y-47453642D01*
X103954827Y-47436715D01*
X103925061Y-47420235D01*
X103924275Y-47419172D01*
X103923714Y-47418850D01*
X103904079Y-47391861D01*
X103874820Y-47337523D01*
X103860000Y-47278738D01*
X103860000Y-46961362D01*
X103879685Y-46894323D01*
X103896319Y-46873681D01*
X103973681Y-46796319D01*
X104035004Y-46762834D01*
X104061362Y-46760000D01*
X105510000Y-46760000D01*
X105688761Y-46640826D01*
X105755460Y-46620018D01*
X105757544Y-46620000D01*
X106560000Y-46620000D01*
X106680000Y-46410000D01*
X106680000Y-44682307D01*
X106699685Y-44615268D01*
X106717458Y-44593502D01*
X107033888Y-44285185D01*
X107095639Y-44252502D01*
X107120421Y-44250000D01*
X107952736Y-44250000D01*
X108019775Y-44269685D01*
G37*
%TD.AperFunction*%
%TD*%
%TA.AperFunction,Conductor*%
%TO.N,/[1] MCU/+3V3_SD*%
G36*
X88827182Y-263591D02*
G01*
X88931454Y-315727D01*
X88982613Y-363314D01*
X89000000Y-426636D01*
X89000000Y-1400000D01*
X89150000Y-1550000D01*
X89683637Y-1550000D01*
X89750676Y-1569685D01*
X89786811Y-1605217D01*
X89929174Y-1818761D01*
X89934786Y-1836752D01*
X89944977Y-1852609D01*
X89949459Y-1883785D01*
X89949982Y-1885460D01*
X89950000Y-1887544D01*
X89950000Y-1943653D01*
X89949543Y-1951543D01*
X89949707Y-1951553D01*
X89949500Y-1955137D01*
X89949500Y-2536730D01*
X89945798Y-2566804D01*
X89923481Y-2656074D01*
X89888125Y-2716338D01*
X89825800Y-2747920D01*
X89803183Y-2750000D01*
X88326636Y-2750000D01*
X88259597Y-2730315D01*
X88215728Y-2681456D01*
X88185205Y-2620410D01*
X88172657Y-2553380D01*
X88175500Y-2523067D01*
X88175500Y-2076929D01*
X88172710Y-2047185D01*
X88172710Y-2047181D01*
X88156959Y-2002167D01*
X88150000Y-1961211D01*
X88150000Y-1800000D01*
X88149999Y-1799999D01*
X87702891Y-1487023D01*
X87659258Y-1432452D01*
X87650000Y-1385438D01*
X87650000Y-412000D01*
X87651270Y-407672D01*
X87650308Y-403266D01*
X87661025Y-374452D01*
X87669685Y-344961D01*
X87673533Y-340823D01*
X87674666Y-337779D01*
X87699600Y-312800D01*
X87749600Y-275300D01*
X87815042Y-250824D01*
X87824000Y-250500D01*
X88771728Y-250500D01*
X88827182Y-263591D01*
G37*
%TD.AperFunction*%
%TD*%
%TA.AperFunction,Conductor*%
%TO.N,GND*%
G36*
X85328591Y-31016337D02*
G01*
X85937522Y-31364298D01*
X85985961Y-31414649D01*
X86000000Y-31471959D01*
X86000000Y-33162456D01*
X85980315Y-33229495D01*
X85979174Y-33231239D01*
X85636811Y-33744783D01*
X85583246Y-33789644D01*
X85533637Y-33800000D01*
X82724000Y-33800000D01*
X82715314Y-33797449D01*
X82706353Y-33798738D01*
X82682312Y-33787759D01*
X82656961Y-33780315D01*
X82651033Y-33773474D01*
X82642797Y-33769713D01*
X82628507Y-33747478D01*
X82611206Y-33727511D01*
X82608918Y-33716996D01*
X82605023Y-33710935D01*
X82600000Y-33676000D01*
X82600000Y-33564498D01*
X82606959Y-33523543D01*
X82617710Y-33492819D01*
X82620500Y-33463066D01*
X82620500Y-33016934D01*
X82617710Y-32987181D01*
X82606958Y-32956453D01*
X82600000Y-32915499D01*
X82600000Y-31568727D01*
X82619685Y-31501688D01*
X82658280Y-31463575D01*
X83369843Y-31018848D01*
X83435563Y-31000000D01*
X85267071Y-31000000D01*
X85328591Y-31016337D01*
G37*
%TD.AperFunction*%
%TD*%
%TA.AperFunction,Conductor*%
%TO.N,GND*%
G36*
X68657370Y-38595185D02*
G01*
X68703125Y-38647989D01*
X68713716Y-38687162D01*
X68842578Y-39975781D01*
X68829661Y-40044446D01*
X68781672Y-40095228D01*
X68713846Y-40112004D01*
X68689605Y-40107982D01*
X68689533Y-40108315D01*
X68685209Y-40107374D01*
X68599138Y-40095000D01*
X68228128Y-40095000D01*
X68187173Y-40088041D01*
X68131627Y-40068604D01*
X68131619Y-40068601D01*
X68081893Y-40055775D01*
X68040937Y-40048816D01*
X67989772Y-40044500D01*
X67989766Y-40044500D01*
X66409597Y-40044500D01*
X66400081Y-40045274D01*
X66360202Y-40048520D01*
X66360188Y-40048522D01*
X66320613Y-40055007D01*
X66297155Y-40059802D01*
X66297150Y-40059804D01*
X66194899Y-40106160D01*
X66164245Y-40127605D01*
X66098030Y-40149905D01*
X66093165Y-40150000D01*
X64350000Y-40150000D01*
X63099000Y-40150000D01*
X63031961Y-40130315D01*
X62986206Y-40077511D01*
X62975000Y-40026000D01*
X62975000Y-39242415D01*
X62982373Y-39217305D01*
X62985988Y-39191383D01*
X62992060Y-39184314D01*
X62994685Y-39175376D01*
X63014460Y-39158240D01*
X63031518Y-39138385D01*
X63044058Y-39132593D01*
X63047489Y-39129621D01*
X63063555Y-39123588D01*
X63204208Y-39081639D01*
X63291277Y-39055672D01*
X63326717Y-39050500D01*
X63709308Y-39050500D01*
X63709309Y-39050500D01*
X63799673Y-39026286D01*
X63823887Y-39019799D01*
X63926614Y-38960489D01*
X64038816Y-38848286D01*
X64091051Y-38817142D01*
X64386180Y-38729121D01*
X64414395Y-38724160D01*
X66959257Y-38575709D01*
X66966478Y-38575500D01*
X68590331Y-38575500D01*
X68657370Y-38595185D01*
G37*
%TD.AperFunction*%
%TD*%
%TA.AperFunction,Conductor*%
%TO.N,+3V3*%
G36*
X65615677Y-40619685D02*
G01*
X65636319Y-40636319D01*
X65763681Y-40763681D01*
X65797166Y-40825004D01*
X65800000Y-40851362D01*
X65800000Y-42100000D01*
X65886909Y-42273818D01*
X65900000Y-42329272D01*
X65900000Y-43170728D01*
X65897028Y-43183317D01*
X65898040Y-43192690D01*
X65886909Y-43226182D01*
X65881595Y-43236811D01*
X65834273Y-43331454D01*
X65786686Y-43382613D01*
X65723364Y-43400000D01*
X64437544Y-43400000D01*
X64370505Y-43380315D01*
X64368761Y-43379174D01*
X64155217Y-43236811D01*
X64110356Y-43183246D01*
X64100000Y-43133637D01*
X64100000Y-40951362D01*
X64119685Y-40884323D01*
X64136319Y-40863681D01*
X64363681Y-40636319D01*
X64425004Y-40602834D01*
X64451362Y-40600000D01*
X65548638Y-40600000D01*
X65615677Y-40619685D01*
G37*
%TD.AperFunction*%
%TD*%
%TA.AperFunction,Conductor*%
%TO.N,GND*%
G36*
X100439451Y-59310229D02*
G01*
X101243334Y-59792559D01*
X101349797Y-59856437D01*
X101397156Y-59907808D01*
X101410000Y-59962766D01*
X101410000Y-60912714D01*
X101390315Y-60979753D01*
X101337511Y-61025508D01*
X101337312Y-61025599D01*
X100334453Y-61481444D01*
X100283141Y-61492559D01*
X99370390Y-61492559D01*
X99329435Y-61485600D01*
X99293066Y-61472874D01*
X99262823Y-61462291D01*
X99262814Y-61462289D01*
X99233070Y-61459500D01*
X99233066Y-61459500D01*
X98786934Y-61459500D01*
X98786930Y-61459500D01*
X98757185Y-61462289D01*
X98757176Y-61462291D01*
X98705905Y-61480232D01*
X98690564Y-61485600D01*
X98686476Y-61486294D01*
X98684545Y-61487536D01*
X98649610Y-61492559D01*
X98593952Y-61492559D01*
X98526913Y-61472874D01*
X98481158Y-61420070D01*
X98478821Y-61414611D01*
X98318869Y-61014731D01*
X98310000Y-60968679D01*
X98310000Y-59826904D01*
X98327671Y-59763107D01*
X98564167Y-59368946D01*
X98615536Y-59321590D01*
X98684355Y-59309523D01*
X98711450Y-59315705D01*
X98714908Y-59316914D01*
X98717181Y-59317710D01*
X98732057Y-59319105D01*
X98746930Y-59320500D01*
X98746934Y-59320500D01*
X99193070Y-59320500D01*
X99206289Y-59319260D01*
X99222819Y-59317710D01*
X99274808Y-59299517D01*
X99315764Y-59292559D01*
X100375655Y-59292559D01*
X100439451Y-59310229D01*
G37*
%TD.AperFunction*%
%TD*%
M02*
